/* XPM */
static char *result[] = {
/* columns rows colors chars-per-pixel */
"50 51 145 2 ",
"   c #000000",
".  c #000408",
"X  c #06090F",
"o  c gray3",
"O  c #110900",
"+  c #000810",
"@  c #0D131F",
"#  c #380F06",
"$  c #301A0F",
"%  c #3C130D",
"&  c #381E12",
"*  c #151D31",
"=  c #202020",
"-  c #2D3139",
";  c #59150D",
":  c #60160C",
">  c #6D190F",
",  c #621E13",
"<  c #533E08",
"1  c #5F341D",
"2  c #442514",
"3  c #742317",
"4  c #61351D",
"5  c #6E520D",
"6  c #7B4315",
"7  c #7B5C10",
"8  c #7D5A1A",
"9  c #6E530C",
"0  c #7A4B2C",
"q  c #202C4A",
"w  c #243154",
"e  c #2C3C66",
"r  c #2E3E6B",
"t  c #4C525F",
"y  c #484E5A",
"u  c #86190C",
"i  c #961C0E",
"p  c #9E1D0E",
"a  c #801F12",
"s  c #AC1E0F",
"d  c #B21E0E",
"f  c #A81F10",
"g  c #8F2B19",
"h  c #9E2012",
"j  c #9E301D",
"k  c #B9200F",
"l  c #AE2213",
"z  c #B32719",
"x  c #B72A19",
"c  c #C4200E",
"v  c #CE200E",
"b  c #C42919",
"n  c #CA2413",
"m  c #D32C1B",
"M  c #D32817",
"N  c #D63D1D",
"B  c #D93221",
"V  c #D53120",
"C  c #814914",
"Z  c #8D5613",
"A  c #8D690E",
"S  c #8F6316",
"D  c #997317",
"F  c #8F5B30",
"G  c #9C5531",
"H  c #AB4421",
"J  c #A35833",
"K  c #A56D39",
"L  c #B7793F",
"P  c #D84521",
"I  c #AD6C41",
"U  c #B8754B",
"Y  c #BE7B50",
"T  c #B68815",
"R  c #B18D33",
"E  c #D19C15",
"W  c #EFB41C",
"Q  c #FEBB14",
"!  c #D79730",
"~  c #CD972C",
"^  c #CEA02C",
"/  c #E5AB26",
"(  c #E4B12F",
")  c #EBB328",
"_  c #F0B523",
"`  c #FFC73F",
"'  c #FFC83F",
"]  c #BBA875",
"[  c #C68D58",
"{  c #C48155",
"}  c #CF965F",
"|  c #EC8A42",
" . c #D59B66",
".. c #DCA26C",
"X. c #C2AE77",
"o. c #C6B177",
"O. c #CAB477",
"+. c #CCB579",
"@. c #CBB579",
"#. c #D4BC7B",
"$. c #D8BF7C",
"%. c #E6AB74",
"&. c #FFC941",
"*. c #D7C07F",
"=. c #DAC17E",
"-. c #FFD366",
";. c #3A4F87",
":. c #747C8E",
">. c #4E6AB3",
",. c #9DA7BE",
"<. c #CEB981",
"1. c #D4BE82",
"2. c #D6C084",
"3. c #DCC483",
"4. c #D7C28A",
"5. c #DCC68A",
"6. c #DFC88C",
"7. c #DBC792",
"8. c #DEC992",
"9. c #DFCC9A",
"0. c #E0C783",
"q. c #E3CA85",
"w. c #E9CE87",
"e. c #E3CC8B",
"r. c #E8CF8A",
"t. c #FFC38C",
"y. c #E7D08F",
"u. c #EAD18E",
"i. c #E3CD92",
"p. c #E2CE99",
"a. c #E6D094",
"s. c #EAD394",
"d. c #E6D29A",
"f. c #EBD59B",
"g. c #EED89E",
"h. c #E6D4A2",
"j. c #EBD6A1",
"k. c #EED9A3",
"l. c #EEDBA9",
"z. c #F0DDAA",
"x. c #F1DFB1",
"c. c #F1E0AF",
"v. c #F2E1B4",
"b. c #D2DEFC",
"n. c #CDD9F7",
/* pixels */
"a.3.5.i.5.3.6.g.2.e.s.f.s.#.l.3.7.f.2.f.7.d.4.d.q.e.f.2.u.s.u.w.q.e.3.5.0.w.p.2.q.s.q.i.w.d.3.a.s.=.",
"6.f.] f.                5.a.3.6.f.q.s.3.6.p.s.$.i.k.r.=.r.5.=.l.=.=.y.q.q.s.2.a.5.5.i.=.f.3.f.f.3.s.",
"=.u.q.  < ' ' ' &./ E <   u.z.#.e.f.#.s.q.s.q.0.l.$.i.0.l.r.#.6.=.f.3.a.#.g.2.w.6.r.s.e.a.s.w.p.j.q.",
"r.=.  A ' 8 8 H H C S E <   w.5.k.#.f.i.$.0.f.e.d.3.f.g.$.4.f.O.5.k.e.e.#.9.i.=.f.q.s.s.y.r.6.u.q.s.",
"e.  < E 8 R ` ` ! 7 , < D <   q.k.+.f.6.$.k.u.o.z.O.f.p.2.d.1.p.1.f.e.w.$.a.s.i.5.s.s.i.r.4.f.u.s.s.",
"s.  E 8 R -./ Q W ! 7 % < D   q.3.y.u.s.#.d.s.2.i.3.f.q.2.k.#.e.q.q.e.q.f.e.6.i.f.=.g.0.s.d.3.5.3.s.",
"e.  ' 8 -.' Q ' Q ! 7 , % T <   g.$.r.p.a.5.e.i.3.f.#.s.2.5.d.1.g.$.e.a.2.e.f.s.3.q.f.f.r.q.f.=.w.5.",
"w.  ' 3 -.) _ ) &.! 7 , % T D   3.8.5.q.q.s.f.#.q.d.1.s.f.$.e.4.5.e.a.r.e.q.r.z.5.3.k.=.f.w.3.0.s.+.",
"5.  ' 3 ~ -.-.&./ R 3 3 , T D   i.i.q.2.g.0.f.$.s.i.3.4.i.s.$.=.s.d.$.q.k.5.f.k.3.f.$.s.h.e.*.#.a.q.",
"#.  D g P | | | | z j , C T 5   2.r.2.s.2.s.5.5.e.r.i.0.e.$.s.1.e.e.2.k.e.=.i.k.5.j.*.d.q.q.e.6.#.s.",
"e.q.  ^ g N N N N v 3 6 E T <         u.q.0.s.r.3.i.$.f.+.r.i.e.w.r.2.w.l.f.3.a.r.6.7.2.8.5.a.6.r.e.",
"1.e.  < ' D Z 6 6 6 Z E ( < O   > K K X   u.q.5.j.$.d.1.g.q.+.i.0.=.k.r.z.5.u.s.=.q.s.$.r.q.q.l.d.e.",
"i.s.$.  < ' ' -.-.-.' ( 9 = # > l t.t.[ 2   3.s.$.0.r.i.o.i.i.i.q.r.q.f.7.j.4.s.6.$.s.5.5.i.y.p.p.2.",
"q.s.$.q.  & D D D D 9 < = # > V f K [ [ [ G . $.k.1.6.q.e.1.d.2.d.0.0.s.e.j.$.z.=.$.s.2.r.g.5.f.u.3.",
"e.$.e.f.  G 4 > = = = = > > f V B 4 K F [ t.G . s.3.p.3.d.@.s.$.a.5.g.0.f.r.2.f.#.5.k.#.c.s.q.f.o.y.",
"p.=.e.s.f.  t.u u c l f f f d k B m 1 1 F } } G     3.=.=.j.q.p.q.q.r.f.q.p.4.5.q.q.0.e.k.2.v.#.5.q.",
"3.q.i.2.i.  G G u M c v v v v k k B l 1 $ 4 K t.} G       q.5.2.k.2.h.9.i.$.s.$.i.r.e.i.y.r.g.3.$.2.",
"q.=.5.f.q.3.  t.1 i B c v v v c c c B f : % 4 K ..t.} 1 G   e.=.u.a.3.u.h.q.r.5.a.<.k.q.s.=.s.e.=.$.",
"r.q.p.1.j.3.  G I 1 p m c c c c k k c p f : :   1 K %.t.t.Y   3.*.k.=.r.w.s.2.2.e.d.w.f.3.0.a.q.3.h.",
"$.s.=.k.7.=.g.  [ $ u z m v c k k v M s v i ; u . $ 1 L t.J   f.g.q.2.g.e.#.q.e.a.2.g.s.q.e.#.y.6.c.",
"i.5.r.f.r.0.r.  G I & ; x M v B m m c c m z i z *     4 J 4   2.l.5.a.6.r.3.u.$.a.f.d.9.1.3.=.q.z.q.",
"#.2.s.q.5.i.e.q.  G G   ; p s c n v c B v z l b * * .       q.j.r.e.a.=.q.3.i.a.q.s.r.a.q.0.d.2.f.0.",
"r.5.i.e.3.q.e.p.e.        u V v V B B v z l b u e w * .   2.f.s.5.s.5.$.f.<.e.s.g.3.f.$.d.*.7.j.$.q.",
"d.5.$.k.#.5.s.i.q.f.e.6.f.  u z d d d d m b 3 e ;.;.w * t   0.e.f.e.i.$.q.i.r.u.f.e.3.6.5.g.#.a.e.j.",
"u.s.$.r.3.k.3.e.5.s.k.q.7.5.  p m m m m p a e >.>.;.;.w t t   s.g.s.q.o.q.a.i.u.e.u.3.0.f.2.f.e.s.2.",
"2.f.#.k.0.5.f.d.q.q.5.q.a.i.3.  ;.>.>.w q * w r >.>.e * :.t   s.a.2.6.6.s.+.s.u.q.f.3.r.3.r.g.$.g.s.",
"f.=.0.s.i.i.i.e.e.k.q.q.i.1.d.  * w w w y :.X @ w w * :.,.t   r.k.$.6.q.=.g.2.l.$.i.5.g.3.q.=.s.z.=.",
"0.k.s.$.d.a.$.s.e.l.u.#.i.i.#.s.+ ,.b.b.n.:.- X :.,.b.b.:.&   .     s.r.+.k.=.g.r.5.0.i.3.d.y.z.+.5.",
"=.f.e.s.5.d.i.i.0.g.=.f.q.1.2.w.q.. & 1 1 & & 1 . . & & 4 G   4 t.U   X.s.s.5.k.5.#.e.=.f.s.q.d.i.$.",
"g.u.e.d.q.i.e.j.5.5.5.a.i.$.q.$.3.e.  & G G & & & G   1 [ [ & 0 1 [   2.s.w.s.5.s.6.#.e.d.h.5.q.3.i.",
"r.3.k.6.e.d.4.f.i.r.d.+.s.#.5.=.3.a.#.. 1 t...I %.4   . 1 t...I %.4   s.5.a.f.q.3.q.q.$.g.5.k.$.e.a.",
"e.r.#.f.r.s.u.=.e.d.=.a.#.1.5.a.o.g.$.7.  G t... .U   5.  G t.....U   r.e.a.i.q.$.0.7.s.=.f.d.e.2.q.",
"2.r.e.r.u.f.q.e.e.1.6.5.1.5.q.p.O.d.1.i.3.  J t.t.G   r.5.  G t.t.G   u.f.q.k.5.3.q.=.i.p.e.f.5.4.6.",
"0.f.0.g.2.a.#.q.w.k.O.w.#.d.q.X.z.$.q.q.k.  & { G &   =.q.  & { G &   s.u.r.f.X.e.3.q.k.$.s.r.r.h.q.",
"3.k.u.O.c.@.p.1.q.q.i.3.6.=.s.#.3.k.u.1.u.f.    o   3.$.e.g.        2.g.3.f.=.5.q.s.=.r.f.3.=.r.a.=.",
"q.5.e.d.r.+.q.s.5.$.3.s.3.#.u.d.s.0.3.a.k.+.k.0.3.q.e.i.$.q.5.#.u.j.q.q.0.k.q.g.=.q.k.a.3.e.s.q.3.#.",
"3.d.3.f.r.#.g.+.1.i.#.y.r.4.i.i.f.q.a.e.1.g.#.u.q.q.=.$.s.2.5.q.0.v.$.3.q.f.q.e.a.+.l.0.3.k.+.=.l.2.",
"i.q.q.5.0.s.3.r.q.$.g.e.1.l.$.f.0.s.a.0.=.s.1.3.f.$.2.r.q.2.s.q.e.q.i.l.e.X.s.u.3.a.6.y.w.a.=.6.w.$.",
"q.f.$.e.0.q.1.1.w.p.p.=.g.f.2.q.a.1.w.q.$.s.0.1.$.q.8.d.q.$.y.e.g.r.s.4.5.q.q.=.u.e.a.k.3.f.] j.=.p.",
"+.q.u.q.=.q.q.q.r.3.k.e.a.e.e.2.l.$.e.#.k.#.3.0.e.$.d.i.#.g.w.5.j.3.3.e.q.g.+.5.r.u.k.r.6.q.w.=.=.a.",
"0.w.y.1.0.i.q.+.g.i.f.q.$.g.r.8.a.q.1.#.q.p.3.#.e.e.1.f.0.s.y.w.a.e.a.q.6.5.#.e.u.u.a.0.a.5.7.*.e.e.",
"0.s.1.0.e.3.=.d.3.f.e.e.0.z.3.q.1.e.e.e.$.3.f.0.1.q.d.p.0.f.1.f.y.3.g.@.q.e.=.s.a.a.0.a.3.=.6.e.=.k.",
"i.e.<.i.#.s.e.i.e.i.5.e.k.#.d.$.0.0.e.q.0.a.$.e.a.a.g.y.w.1.u.3.l.$.f.#.q.=.s.6.r.g.*.s.a.+.6.q.e.g.",
"1.i.#.y.s.1.s.a.#.g.p.3.r.i.$.g.$.e.3.0.3.0.s.e.f.1.w.z.1.p.s.e.q.=.2.a.o.s.a.7.7.a.a.3.6.q.2.d.2.j.",
"<.q.u.e.#.k.a.q.0.f.d.4.1.$.j.0.#.0.u.e.e.f.1.g.s.e.d.1.q.f.3.1.3.a.#.7.e.a.3.h.e.g.#.s.0.=.a.5.e.i.",
"s.e.$.k.s.=.y.e.a.k.] k.e.0.3.5.q.0.e.a.1.f.q.k.q.y.u.f.+.i.i.o.q.s.5.s.2.a.s.*.g.8.q.*.3.q.r.w.r.l.",
"$.s.s.u.a.+.f.q.s.y.q.$.j.+.a.o.a.w.e.a.f.e.1.g.5.p.e.s.#.q.$.e.a.e.=.a.q.q.d.e.y.s.3.#.a.w.e.e.d.6.",
"w.+.d.y.s.d.1.s.s.3.3.e.e.1.r.3.0.q.k.1.3.f.7.e.e.i.q.e.1.5.y.$.d.8.=.e.3.l.a.e.$.e.*.e.f.3.e.d.3.l.",
"#.k.1.j.3.j.1.k.$.f.+.0.e.e.e.e.1.w.u.j.$.d.0.s.q.0.q.1.5.s.1.s.#.6.s.d.5.l.O.k.3.3.=.s.5.s.i.f.q.3.",
"$.k.1.p.i.i.e.s.1.r.0.s.3.$.d.e.3.q.f.e.s.y.y.#.f.1.a.0.1.0.f.e.r.@.k.d.6.3.y.g.3.#.=.a.a.2.z.3.6.e.",
"u.q.e.f.0.r.1.f.3.e.u.<.e.q.w.q.p.y.e.e.f.$.e.e.q.u.0.$.$.u.3.r.e.a.f.i.=.a.6.y.+.3.g.3.3.u.l.=.h.r."
};
