/* XPM */
static char *result[] = {
/* columns rows colors chars-per-pixel */
"50 51 145 2 ",
"   c #000000",
".  c #000408",
"X  c #06090F",
"o  c gray3",
"O  c #110900",
"+  c #000810",
"@  c #0D131F",
"#  c #380F06",
"$  c #301A0F",
"%  c #3C130D",
"&  c #381E12",
"*  c #151D31",
"=  c #202020",
"-  c #2D3139",
";  c #59150D",
":  c #60160C",
">  c #6D190F",
",  c #621E13",
"<  c #533E08",
"1  c #5F341D",
"2  c #442514",
"3  c #742317",
"4  c #61351D",
"5  c #6E520D",
"6  c #7B4315",
"7  c #7B5C10",
"8  c #7D5A1A",
"9  c #6E530C",
"0  c #7A4B2C",
"q  c #202C4A",
"w  c #243154",
"e  c #2C3C66",
"r  c #2E3E6B",
"t  c #4C525F",
"y  c #484E5A",
"u  c #86190C",
"i  c #961C0E",
"p  c #9E1D0E",
"a  c #801F12",
"s  c #AC1E0F",
"d  c #B21E0E",
"f  c #A81F10",
"g  c #8F2B19",
"h  c #9E2012",
"j  c #9E301D",
"k  c #B9200F",
"l  c #AE2213",
"z  c #B32719",
"x  c #B72A19",
"c  c #C4200E",
"v  c #CE200E",
"b  c #C42919",
"n  c #CA2413",
"m  c #D32C1B",
"M  c #D32817",
"N  c #D63D1D",
"B  c #D93221",
"V  c #D53120",
"C  c #814914",
"Z  c #8D5613",
"A  c #8D690E",
"S  c #8F6316",
"D  c #997317",
"F  c #8F5B30",
"G  c #9C5531",
"H  c #AB4421",
"J  c #A35833",
"K  c #A56D39",
"L  c #B7793F",
"P  c #D84521",
"I  c #AD6C41",
"U  c #B8754B",
"Y  c #BE7B50",
"T  c #B68815",
"R  c #B18D33",
"E  c #D19C15",
"W  c #EFB41C",
"Q  c #FEBB14",
"!  c #D79730",
"~  c #CD972C",
"^  c #CEA02C",
"/  c #E5AB26",
"(  c #E4B12F",
")  c #EBB328",
"_  c #F0B523",
"`  c #FFC73F",
"'  c #FFC83F",
"]  c #BBA875",
"[  c #C68D58",
"{  c #C48155",
"}  c #CF965F",
"|  c #EC8A42",
" . c #D59B66",
".. c #DCA26C",
"X. c #C2AE77",
"o. c #C6B177",
"O. c #CAB477",
"+. c #CCB579",
"@. c #CBB579",
"#. c #D4BC7B",
"$. c #D8BF7C",
"%. c #E6AB74",
"&. c #FFC941",
"*. c #D7C07F",
"=. c #DAC17E",
"-. c #FFD366",
";. c #3A4F87",
":. c #747C8E",
">. c #4E6AB3",
",. c #9DA7BE",
"<. c #CEB981",
"1. c #D4BE82",
"2. c #D6C084",
"3. c #DCC483",
"4. c #D7C28A",
"5. c #DCC68A",
"6. c #DFC88C",
"7. c #DBC792",
"8. c #DEC992",
"9. c #DFCC9A",
"0. c #E0C783",
"q. c #E3CA85",
"w. c #E9CE87",
"e. c #E3CC8B",
"r. c #E8CF8A",
"t. c #FFC38C",
"y. c #E7D08F",
"u. c #EAD18E",
"i. c #E3CD92",
"p. c #E2CE99",
"a. c #E6D094",
"s. c #EAD394",
"d. c #E6D29A",
"f. c #EBD59B",
"g. c #EED89E",
"h. c #E6D4A2",
"j. c #EAD6A1",
"k. c #EED9A3",
"l. c #EEDBA9",
"z. c #F0DDAA",
"x. c #F1DFB1",
"c. c #F1E0AF",
"v. c #F2E1B4",
"b. c #D2DEFC",
"n. c #CDD9F7",
/* pixels */
"a.3.5.i.5.3.6.g.1.e.f.s.s.#.l.3.7.f.3.f.4.h.4.p.q.e.f.3.r.a.s.w.q.e.=.5.0.w.i.5.6.s.6.e.0.f.=.a.s.=.",
"6.f.] f.            s.u.3.a.3.6.f.3.s.3.6.p.s.=.y.k.e.3.e.q.3.k.0.$.i.q.6.s.2.s.3.5.i.=.f.5.f.g.3.s.",
"=.u.q.  < E ' ' ' D     $.a.z.#.i.s.#.a.q.f.q.3.z.#.r.0.l.y.#.6.=.f.3.e.#.f.3.q.6.q.f.r.a.s.e.p.j.q.",
"r.=.  A E 8 8 3 3 g ^ <   e.w.5.k.#.g.i.#.q.f.r.d.3.f.g.$.4.d.O.5.k.y.y.#.8.a.3.f.e.s.y.y.w.e.u.q.s.",
"e.  < ' 8 R -.-.~ P g ' <     5.k.#.f.6.=.k.r.o.x.X.f.p.3.d.#.p.1.f.e.w.$.a.s.i.3.s.s.a.q.5.s.u.s.s.",
"s.  ' 8 R -.&./ -.| N D ' & G     e.u.a.#.d.f.2.e.3.g.q.4.j.+.i.e.q.e.0.f.e.6.i.g.=.f.q.s.d.5.5.q.s.",
"e.  ' 8 ` ) Q _ -.| N Z ' D 1 t.G     p.a.3.e.e.5.f.#.s.1.5.d.=.f.=.e.a.3.e.f.s.5.0.f.g.r.0.f.=.q.5.",
"w.  ` H ` Q ' ) &.| N 6 -.D > u G t.G     a.g.#.q.f.1.s.f.$.e.5.5.e.i.r.r.5.r.z.5.3.f.3.f.w.0.0.s.+.",
"5.  ' H ! W Q ' / | N 6 -.D = u u 1 K [ G   f.$.r.i.3.5.e.y.#.3.s.f.$.0.k.5.f.g.4.f.1.s.f.e.*.1.a.q.",
"#.  / C 7 ! ! ! R z v 6 -.D = c M i 1 & I G   5.e.y.d.0.e.$.s.1.e.e.2.l.r.=.i.k.5.j.*.a.3.e.e.5.#.s.",
"e.  E S , 7 7 7 3 j 3 Z &.7 = f c V h u & G   r.3.s.#.d.+.r.y.e.w.e.=.w.l.s.5.d.w.q.i.2.p.5.a.6.r.e.",
"1.  < E < % , , 3 , C E ( < = f v c m z ;     0.g.#.d.1.d.e.+.i.0.=.k.r.l.5.r.s.=.e.s.#.w.0.q.l.p.e.",
"e.f.  < D < % % , C E ( 5 = > f v v c m x ;   s.$.0.r.i.O.y.e.i.w.r.0.s.6.l.4.s.3.=.s.5.5.i.u.d.a.2.",
"r.u.=.  < D T T T T T < = # > f v v c v M p u   k.1.5.q.i.1.d.1.d.5.0.f.e.j.#.l.3.#.s.3.r.f.3.j.u.5.",
"e.*.q.f.    < D D 5 < O # > f k v v c c n f m u   0.p.5.d.O.d.$.a.5.f.q.s.e.3.s.#.5.k.#.l.s.e.f.o.r.",
"a.*.i.u.f.q.            > V B d k c c k V c v z f     =.=.j.w.p.e.q.r.f.q.p.5.5.0.5.5.r.k.5.x.#.5.q.",
"3.0.i.3.e.e.s.q.e.f.  > f s B B k c k k M n B d m ;.* + p.q.5.$.k.2.h.9.i.#.s.$.p.r.e.a.a.w.g.3.#.3.",
"e.=.4.f.e.3.s.5.r.s.  K t.K 1 B B c k v m v B d m >.w ,.. f.e.$.u.e.3.u.f.r.r.3.e.<.k.q.s.=.s.6.3.#.",
"r.0.p.1.j.3.q.5.a.e.  K t.[ K 1 f B c M c c B d m >.w b.&   s.3.*.l.#.r.r.a.3.4.e.d.w.f.*.q.a.q.3.h.",
"$.s.$.k.8.=.g.q.3.r.l.+ [ [ F 4 1 f f f c B v d m w w b.4 & . f.k.q.3.g.e.#.q.6.a.3.g.d.r.e.#.e.6.l.",
"i.4.w.f.u.q.w.0.q.q.r.  2 [ [ F $ ; f v m v z m p q y n.4 G 1   l.5.p.e.r.=.u.=.i.s.f.9.1.3.=.q.z.q.",
"#.5.u.e.3.p.e.e.a.5.e.k.  G t.} 4 % : i z z l b a * :.:.& G t.G     u.=.q.0.i.a.q.s.w.a.e.0.f.1.g.3.",
"e.6.e.i.0.q.6.i.r.q.3.h.#.. G } K 4 : ; i l b a e w X - & & ..t.G &   =.f.<.e.s.f.5.f.*.d.*.7.j.$.q.",
"s.q.#.k.+.5.s.p.q.f.r.5.f.3.. G t.K   u z b a e >.r @ X 1 & I ..t.{   #.6.i.e.u.f.a.3.3.5.f.#.s.e.j.",
"y.f.=.e.0.k.0.e.0.s.j.5.6.5.k.  } ..1 . * * e ;.>.>.w :.. & %. .t.G o o.q.a.i.s.e.u.3.q.s.4.f.e.s.3.",
"3.d.#.k.0.5.g.p.e.q.5.w.d.i.5.  G t.K $   * w ;.;.>.w ,.. G 4 U G &   6.s.+.s.u.e.s.3.r.=.u.j.$.j.a.",
"f.3.0.s.i.i.i.e.e.j.e.q.i.1.d.4.  } %.4   . * w ;.e * b.&           3.w.3.k.=.l.$.8.5.g.0.q.3.u.z.=.",
"0.g.y.#.d.a.$.a.e.l.r.#.p.e.#.s.  1 t.L 4   . * w * :.b.& 1 . s.0.=.f.y.+.f.3.f.e.5.0.e.5.d.s.k.+.q.",
"q.f.e.s.3.d.i.p.0.f.3.f.5.3.3.w.  G t.t.J     t t :.,.:.1 [ 1   q.6.h.] r.s.5.k.0.#.i.3.d.s.q.d.i.#.",
"f.r.e.d.e.i.e.g.5.4.5.s.e.#.5.$.0.  Y J 4   #.  t t t & G [ t.G     e.1.f.w.s.3.s.e.#.q.d.h.5.q.3.p.",
"e.=.k.i.e.d.4.s.i.w.f.+.u.#.5.=.3.d.      0.e.a.          & ..t.G &   a.5.a.f.e.3.q.q.1.g.e.k.#.e.a.",
"e.y.#.s.r.s.e.0.e.d.3.s.#.1.5.s.X.f.#.i.e.=.4.k.2.s.r.. 1 0 I ..t.{   r.q.s.i.e.#.0.6.s.=.f.d.q.5.0.",
"1.r.r.r.r.f.q.q.e.1.6.6.1.5.e.e.o.d.1.i.0.j.q.r.d.$.d.  t.4 %...t.G   s.g.3.k.5.=.e.=.i.8.e.f.e.5.6.",
"0.f.0.g.3.p.#.e.w.g.O.r.#.d.e.X.z.$.q.q.j.3.f.$.i.1.k.  U [ 1 U G &   s.u.r.f.o.e.=.q.k.$.f.r.e.d.e.",
"0.j.u.O.x.+.p.1.e.q.e.3.5.3.s.#.0.g.s.1.u.s.e.p.1.i.3.1.            4.g.3.f.=.5.r.s.=.r.f.5.=.w.u.=.",
"q.5.i.d.r.+.e.s.5.#.3.s.3.#.r.d.s.q.1.s.k.+.k.0.1.q.r.y.$.w.0.+.e.g.q.q.0.k.q.f.=.0.k.s.=.e.a.q.4.$.",
"3.d.3.g.e.#.f.+.1.p.#.i.r.5.i.p.f.q.p.q.1.g.#.y.e.q.1.$.s.1.0.i.0.v.$.3.e.f.e.e.e.#.l.0.q.l.+.=.z.1.",
"i.0.q.0.0.s.0.r.0.$.g.q.2.j.$.d.=.s.a.q.=.s.1.$.f.1.1.w.q.0.i.e.e.e.p.j.r.X.s.u.3.d.6.y.w.e.=.6.w.#.",
"q.f.$.e.0.e.$.1.w.s.i.3.g.f.5.0.s.3.w.0.$.s.q.5.#.q.e.d.0.$.y.e.f.r.a.5.5.0.q.=.u.e.a.k.5.s.] j.=.p.",
"+.q.r.e.=.q.3.q.e.3.k.e.s.q.e.4.z.$.7.#.g.#.=.q.w.$.d.d.#.k.w.0.f.q.5.e.3.g.+.q.r.u.k.r.6.q.w.=.=.s.",
"3.w.e.0.0.i.q.#.g.p.f.q.$.g.r.7.i.q.1.$.w.p.=.#.e.i.3.f.0.s.i.r.a.e.d.3.6.6.#.e.y.w.a.3.a.5.4.2.e.e.",
"0.s.1.1.r.1.$.d.0.s.i.e.0.z.=.e.3.e.e.4.#.3.f.0.1.q.p.i.0.d.0.f.y.3.f.#.q.e.=.u.d.a.q.a.3.3.6.y.=.k.",
"i.e.#.p.$.s.e.i.e.i.5.q.k.#.f.$.q.0.e.q.q.y.$.e.a.i.g.i.w.1.s.$.z.*.s.#.q.*.d.6.e.f.2.u.a.+.6.q.e.j.",
"1.i.#.y.d.1.s.i.#.g.p.3.y.e.$.g.$.6.3.0.3.q.a.i.f.1.w.z.1.i.s.e.q.=.2.a.o.s.a.7.e.d.a.3.6.q.*.d.2.k.",
"1.q.a.r.#.k.a.q.3.f.j.1.1.$.k.0.#.=.s.q.e.f.1.g.s.e.d.3.q.f.1.1.0.a.#.6.e.i.3.f.r.s.*.s.3.=.d.3.e.e.",
"s.q.$.k.y.0.y.e.a.k.] k.e.0.3.4.q.0.w.d.1.f.q.g.q.i.r.d.O.i.i.+.6.s.5.y.2.d.s.*.g.8.w.*.0.w.e.q.w.l.",
"$.s.s.i.a.+.f.q.r.a.q.3.k.+.a.o.p.w.e.a.d.q.4.f.0.p.e.s.$.w.$.r.p.e.=.d.w.q.d.e.e.s.3.#.a.q.y.e.d.5.",
"w.+.f.e.s.d.1.a.s.q.$.e.e.1.r.3.0.w.j.1.q.f.7.e.e.i.q.i.$.4.i.#.a.6.*.r.3.l.a.e.#.i.#.y.f.3.e.d.5.l.",
"#.k.1.j.3.j.5.k.#.f.+.0.r.i.e.q.1.w.s.f.$.d.0.u.q.0.q.3.4.s.1.f.#.6.s.p.6.l.O.k.5.=.=.s.3.s.e.f.e.3.",
"$.k.1.p.i.e.e.i.$.r.0.s.$.$.d.i.0.q.f.i.s.i.i.$.f.1.i.0.$.0.a.q.r.+.k.f.6.3.r.k.5.#.*.a.i.2.l.5.6.e.",
"u.q.e.f.0.r.1.f.3.i.i.#.i.q.w.0.p.i.w.q.f.1.q.w.q.s.0.$.1.r.0.s.e.a.j.e.3.e.6.a.#.3.f.3.0.u.l.=.h.r."
};
