/* XPM */
static char *result[] = {
/* columns rows colors chars-per-pixel */
"50 51 142 2 ",
"   c #000000",
".  c #000408",
"X  c #0A0606",
"o  c #110900",
"O  c #0B0F17",
"+  c #2A1E03",
"@  c #3B120C",
"#  c #381E12",
"$  c #382011",
"%  c #151D31",
"&  c #202020",
"*  c #2F353F",
"=  c #4F130B",
"-  c #5C160E",
";  c #6D190F",
":  c #611D12",
">  c #731E12",
",  c #7B190E",
"<  c #533E08",
"1  c #5F341D",
"2  c #452A09",
"3  c #742317",
"4  c #76590E",
"5  c #71560D",
"6  c #7B4315",
"7  c #7B5C10",
"8  c #664C09",
"9  c #7A4D2A",
"0  c #7C542E",
"q  c #202C4A",
"w  c #243154",
"e  c #2F406C",
"r  c #334575",
"t  c #4C525F",
"y  c #70675E",
"u  c #9D1D0E",
"i  c #811F12",
"p  c #8D1F11",
"a  c #901F11",
"s  c #A81F10",
"d  c #A71F10",
"f  c #9E301D",
"g  c #BD200F",
"h  c #A12519",
"j  c #A92111",
"k  c #B32719",
"l  c #BA2817",
"z  c #A73D1F",
"x  c #B8371D",
"c  c #C0200F",
"v  c #CE200E",
"b  c #D62D1C",
"n  c #D63D1D",
"m  c #D83221",
"M  c #DF3F2E",
"N  c #8D5613",
"B  c #824714",
"V  c #997317",
"C  c #885834",
"Z  c #9C5531",
"A  c #A56D39",
"S  c #D84521",
"D  c #E74D3D",
"F  c #AE6C42",
"G  c #AD7B4B",
"H  c #B68815",
"J  c #BD9125",
"K  c #B18D33",
"L  c #D19C15",
"P  c #EFB41C",
"I  c #FEBB13",
"U  c #C99B2A",
"Y  c #D79730",
"T  c #CEA02C",
"R  c #E6AB27",
"E  c #E4B12F",
"W  c #EBB328",
"Q  c #F0B523",
"!  c #FFC73F",
"~  c #FFC83F",
"^  c #AD825A",
"/  c #BD966B",
"(  c #BBA875",
")  c #C68D58",
"_  c #CF965F",
"`  c #EC8A42",
"'  c #DCA26B",
"]  c #C2AE77",
"[  c #C6B177",
"{  c #CAB477",
"}  c #CCB579",
"|  c #CBB579",
" . c #D4BC7B",
".. c #D8BF7C",
"X. c #F1B67F",
"o. c #FFC941",
"O. c #D7C07F",
"+. c #DAC17E",
"@. c #FFD366",
"#. c #3A4F87",
"$. c #747C8E",
"%. c #4E6AB3",
"&. c #9AA2B9",
"*. c #A7A8A7",
"=. c #CEB981",
"-. c #DEB284",
";. c #D4BE82",
":. c #E7BA94",
">. c #D6C084",
",. c #DCC483",
"<. c #D7C28A",
"1. c #DCC68A",
"2. c #DFC88C",
"3. c #DAC792",
"4. c #DEC992",
"5. c #DFCC9A",
"6. c #E0C783",
"7. c #E3CA85",
"8. c #E9CE87",
"9. c #E3CC8B",
"0. c #E8CF8A",
"q. c #FFC38C",
"w. c #E7D08F",
"e. c #EAD18E",
"r. c #E3CD92",
"t. c #E2CE99",
"y. c #EFC794",
"u. c #E6D094",
"i. c #EAD394",
"p. c #E6D29A",
"a. c #EBD59B",
"s. c #EED89E",
"d. c #E6D4A1",
"f. c #EAD6A1",
"g. c #EEDAA3",
"h. c #EEDBA9",
"j. c #F0DDAA",
"k. c #F1DFB1",
"l. c #F1E0AF",
"z. c #F2E1B4",
"x. c #D2DEFC",
"c. c #F3EDE7",
/* pixels */
"u.,.1.r.        ;.r.a.i.i. .h.,.3.a.,.i.<.d.<.t.6.0.p.,.0.u.i.8.6.r.+.1.,.7.r.,.2.p.7.9.9.p.6.r.i.+.",
"2.a.(   V T T V     i.e.6.u.6.2.a.1.i.,.9.t.i.+.r.g.0.,.0.1.+.h.6.+.0.2.0.i.>.u.1.1.r.,.i.1.a.a.6.i.",
"+.0.  @ 3 3 x T U <   a...r.j. .0.a. .i.6.a.7.,.j. .i.6.h.i. .2.,.a.,.u. .a.,.7.2.0.i.0.u.i.9.r.g.7.",
"0.  K @.@.U S x o.J       7.0.1.g.} f.r...6.a.0.p.,.i.s...;.a.{ ,.f.0.e. .5.0.,.a.7.u.u.w.0.9.e.1.i.",
"  K @.o.R @.` n V ~ <   Z       g.} a.4...g.u.[ j.{ a.p.>.p.;.t.;.a.0.7...r.0.r.1.i.i.u.8.<.i.w.e.a.",
"  ! R I Q @.` n N o.5 y   ' ) Z       i. .p.i.>.2.,.s.6.>.g. .9.9.6.9.6.a.0.r.r.a.+.a.7.i.p.2.1.6.e.",
"  ! I o.E o.` n 6 @.4   # 1 Z ) q.q.Z   u.,.9.9.1.a. .i.;.1.t.,.s.+.r.u.,.2.d.i.,.6.a.a.0.6.a.+.7.1.",
"  Y P I o.R ` n 6 @.V :.^ # = # ) $ Z   7.i.s. .6.a.;.i.a. .r.>.>.r.0.0.0.1.0.j.2.,.g.+.a.8.6.6.i.} ",
"  7 Y Y Y Y k v 6 @.V c.:.^ # = # G #   a.6.p...i.r.,.<.r.i. .,.i.p...6.g.6.i.g.,.a...i.d.9.O.;.u.7.",
" .  7 7 7 3 z 3 N ! 4   y./ 1 a = #   i.>.i.7.1.9.e.r.6.9...i.;.9.9.>.h.0.+.i.g.,.f.>.p.6.9.7.2...i.",
"7.  @ : : 3 3 6 L E < *.' G 1 9 v =   e.8.1.i.0.,.r...a.} 0.e.7.8.0.+.8.h.a.>.p.0.2.9.>.r.1.i.2.0.9.",
";.r.  @ @ 2 B L E 8 + 0 0 1 A -.a v a   ;.0.9.,.s. .p.;.p.9.} r.6.+.g.0.h.1.e.i.+.7.i. .e.6.6.h.p.9.",
"r.a.  < V V H H < + &   $ A -.-.9 = b v .   ,.a...6.e.0.| r.r.r.7.0.6.a.2.h.>.a.2. .a.,.1.r.w.5.r.>.",
"9.e.+.  < V V < o   X @ : : : a M I a v v =   ..g.;.1.7.9.;.p.,.p.1.6.a.7.f...j.,. .i.,.0.g.1.a.e.1.",
"0...7.i.        : @ p p a p v v v D = a v v a   i.,.t.1.p.} p...i.1.a.6.a.9.>.p. .2.g.} j.i.9.a.[ e.",
"r.+.r.i.a.7.+.  1 s d M v b b m b v D I = i % q   e.,.+.+.p.9.r.7.7.0.a.9.r.1.<.7.7.6.e.g.,.l. .1.6.",
">.6.r.,.r.9.p.  A q._ z m v m m v v v D i O % #.O   3. .t.7.1.,.g.;.d.5.r. .i.;.r.9.0.r.i.0.s.,. .>.",
"0.,.>.a.6.,.i.  A q._ A s m v v v c c b b i q #.q $.  a.,.p.9. .w.0.1.e.a.0.0.,.u. .h.,.e.+.i.2.,...",
"0.1.t.;.g.,.6.2.  ) ) 1 1 : s u u u m g k b i #.e x.  6.i.6.i.,.O.h...0.0.p.,.,.7.p.8.a.>.6.u.9.>.f.",
"..i...g.4.+.s.6.  A ) A 1   @ , u g g k k l 3 q e x.  <.r. .+.a.g.6.,.s.7. .6.4.p.,.s.i.8.e.} 9.1.l.",
"e.1.0.a.e.+.e.7.6.  ) -.1     ; - p j k k m w O $.$.1           h.1.r.9.7.,.e...r.a.a.5.;.,.+.7.j.7.",
" .>.i.7.1.r.7.0.i.. 1 q.A   p.  - > i c m w #.% X q ' ) q.1 C '   r.i...9.6.r.u.6.i.0.r.9.,.a. .a.6.",
"0.1.r.0.1.7.2.r.e.7.X A _ 1   +.  - h h i w %.#.  . Z q.q.q.1 1   i.7...a. .r.i.s.,.a...p.O.3.g...6.",
"p.1. .g. .1.i.r.6.a.  1 _ A 1   1.  % % % r %.#.q . 1 F ) 1 ) q.  2.r...1.r.7.e.a.w.,.2.1.a. .i.0.g.",
"e.i.+.0.,.g.,.0.1.e.g.  Z q.) 1       % q #.%.#.q $.. 1 C 1 C 1   i.9.[ 7.u.r.i.0.e.,.7.a.>.a.9.i.>.",
",.a. .g.6.1.f.t.9.7.1.7.  Z q.' Z )     % q #.#.e x.            r.,.7.3.i.} i.i.7.a.,.7.6.0.s...f.u.",
"a.,.6.i.r.r.r.9.9.g.7.6.r.. Z q.q.1 Z     % % e &.x.  9.s.u.>.e.s...7.7.+.s.+.g...4.1.s.,.7.+.i.j.+.",
",.g.e. .p.r...i.7.h.i. .r.r.  Z q.) $     t $.$.x.$.  s.,.a.0.w.1...a.0.} g.,.a.0.1.1.0.1.t.r.h. .1.",
"6.s.0.i.1.a.r.u.6.s.O.s.7.>.,.  Z ) Z   ..  t t t 1 Z           6.1.d.] 0.a.6.g.1. .r.,.p.a.8.i.r...",
"a.0.7.p.6.r.9.f.2.<.1.u.r. .7. .  X   6.0.6.  .   Z q.) ' 1 ) q.  ,.9.;.a.0.i.>.i.7. .6.p.d.>.8.,.r.",
"7.1.g.4.9.p.<.i.0.9.a.} e. .2.+.,.u. .p.1.6.7.u.+.  Z q.q.' 1 1   ,.6.u.1.u.a.0.1.7.7.;.s.1.g. .0.r.",
"2.0. .a.0.i.0.,.9.p.,.u. .;.1.u.[ s. .4.0.>.,.g.>.  1 F ) 1 ) '   0.r.e.7.e.r.7. .6.2.i.,.a.p.7.,.1.",
">.0.0.0.e.a.7.9.9.;.9.1.;.1.7.r.{ i.,.r.,.s.8.9.t.+.  1 C 1 C 1   ,.,.e.a.6.g.1.,.7.+.r.r.r.p.6.<.9.",
"6.a.6.a.>.r. .7.8.g.{ e. .p.7.] j...1.6.f.,.p.,.u.,.f.          f.6.1.r.i.0.a.[ 9.,.9.g...a.9.0.d.7.",
"6.f.e.| l.| t.;.7.6.r.+.7.+.a. .,.s.i.;.i.a.7.r.=.i.,...0.s...1.1.p.,.s.,.i.6.1.9.i.+.0.s.,.+.0.e...",
"7.1.r.p.e.} 6.i.2. .+.a.>. .0.p.i.1.,.i.s.} g.,.1.6.9.r...7.6.} 0.f.7.7.6.s.1.f.+.6.g.0.+.r.i.6.1. .",
",.p.,.a.0. .a. .;.r. .e.0.>.r.r.a.7.r.9.>.a. .i.1.7.;...i.,.1.9.6.z.;.6.7.a.7.0.r. .j.+.6.h.{ +.j.;.",
"r.6.7.,.6.i.,.8.6...f.7.<.h...a.,.i.u.6.,.0.,.+.a.+.,.0.7.>.e.9.9.9.r.h.0.] i.e.1.p.7.i.8.w.+.2.0. .",
"9.a...9.6.9.;.>.0.p.r.,.s.a.<.7.i.+.e.6. .i.6.1. .7.9.p.6...e.9.a.0.i.<.1.6.9.+.0.9.r.g.6.a.( f.+.r.",
"{ 6.e.0.+.6.6.9.0.,.h.7.u.9.9.>.h.+.2. .s.} +.1.9...p.r. .s.0.,.f.6.1.7.6.a.} 6.0.e.g.0.2.6.8.+.+.t.",
";.0.9.1.6.r.9.} s.r.a.7...s.0.3.r.6.,.O.0.u.+...9.r.,.a.6.i.r.0.i.9.u.6.2.2. .9.i.8.i.,.u.2.<.>.9.0.",
"7.i.;.6.0.,.+.p.6.p.9.9.6.j.+.9.,.9.7.<. .>.a.,.>.,.p.5.6.a.>.a.w.,.g.} 9.7.+.w.p.r.6.u.,.+.2.0.+.g.",
"r.9.;.r. .i.9.r.9.r.1.9.g. .a...6.6.9.7.7.i...0.u.r.s.u.8.>.r.+.h...i. .6.+.p.2.9.a.O.w.i.} 2.9.7.f.",
":.0.} e.u.;.i.r. .s.t.,.r.0...s.+.1.1.6.,.7.u.9.i.+.8.g.>.r.i.9.6.+.>.p.[ i.u.4.9.p.u.1.2.,.O.p.>.f.",
"} 7.u.e. .g.r.7.6.a.p.<.;...f.6. .+.i.9.0.p.;.a.i.r.u.<.6.a.1.,.6.u. .4.9.u.,.a.9.a. .i.6.+.u.,.0.r.",
"i.6.O.s.i.+.e.9.u.g.( g.9.6.,.1.8.+.0.u.;.a.7.s.6.u.i.u.| u.9.[ 9.u.1.e.>.u.i.O.a.4.8.O.6.9.9.0.0.h.",
"..u.i.w.i.} p.7.i.e.7...f.} u.[ u.8.2.0.p.9.1.a.1.t.7.i. .6...0.r.9.+.p.9.6.p.9.w.i.,. .p.7.9.9.d.2.",
"0. .u.9.i.p.>.i.i.,.,.9.9.;.0.,.1.8.f.1.6.a.3.r.1.r.7.0.+.1.r. .p.2.O.0.,.h.u.0. .w.O.e.i.,.9.p.,.h.",
" .g. .d.,.a.1.g. .a.{ ,.e.0.2.9.+.0.i.a.O.p.6.i.7.,.6.1.1.i.;.a. .2.i.t.2.g.| h.,.,.+.i.,.i.9.a.9.,.",
"O.g.3.4.9.u.1.u.O.w.6.i.+.+.p.9.,.6.i.0.i.r.u. .u.,.i.,. .1.i.7.0.| g.a.2.,.0.s.1. .O.u.u.>.h.1.2.7.",
"e.6.9.a.6.w.,.i.,.9.r. .r.6.0.1.u.u.9.9.u.,.0.6.6.i.6.O.+.e.,.e.9.u.f.9.+.r.2.u.} 6.s.,.,.e.g.,.d.0."
};
