/* XPM */
static char *result[] = {
/* columns rows colors chars-per-pixel */
"50 51 143 2 ",
"   c black",
".  c #000408",
"X  c gray3",
"o  c #110900",
"O  c #000810",
"+  c #0D131F",
"@  c #380F06",
"#  c #3B120C",
"$  c #301A0F",
"%  c #381E12",
"&  c #151D31",
"*  c #1D2129",
"=  c #202020",
"-  c #58150C",
";  c #60160C",
":  c #6D190F",
">  c #621E13",
",  c #533E08",
"<  c #5E331D",
"1  c #742317",
"2  c #61351D",
"3  c #6E520D",
"4  c #7B4315",
"5  c #7B5C10",
"6  c #7D5A1A",
"7  c #6E530C",
"8  c #7A4B2C",
"9  c #243154",
"0  c #2C3B66",
"q  c #4C525F",
"w  c #484E5A",
"e  c #666D7D",
"r  c #9E1D0E",
"t  c #951D0F",
"y  c #801F12",
"u  c #86190C",
"i  c #AC1E0F",
"p  c #B21E0E",
"a  c #A81F10",
"s  c #8F2B19",
"d  c #9E301D",
"f  c #B8200F",
"g  c #AE2111",
"h  c #B42719",
"j  c #B22B18",
"k  c #C4200E",
"l  c #CE200E",
"z  c #C52817",
"x  c #CE2916",
"c  c #C42919",
"v  c #C62211",
"b  c #D32C1B",
"n  c #D32716",
"m  c #D63D1D",
"M  c #D93221",
"N  c #D53120",
"B  c #814914",
"V  c #8D5613",
"C  c #8D690E",
"Z  c #8F6316",
"A  c #997317",
"S  c #8F5B30",
"D  c #9C5531",
"F  c #AB4421",
"G  c #A35833",
"H  c #A56D39",
"J  c #B7793F",
"K  c #D84521",
"L  c #AD6C41",
"P  c #B8754B",
"I  c #BE7B50",
"U  c #B68815",
"Y  c #B18D33",
"T  c #D19C15",
"R  c #EFB41C",
"E  c #FEBB14",
"W  c #D79730",
"Q  c #CD972C",
"!  c #CEA02C",
"~  c #E5AB26",
"^  c #E4B12F",
"/  c #EBB328",
"(  c #F0B523",
")  c #FFC73F",
"_  c #FFC83F",
"`  c #BE804F",
"'  c #BBA875",
"]  c #C68D58",
"[  c #C48155",
"{  c #CF965F",
"}  c #EC8A42",
"|  c #D59B66",
" . c #DCA26C",
".. c #C2AE77",
"X. c #C6B177",
"o. c #CAB477",
"O. c #CCB579",
"+. c #CBB579",
"@. c #D4BC7B",
"#. c #D8BF7C",
"$. c #E7AC75",
"%. c #FFC941",
"&. c #D7C07F",
"*. c #DAC17E",
"=. c #FFD366",
"-. c #3A4F87",
";. c #747C8E",
":. c #4E6AB3",
">. c #9DA7BE",
",. c #CEB981",
"<. c #D4BE82",
"1. c #D6C084",
"2. c #DCC483",
"3. c #D7C28A",
"4. c #DCC68A",
"5. c #DFC88C",
"6. c #DBC792",
"7. c #DEC992",
"8. c #DFCC9A",
"9. c #E0C783",
"0. c #E3CA85",
"q. c #E9CE87",
"w. c #E3CC8B",
"e. c #E8CF8A",
"r. c #FFC38C",
"t. c #E7D08F",
"y. c #EAD18E",
"u. c #E4CD92",
"i. c #E2CE99",
"p. c #E6D094",
"a. c #EAD394",
"s. c #E6D29A",
"d. c #EBD59B",
"f. c #EED89E",
"g. c #E6D4A2",
"h. c #EAD6A1",
"j. c #EED9A3",
"k. c #EEDBA9",
"l. c #F0DDAA",
"z. c #F1DFB1",
"x. c #F1E0AF",
"c. c #F2E1B4",
"v. c #D2DEFC",
/* pixels */
"p.2.4.u.4.2.5.f.1.w.d.a.a.@.k.2.6.d.1.d.6.s.3.p.0.w.a.1.a.a.y.q.0.5.*.5.0.0.u.4.5.a.5.e.0.s.0.u.a.2.",
"5.d.' d.                0.p.2.5.d.0.a.2.5.u.a.&.w.k.e.2.w.4.*.j.0.*.w.0.0.d.1.p.2.4.u.&.a.5.a.d.5.a.",
"*.y.0.  , _ _ _ %.~ T ,   y.k.@.w.d.@.p.0.d.0.2.l.@.a.9.k.u.@.5.*.d.2.w.@.f.2.0.2.e.a.e.p.a.w.u.d.q.",
"e.*.  C _ 6 6 F F B Z T ,   e.4.j.O.f.u.@.0.d.w.s.2.a.f.#.3.d.+.4.j.w.t.@.7.u.2.f.0.s.t.a.w.0.y.2.a.",
"w.  , T 6 Y ) ) W 5 > , A ,   9.j.@.d.5.*.j.a.X.z...d.s.2.s.<.i.<.s.w.q.#.p.a.u.4.a.a.p.e.3.a.t.y.d.",
"a.  T 6 Y =.~ E R W 5 # , A   q.4.w.y.p.@.s.a.2.w.2.f.9.2.h.O.w.w.0.w.0.d.y.6.w.d.*.d.0.a.s.0.3.2.p.",
"w.  _ 6 =._ E _ E W 5 > # U ,   f.#.e.i.p.2.w.u.4.d.@.a.<.4.s.2.d.*.w.p.*.0.s.d.4.2.d.d.e.0.a.*.q.4.",
"q.  _ 1 =./ ( / %.W 5 > # U A   2.w.4.0.0.a.f.O.0.d.<.a.d.#.w.3.4.w.p.e.e.5.e.l.4.0.f.*.d.q.4.0.a.O.",
"4.  _ 1 Q =.=.%.~ Y : 1 > U A   i.u.0.2.f.9.d.#.w.a.2.4.w.a.@.2.a.d.@.2.j.0.d.j.2.d.<.a.g.w.#.#.p.0.",
"@.  A s K } } } } j d > B U 3   *.w.1.a.2.a.4.4.0.u.s.*.w.#.a.<.u.w.2.k.w.*.w.j.4.h.&.s.0.w.5.5.@.a.",
"w.0.  ! s m m m m x 1 4 T U ,         y.0.2.a.e.4.a.@.d.O.e.u.0.q.0.2.q.k.d.2.s.y.2.5.1.7.4.p.5.w.w.",
"<.w.  , _ A V 4 4 4 V T ^ , o   : H H   <.y.0.2.f.@.s.<.d.w.O.u.2.*.j.e.k.4.y.a.&.e.a.#.q.0.0.k.s.w.",
"u.a.#.  , _ ) =.=.=.) ^ 7 = @ : a ] r.D   y.2.d.#.9.a.w.X.u.u.u.0.e.0.a.5.j.3.a.2.*.a.4.4.u.t.i.p.1.",
"0.a.#.0.  % A A A A 5 , = @ : M z H ] ] . w.u.@.j.#.4.0.w.<.s.2.s.4.9.d.w.h.@.l.2.@.a.2.e.f.2.h.y.4.",
"w.#.w.d.  D 2 < : = = = = ; a M z 2 S r.D . 4.0.a.2.i.4.s.X.s.#.p.0.d.0.a.u.2.s.@.4.j.@.l.a.0.d.X.t.",
"i.*.w.a.d.  r.< u k f f a a p M M ; < { r.D             *.f.0.i.0.0.w.d.w.u.2.4.0.4.4.e.h.4.c.@.4.0.",
"2.9.u.2.u.  D { % i M k l l l f M i $ 2 H r.{ { I D 2 D   0.4.2.k.1.s.8.p.@.a.#.u.w.w.p.p.q.f.2.@.2.",
"w.*.4.d.0.2.  L < t M k l l l l k x r # 2 D  .r.r.r.r.r.I   0.#.t.w.2.y.s.w.w.2.p.,.j.0.a.*.a.5.*.@.",
"w.9.i.<.h.2.0.  L < - b k k k k f f i r - @ 2 2 2 J J r.G   a.2.#.k.*.e.t.a.*.2.w.s.q.d.&.0.p.0.4.s.",
"#.a.*.j.6.*.f.0.      n l k k p f x g l a t ; # # # 2 G 2   9.d.f.0.2.f.w.@.0.u.p.1.f.a.q.w.@.t.4.x.",
"u.4.e.d.y.0.q.0.0.0.e.  n l N b b k k k b h h y & &       * a.2.k.4.u.5.0.2.e.*.p.d.s.8.<.2.*.0.l.0.",
"@.2.a.0.2.i.9.w.p.4.u.  - i v v l k M M l g z y 9 -.0 & e q   h.y.w.a.&.0.0.u.p.0.a.q.p.0.0.s.<.f.0.",
"e.4.u.w.9.0.6.u.e.0.2.g.  - N M M M l l h z y 9 :.:.-.9 >.q   .     4.#.d.,.u.a.f.4.a.@.s.&.6.h.@.4.",
"s.9.@.k.@.4.a.u.9.d.e.4.d.  i h p p p p b 1 9 -.-.0 9 & v.q % < r.P   #.0.u.0.y.d.e.4.4.4.s.&.a.e.h.",
"y.a.*.w.2.f.*.w.2.a.j.0.6.4.  b b b b b 9 & +       q >.;.% L 8 < ]   X.0.a.u.a.w.y.2.0.a.2.d.w.a.2.",
"2.d.@.k.0.4.h.s.w.0.4.0.p.u.2.  & 0 0 0 0 9 +   u.9.. . % 8  .L $.<   6.a.O.a.a.w.a.2.e.2.y.f.#.d.i.",
"d.2.9.p.u.u.u.w.0.k.0.0.u.<.s.6.  & 9 9 9 & w *   4.9.0.  D r. . .P   0.*.f.*.j.#.6.9.f.2.0.*.y.l.*.",
"2.j.e.#.s.p.#.a.w.k.y.@.i.w.@.a.#.O ;.v.v.>.;.*     2.d.2.  D r.r.D   e.O.j.2.d.w.5.4.e.3.s.i.k.@.2.",
"0.d.w.a.2.a.u.i.9.f.&.d.0.1.1.e.2.2.. % < 2 % % P D   u.p.  % [ D %   ..u.a.2.k.4.@.p.*.s.a.q.a.w.#.",
"d.e.w.d.0.i.w.f.5.3.4.p.w.#.2.#.0.0.p.  % D D % % D   p.f.O.        w.1.d.q.a.2.a.0.@.0.s.g.2.w.2.i.",
"0.2.j.5.0.d.3.d.u.q.d.O.a.@.5.*.2.p.O.s.. D  .L $.2   s.5.0.s.2.w.2.9.p.4.a.d.e.2.0.0.<.j.4.k.@.w.p.",
"0.u.@.d.u.a.e.*.w.s.2.p.@.<.4.t.X.j.@.u.  < r. .| P   4.e.h.4.@.e.q.i.y.0.e.u.0.@.0.6.a.*.d.s.0.2.0.",
"2.w.t.e.e.d.0.w.w.<.w.5.<.4.w.u.X.a.<.i.<.  D r.r.D   e.2.a.O.e.u.2.2.y.f.2.j.4.*.0.*.u.u.u.d.4.3.w.",
"2.d.0.f.2.i.@.0.q.j.X.q.O.d.0...l.#.0.0.j.  % [ D %   *.4.2.e.2.h.9.4.a.y.e.f...w.9.0.j.#.d.e.0.g.w.",
"*.j.y.X.x.+.i.<.0.0.u.2.0.*.a.@.9.f.a.<.y.a.    X   2.2.w.f.#.2.5.a.2.f.2.d.*.4.w.a.*.e.d.4.*.e.w.*.",
"w.3.u.a.e.O.0.a.4.@.2.a.2.@.y.s.a.2.2.a.j.@.j.9.2.0.w.u.#.0.4.@.w.f.0.4.0.j.9.h.*.9.j.t.*.w.a.0.4.@.",
"*.d.2.d.w.@.d.O.<.i.@.t.w.4.u.u.s.w.a.9.<.f.@.a.4.0.<.@.a.2.4.0.9.c.<.2.w.d.0.w.u.O.l.*.0.j.O.*.k.1.",
"u.0.w.9.9.a.9.e.9.#.f.w.3.h.<.d.9.a.i.0.*.a.<.#.a.*.2.e.0.2.a.0.w.0.u.k.q...a.y.0.s.0.a.q.w.2.5.e.#.",
"0.d.#.w.*.w.#.3.q.a.u.*.h.d.2.4.a.#.q.9.#.a.9.4.#.0.6.s.4.#.w.e.f.e.a.4.4.0.0.*.e.u.u.j.2.d.' h.*.u.",
"O.0.e.w.9.0.9.9.e.2.k.w.p.0.w.2.l.#.6.@.f.@.*.9.0.#.d.p.@.f.q.4.h.2.3.0.9.d.O.0.e.y.j.e.5.0.q.*.*.p.",
"2.e.e.<.9.u.0.O.d.i.a.0.#.j.e.6.u.9.<.@.w.i.*.#.w.u.2.s.9.a.u.q.p.w.u.0.5.5.@.w.y.q.p.2.p.4.3.2.w.w.",
"9.a.<.9.e.2.*.s.9.d.u.w.9.l.9.w.2.u.w.w.@.9.d.9.<.0.i.u.9.d.<.d.t.2.f.+.0.w.*.t.s.s.0.p.2.*.5.w.*.j.",
"u.w.@.i.#.a.5.u.w.u.9.0.j.@.a.#.9.9.w.9.9.t.#.w.a.u.f.u.q.<.t.2.l.#.d.@.0.*.s.5.0.d.&.t.p.O.5.0.0.j.",
"<.u.O.a.a.,.a.a.O.f.i.4.e.u.#.f.#.5.2.9.2.9.a.u.d.<.q.l.2.u.a.w.0.*.1.p.X.a.p.7.w.s.p.4.5.0.1.s.1.h.",
"<.9.a.u.@.j.a.w.2.d.d.3.<.<.j.9.@.*.a.w.u.a.<.h.a.u.a.<.0.d.2.<.4.p.@.5.w.t.2.d.e.d.@.a.0.*.s.2.w.u.",
"a.0.#.j.t.2.u.9.s.j.' j.9.0.2.3.q.*.e.a.<.d.0.h.9.u.a.s.+.u.u.X.0.p.4.a.1.s.p.&.d.7.q.&.2.0.w.q.q.k.",
"#.a.a.u.a.O.d.9.e.a.9.2.h.O.a.X.i.q.u.a.a.w.4.a.9.i.9.a.#.9.#.w.p.w.*.p.0.0.s.w.w.a.2.@.p.0.w.w.s.5.",
"q.O.a.e.a.i.2.a.a.2.#.w.w.<.q.4.2.q.h.<.9.d.6.u.w.u.0.t.#.4.u.#.s.6.*.w.2.j.s.e.@.p.&.t.d.2.w.s.4.k.",
"#.h.<.s.2.d.9.j.#.d.o.9.e.u.w.w.<.q.a.d.<.d.9.a.0.9.9.4.<.a.<.d.@.5.y.u.5.l.o.j.2.*.*.a.2.d.w.d.w.2.",
"#.j.6.6.u.u.w.u.<.e.9.a.#.#.i.u.9.9.a.u.a.t.u.@.a.<.a.2.<.9.a.w.e.+.k.d.5.2.e.h.5.@.*.p.p.1.k.4.5.0.",
"a.0.w.d.9.e.<.d.<.e.u.<.t.0.q.9.i.u.e.0.d.<.q.0.0.a.0.#.#.a.9.e.0.p.h.u.2.w.5.p.O.2.f.2.2.y.j.2.g.e."
};
