/* XPM */
static char *result[] = {
/* columns rows colors chars-per-pixel */
"50 51 185 2 ",
"   c #4B4B5D",
".  c #444456",
"X  c #535366",
"o  c #5F5D70",
"O  c #57657D",
"+  c #5C617B",
"@  c #65626C",
"#  c #656B7C",
"$  c #6A687E",
"%  c #6A6773",
"&  c #706D7C",
"*  c #767179",
"=  c #79767F",
"-  c #827C7D",
";  c #958975",
":  c #AA9A70",
">  c #A0947F",
",  c #BCA975",
"<  c #B7AA7A",
"1  c #BEAB7A",
"2  c #B3A276",
"3  c #C2AE77",
"4  c #C1AC7E",
"5  c #C6B177",
"6  c #CBB577",
"7  c #C7B278",
"8  c #CCB579",
"9  c #CEB97C",
"0  c #D4BC7B",
"q  c #D8BF7C",
"w  c #D7C07F",
"e  c #DAC17E",
"r  c #6C6C87",
"t  c #646582",
"y  c #6E718F",
"u  c #6D7B8B",
"i  c #747F80",
"p  c #74718B",
"a  c #7F7C8C",
"s  c #737286",
"d  c #7B7A95",
"f  c #827D84",
"g  c #837C88",
"h  c #7D8099",
"j  c #7D85A3",
"k  c #7E8EAD",
"l  c #7C90AF",
"z  c #87848F",
"x  c #8A878B",
"c  c #828D8F",
"v  c #918984",
"b  c #958E8A",
"n  c #93858D",
"m  c #8C948C",
"M  c #9D9380",
"N  c #9F9E80",
"B  c #999A8D",
"V  c #858796",
"C  c #808D9D",
"Z  c #8B8D9F",
"A  c #8B879A",
"S  c #938F97",
"D  c #938D9A",
"F  c #889396",
"G  c #84919F",
"H  c #969294",
"J  c #9D9496",
"K  c #979C95",
"L  c #9D9C94",
"P  c #94949C",
"I  c #959E9E",
"U  c #9F9F99",
"Y  c #A19686",
"T  c #A1968A",
"R  c #AA9D8F",
"E  c #A49B92",
"W  c #A19B9B",
"Q  c #A4A48C",
"!  c #ACA28E",
"~  c #B6A683",
"^  c #BAAB85",
"/  c #B4A48A",
"(  c #B5AB8B",
")  c #BCB084",
"_  c #ACA297",
"`  c #A6A996",
"'  c #ACAA93",
"]  c #A6A59B",
"[  c #B1A695",
"{  c #B3AB95",
"}  c #BBAC96",
"|  c #BAAB9E",
" . c #BFB795",
".. c #838FA0",
"X. c #8C8BA6",
"o. c #868FAE",
"O. c #8788A5",
"+. c #8D95A2",
"@. c #8694AB",
"#. c #9793A0",
"$. c #9996A3",
"%. c #949CA6",
"&. c #989BA7",
"*. c #959AAD",
"=. c #9C9CAB",
"-. c #969CB0",
";. c #9B9BB3",
":. c #959ABD",
">. c #9392B0",
",. c #A69EA1",
"<. c #A49EB0",
"1. c #9CA3A3",
"2. c #9CA2A8",
"3. c #9DA0B2",
"4. c #95A3B4",
"5. c #A3A3A5",
"6. c #A7A8A1",
"7. c #A4A2AD",
"8. c #A1AFAC",
"9. c #ABA3A1",
"0. c #B4ADA4",
"q. c #B2B2A5",
"w. c #ACACB6",
"e. c #A6A9B2",
"r. c #B1B1B7",
"t. c #BDB6B7",
"y. c #BBB6BE",
"u. c #C5B384",
"i. c #C9B684",
"p. c #CFBB83",
"a. c #C4B28B",
"s. c #C9B78B",
"d. c #C7B98E",
"f. c #CFBD8B",
"g. c #D4BE82",
"h. c #D1BE8C",
"j. c #C1B494",
"k. c #C4BB94",
"l. c #CABA93",
"z. c #C6BC9B",
"x. c #CBBE9B",
"c. c #C3B49A",
"v. c #CCBFA1",
"b. c #C7BEB5",
"n. c #C1B8BB",
"m. c #D6C084",
"M. c #DCC483",
"N. c #D6C28A",
"B. c #DCC68A",
"V. c #DFC88C",
"C. c #CDC39F",
"Z. c #D3C194",
"A. c #DAC793",
"S. c #DEC992",
"D. c #D9C79C",
"F. c #DDCB9C",
"G. c #E0C783",
"H. c #E3CA85",
"J. c #E9CE87",
"K. c #E4CC8B",
"L. c #E8CF8A",
"P. c #E7D08F",
"I. c #EAD18E",
"U. c #E3CD92",
"Y. c #E2CE99",
"T. c #E6D094",
"R. c #EAD394",
"E. c #E6D29A",
"W. c #EBD59B",
"Q. c #EED89E",
"!. c #D5C6A6",
"~. c #D9CBA2",
"^. c #D5C9B8",
"/. c #D9CAB2",
"(. c #E3CEA4",
"). c #E6D4A2",
"_. c #EBD6A1",
"`. c #EED9A3",
"'. c #EEDBA9",
"]. c #F0DDAA",
"[. c #F1DFB1",
"{. c #F1E0AF",
"}. c #F2E1B4",
"|. c #BDBBC8",
" X c #CBC3C2",
/* pixels */
"T.M.N.U.B.M.V.W.g.U.R.R.R.0 '.M.V.W.e R.N.E.N.Y.K.K.W.M.L.T.T.J.G.K.M.B.G.H.Y.M.K.W.V.K.H.E.G.U.R.e ",
"V.W., W.e V.U.K.E.M.R.T.B.R.B.V.W.B.W.M.V.Y.R.e L.`.K.M.K.H.e ].H.q L.K.H.W.g.R.B.M.U.q R.V.W.W.K.R.",
"e I.H.K.R.q R.m.W.H.L._.0 L.].0 K.W.0 T.H.W.H.G.].0 U.G.].L.0 V.e W.M.L.0 Q.M.H.V.H.W.L.T.R.H.Y.W.J.",
"L.e e T.W.0 V.G.T.E.N.W.V.H.L.B.`.0 W.U.q G.W.K.W.M.R.Q.q N.E.6 B._.U.L.0 S.U.e W.K.R.L.I.L.K.I.B.T.",
"K.e e I.H.R.M.V.K.G.Q.H.W.E.e B.`.9 W.K.q _.U.5 ].7 W.E.M.E.g.Y.g.W.L.H.q U.P.P.B.R.R.U.L.N.R.I.I.W.",
"R.M.H.T.B.B.L.V.W.e E.H.H.L.T.G.M.L.R.P.0 E.R.M.U.M.Q.G.g.`.8 U.K.H.K.G.W.L.U.U.Q.e W.H.T.W.B.B.H.I.",
"K.T.B.G.U.G.K.Q.B.J.K.K.G.W.M.V._.q K.Y.W.M.K.K.M.W.0 R.g.B.W.q Q.g.U.T.M.H.E.R.M.G.W.W.L.H.W.q H.N.",
"J.T.G.M.H.U._.8 Q.U.G.L.U.M.H.Q.M.K.V.H.H.U.Q.0 H.E.g.R.W.q K.N.M.U.L.L.K.V.K.].V.M.Q.e W.J.G.G.R.9 ",
"G.M.e Q.e K.A.U.Q.0 K.S._.V.N.V.U.U.G.M._.G.E.q P.P.M.M.U.P.q g.R.W.q G._.H.W.`.M.W.q R.).U.q g.U.H.",
"8 J.R.e H.R.T.`., R.W.M.L.H.L.W.M.K.M.R.g.R.K.M.K.P.Y.G.K.q R.g.K.K.g.].K.q U.`.H._.g.E.G.H.K.B.q R.",
"K.H.H.B.M.I.K.V.U.M.K.Y.B.L.Q.G.g.R.H.I.H.G.R.L.M.T.0 W.8 L.P.K.H.L.M.L.[.W.M.W.L.V.U.g.U.N.E.H.L.K.",
"g.S.W.q M._.V.M.V.W.K.T.e G.I.J.M.L.W.L.g.L.K.M._.q E.g.E.J.8 U.G.e `.K.].M.L.T.q H.R.q H.H.G.'.U.K.",
"K.W.q Y.g.E.q W.K.K.S.B.Y.K.e I.U.K.B.L.J.P.M.R.q G.L.U.7 P.U.U.J.K.H.R.K.`.B.R.H.q W.G.V.U.L.Y.U.m.",
"K.I.q H.K.R.B.L.L.E.L.V.q K.B.K.P.L.R.L.g.H.U.q `.g.B.G.U.g.W.g.Y.M.G.W.K._.0 ].g.0 T.M.H.`.H._.T.V.",
"K.q K.W.K.Y.U.M.U.e W.K.V.e Q.M.K.G.M.I.U.V.M.K.R.M.Y.B.W.8 E.q T.K.W.G.R.U.g.W.8 B.'.0 ].R.K.W.7 I.",
"U.e U.I.W.H.e Q.M.V.L.L.U.B.R.N.K.H.R.g.M.K.J.Q.0 I.G.q q _.H.U.H.G.L.W.K.U.B.B.K.H.G.K._.B.[.q M.H.",
"g.H.P.g.K.K.T.H.H.Q.q P.V.e R.V.T.U.M.P.K.g.U.h.B.} 7.;.:.:.;.E c.i._.Y.U.0 R.g.P.L.L.U.P.J.`.g.0 M.",
"K.M.M.Q.H.M.R.B.L.R.M.T.V.R.G.M.K.L.P.M.G.L.K.h./ 0.=.;.-.;.=.W { l.g.K._.H.K.M.P.p.`.H.P.M.W.H.e 0 ",
"J.H.Y.g._.M.G.K.T.K.'.6 R.R.M.M.W.q h.Q.e H.g.c.J &.4.1.] K %.%.&.0.1 B.K.T.g.M.K.W.K.W.M.G.P.H.M.).",
"q T.q _.U.g.Q.H.M.K.'.B.K.K.V.V.H.L.K.L.G.g.i.[ X.%.8.] ( > Q 2.-.J / D.K.0 H.K.T.g.W.W.J.L.8 K.V.].",
"T.B.H.Q.L.G.K.H.H.H.J.R.K.M.U.Y.g.K.H.q L.Z./ L l 6.C.N.N.< Z.Q ,.#.,.l.H.M.I.w T.W._.Y.g.B.q K.].H.",
"0 N.L.K.B.U.K.K.P.B.U._.0 U.E.g.I.V.0 W.K.s.R P l q.N.R.9 B.B.C.[ $.<.u.K.G.U.R.H.R.J.U.H.e _.g.Q.G.",
"K.B.P.U.G.J.S.U.L.H.G.).0 R.T.e H.E.M.H.h.l.E P @.' E.g.U.m.R.S.j.7.=.a.W.0 K.T.Q.M.W.0 W.q S.`.q B.",
"W.G.q `.8 B.R.U.G.W.K.H.W.M.W.q G.U.W.g.h.u.R D @.{ U.5 K.`.B.S.!.7.=.a.V.U.L.I.W.L.M.V.N.W.0 P.L._.",
"L.W.q L.M.'.e L.M.T.`.B.K.M.`.B.K.0 B.U.B.u.^ H @._ g.q W.I.g.(.^.e.3.( H.R.U.R.L.I.M.H.R.M.W.K.T.M.",
"g.E.0 `.G.B._.E.K.H.V.H.E.U.M.L.e K.B.7 E.0 i.E j J ~ 4 F.i.~./. Xe.6.z.T.6 T.I.K.W.e K.M.L._.q Q.U.",
"W.e H.R.U.U.U.K.K.`.H.H.U.g.E.S.U.m.8 N.M.q B.Y y d n T / c.0.n.|.6.` N.e `.e ].q S.G.`.M.K.M.I.].e ",
"G.`.I.q Y.T.q T.K.'.I.0 Y.K.0 U.h.Z.~ u.3 A.9 M t r p V n ,.,.w.r.` d.N.9 Q.e W.L.B.G.U.M.Y.U.'.8 H.",
"G.W.L.T.G.W.K.Y.M.W.e W.K.m.m.K.D.} b T : 2 u.v O O t u ..Z G 1.'  .D.1 U.R.H.`.M.0 K.M.W.R.K.R.U.q ",
"W.J.K.E.K.U.K.Q.V.B.V.T.K.0 A.s.j.E a - ; > Y x O @ h c &.F I Q k.p.K.m.R.L.R.M.T.K.8 K.E.Y.M.K.M.U.",
"K.M.`.U.K.E.h.R.U.L.W.8 I.0 C.| v - * = * g F h h > ) k.k.d.C.u.B.g.G.T.B.E.W.K.M.H.H.M.Q.V.`.0 U.U.",
"K.L.0 W.L.R.L.G.K.E.e T.0 g.^.9.% @ @ & p d C F m  .H.B.J._.M.w L.L.P.I.H.T.U.H.0 G.K.T.M.R.W.K.B.G.",
"g.K.L.L.P.W.K.H.K.g.V.V.g.B.y.#.X .   $ X.X.j U C.9 E.P.B.T.8 I.T.M.M.I.Q.G.`.B.e K.e T.U.K.E.V.N.K.",
"G.W.G.Q.M.U.0 H.H.`.6 L.8 W.t.P o   X r >.*.F ( S.w E.e H.e I.e W.G.V.T.R.K.W.5 K.e H.`.q W.L.H.).K.",
"G.`.I.7 [.8 Y.g.J.G.U.M.H.M.!.R f s p h o.2.{ C.m.R.B.w K.W.e M.V.R.M.Q.M.R.e B.L.T.e I.W.B.e L.U.w ",
"H.N.K.W.L.8 H.R.V.0 M.R.M.0 U.x._ H A X.+.L ~.M.M.M.K.T.e H.M.9 K.Q.H.B.G.Q.K.W.e G.`.I.e K.T.H.M.0 ",
"M.W.g.Q.J.q W.8 g.U.0 P.K.N.U.A.v.[ D H L z.9 L.B.H.m.0 R.M.B.K.G.}.e M.K.W.K.K.U.0 {.e H.].6 e ].M.",
"U.G.H.G.G.R.G.J.G.q _.H.h.`.g.E.N.x.E [ ^ A.M.q R.w w L.H.m.I.K.K.K.Y._.L.3 R.I.G.U.K.T.J.P.e V.L.0 ",
"K.W.q K.G.K.q g.L.W.K.M.Q.W.B.H.R.g.h.f.8 U.G.h.0 H.V.E.M.e I.I.W.L.T.M.B.H.H.e L.K.T.`.G.W., W.q U.",
"6 G.L.K.M.G.M.K.J.M.'.K.U.K.V.M.'.e V.0 Q.9 G.G.K.w W.T.0 Q.H.B.Q.M.B.K.M.W.8 H.K.I.`.K.V.H.H.e e T.",
"G.L.L.g.e U.K.8 W.U.R.K.q Q.L.U.U.H.g.0 K.T.M.0 K.S.M.W.H.I.U.L.P.K.T.H.V.V.0 K.T.J.T.M.T.M.N.M.K.L.",
"G.R.g.M.I.g.e E.M.W.U.K.G.'.g.H.g.U.J.V.0 M.W.G.M.H.E.U.G.E.M.W.T.M.Q.8 H.K.e T.E.R.H.R.B.e V.U.e `.",
"U.K.0 U.q R.K.U.K.U.B.H.'.0 W.q H.G.K.H.H.P.0 K.U.U.`.U.J.g.P.q ].0 W.0 G.e R.V.L.W.e K.T.6 V.G.K._.",
"h.U.0 U.W.q R.T.0 Q.Y.B.L.L.q Q.q V.M.G.M.H.I.U.R.g.H.`.B.U.R.K.H.e m.T.5 R.T.A.K.Y.T.V.K.V.w W.m._.",
"0 H.I.U.q `.T.G.M.W.E.N.g.q `.M.0 e R.H.U.R.g.W.W.U.T.N.H.W.G.g.G.T.0 V.U.U.B.W.L.W.0 R.M.e T.M.K.U.",
"I.K.q `.R.e P.K.E.W.3 `.H.G.g.A.H.G.J.E.g.R.K.Q.G.P.I.T.7 U.U.7 K.T.V.K.M.T.P.w W.U.H.w G.H.K.L.L.`.",
"q R.R.L.R.8 W.H.L.T.H.M.W.9 P.7 T.J.K.U.E.K.B.W.G.Y.K.R.0 H.q K.U.V.e W.H.H.E.K.K.R.M.0 T.H.K.K.E.V.",
"K.9 R.U.T.E.g.R.R.G.g.K.K.g.L.G.H.H._.g.H.W.A.K.K.U.H.U.q V.U.q E.S.q L.M.'.T.K.0 T.q L.W.B.K.E.M.'.",
"q Q.0 _.M._.g.].q W.6 G.L.U.K.K.g.J.L._.q E.H.I.K.G.G.M.B.R.g.W.0 V.R.Y.V.'.5 Q.M.M.e T.M.R.U.E.K.M.",
"q `.A.A.K.U.G.I.q L.G.R.g.q E.U.G.H.W.K.R.P.U.g.W.g.P.G.q M.T.K.L.8 `.W.V.G.L.`.B.0 w T.U.M.`.V.V.K.",
"I.K.K.R.G.L.M.W.M.K.U.p.L.G.L.G.U.U.K.K.E.q J.K.H.I.G.q g.L.G.I.K.T.W.U.M.K.V.T.6 G.Q.M.G.I.`.M.).L."
};
