/* XPM */
static char *bacda71d7f6a44b3b6acb332cc779e52ooxc8qAhL2fNEKvR[] = {
/* columns rows colors chars-per-pixel */
"50 51 205 2 ",
"   c black",
".  c #0D0B08",
"X  c #090807",
"o  c #16140F",
"O  c #181613",
"+  c #1B1916",
"@  c #171513",
"#  c #221F1B",
"$  c #282417",
"%  c #2B261A",
"&  c #252219",
"*  c #2B2722",
"=  c #2C2923",
"-  c #2B2B29",
";  c #302B27",
":  c #332E29",
">  c #3C3624",
",  c #3F3826",
"<  c #39352F",
"1  c #36322C",
"2  c #3D3933",
"3  c #393630",
"4  c #413926",
"5  c #423C2A",
"6  c #483F2B",
"7  c #443D36",
"8  c #48422F",
"9  c #4D463B",
"0  c #424039",
"q  c #564D3B",
"w  c #5D543E",
"e  c #65593D",
"r  c #695D3D",
"t  c #4A4A44",
"y  c #544E44",
"u  c #5A5244",
"i  c #5D544A",
"p  c #555147",
"a  c #595954",
"s  c #585752",
"d  c #655A42",
"f  c #695F42",
"g  c #61594D",
"h  c #685F4F",
"j  c #665D52",
"k  c #6E6242",
"l  c #6B604B",
"z  c #706549",
"x  c #766A4B",
"c  c #7B6E4C",
"v  c #756846",
"b  c #7C704E",
"n  c #6B6356",
"m  c #6A6558",
"M  c #71665A",
"N  c #776D5B",
"B  c #7D7253",
"V  c #7A7159",
"C  c #7A6E61",
"Z  c #736F63",
"A  c #7C7163",
"S  c #7C7767",
"D  c #82734E",
"F  c #877956",
"G  c #8A7B54",
"H  c #857959",
"J  c #8A7D5C",
"K  c #827655",
"L  c #817568",
"P  c #877B6B",
"I  c #8A7F70",
"U  c #8C805C",
"Y  c #9B8A5C",
"T  c #938359",
"R  c #A2905F",
"E  c #9E8E62",
"W  c #9F9068",
"Q  c #8D8173",
"!  c #868378",
"~  c #928475",
"^  c #958778",
"/  c #9B8D7E",
"(  c #908B7B",
")  c #9F9474",
"_  c #A49264",
"`  c #A8976A",
"'  c #B29E6A",
"]  c #A49571",
"[  c #AE9F76",
"{  c #B09F71",
"}  c #B6A36E",
"|  c #BEA86E",
" . c #B4A474",
".. c #BCA974",
"X. c #B5A67E",
"o. c #C0AA6F",
"O. c #C3AE75",
"+. c #C3AF7A",
"@. c #C6B177",
"#. c #CAB476",
"$. c #C7B37A",
"%. c #CCB579",
"&. c #CEB87A",
"*. c #D4BC7B",
"=. c #D8BF7C",
"-. c #D7C07F",
";. c #DAC17E",
":. c #9F9181",
">. c #949080",
",. c #A59585",
"<. c #A89887",
"1. c #A59C8D",
"2. c #AB9C8B",
"3. c #B5A68B",
"4. c #BDB08C",
"5. c #ADA493",
"6. c #AEAE9D",
"7. c #A4A39A",
"8. c #B4A592",
"9. c #B9A795",
"0. c #BBA996",
"q. c #BDAC99",
"w. c #B5AD96",
"e. c #BCB29E",
"r. c #ABA28A",
"t. c #AFAFAF",
"y. c #C7B687",
"u. c #D4BE82",
"i. c #C1AE9B",
"p. c #C4B29E",
"a. c #C4BB9F",
"s. c #C5B5A1",
"d. c #C9B6A2",
"f. c #CDBAA5",
"g. c #C6BCA8",
"h. c #D2BEA9",
"j. c #D6C084",
"k. c #DCC483",
"l. c #D6C28B",
"z. c #DCC68A",
"x. c #DFC88C",
"c. c #CEC09B",
"v. c #DAC793",
"b. c #DEC992",
"n. c #D7C69A",
"m. c #E0C783",
"M. c #E3CA85",
"N. c #E9CE86",
"B. c #E3CC8B",
"V. c #E8CF8A",
"C. c #E7D08F",
"Z. c #EAD18E",
"A. c #E5CE91",
"S. c #E3CD92",
"D. c #E2CE99",
"F. c #E7D092",
"G. c #E6D094",
"H. c #E9D191",
"J. c #E9D295",
"K. c #ECD596",
"L. c #EAD393",
"P. c #E6D199",
"I. c #E6D29A",
"U. c #E9D399",
"Y. c #EBD59A",
"T. c #EDD699",
"R. c #E9D59E",
"E. c #EDD79C",
"W. c #EBD59B",
"Q. c #EED89E",
"!. c #C9C2AE",
"~. c #D5C1AC",
"^. c #D2C6A2",
"/. c #DDCAB3",
"(. c #D7CBB4",
"). c #DAD1BB",
"_. c #E6D4A2",
"`. c #EBD6A1",
"'. c #EED9A2",
"]. c #EEDBA9",
"[. c #E3D5A9",
"{. c #F0DDAA",
"}. c #E3CFB7",
"|. c #E5D4BC",
" X c #EAD5BC",
".X c #EED6B0",
"XX c #F1DEB1",
"oX c #F1E0AF",
"OX c #F3E6BF",
"+X c #D4CBC1",
"@X c #DAD2C6",
"#X c #EDDBC3",
"$X c #E5DDC7",
"%X c #F3DDC4",
"&X c #ECE2C4",
"*X c #F4E0C6",
"=X c #F3E3C9",
"-X c #FAE4CB",
";X c #FCECD3",
":X c #F6EBD0",
">X c #F5F2DB",
",X c #FFF3D8",
"<X c #FFF9DD",
"1X c #FCF9E7",
"2X c #FCFCF3",
/* pixels */
"F.k.l.A.z.k.x.E.u.A.K.L.H.=.].j.b.W.j.K.l.R.l.P.B.B.W.j.C.J.H.N.M.S.=.M.k.B.D.k.B.U.M.B.M.U.m.D.H.;.",
"x.K...U.=.x.B.b.I.k.J.C.m.D.k.x.E.m.K.k.b.S.H.=.A.'.V.j.V.m.;.].M.=.A.m.B.W.u.J.k.z.C.u.W.k.K.W.M.K.",
"m.C.M.B.J.=.K.j.J.M.V.`.=.V.{.*.A.K.*.H.M.W.M.m.].=.A.M.].H.*.x.k.L.m.C.*.E.j.M.m.B.K.V.U.J.B.S.`.M.",
"B.;.;.J.R.*.B.m.D.R.l.W.z.B.V.z.'.&.`.A.=.m.W.B.J.k.J.E.u.u.W.#.k.`.A.V.*.S.B.k.E.B.U.C.C.V.B.Z.m.J.",
"B.;.k.H.m.E.j.B.S.m.W.m.Y.D.;.z.'.%.W.S.=.'.A.$.XX@.W.D.k.R.u.b.u.Y.V.M.=.C.C.A.k.L.J.D.N.z.L.V.H.K.",
"L.j.M.F.k.k.B.B.W.;.U.N.M.C.H.M.k.C.H.V.*.P.H.k.B.k.E.M.k.`.&.S.B.B.B.m.Y.B.D.A.E.k.K.M.H.D.B.l.M.H.",
"B.H.k.M.A.m.B.Q.z.N.B.B.m.U.k.z.Q.=.B.D.J.k.B.A.k.E.*.L.u.k.R.=.Q.=.A.G.u.B.`.H.k.m.I.W.V.M.Y.=.M.l.",
"M.H.M.j.M.A.`.%.Q.B.m.V.G.z.M.'.k.B.z.B.M.A.E.*.M.I.u.J.E.=.B.l.u.A.C.V.B.M.V.{.z.m.'.k.E.N.m.m.J.*.",
"m.j.;.Q.;.B.v.b.'.*.B.b.`.z.z.B.G.B.B.j.E.m.W.=.H.H.k.k.S.V.=.F f W =.m.'.m.W.'.j.R.=.H._.B.-.u.D.M.",
"*.V.H.;.M.J.H.'...L.E.j.Z.M.B.W.j.V.j.H.k.L.z.m.B.A.D.m.B.=._ n t d E ].B.;.C.`.k.'.j.P.M.B.B.k.*.Z.",
"B.m.M.z.m.Z.B.x.P.k.B.S.k.B.Q.m.;.H.M.C.M.m.L.C.k.D.=.W.%.V.$ 6.).n 4 V.].W.k.I.Z.M.S.j.S.l.W.x.V.B.",
"u.S.W.=.k.`.z.z.x.U.A.H.k.m.V.M.k.Z.K.V.u.C.B.k.W.=.P.u.W.M.& t.+Xj 6 B.{.k.C.L.=.B.H.=.N.m.M.].D.B.",
"B.W.=.D.u._.=.W.B.B.b.x.S.B.m.Z.S.B.k.H.M.H.k.L.;.m.C.B.$.D.$ t.@XM > W.S.'.l.L.z.;.K.k.z.S.C.b.D.;.",
"B.H.=.M.V.J.m.V.V.G.C.B.=.x.k.B.H.V.J.V.;.B.S.*.'.u.z.M.B.u.] n 7.6.h f B.`.*.{.;.*.H.k.V.'.k.'.H.m.",
"V.=.M.K.M.D.b.k.S.;.Q.B.B.;.E.k.M.m.;.J.H.z.z.B.H.k.D.z.U.$.U V !.).~ i c x ..J.*.k.].*.{.H.B.W.#.B.",
"D.;.S.C.W.M.;.'.k.z.B.V.b.z.U.z.x.B.H.;.;.M.` ` T _ ' ;.;.W.$ 7.&Xe.,.<.t t H +.B.x.m.B.'.k.oX*.k.B.",
"k.m.D.k.B.B.J.M.B.Q.=.D.m.u.Y.M.P.S.k.B.$.{ = O O O q O.D.M.> C ~ L ~ d.1X1Xs b l.V.V.A.L.V.Q.k.;.j.",
"M.k.j.W.M.k.U.m.N.H.k.G.B.G.M.u.B.V.A.Y . @ ~.h.i.9.C 4 u.Y.u.6 X X 1 2.p.>X1Xm z y.'.M.Z.;.K.x.;.*.",
"V.m.D.u.`.k.B.z.H.B.'.#.L.Y.k.z.W.;.J l g.s.#Xh.i.i.3.C 8 =.L.} _ X.D * ; ,.#X@X^.P.M.Q.j.m.F.M.k._.",
"=.J.=.'.b.;.E.M.k.B..XM.B.B.B.m.M.Y N 6.1X-X#Xd.2.,.,./ g q #.T.E.m.O.J D 9 ,.$X*Xk.W.J.B.B.*.B.x.oX",
"C.z.V.U.V.m.V.m.M.B.V.H.B.k.S.D.Y h ] ;X>X%X Xi.,.<.9.p.i.g F o.].l.U.S.B.r ] ^.].K.R.b.u.x.;.M.{.M.",
"*.l.Z.B.k.D.B.B.H.k.B.'.u.S.I.u.5 C }. X#X#Xh.,.<.0.i.d.d.%X* ] V.V.V.=.M.m.C.J.V.W.V.S.M.k.R.u.E.m.",
"B.x.C.A.m.B.x.D.V.M.k._.*.L.C.;.4 M h. X%X/.i./ 9.j     O %X: E l.H.M.=.W.u.B.H.XX.XK.*.W.=.v.'.*.m.",
"U.m.=.`.*.k.H.S.M.W.B.x.W.m.I.u.4 n i.p.i.9.,./ h.C     O %Xd.y U S.S.=.z.B.V.C.W.F.k.x.z.R.*.H.B.`.",
"V.Y.;.B.m.'.m.B.m.H.'.M.b.l.`.m., j <.<.,.,.,.<./.S     O %Xf.7 K H.V.$.M.F.S.Z.V.C.k.M.H.k.W.B.L.k.",
"k.I.*.].m.k.I.R.B.M.z.M.U.C.k.N.> u <.q.f.!.(.(.=XP = N S h.<.; B j.x.z.H.%.L.Z.B.K.j.V.m.C.`.=.Q.J.",
"W.m.m.J.A.S.S.B.B.`.m.B.A.u.D.b.5 u 0.~.2.5.6.6.@X7.Q  X~.<.^ = F =.B.V.;.Q.;.].=.b.k.'.k.B.;.H.{.;.",
"m.`.V.*.D.J.=.G.B.{.C.*.D.B.*.J.> g h.5.      + w.,X$Xp.d.I :.7 v O.K.B.&.'.j.E.V.k.m.C.k.D.C.{.%.M.",
";.E.B.J.k.U.S.D.k.E.=.W.B.u.u.V., M /.5.      e.-X%X/ < ~.0.2.<.9 e _...C.K.m.].k.*.A.j.W.J.M.U.S.*.",
"T.V.B.I.B.A.B.E.B.l.z.J.B.*.M.=.| d P <.      8.#X~ & 3 ;X%X#X Xi.M e j.K.N.H.l.J.B.*.B.P._.z.M.k.D.",
"V.k.`.S.B.E.l.W.B.V.W.%.H.*.M.j.k.{ l 7 @ P L q.f.,.I 8.<X;X}.|.#X( 4 J.z.J.K.B.k.M.M.=.Q.z.'.*.B.F.",
"B.C.*.Y.V.H.V.;.B.R.;.J.*.u.z.A.$.E.Y d f L C / <.8./.;X,X;X/.p.1.S F V.B.C.A.M.*.m.b.J.j.K.U.B.k.M.",
"u.V.V.V.V.L.N.x.B.u.B.z.u.l.B.A.@.U.k.S.| 1 > y h ^ d.-X-X=X#X^ 9 c ;.C.E.k.oXk.;.B.;.F.b.C.R.z.l.x.",
"m.W.m.E.k.D.u.M.N.`.@.V.&.E.M.O.{.;.m.B.E.k.J.4 . y 8.}.%X2.|.p J m.x.H.Z.Z.K.@.B.;.M.Q.-.W.V.M.R.B.",
"m.`.Z.@.XX%.D.u.M.M.S.k.B.;.L.*.m.Q.H.u.H.W.B.y. .z 9 f.>X,.1 G u.J.k.E.k.K.k.k.V.L.;.Z.Q.k.;.N.F.-.",
"B.l.A.W.V.&.M.G.M.*.k.J.k.*.C.I.H.k.k.J.Q.&.`.m.k.O.c < t : G ..A.Q.M.x.m.Q.z.R.;.k.'.F.;.B.L.M.k.*.",
";.Y.k.E.N.*.E.&.u.G.&.C.V.l.S.S.U.B.D.m.k.W.*.H.M.B.' k c v &.B.m.4.e r k z k } A.&.oX;.x.'.&.;.{.j.",
"A.m.M.m.m.L.k.N.m.=.'.M.u.].=.U.k.H.H.M.;.Z.j.;.U.=.k.V.M.k.H.` T V a a p 0 2 v T { x.F.N.C.;.x.V.*.",
"B.Y.=.B.m.B.u.u.N.P.A.k.E.Y.z.M.J.k.V.m.*.H.m.l.*.M.b.J.k.;.$.u - ! 1X>X&Xa.w.p O w C.'.k.E...R.;.S.",
"#.M.V.B.k.m.m.M.B.m.].B.G.B.B.u.].=.x.*.'.*.m.m.B.=.J.D.*.E.% 6.2X=Xz.x.k.Q.&.4.( ) '.Z.x.M.M.;.;.G.",
"k.V.A.k.k.A.B.&.W.G.L.B.=.Q.B.B.F.M.j.*.V.G.;.=.V.b.k.W.m.J.2.n.'.I.[ & % % % & x j.H.k.H.z.l.j.B.B.",
"m.H.u.k.N.u.;.U.m.U.B.B.m.{.u.B.j.B.M.z.*.k.W.m.k.k.R.S.k.R.u.P.H.R m 7.7.>.Z m g F k.J.x.;.x.C.=.'.",
"S.B.*.S.=.L.B.S.B.D.m.B.'.*.Y.=.m.m.B.M.z.C.=.B.A.S.Q.F.V.u.C.k.].` ! OXOX[.c.4.P b -.C.F.&.x.k.B.`.",
"u.A.&.H.U.u.L.H.*.W.D.z.B.A.=.Q.;.x.k.m.k.B.C.B.J.j.N.'.j.D.L.B.z.l.c.P.@.H.C.v.y.3.C.k.k.x.;.W.j.'.",
"u.m.H.A.*.'.G.m.u.Y.`.u.u.=.`.m.*.;.K.B.B.U.u.E.J.B.P.k.M.Y.m.u.k.J.&.x.B.G.z.R.B.W.-.T.k.;.P.k.C.B.",
"H.B.=.'.A.k.A.B.Y.`.O.'.N.M.m.u.M.;.Z.H.u.W.M.Q.M.A.H.D.@.D.B.$.x.H.x.L.j.G.H.-.W.x.M.-.M.M.M.C.N.].",
"=.H.L.A.L.&.Y.M.V.L.M.;.`.&.P.$.D.N.B.A.U.B.z.W.z.D.B.H.=.M.=.B.F.x.;.J.B.M.P.B.C.L.;.*.P.N.C.C.I.x.",
"N.&.U.V.C._.u.L.L.m.u.B.B.u.N.z.k.V.`.k.m.W.b.B.x.A.M.B.=.z.A.=.J.x.-.C.;.'.P.C.*.C.-.C.T.k.k.P.k.].",
"*.'.*.L.;.W.m.].=.T.%.m.N.A.S.B.u.N.Z.`.=.I.m.H.B.m.M.z.u.L.u.T.*.x.K.P.z.oX#.Q.k.;.;.L.k.W.B.W.B.k.",
"=.'.h.D.B.H.m.G.u.V.m.K.=.=.D.B.m.M.Y.B.L.C.C.=.L.u.C.m.u.m.G.B.Z.%.].W.z.k.C.E.z.*.;.J.G.j.].x.x.B.",
"H.m.V.I.m.V.u.E.u.B.A.u.A.m.V.M.S.A.B.B.P.=.B.B.M.L.m.=.=.Z.m.C.x.F.E.x.j.C.x.C.&.k.Q.;.;.Z.].;._.V."
};
