/* XPM */
static char *result[] = {
/* columns rows colors chars-per-pixel */
"50 51 202 2 ",
"   c #000000",
".  c #0B0806",
"X  c #000408",
"o  c #120801",
"O  c #1E1301",
"+  c #251504",
"@  c #2A1603",
"#  c #2A1B04",
"$  c #3B120C",
"%  c #3D2208",
"&  c #382714",
"*  c #151D31",
"=  c #27262E",
"-  c #5D1812",
";  c #621E13",
":  c #432305",
">  c #472A06",
",  c #452509",
"<  c #512E09",
"1  c #4B3307",
"2  c #553607",
"3  c #533D08",
"4  c #4F2910",
"5  c #493316",
"6  c #563312",
"7  c #5F341D",
"8  c #693906",
"9  c #793606",
"0  c #602410",
"q  c #742317",
"w  c #7A2813",
"e  c #503D35",
"r  c #60382C",
"t  c #534814",
"y  c #6D430B",
"u  c #68490D",
"i  c #77480A",
"p  c #75560E",
"a  c #7B540D",
"s  c #694A17",
"d  c #7B4315",
"f  c #6C5311",
"g  c #775511",
"h  c #7C5B11",
"j  c #7E6013",
"k  c #5A4728",
"l  c #754826",
"z  c #764D36",
"x  c #6B523A",
"c  c #212C4A",
"v  c #303968",
"b  c #5F3052",
"n  c #2F406C",
"m  c #334575",
"M  c #4C525F",
"N  c #565655",
"B  c #704C46",
"V  c #756856",
"C  c #434D7B",
"Z  c #8E1F11",
"A  c #A81F10",
"S  c #9E301D",
"D  c #AF3418",
"F  c #8A3A32",
"G  c #CE200E",
"H  c #D63D1D",
"J  c #D03C29",
"K  c #99480A",
"L  c #845C0D",
"P  c #894714",
"I  c #8B5912",
"U  c #8C610D",
"Y  c #886515",
"T  c #947013",
"R  c #997317",
"E  c #97751A",
"W  c #A7670B",
"Q  c #BF7608",
"!  c #A67816",
"~  c #865E29",
"^  c #885834",
"/  c #9C5632",
"(  c #8B692A",
")  c #957A32",
"_  c #A56D39",
"`  c #B7743D",
"'  c #F2481C",
"]  c #CB6F15",
"[  c #D84521",
"{  c #E85A33",
"}  c #856741",
"|  c #9C7B54",
" . c #AE6C42",
".. c #E15154",
"X. c #D7685C",
"o. c #C06966",
"O. c #A6831D",
"+. c #AE821A",
"@. c #B48616",
"#. c #BC951E",
"$. c #878B32",
"%. c #A48422",
"&. c #B1902F",
"*. c #B89428",
"=. c #B18D33",
"-. c #D48314",
";. c #C8941D",
":. c #D19C15",
">. c #F49A0E",
",. c #DEA91C",
"<. c #F5B012",
"1. c #FEBB14",
"2. c #D28227",
"3. c #C5992A",
"4. c #D69730",
"5. c #CEA02C",
"6. c #CAA739",
"7. c #CEB534",
"8. c #E5AA28",
"9. c #E6B22D",
"0. c #EDB52E",
"q. c #FAC814",
"w. c #FAC63C",
"e. c #FFC83F",
"r. c #F9DC3A",
"t. c #9B8F50",
"y. c #988471",
"u. c #BB8B66",
"i. c #A99669",
"p. c #B39677",
"a. c #B7A36F",
"s. c #BCA874",
"d. c #C68D58",
"f. c #CD955F",
"g. c #D6945F",
"h. c #EC8A42",
"j. c #D3B157",
"k. c #C6966A",
"l. c #C18674",
"z. c #C7AA6B",
"x. c #DCA16B",
"c. c #C3AE76",
"v. c #C6B177",
"b. c #CAB578",
"n. c #CCB579",
"m. c #D4BC7B",
"M. c #D8BF7C",
"N. c #F3B968",
"B. c #DEC94B",
"V. c #FFC941",
"C. c #ECC350",
"Z. c #D7C07F",
"A. c #DBC27E",
"S. c #E3C96C",
"D. c #FFD366",
"F. c #3A4F87",
"G. c #747C8E",
"H. c #4E6AB3",
"J. c #9F929A",
"K. c #B59D84",
"L. c #9AA2B9",
"P. c #B3B0AC",
"I. c #D2A884",
"U. c #CBBA84",
"Y. c #D4BE82",
"T. c #D6B987",
"R. c #E8B28D",
"E. c #D6C084",
"W. c #DCC483",
"Q. c #D7C28A",
"!. c #DCC68A",
"~. c #DFC88C",
"^. c #DBC792",
"/. c #DECA93",
"(. c #DECC9B",
"). c #E0C783",
"_. c #E3CA85",
"`. c #E9CE86",
"'. c #E3CC8B",
"]. c #E9CF8A",
"[. c #FFC38C",
"{. c #E7D08F",
"}. c #EAD18E",
"|. c #FCD08E",
" X c #E4CE92",
".X c #E2CE99",
"XX c #E6D094",
"oX c #EAD394",
"OX c #E6D29A",
"+X c #EBD59B",
"@X c #EED89E",
"#X c #E5D4A2",
"$X c #EAD6A1",
"%X c #EEDAA3",
"&X c #EEDCA9",
"*X c #F0DDAA",
"=X c #F1DFB1",
"-X c #F1E0AF",
";X c #F8E8B8",
":X c #F2E4D7",
">X c #D2DEFC",
",X c #F8F5F2",
/* pixels */
"XXW.Q. X!.W.~.+XE.'.oXoXoXm.&XW.^.+XW.+X^.OXQ.OX_.'.oXE.XXXX}.`._.~.A.W._.`. XW.~.OX'.'.`.OX). XXXA.",
"~.+Xs.+XZ.        X XXoX_.XXW.~.+XW.oXW.'..XXXZ. X%X].W.]._.A.&X_.A. X_.~.+XY.oXW.!..XA.+XW.+X+X_.+X",
"A.}._.'.  &.V.e.4.h     m.XX*Xm. XoXm.XX_.oX_.W.*Xm. X_.&X{.m.~.W.+XW.'.m.@XA._.'._.oX].OXoX'. X+X`.",
"].A.A.  =.D.8.1.<.4.h $     `.!.%Xm.@X Xm._.+X`.oXW.+X+XM.Q.OXb.W.%X'.}.m./. XW.+X'.XX}.'.].'.}.W.+X",
"'.A.  $ D.e.1.e.1.4.a ; $ t   W.%Xn.+X'.Y.%XXXv.=Xb.+X.XW.OXY..XY.+X'._.M..XXX XW.+XoX.X`.Q.oX{.XX+X",
"oX  R w D.8.0.0.e.4.h ; $ R 3   W.{.}. Xm.OXXXW.'.W.+X_.Y.%Xn. X'._.'._.+X].'. X+XA.+X_.oXOX~.!._.'.",
"'.  5.w 3.D.D.e.8.4.q q , R R   @XM.'..XoXW.'. XW.+Xm.oXE.W.OXA.%XA.'.XXW._.+XXXW.W.+X+X]._.oXm._.W.",
"`.  5.D [ h.h.h.h.D S q P @.R   W.~.~.`._. X@Xm._.OXY.XX@XM.'.Q.W.'. X].].!.].*X!._.%XA.+X`._._.XXm.",
"W.  R 5.D H H H H G q d :.@.t         W.@XA.+XM.oX XW.Q.'.}.M.W.oX+XM.).@X_.+X@XW.+XY.oX#X'.M.M.XX_.",
"m.].  3.e.R I P d d I :.8.t o 0 7 _ _     +X~.W.'.{.OX).'.M.XXT.'.'.E.*X'.A.XX%X!.$XA.OX_.'.~.~.M.XX",
"_._.  t *.w.e.D.D.D.V.9.u #   $ A [.[.d._   X {.W..Xm.+Xn.'.XX_._.'.A.`.&XOX!.OX].~.'.E./.!.XX~.].'.",
"T.'.+X    t p p R R g 3 # = . Z A f.g.d.d.d.7 X %X_.W._.W. X/. X_.A.%X].&XW.}.XXA.'.XXm.`._._.&X.X'.",
"'.+XM./.    V   R.,X  P.l   $ Z [ S _ 7 _ ).R._   c.'.A.`.%Xm.M./.'._.+X/.%XE.oXW.M.oXW.!. X}.(..XA.",
"'.}.M.'.  / & & | I.T.k.l e B F J X.A 7 7 7 ` [.`   ].XX).].+X+XM./.).+X'.$XM.*XA.M.oXW.`.%XW.%XXXW.",
"].M._.oX'.x z % : : , , : , < j ( p.l.B . X ` g.`   A.W.%X XA.A.+XA./._.+X'.E.+Xm.~.&Xm.*XoX'.+Xb.].",
".XA. X}./.7.&.#.| z.u 3.B.g &X6.a i a P.,   g.g.  }.'.m.*X)._.'.A.@Xm.+X_. XQ.!._.~.W.'.%XE.=Xm.W.'.",
"E.W. XA.S.> : , , , > : @ U.i.: u o % 1 J.u.d.`   }.)..X~.}.`.`.'.A.+X(. XM.oXW. X'.'. XXX`.$XW.m.W.",
"].W.W. X=.@ 4 2 6 6 6 < u j.k # 3 O O u ~ } z   _.A.]. X X%X).).`._.A.}.+X'.'.W.XXm.&X_.}.A.oX'.W.m.",
"].W..Xv.=.h a a h L h a *.&.< i K K 8 ! 2 %.,.4     '.A.}.'. X%XW.`._.].`.OXA.E.'.OX_.@XE._.XX_.W.#X",
"M.oXZ.%XW.z.V y.g f j h %.t.$.-.M.Q P +.1 : ! w *     _.A.}.'.XX%XW.`.+X'.m._.~.XXW.+XoX`.'.m.{.~.&X",
"XX!.].+X}._.'.N Y y N.|.;Xs v R.,Xw.i ! 1 # U s = *     _.A.}.{.XX%X).'.'.W.}.M.XX+XOX.XY.W.A._.*X_.",
"m.E.XX'.W. X~. Xh d ..N.:Xs. .q.C.<.Z ! 1 # U 0 * c *     W.~.%X}.'.}.A._.). XoX_.oX]. X_._.OXY.+X_.",
"].!.'.}.W.]././.Y y { K.` W '.r.>.] K ! 1 + U = m F.c * M   oXoX!.}.'.M.+Xm.'.oX@XW.+XM.OXZ.^.%XM.W.",
"OX_.m.%Xm.W.oX Xh y R 0.4.Q r.:.8.] b #.u T L C H.H.F.* G.M   ].+X/.'.M.!. X'.}.+X'.W.~.Q.+XM.XX'.$X",
"'.+XA.].W.%XW.'.j y 2.p.L.o.' @.t.t r ! 1 % U n F.F.F.n G.M X XX+X}._.v._.XX XoX'.}.W._.oXW.+X'.oXW.",
"W.+Xm.%X_.W.+X.Xj y W 9 - Z D W Z 8 7 +.2 @ U # c c n L.>XM   oX.XW.'.~.XXn.XX}.'.oXW.'.).XX$Xm.%XXX",
"+XW._.XX X X X'.( O.%.T h %.E u O.O.R #.1 + U # X G.>X>XG.7 /     Y._.'.W.%XA.*XY. X_.+XW._.).].*XA.",
"W.@X{.m.OXXXM.XXa.3.O.! f 3.( i j O.! +.E + I d 7 X       / [./ 7   oX].n.@XA.+X'.W.).}.Q..XoX%Xn._.",
"_.+X'.oXW.OX X.XW.i.,.u % t ;.R > % # # %.&.T u. .7    X X  d.[. .7   c.].+X_.%X_.m. XY.+XoX_.OX Xm.",
"+X}.'.OX'. X'.+X!.U.%.B.! R U h p a U T =.7.6.k.d.^    X+X  x.[.d.^   E.+X`.oXE.oX'.m._..X#X!._.W..X",
"_.W.%X~.'.OXQ.+X X].T.5 r.#.5 5 5 5 5 k ) Y 3 k.7 7   +X'.  7 x.7 7   XXW.OX+X'.W._.'.M.@X'.%Xm.'.XX",
"'.].m.+X].oX}.A.'.OXW.XXt.a.~.XXv.@Xm.~.Y.. ^ 7 d.^   E.].  d.7 d.^   ].'.{. X_.m._.^.oXA.+XOX'.E._.",
"W.'.'.}.}.+X_._.'.Y.~.!.T.W.'. Xb.OXW./.W.  x.7 [.7   ].W.  [.7 x.7   }.@X).%X_.W._.A. X X XOX_.Q.'.",
"W.+XA.@XE..Xm.'.].@Xb.`.m.OX_.v.*XM._._.+XW.        +XW._.W.        ~.XXXX].+Xc.'.W._.%XM.+X].'.OX'.",
").%X}.n.-Xn..XY._.). XW.W.Z.oXm.).+XXXY.oX+X'. XY. XE.E.'.@XA.W.~.oXE.@XW.oX).W.'.XX).].+XW.A.`.XXA.",
"'.!.'.+X].n._.{.'.m.W.oXW.m.XXOXoXW.).oX%Xn.@X).E._.]. Xm.].W.n. X+X_.'.).%X!.$XM.).+XXXA. XoX_.E.m.",
"A.OXW.+X].m.+Xm.Y. Xm. X{.!./.XX+X'. X_.E.+Xm.XX'._.M.m.oXE.!.'.).-XY.W.'.+X_.'.'.m.&X_.'.%Xn.A.*XW.",
" X_._.).).oXW.].W.A.@X].E.%XZ.+XA.+XXX_.A.}.W.M.+XM.W.]._.Q.{.'.'.'. X&X`.c.oX}.W.OX!.}.`.'.W.~.].m.",
"_.+Xm.'.).'.M.Y.`.OX XA.+X+XW.~.XXA.}.W.M.XX_.!.m._.~.oX).A.XX].+X].XX!.!._._.A.}.'. X%XW.+Xs.$XA. X",
"b._.}.'.A._.W.'.].W.&X'.XX_.'.E.&XZ.~.m.@Xm.A._.'.M.+X.Xm.+X`.W.$X).W.'.).+Xn._.'.}.%X].~._._.A.A.OX",
"W.'.].T.A..X_.m.+XXX+X_.M.@X].^.XX_.W.m.`. XA.m.'.^.W.+X).oX{.].XX'.OX_.~.!.m.'.XX`.XXW.XX!.Q.W.'.'.",
"_.{.W.W.].Y.A.OX_.OX'.'.).*XW.'.A.~.~.!.m.W.+X_.E._.OX.X_.OXE.+X{.W.+Xn.'.'.A.{.OXXX_.oXW.A.~. XA.%X",
" X_.m..XM.oX'. X'. X!.'.%Xm.oXM._._.'.W.~.XXA.'.XX X+X X`.Y.{.A.*Xm.oXm._.A.OX'.].+XZ.XXXXn.~._.'.+X",
"^. Xm.{.+Xm.oX Xm.+X.XW.{. XA.+XA.~.W._.W.W.}.'.+XA.`.%XW..XXX'._.A.E.OXv.}.XX^.'.OXXXW.W.'.Z.OXE.$X",
"n._.].].m.%X.X_.W.+XOXQ.Y.M.%XW.m.A.oX~.'.+XY.+XoX'..XE._.OXW.W._.XXm.~.'.XXW.+X].+Xm.oX_.A./.W.'. X",
"oX_.M.%X].A.].'.oX%Xs.$X'.).W.!.`.W.].XXT.+X_.%X_. XoXoXb. X Xv.~.XX!.}.E.XXXXZ.+X/._.Z.W.`.].].].&X",
"M.oXoX XXXm.+X_.}.XX_.W.$Xn..Xv.XX].'. XoX'.!.oXW..X'.oXm._.M.'..X'.A.OX'._.OX'.{.oXW.m.OX`.'.'.OX'.",
"].n.oX X XOXW.XX+XW.A.'.'.Y.`.).W.].+XE._.+X^. X'. X_.'.A.!. XM.XX~.Z.].A.%XOX].m.XXZ.'.+XW.'.OXE.&X",
"m.%Xm.OX).OX!.%XM.+Xb.W.'. X'.'.M.].}.+XW.OX).oX'._.).W.!.+XY.+Xm.~.oX.X~.*Xv.%XQ.A.A.oXW.oX X+X'.W.",
"M.%X^./. X X_.{.M.]._.oXA.M.OX XW._.+X'.oX X].m.XXY. XW.M.W.oX'.].n.%X+X~.W.].@XW.m.Z.XX XW.&XW.~.'.",
"oX_.'.OX_.].W.+XW.'.'.U.{._.].W. X X'.'.XXW.'._._.oX_.M.M.].W.}.'.XX$X'.W.'.~.XXm.W.@XW.W.}.&XW.#X`."
};
