/* XPM */
static char *_968c0afa01440049687af965121e6f5hWjBfddoPZ4RBrua[] = {
/* columns rows colors chars-per-pixel */
"50 51 123 2 ",
"   c black",
".  c #050909",
"X  c #22142F",
"o  c #20222F",
"O  c #7A6010",
"+  c #301D42",
"@  c #381261",
"#  c #750E40",
"$  c #432A5B",
"%  c #52336F",
"&  c #3B4060",
"*  c #7F4E4D",
"=  c #83203E",
"-  c #86145A",
";  c #8E145F",
":  c #A01558",
">  c #E33C72",
",  c #C74068",
"<  c #DD527B",
"1  c #BA9831",
"2  c #BBA875",
"3  c #C2AE77",
"4  c #C6B177",
"5  c #CAB477",
"6  c #C7B278",
"7  c #CDB679",
"8  c #CFB87A",
"9  c #D4BC7B",
"0  c #D8BF7C",
"q  c #FBDD5D",
"w  c #D7C07F",
"e  c #DAC17D",
"r  c #5E269A",
"t  c #7739B2",
"y  c #5E6F86",
"u  c #C3388D",
"i  c #CD388A",
"p  c #DF5A9B",
"a  c #E641A6",
"s  c #EE5FAE",
"d  c #F673BB",
"f  c #934CCC",
"g  c #B06DE6",
"h  c #CB8E8C",
"j  c #F78396",
"k  c #CEB981",
"l  c #D5BE81",
"z  c #FF83AD",
"x  c #FF90BF",
"c  c #E2B8AA",
"v  c #F9B0BB",
"b  c #D6C084",
"n  c #DCC483",
"m  c #D7C38C",
"M  c #DCC689",
"N  c #DFC88C",
"B  c #DAC792",
"V  c #DEC992",
"C  c #DFCC9A",
"Z  c #E0C783",
"A  c #E3CA85",
"S  c #E9CE86",
"D  c #E3CB8B",
"F  c #E8CF8A",
"G  c #E7D08F",
"H  c #EAD18E",
"J  c #E4CE92",
"K  c #E2CE99",
"L  c #E6D094",
"P  c #EAD394",
"I  c #E6D29A",
"U  c #E8D298",
"Y  c #E9D398",
"T  c #E9D399",
"R  c #EAD599",
"E  c #E9D49A",
"W  c #EBD59A",
"Q  c #EAD49A",
"!  c #EDD698",
"~  c #ECD69A",
"^  c #ECD79B",
"/  c #EDD79A",
"(  c #E8D49D",
")  c #E9D59D",
"_  c #EAD59D",
"`  c #E8D59F",
"'  c #EAD59F",
"]  c #EAD69F",
"[  c #ECD79D",
"{  c #EDD79C",
"}  c #EBD59A",
"|  c #EED89D",
" . c #EED89E",
".. c #EED89E",
"X. c #E5D3A3",
"o. c #E7D5A1",
"O. c #E5D3A2",
"+. c #E9D5A0",
"@. c #EAD6A1",
"#. c #EBD7A1",
"$. c #ECD8A1",
"%. c #EED9A1",
"&. c #EED9A0",
"*. c #EDD9A3",
"=. c #EED9A2",
"-. c #EFDBA4",
";. c #ECD8A4",
":. c #EEDAA3",
">. c #EEDBA9",
",. c #F0DDAA",
"<. c #F1DEAB",
"1. c #F1DEAD",
"2. c #F1DDAB",
"3. c #F1DFB2",
"4. c #F1DFB2",
"5. c #F1E0AF",
"6. c #F1E0AF",
"7. c #9EAEC3",
"8. c #FF9FC0",
"9. c #C78EF6",
"0. c #F6DEC6",
"q. c white",
"w. c white",
/* pixels */
"D D e | Z D n e P J M M D L e K M U 5   7.:     A ! D b L 9 M -.9 ,.P D E 4 F M D E D D A U n J L e ",
"D J M U M N A P e b S S E 9 P b e e @.  7.:   D ! A K m M A D Z J %.n 4.0 M D L n b J e ! D ! W A W ",
"J M e           P D l J m P 0 B 9 K D   # :   @.C J 0 P l J D D D L S %.e 0 b A A A ! S L L S K @.S ",
"L N   z z z z u       D H 9 L 8 R b   7.: :   n H ) D S n J l -.A L e R D e 9 e [ D U J J S D H Z P ",
"5   & & & & & p u 7.q.  J 9 D D Z L   # : :   e F F L n b D U A ) b A H S n X.J M P L U A m L H P ! ",
"M   u 8.8.z 8.o o y y q   U e D b J   s s #   M       A D U n [ U S D 9 D M 6.J ) e ! A P U A m M J ",
"P   q.8.z q.p z u o   O     S K S S       s     d d i   e J W _ K 9 D e A 1.A P n A E W F A E e A M ",
"%.  z q.q.8.z p p - u -     U m L 9   h c *     d d i   L A L F J A n ) l W Z >.M Z %.e W F Z Z P 7 ",
"X.  u z p z p - u -         e E l J   0.c     i i i   D P | M ! 0 U 0 B ;.0 A %.b ` l L X.D 0 l L A ",
"N W   p p u p u - ; ;                     d d i :   J D H E S M M m ) 0 P D @.%.Z $.e U A D D N 0 H ",
"M V   - u - u - u ; ; a       > v v j ,     : d   A L J P S H n A P b | D P b U H D N b J b L N S D ",
"A U J   - u - p p a x ;   f f r r       , = i   N J 8 P H D ! b S e P %.9 @.L P 0 D P 0 F A A >.K D ",
"S J   -   q.u q.z   p     r g 9.9.9.g t       A A b %.e >.e J M &.M A e P 1.e P n 0 R M m L H K L l ",
"9 J     z - . z -     r r f g g g < < g t r     F 8 %.e W D n n H b U J -.8 Z 1.e 0 P n S | n $.H M ",
"_ D l         .     r 9.9.9.g f f , < 9.< = =   3 D R Z %.n 0 G b W P A U J 0 U 9 M %.9 1.P D W 5 D ",
"J D 0 N 0 n A J   f g f g 9.f f f   t 9.< 1 =   b W H L n P N 9 A U X.M A b J M A M Z D %.b 4.9 M A ",
"8 F 9 D n b L   r 9.f t f f g g t @   9.< 1 =     m U R D n A D w %.M %.0 D J l L S D J L S ] e 0 b ",
"P 9 l M P 4 %.  9.t = @ f f 9.g f r   f f @       S F K A 0 Z N P b ! E D n Z M H k >.A P e R D e 9 ",
"m b m S D 5 L   9.= 1 @ f g g f f r f       t @       -.Z M D e J V J ` M m D b S E A | b A J A M ) ",
"S 9 W A 3 ,.0   @ = 1   g g f r r r r f < , g 9.9.f       D e A %.0 E S S I D V U b W R S D 9 S M 1.",
"b D e P 9 n [ P   @ @   g < r r     @ r r f     9.9.f @ +   P   H W M e S L w 0 J R ` C 9 D e A 1.A ",
"L M 9 H _ P M n L       9.g r @         @ r   9.g < = =       +   e D P A n 9 P A L S J A n ` l | Z ",
"J S b J J U A J D     r 9.= =   X X + X   @   9.< 1 1 =   X + +   A -.7 e >.l P | M ! 0 U e B $.0 A ",
"D m ;.0 W n ! L Z     r 9.= =   X + + + X X   g < 1 1 =   X     P S D b N S 0 H W D n N m ) 0 L D @.",
"n [ T n D L n S M   i r g = 1   X + X     X   f < = = @     $   >.Z ! 2 ) e J P S H M A P b W A L n ",
"D L A D l ,.0 V 0   #   g = 1 @   + X   * *   r r r @   X X +   D M A S e e L H D ! e A e P %.0 $.L ",
"A e | P N J Z n 0 S     t r = =   + X     s s   X X X         P A L m m b D D ,.l V M | Z A e P 1.e ",
"D n ,.e D n J Z m 0 n   X t r @   X +   W   : :       X X   J Z L M e N D e %.{ F M Z H m I L ,.8 M ",
"A -.9 U 0 A Z D D M F   X X X   X   +   e >.  : : y q.  + X   e G L 7 D A A $.-.M 9 D b E P A U D 0 ",
"M G D 0 [ 0 M Z A n D   X $ X X     $   D A   # : : # :   + +     N A l _ l $.m P D 9 A U X.M A n J ",
"m 0 0 ;.Z 9 Z P N D U l   +   +     %   b Z L   g r : :     + % $   n K b F D S M A A l | M %.9 D L ",
";.D Z n m A Z A L l W D     J   L   % X   D L   r r # : 1     + $ X   D S F >.A 9 Z D P b ! U D M Z ",
"n _ 7 J 4 G S D J L A D W n K D P   $ $   G D e     #   1   L   X X   D D I N M n D e J K D _ Z m D ",
"D D l F M Z S [ m A W V D N J D J 0   + X     e D   1 q y   J e   X   D U M >.3 D n A &.0 W D A I D ",
"Z F D D D b S P ) n U Z P S n Z n M P         L K N       n e e     E J E A e M A P Z F W M Z F P 0 ",
"W e l U D n Z W D L J H 9 L l J M 0 Z P D F 8 -.E N A D $.M 0 e P J b >.M D A ) e Z $.J e D P A b 0 ",
"9 J A F M K D F A T l D A D L Z 0 0 F n P F L =.J b J D J 8 M W n Z H ;.b @.H S J 9 -.Z A >.8 e ,.b ",
"J Z A Z Z P n S Z 0 &.A l >.0 T Z P P A 0 H l 0 R e b S A b P D D D K ;.S 3 P H n K N P S D n M F 9 ",
"D L 0 A A D l m S U J Z  .T M D P l F Z 0 P Z M 9 A N U Z e F A R F P m m A A e F D P -.Z W 2 ) e J ",
"5 D H D e Z Z A F n -.D L A D l >.l D 9 { 9 e Z D 0 U L 0 [ S M [ n n D Z { 8 M D H &.D N A A e e U ",
"Z D D n Z J A 8 ' L T A 0  .G D L A n 9 A K e 0 D D l Y Z H J D L D J A N M 9 D P S P n L m m n D D ",
"A P l n F l n U Z T J D Z 2.l D l D A D 0 l ' Z l A ' K Z Q n P L n | 5 S D e G U L Z L n e D D 0 %.",
"J D 8 K 0 P D J D J Z A =.9 T 0 A Z D Z D G l D U J  .G A l G n ,.0 R 9 A w E N S ) e J L 7 D A D $.",
"l J 9 H Y k P L 9 ' K M G G 0  .l M Z Z Z Z P D ! l S 2.l I P D A e b U 4 H L V J K J A N N b U b @.",
"k A H H 9 ;.J Z l ! ( M l 0 ;.Z 9 Z P D D Y k { P D I l A T n n Z J 9 N D L n ) D { 0 P n e L n D J ",
"P A 0 =.G Z G D T  .2 -.D Z M l Z Z A U l { A =.Z L P Y 6 K J 6 N P m P b L L w { V A b Z A D S S >.",
"0 P P J L 8 P D H P A l +.8 L 6 L F D L Y D M Y n X.D P 9 Z 0 D J V e L D Z I D G P n 9 L S G D I D ",
"S 8 P J G _ l P P Z l D D l F Z A A =.l Z { B D D D A D 0 D G 0 U D e F n >.L S w D l S E n N I m >.",
"9 =.k ;.n ' M ;.0 T 7 Z F J D D l F H ' l Q Z P A Z A l D P l T 9 N P K N >.4 &.n e e R n R D E S b ",
"0 =.l K J G Z G l F Z P 0 0 I J Z Z Y G P G G 9 Y l P Z l l P D F 5 >.E N Z S %.m 9 e L J b >.D D D ",
"H A D Q Z F M T n D G k G Z F Z K G D A Y l D A A P Z 0 e H n H D L @.D b J N L 9 Z | e e H >.e X.S "
};
