/* XPM */
static char *result[] = {
/* columns rows colors chars-per-pixel */
"50 51 104 2 ",
"   c black",
".  c #22142F",
"X  c #20222F",
"o  c #4C3A02",
"O  c #560D23",
"+  c #553332",
"@  c #7A6010",
"#  c #0B0858",
"$  c #301D42",
"%  c #381261",
"&  c #750E40",
"*  c #3B4060",
"=  c #7F4E4D",
"-  c #4E5476",
";  c #83203E",
":  c #86145A",
">  c #A01558",
",  c #B72B4F",
"<  c #A86B69",
"1  c #C74068",
"2  c #BA9831",
"3  c #BBA875",
"4  c #C2AE77",
"5  c #CAAD7E",
"6  c #C6B177",
"7  c #CAB477",
"8  c #C7B278",
"9  c #CDB679",
"0  c #CEB87A",
"q  c #D4BC7B",
"w  c #D8BE7C",
"e  c #FBDD5D",
"r  c #D7C07F",
"t  c #DAC17E",
"y  c #211DA8",
"u  c #3019A2",
"i  c #5E269A",
"p  c #5E6F86",
"a  c #C3388D",
"s  c #CD388A",
"d  c #DF5A9B",
"f  c #EE5FAE",
"g  c #F673BB",
"h  c #934CCC",
"j  c #B06DE6",
"k  c #CB8E8C",
"l  c #DA9E9C",
"z  c #F78396",
"x  c #CEB981",
"c  c #D4BE81",
"v  c #DCBC87",
"b  c #DDBF8A",
"n  c #DCAF94",
"m  c #E1B696",
"M  c #E1BF91",
"N  c #E6BA9B",
"B  c #FF83AD",
"V  c #E2B8AA",
"C  c #F9B0BB",
"Z  c #D7C083",
"A  c #DCC483",
"S  c #D7C38B",
"D  c #DCC689",
"F  c #DFC88C",
"G  c #DAC793",
"H  c #DDC993",
"J  c #DECC9B",
"K  c #E0C783",
"L  c #E3CA85",
"P  c #E9CE87",
"I  c #E4C688",
"U  c #E3CB8B",
"Y  c #E9CF8A",
"T  c #E7D08F",
"R  c #EAD18E",
"E  c #E0C190",
"W  c #E8C394",
"Q  c #E3CD92",
"!  c #EACE90",
"~  c #E4C69C",
"^  c #E9C098",
"/  c #E2CF99",
"(  c #EACB99",
")  c #E6D094",
"_  c #EAD394",
"`  c #E6D29A",
"'  c #EBD59A",
"]  c #EED89E",
"[  c #E6C4A1",
"{  c #E6D4A2",
"}  c #EAD6A1",
"|  c #EEDAA3",
" . c #EEDBA9",
".. c #F0D5AC",
"X. c #F1DEAB",
"o. c #E7CFB6",
"O. c #F1DEB3",
"+. c #F1E0AF",
"@. c #9EAEC3",
"#. c #FF9FC0",
"$. c #F9A5D3",
"%. c #F6DEC6",
"&. c #E8E9F4",
"*. c white",
/* pixels */
"Y ] A t _ L R L K _ Y A ) q ' 0 Y Q U L U A P  .' A ` P F U c Q S ( E W N L Q A F ' F Y L ` A ) ) t ",
"A ) L D                   ` c ' U 9 Q L t | U X.A R _ t U _ q U I I ..[ N ' Z _ A D Q Z _ F ' ] L _ ",
"U K R   X - a a   B B B a     8 Q Q Q L U L _ Q | D _ L w ' A F Q ! ~ ^ m ' v L F L _ P _ _ U Q } L ",
"U A   a - a B d #.#.    : B a   c ' Z ' A K ' Y { q X.Z w _ A U } I { ^ m / Y Z ] U _ ) R U U R A _ ",
"t ]   #.- #.B B a     : : :   ' 8 ` w ) K ] K _ U A ) q A | q X._ U ' x ^ Q _ Q A _ _ ) U D _ R _ ' ",
"A `   B * #.B #.  < < u   :   t ] L / U K Y ' U Q S D U F A Y | A O.q b M Y Q U ' t ' L _ ` D S L R ",
"t '   a * B #.*.  + o.o.k         A Z | c { J ) q _ q ) U U Q ) U ] A q v U { _ D K ' ' U L _ t L D ",
"_ L A   a X a #.:   < k o.<   # y               U Y A _ x | L _ Z _ I v q F Y  .F A ] t ' P L L _ 0 ",
"' A A   a X X #.:     u %.k +         > > s s &   Z Z U ` L ] A K Q L A { K _ | A ` c _ { U t c ) L ",
"Y F K L     p B : :   *.k + #   , l l   > s       L H _ A ' ' L U q Y F O.t _ | F } t ` L U F A q _ ",
"F Q ` c   : *.  d :   +   y # %.l l l ;       U A R t Q ' ' Q c U t L X.L ' A ` U L F Z Q S ' F U U ",
"Q ` c       p e @ d :       l %.%.< + +   R t U K Q _ K _ U Q L K ' c ] A A R _ t U _ w P L L  .) U ",
"_ ) t   B a       d     + < %.*.*.l       U q ' x Y _ ] A ' q ` q G  .q A  .S _ D w _ D S ) R Q ) Z ",
"A ` Z A       a : :     %.l %.%.*.%.l     Y q U Q U R ' Y F               { w  .t w _ A L | D ] _ A ",
"A | K R q F           C z 1 1 1 z z 1 +   U 8 L             = g > @.s @.&.Y Z _ q F | q  ._ U ' 6 R ",
"Q A U t U L 7 _ t U   C C O   z e e ; O         k %.%.%.%.%.k g > > s > > Q D F A F A Y | A +.w A U ",
"x ` H U A q U K Z U   1 1     ; 2 ; @   1   k *.*.*.%.%.V k k   s > >     q _ c Q U U Y ) L | A w t ",
"Q q _ q Y A L w _ t   z 1       O o   z ; ; V *.%.V k k k =           9 L U Y A _ x | U _ t ' L t w ",
"Z Z L L A t ' w w     z z           1 C ;   k k k k k       Z ' _ L ' H q ` A Z U ` L ] A K ) L A { ",
"w U w A U Q A L L   h 1 z   g >         ;     k =     _ U q L ` { D L A Q q L U ` A ' _ L U q U F +.",
"q F t A Q q ` F K   j   ; 1 g @.s g s g   ;       _ U A L U c | D | q Y ) A R t Q ' ' J q U t L  .L ",
"q F Y 6 ] q H U   j i i     $.p   s g $.>   ;   =   U w K F _ t ' ' L A K A Q ) K _ P Q L t ` c ] A ",
"S L Q 8 _ A /   j i > > i %         s > >   ;   k     A U A Q H T ` K S U x U _ ] A ' w ' t G  .q L ",
"' U 8  .Z A   j i > 2 > i % % % % %           =   s   Y t L | q ' U U { U U U R ' T D D D ` q _ Y } ",
"t _ q A ] _   h i e 1 > i i % % % % % %         s g @.    K Y ] A t P _ t ) Q R U _ A L _ A ' U _ A ",
"q R ` _ A A   i h 1 > i % i % % % %       .       > @.@.p         _ L A q 7 _ R U _ t U Z R ] w } ) ",
"A Q Q ' U Q U   i h i %   h % % %     K   $   U   i > @.&.&.f > 2   t +.Z | t X.t H F ] A L t _  .t ",
"{ Z ' t _ _ K t           h ; % % .   U   $   U 4   2 >   > > > e   F L q } A ' U D A Y D ` )  .0 D ",
"` A I _ Z P U q R K D   h ; 2 ; % .     P   F F L L   2 2   2 2 p   } t ) _ D | A q T t ` _ U _ Q q ",
"U U Z X.t F q | q K   h ; 2 2 ; % . .   A F U A ] 7 U     |       U t t ) P _ D _ U q U ` ` A U A ) ",
"] R F Q L t q L ) t   h % ; ; % % . .   U Q K F F q Y ) P ) A _ D S q U Y ` _ U A L L q ] F | q Y ) ",
"X.A U Z U D F w A ' A   i % % %   . .   A ] 9 U L w T ` ) K ) F t U Q t | ) Q L w K H _ t ' ` U F A ",
"q ` t L K L L D R t U )           . .   t ' q K t ` F U ] t T ) 7 U K U ] D | A A L t ) Q Y ` F S H ",
"Y q ] t F K L A F R Q _ t L | A   .   L t Z ` 4 _ Y G Q ) ) A F F Z ) Z } T ' 6 U A L | q ' U U ` U ",
"w | A q K _ F F _ q ] _ U ) D   $ $   A ) q F Q Y D ' U _ w ' A t ) A ) U _ K A U R K U ] A t P ) t ",
"K A S K A U ` Z ' U ] D Q _ )   $ .   F ) F T A Q _ q ] Q L t L L L R L X.| A ] t K | T A Y _ L A q ",
"0 _ 8 ) P U Q _ U F ' A ` F _ q     U Q F t ` L L ` U T _ A q ) L T U ` F ' F U Q 0 | K D | 9 t +.t ",
"c P A K U ] A D _ H Y F Q U U w D T t ` U t U A  .` U w ) q U ' D U ` A +.3 _ R D ` F T P T t F L q ",
"Q U U Z L R ] t ` K _ U K K A D _ Z _ q H _ ` D | 8 | A A t _ A _ Q ` L A D L t R Y T | A ' 3 ' t Q ",
"t ` F A L ' Y _ Y ) q ) Z ) A w A _ F R 0 | ' F A T ] D 0 t ) Q A | F U U ] 0 L U R | R F L L A Z ) ",
"K P I / ! U U _ Z U L L _ K w w R A R U ) } U Z Q F ) 0 A ] K t R  .t { R D q T R P ) A _ A S Z U Y ",
"L ) Z A Y Z t ` K ` Q U K X.A L A U L D w A ] A A F ` Q L ' A ' T A ] 0 L D t ) ` ) K ) D t F T t | ",
"Q F 0 Q q _ U Q U / A K | w ' t K A U L D T t U ) U ] ) L Z ) t  .t ' q L t _ F U ] t T ) 9 F L U } ",
"G Y q _ ` c _ _ q ] Q F Q Y w ' t F A K t U R U _ Z L | A ) _ U D t Z ) 8 R ) G U ` Q D F F t ` Z } ",
"0 K _ Y q | Q A A ' ` S w q | A q t _ U U ' c ] _ U ` Z L ' A Z K ) q F U ) D ` L ' t _ A t ) A U Y ",
"_ L t } ) t R U ` ] 3 | U K A S L K R ) c ' A ] L Q R ` 7 ) Q 6 F _ D T Z ) ) t ] H L Z K L L R R  .",
"w _ _ Q _ 0 ' L R ) L t } 0 _ 8 ) L F Q ' U F ' A / U _ q K w U ) H t ) L L ` U T _ A q ) L T U ` F ",
"L 0 ` Y _ ` Z _ _ A A F U Z P A L U ] A K ' G U F Q U Y t D Q t ) F t T A  .) U w T q R _ D U ` A X.",
"w | q { t ] F } w ' 7 K R U U U t U R ' t ` K _ U D K A A ' q ' q F _ / F | 7 | A t t _ A ' U ' L A ",
"t | G H Q Q K Q q Y A ' t t ` U A K ' U _ ) Y w ) Z R D t A _ U R 7 | ' F A Y | F q t ) Q Z X.D F U ",
"R L U ` K Y A ' A Q Q q Y K U F ) ) U U ) Z U L L _ K t t U A R U ) ' Q Z Q F ) 0 K ] t A R  .t { U "
};
