/* XPM */
static char *a3163c89e11a4f8d96f89a7e62b928c3WyRCbSuZ6i4yDbHk[] = {
/* columns rows colors chars-per-pixel */
"50 51 88 1 ",
"  c black",
". c #22142F",
"X c #20222F",
"o c #4C3A02",
"O c #560D23",
"+ c #553332",
"@ c #7A6010",
"# c #0B0858",
"$ c #301D42",
"% c #381261",
"& c #750E40",
"* c #3B4060",
"= c #7F4E4D",
"- c #56406B",
"; c #4E5476",
": c #83203E",
"> c #86145A",
", c #A01558",
"< c #B72B4F",
"1 c #E33C72",
"2 c #A86B69",
"3 c #C74068",
"4 c #BA9831",
"5 c #BBA875",
"6 c #C3AE77",
"7 c #C6B177",
"8 c #CBB577",
"9 c #C7B278",
"0 c #CCB679",
"q c #CEB87A",
"w c #D4BC7B",
"e c #D8BF7C",
"r c #FBDD5D",
"t c #D7C07F",
"y c #DAC17D",
"u c #211DA8",
"i c #5E269A",
"p c #5E6F86",
"a c #C3388D",
"s c #CD388A",
"d c #DF5A9B",
"f c #EE5FAE",
"g c #F673BB",
"h c #934CCC",
"j c #B06DE6",
"k c #CB8E8C",
"l c #DA9E9C",
"z c #F78396",
"x c #CEB981",
"c c #D4BE81",
"v c #FF83AD",
"b c #E2B8AA",
"n c #F9B0BB",
"m c #D6C084",
"M c #DCC483",
"N c #D7C38A",
"B c #DCC689",
"V c #DFC88C",
"C c #DAC792",
"Z c #DEC992",
"A c #DFCC9A",
"S c #E0C783",
"D c #E3CA85",
"F c #E9CE86",
"G c #E3CB8B",
"H c #E8CF8A",
"J c #E7D08F",
"K c #EAD18E",
"L c #E3CD92",
"P c #E2CF99",
"I c #E6D094",
"U c #EAD394",
"Y c #E6D29A",
"T c #EBD59A",
"R c #EED89E",
"E c #E6D4A2",
"W c #EBD7A2",
"Q c #EEDAA3",
"! c #EEDBA9",
"~ c #F1DDAB",
"^ c #E7CFB6",
"/ c #F1DFB2",
"( c #F1E0AF",
") c #9EAEC3",
"_ c #FF9FC0",
"` c #F6DEC6",
"' c #E8E9F4",
"] c white",
/* pixels */
"RGGMRMDSyIIBDVIyPBY8YeISRSUGMYwBQq(UHT7HGYGHDYSPIy",
"GHGBPBVGUyMFHTwIyyyWDPGSHTDPNBDBBJRM~wBGMMLcUVURDU",
"cLSyU     GcZNIyCxPGByQcEALeUcLHKJIHWBwyVFUKIUFPWF",
"MIVU >aaa>  H  T0UMUGyJLSKTGHMIxQMIyUGywTGIJHHVKMU",
"Q8U >av_vda>  a GSIDIBe!eHFUyMGPFTmDIDMWBIUYDNYKUU",
"!BG avvvdd>>> > G LqSURGMRGwDGPMRUFGqGV(RyTDUYDNVK",
"HIL ;;;;**X p]p   H7UM!NIGGMHyPUYAcGyD~DMSTTHDTyDN",
"HQw Xa__vd>X )r a wNDWGHIeDSPUDUHLDMTeTSBSRyUHDSIw",
"ME  avdvv_dd  @ > ZMUUBIDeTwLIRBUwTyC!eBMTeUWGeeID",
"GB v_d_a_]_vd> >> GWDHTGLeBLGHTHBNNTwKHWBWmYBGVBwK",
"WGZ ]v]a  d__d   :       9DULIGKMDUMTGIMKBVmLMUVHG",
"BDY  a]v 2  >>a 1nn3iihjh    IHUMGMHWwRIyDIeHDS!PH",
"DDLc a>a>k^`k d `znnz:iihjjhi eLSWMFyK~yDeUBNIKPPm",
"HwPHw  a> 2k+u 2l3O3zz3 ij33hh BBHNYUQqBywIMFQBRKB",
"mRVcMF  >  +##l``3   33  %3r3i wIeYUHYLwqBQw~IGT9K",
"BIGwBwMD u <````3z: % : g %,,i   GYEMFSLDVBHWM/wMD",
"TqIwGyMU   `]l`]zr4O   gs %%%%iih WVWwHPLGHLIFRMeM",
"yUwcBI6WwL ``2l`zr:o333p)  %%%::%h TTGMBIwQDIyUGMw",
"GNcBDL9UMZ 3l+ l3:@ 33z &&  %%:4:% HYBMVGYGRyDIGME",
"9HwUD6~eDDW :+  +O l3z3  ,,  %%: % UHFEGIMTUGHqHB!",
"LMDMUwMRIcK % &  3l`zzn3 s,& %%%%  ByFLePUYPcByD~D",
"SUMwIYKBMUQq  ,& zzznz3 l  &    ..$ USBwDUFPFyYcRB",
"wPGMLLYGLGcRwL   :$z33=l`-`l    ~  . y~MRNUwYyCQeS",
"WDc!eYSUIDyKMyTe $ kbb =$$]`2==s KF $ HwTHDVNTeIHW",
"LyWTMDUcHSeISNwSV . b`5  l``lk fp  T  wLHKBSUMTGUM",
"QGUDGc~yVwWwySGeTU R =k:   2k=sg,,i FyMIGUyGMKWwRP",
"TGeRHCPDywDPyeGLMTyUL   )) 4 H  )),4 MGHeZDRMFMK~y",
"HGS~MDMGGBeBRSMSYPBYMTI  )),4 YY )),4 eWHBBHNPUQ0B",
"BGQwYeDSGSBHeGILWIFmIy~e p' 4 HT p' 4 GWBwJtYUHYGe",
"PMHLeReDSSMGIHUcFWMLIVDym ', CLYI ', YcWIGwDYYNDML",
"YNceWBwSUVGYcRULYMDTMMBIw f,4 GUw f,4 HGMDGeWGWwLI",
"5QDDMBDyHPcTDRSLKI9PG7GUB ,,4 RZF ,,4 F~wSZUMUTDBS",
"DMR0I7LFGLUGVTBPDUwDeGLGe 4rp HUM 4rp YGMVyLLHYDNG",
"yGGcFBSHTMDUZGBLDLeVPwPLeH   HeLcH   YM!GMFReYHGYG",
"0SHGGGMHIWyYyUHBSMBUeTwVIPCQ7WMMyIBULYGMGIyKTMMFLt",
"STycPGMSTHILIwImISwSUGF8QTGDHWBwyLPMQBGGySQIMGIDMw",
"HxIDFBPHGGIMHGDUSeeHMHDIWHMLVH0SRyMKQMEHGw~SGQ8y!M",
"LSDSSUSHSeRDmWeTSUIDcUMeTeyHGMKGGGLWH6UKBPVKFGMVFw",
"GTeGDGecFYLMRYBSUMFDeUDBeDCYMeIGTKIBNDDyKHIQMT5TyP",
"9DHGySMGHMQGIGGMQeCwRwyDGeYIwRFMRMBGST0DGKWHVDDMyI",
"MHHcSLDqRLUDeRHCLScwGIewGLMTSULFIGIDVBwHKFISIMNMHG",
"DUcMHcSYSYLGD~MGMGGGwMTScDYLSRcTJMR0FGtJYISIByVGyW",
"LGwPwUDLGLMDQwIeDSGDDIwGILRLFcUy!eTwByYVGTtJI0VDGW",
"cLqIUcUIwRPBHIeReBMDMDULUcF~cLUGDymI7KJZGYIBBGmYmW",
"cDKLwQIDSTYNceWSqyUGLUcRTGYMDRccMIwVGIBTGTwUSyAMHL",
"UDeQIyIDYR5QDScCDSHUcTSQSLUY0LL9GIBImIItTZFtSFDFF!",
"eUULUqTDHIDMWqU9PFGIYGcRSPDUwDeLLLyUDDYGJUMwIFJGYZ",
"FqUGIYcUUSeGGcHMMFRcDTLLBLDGeDLwYVtHM!IHwItGUBGYM!",
"wQcWMTc~eT8DHGGGcFUReUSUHSSMBUcUwVUPV!9RMMyIMTGTDM",
"eQCCGLDIeKSUceYLcDULULIwIcLSccUGH8!TVSHRMwtILM~BVG",
"UDDTDHMTcLLqHDHSYLFDIcGHDUDeyUSHGLWGyLVIqSRMMK!yEH"
};
