/* XPM */
static char *result[] = {
/* columns rows colors chars-per-pixel */
"50 51 82 1 ",
"  c black",
". c #060908",
"X c #22142F",
"o c #20222F",
"O c #7A6010",
"+ c #301D42",
"@ c #381261",
"# c #750E40",
"$ c #432A5B",
"% c #3B4060",
"& c #83203E",
"* c #86145A",
"= c #8D145E",
"- c #A01558",
"; c #E33C72",
": c #C74068",
"> c #DD527B",
", c #BA9831",
"< c #BBA875",
"1 c #C3AE76",
"2 c #C6B177",
"3 c #CAB477",
"4 c #C7B278",
"5 c #CCB679",
"6 c #CFB87A",
"7 c #D4BC7B",
"8 c #D8BF7C",
"9 c #FBDD5D",
"0 c #D7C07F",
"q c #DAC17D",
"w c #5E269A",
"e c #7739B2",
"r c #5E6F86",
"t c #C3388D",
"y c #CD388A",
"u c #DF5A9B",
"i c #E641A6",
"p c #EE5FAE",
"a c #F673BB",
"s c #934CCC",
"d c #B06DE6",
"f c #CB8E8C",
"g c #F78396",
"h c #CEB981",
"j c #D5BE81",
"k c #FF83AD",
"l c #FF90BF",
"z c #E2B8AA",
"x c #F9B0BB",
"c c #D6C084",
"v c #DCC483",
"b c #D7C38C",
"n c #DCC68A",
"m c #DFC88C",
"M c #DAC792",
"N c #DEC992",
"B c #DFCC9A",
"V c #E0C782",
"C c #E3CA85",
"Z c #E9CE86",
"A c #E3CB8B",
"S c #E8CF8A",
"D c #E7D08F",
"F c #EAD18E",
"G c #E4CE92",
"H c #E2CF99",
"J c #E6D094",
"K c #EAD394",
"L c #E6D29A",
"P c #EBD59A",
"I c #EED89E",
"U c #E5D4A2",
"Y c #EBD6A1",
"T c #EEDAA3",
"R c #EEDBA9",
"E c #F1DDAB",
"W c #F1DFB2",
"Q c #F1E0AF",
"! c #9EAEC3",
"~ c #FF9FC0",
"^ c #C78EF6",
"/ c white",
/* pixels */
"JGAVFGAvKZFvK8VFA4GAGCAVKARbKA8KvnGFBJcvAPnDALVJKv",
"nqqmvAKAKZqAG7R7nCAcLvPnVPAY7Rq7KvZTvPKJvvGqKnKPnK",
"vAmq      JnvmKvBnP4L8KnIVKAvL7nR6EKAP4CnCKDKKAGIZ",
"AAG tkkkkt AZI7JvqqYCGACAPZJnnCnCATvW7nvPAKDFAAFvK",
"A  %%%%%%ut  nKqM6BnC0TcUBG7KjGADGJAYv8JCKKLCnKFKK",
"K  ot~~k~oo!/ 6P6PvPAqFAnSPAAvGjTCFqKAqAYqPCKLnnvJ",
"D  t/~k/uktor9 AAVJCKnqRqZAKvvALCIvCJCnKvCPPACPqZn",
"C  kk//~kuut O qAcG6qKTCnIA7VAJvPKZA7AvEnvIqPZVVJ6",
"V  *tkuku*t*t*  GZA4K7RnGAAvZcGKLGjCqCQIvLjKLA0cJC",
"777 ttutut**  * bK7vARAAF8CvGKCKFGAvLjPTnT0LAAAv7K",
"A77K *t*t*t==       KKnKA8PjAKInK7LqMR8LZAmcNnLnAA",
"jPP  * t*u*ilit g&:: APAG8nAAFPAnnnP7KAJ8AK8ZCCRLA",
"GGG k  /t/k  = .;xg& FPJA4CJGKAFvVKvPAKKv8KnnGDGJc",
"AHHG  uk*.tk   @@;gg& JvAmF6KKAKvAvFY8YEv8JvZTnYFv",
"AGGjLM   @  wws^s@@::&  VAqIqE0GnInCqFEK7nT6RKAP3D",
"GGHD7K7 wsdss^^sd^w  :&a  6TqPAnVAvHKE6nCnVFTvW7nC",
"vAnjvAC ->sdddd:>:^dw  ar#   Rn7AvLKCLNjGAZGJZIv7v",
"AAA8C7v -:sddsss:ss>>:w !#-y- FA7ALUvZvvKhTCKqKmv7",
"AFF7nvv 9:ssssseess:99:w   #- vCAjTnT7AvALAIvVJZvU",
"878jnF4 :wesewsswwwe---w      7CAKqPPAnmJvIKZA6AnE",
"GjjnAG2 ee@ssewesew@www@ zf TVvAqGNALnnqGKLGjnqAEC",
"776PA1E8   d>sw@es:>de@   zf 1AvZI0PAALKCPFJCVL7IV",
"CAnvK7vIGv sdse@ esssd^^se   nCKVAIvqZFKIvP7L0MRqv",
"Kvv7SPFnvK -&se@ esss-::dsw p qVTGqAKZvFPAvnnP7KAY",
"JAAvGGPAGA &,&ew  ess&,9:wsw  G7EqCE3qQFAKvCKvPAKn",
"vcbY7PvKKV &,&ww   @ee&,,&we   HnKZAvAAFAKqAnSY7IG",
"PIIPnnKvAC @&&ww XX @ww&&@ww $ G   P<PqEqGnIvCVFEv",
"VJJAAvT8m7T @ww X++XXX@wwww@ X  !-r CqqPAnVAnLJT6V",
"qqqIANGCv7A    XX+    XXX   $ -r/-, bqATv7AvLKZLG7",
"IVqEvCvAAn7v XX$ $ L #  +$XX+$ -#-, AGjvKA6ALUnCvG",
"ATE7LqCvAVnS A X $ cK dw  $   X -- 6AVAAnVC8InT7AJ",
"AFAAqIqnVCvCKGK Z $ K ww#- $    #-, jLjC8VGKvKLAnV",
"q7cqTv7VKAAPjIKAK + nq  # , +   # , LvAvvAqJNAPAbA",
"VAVvnCqAJcPAIvGKL + 4C ,9r  +  ,9r AAAE1AqCT8PACLA",
"vP6J2JAAGPAvKnLnK XX  G   C XX    CSALAnAKqFPvqFG0",
"AAcZnvZIvvPNAnGCSq  XX 7FqE XX 7APCAHvRPqVTFqAKCv7",
"qAAAAvZFPqPVKACVvbKj   FGmR2   qKvLGLAvAA6EVAE3qEv",
"JqqKAvCPGKGA7KcJv8VLAS6EPNCATn7qKGvRnAAFvLnFZAqnZ7",
"CGVAnLGAAJqACVKV88SvSADYAcGmF6vIvVFYqUZqFDJTvP<I8G",
"6CFAvvvCSvEAJAAvR8G7T7vVmqKJ7IZvIvnAVP6AAFTDnCZqvJ",
"VSDjVGV6IGKA8ISMGCj7ZHq8AGjPVKFAJAGAnn7AFZDvKnM0AA",
"VKjVSjVLnLGAVEqAjGAA8jPVjCLGCPjKDvI5ZAqJLJVJvqmA8T",
"GAhJ8KAGAGVCT7L8VVACVD8AJGIGZjFvR7K7C0JAAI0FJ3mCAY",
"jG6DJjKG7PLnDS8I8AVVVAGGPjZEjHKGCqcJ4KJNALJnnAcLvT",
"hCKA7TGCvPUvj8Tv7VFAGKjPKGGjCPvjCJ7mAGvYAP8KVqJnAA",
"KC8TGqKAJI<TAVvbCVAGjPAPCDFP4GG4nKnKvJJ0PNZ0VCAZAT",
"8KKDK7KCKGVvIhK2GSGJKAnPnHAK7C8GGmqJACJADKv7JCDALA",
"Z6LDGLvKFnvnAjZvVZYjVPMAAGCD8nD8LGqAqRLA8G0DKvALnE",
"7YjYjYVR8P5VADACjSFY8LVKAVVjAKjK7mKHnT4TvvqKvKAPAv",
"8TjHGGCGjSVKv8LGVCPDKDD7KjGCjjKAA6TPmCATn70JGcEnnA",
"FCAPVAvPvADhACSVHGCCLjAZCKV8qFVFAJIAvGmJ6VIqVFRqUA"
};
