/* XPM */
static char *result[] = {
/* columns rows colors chars-per-pixel */
"50 51 83 1 ",
"  c black",
". c #050909",
"X c #22142F",
"o c #20222F",
"O c #7A6010",
"+ c #301D42",
"@ c #381261",
"# c #750E40",
"$ c #432A5B",
"% c #3B4060",
"& c #83203E",
"* c #86145A",
"= c #8E145F",
"- c #A01558",
"; c #E33C72",
": c #C74068",
"> c #DD527B",
", c #BA9831",
"< c #BBA875",
"1 c #C4AF77",
"2 c #C6B177",
"3 c #CAB477",
"4 c #C7B278",
"5 c #CCB679",
"6 c #CEB87A",
"7 c #D4BC7B",
"8 c #D8BF7C",
"9 c #FBDD5D",
"0 c #D7C07F",
"q c #DAC17D",
"w c #211DA8",
"e c #5E269A",
"r c #7739B2",
"t c #5E6F86",
"y c #C3388D",
"u c #CD388A",
"i c #DF5A9B",
"p c #E641A6",
"a c #F673BB",
"s c #934CCC",
"d c #B06DE6",
"f c #CB8E8C",
"g c #DA9E9C",
"h c #F78396",
"j c #CEB981",
"k c #D4BE81",
"l c #FF83AD",
"z c #FF90BF",
"x c #F9B0BB",
"c c #D6C084",
"v c #DCC483",
"b c #D7C38B",
"n c #DCC68A",
"m c #DFC88C",
"M c #DAC793",
"N c #DEC993",
"B c #DFCC9A",
"V c #E0C783",
"C c #E3CA85",
"Z c #E9CE87",
"A c #E3CB8B",
"S c #E9CF8A",
"D c #E7D08F",
"F c #EAD18E",
"G c #E3CD92",
"H c #E2CF99",
"J c #E6D094",
"K c #EAD394",
"L c #E6D29A",
"P c #EBD59B",
"I c #EED89E",
"U c #E6D4A2",
"Y c #EAD6A1",
"T c #EEDAA3",
"R c #EEDBA9",
"E c #F1DDAB",
"W c #F1DFB2",
"Q c #F1E0AF",
"! c #9EAEC3",
"~ c #FF9FC0",
"^ c #C78EF6",
"/ c #F6DEC6",
"( c white",
/* pixels */
"UmnmJGAkYvPqJDvbAK7vKL8vTVPTvP7LPA07JAGvmLAASLVJJq",
"FCSPvAvKvKmvASJVSkKkGSvTSqGTvT8LnAmm8FcJvnGqKvKPnP",
"vSIvqKCSCVKSvL7P5SGCCAvSWLvLSCAcGnJmSAvCCCKDLLAGIC",
"qVJC     SGvP7LkPA5GVqTSRvDK8AL7ZCCRLmAvIALDSSAFVK",
"GAV yllly  K8VFG4GAGCSCKAYbKA8KvnGDHJqKGvLLJSbPFKK",
"0A %%%%%*yy TknCAkLvPvVPAU8Eq7LvSTnPFnNGIqKCKLvnAF",
"m oy~~l%o    vBvL5L8JnIVKGvL7nT7RKAP4DLKvCPPSCPqCn",
"G y(~l(il!(! KvqqICHAVSPCHbnCnVSTvW7vCSEvVTqPCCVL5",
"v ll((~liot9O    mvvTcUBG8KkHASGGCTv8vKTvL7KUAqkJC",
"m *ylili*y O   -- SqFJvSPAAvSjTCJqKAq7JYvYvLCAAn8F",
"KP yyiyiy*y*** w  KvkRqSSJvvAHAIvCGAvYvLFAAcNvJmSA",
"C  *y*y*y==    w  VKICvIA7VALvIKCS7AnQFK8AL7SCCRGA",
"A l* y*i*pz    hg KvRnHmAqF8GKPHkCqCECvLn8KvmGFHJc",
"7G   (y(l pp ;x;9O YSSS0CVGJCKZHAvPkPv8Eq8KvCTvYKv",
"7LJ il*.yl    hxhO KnKA8PkSLIbK7L7MY8CvL7nR6EKAP4S",
"PvLv   .   s@@&hx& APmG7AAAFPSCnmP7JSYnnVnCSYvQ8vA",
"NbTvF  sd^d^^^   ; FPKC4CJGKAFvCKvPAKvK7HSSHJCTv8v",
"LGvSqS -sdss:>ddd    vA   KFAKvAvSY8IHAvSjTCKqKAq7",
"AkLmSv7 :ssss::s>>d f  ua- E0AvIvAqKEqqvALCIvVJCvU",
"HS7L7Av ,:ssrssr:9:e  u-u- PSnvDnLKT5VCGLvPLCA7SmR",
"nkvAVvqP :sseerrr-9:e -#  nTv7DcPKCLG7F0SPPHkAqAEC",
"A8C7VAGV eessre@ee--e    SKnLA7CLUnCvGSJCLCGCvLkIv",
"K7nvvJ7L r@ers:>e@ee@ /g JKAvCCkInT7GHAKInK8L7MT7C",
"7knD1P7GA   @rsssd@   /(   C8VAKvKLAvVAFKSmnnP7KSY",
"knAG3HkGvIC @ rrss^^r  /g-   AqGGGLvnAGKAFvCKvIALv",
"6PA1E8CCIvLV   rr-::dse -u -  CT7PSAUAKFAKvSvSI8IJ",
"CkK7VYKkKKAG , @r&,9:ese u 9, VFPvvCGkvE7GvTvAqFEv",
"v7SPKVvKT5Tq &&Xer&,,&er - ,, YSvSKCv7qPSnvSnHLT5V",
"AnGGLAJCcP7LC &eXee&&@eeX    7RVAT3qE8CTv7ScPKCLG7",
"kYkPqKJCqFv7P eeX @eeee@X   VHnDZSvnS7LbLA6ALUnCvG",
"YPvCKkSV8Fvv7A     d  XXX$ qFGHTVP<YqGKAvCCcYnT7SG",
"LSAvE8M7T7vvA8P X ee-- $  X SFTSmCCqqJGC8VAKvKPAnv",
"8ISMJCk7AJk8SGk +  + !  $X  KZGVKvMcASRvvAqGGGPvbA",
"VEkCkGCA7vPVkCLH X 9,,   ++ JHVLvqmA8TL1AvCT7PSSUA",
"T7P8CVACCG8CDGTH X X(t, C +X IqDJ6ACAPCvAKqSPvqSK7",
"SD8I8nvVvCKGK8ZT  L tt , K X JJVmm7LcYnPqVTKvAKCv7",
"k8RV7VKAAPkPPGJkAPvv t( ,    P8KVqBvDAASA7RVnT5qEk",
"CCnkVVSLkPCTVDKP3GA4A ,tt, 7IGAkVCSCFRKFvHmDZDqmS7",
"Y6J4GSAGLAnKvHCK8V7SGG ,,  GSLv7JCSALmCqFSJTVP<Y0G",
"AkSVVSPkCPMGAGCGqnH7Ln8   JS7G7SPCALvR3mAFTSmCCqqL",
"SGACkSFY8PVKSVCkkPkK7AKGnT3TkVqKvPGPCv7AKZFnJvbvAS",
"88HGVVPAKGG7JkJC8vPAS3TPGVSYC78KGcRvmA0DLJVJnqmA8T",
"GCSVGGSAL8CCCKC88DvSAGYGkGCG6VTkVFRcUSLASPcFJ6mCAY",
"MS7GPkKG7PLnSG8I8AVVvCKGKkZEkHKACqcJ2KJNmLJnmCcLcY",
"5CSS7TJAVPYkk8YV7qFAAPkPKGLkCPVkVJ6mAJnPSP8KvqJvFS",
"KC8TJ8DCLI<TCCnkCVSLkPAPCDKP4GG4AJmFcJJ0PNCcVCCFCR",
"8JKGJ7PCSJCvY5L4JSGJJAnPVHCK8C8AHmqLCVLADKv7JCDALN",
"S7JGJPkJKVkAAkSVVSPkVPMGAGCA8nG8LA0SvRJA8D7FKnALvR",
"7TjPVPkE8P3VSAACkSKPkLCKSVVvnKkK7mKHmR3IvvqKvKGPCv",
"8TMNGGVD8SVP8kHGVCPAKDS7JkDn8vPSZ5TPmnSTn7qJJcEvmA",
"SCAPCSkIVAGjDCSVHGSCPkACCKC88DkFAGIAcSmJ5vIvvFRqUS"
};
