/* XPM */
static char *result[] = {
/* columns rows colors chars-per-pixel */
"50 51 83 1 ",
"  c black",
". c #050909",
"X c #22142F",
"o c #20222F",
"O c #7A6010",
"+ c #301D42",
"@ c #381261",
"# c #750E40",
"$ c #432A5B",
"% c #3B4060",
"& c #83203E",
"* c #86145A",
"= c #8E145F",
"- c #A01558",
"; c #E33C72",
": c #C74068",
"> c #DD527B",
", c #BA9831",
"< c #BBA875",
"1 c #C3AE77",
"2 c #C6B177",
"3 c #CAB477",
"4 c #C7B278",
"5 c #CCB679",
"6 c #CFB87A",
"7 c #D4BC7B",
"8 c #D8BF7C",
"9 c #FBDD5D",
"0 c #D7C07F",
"q c #DAC17D",
"w c #211DA8",
"e c #5E269A",
"r c #7739B2",
"t c #5E6F86",
"y c #C3388D",
"u c #CD388A",
"i c #DF5A9B",
"p c #E641A6",
"a c #F673BB",
"s c #934CCC",
"d c #B06DE6",
"f c #CB8E8C",
"g c #DA9E9C",
"h c #F78396",
"j c #CEB981",
"k c #D4BE81",
"l c #FF83AD",
"z c #FF90BF",
"x c #F9B0BB",
"c c #D6C084",
"v c #DCC483",
"b c #D7C38A",
"n c #DCC68A",
"m c #DFC88C",
"M c #DAC792",
"N c #DEC992",
"B c #DFCC9A",
"V c #E0C783",
"C c #E3CA85",
"Z c #E9CE87",
"A c #E3CB8B",
"S c #E8CF8A",
"D c #E7D08F",
"F c #EAD18E",
"G c #E4CE92",
"H c #E2CE99",
"J c #E6D094",
"K c #EAD394",
"L c #E6D29A",
"P c #EBD59A",
"I c #EED89E",
"U c #E6D4A2",
"Y c #EBD7A2",
"T c #EEDAA3",
"R c #EEDBA9",
"E c #F1DEAB",
"W c #F1DFB2",
"Q c #F1E0AF",
"! c #9EAEC3",
"~ c #FF9FC0",
"^ c #C78EF6",
"/ c #F6DEC6",
"( c white",
/* pixels */
"AAqIVCnqJJnnCJqHnP3L7JmPCKAnP6nT7EJCP3AnAPCGAPVGKv",
"AGnPnmCKqvZZP7Jv8qPCHCVSPZGnnCAVATnW7vCKvbG8KnKPnK",
"GnqK    J  GbJqM7HCn0TcUBG7JkGAAAKCTv8vCCCKSKKAHYZ",
"JmK oyl*  l J7K5PvPAqFGvFPAAnGkTCKqPAk7qPCPJDSASVJ",
"3K %y(lyy**  7GCvJnJvqRqAZKqvAPAPcCGCbUGnKKHZbPSJP",
"n y%~~(lyy  i qAcG7VKTCvIA7CAGvPKCS7SCEGYqPCDPCbVS",
"K l%~l(ii*y(l  HZA2KvRbJACvFvGKPHkCqAECKvVPPSCP8An",
"T l%l(~lyy*y*   K7cCYZGFvCVGGVPZGCnPkPVEnVTqPSVVK6",
"U l%%ilii*i(..s-  nKKnJn7P6GJInK7P7MT7VTcP0JUAqkGC",
"C y*oli*yy*ly ds:,   PAG7CGAFPAVnnP7KAUTvYqLCCAv7K",
"nN y !oy*=p l ^ds::er JZ3CKGKAFnVKcIAJvPFCNcHvPnSA",
"CL y (t y=zp  dsssse@ cCMJ5JFAKqAVFY7TKDqAK7ZCCRHA",
"ZGk  !9O*  p s^ssssse  CCvIqEqGnTvAqFEqJm8KvbHFHJk",
"7GG7  O *    @^:sresr@@   TvISCqSvHKE6VEq7JnZIvYKV",
"PAkkZC  *  ; @^>:sersr  ,&  Tn7GkPKZKG7P7nT7RPCP2S",
"HA7A7v     xh& d:sre:sr  &&e JC7AHUbCvGnCmCATvW7nC",
"6J7Cvc -wwh;xh dsrr@>srr@Xee   ZcTnT7AGkJZAGJZTv7v",
"J7knJ4 -  g9hx d>:reessrreXX X+   KPZnVnFjRCFqPCv7",
"mcnCA3K    OO&; >9-e@ds-&re    XX APnbNcAPZPcVJAcY",
"Z7PC1E8CCTn     d:9-e@^:,&e@ e   7PSZLCGLcPKZA7AnE",
"vnqK7vPJ8JKCHkG  e:-e ^:9,&ede+9X nqZJ7qGKLHkCqCEC",
"Kv7JPJnvKT5TvvC f ee@ rd:,&e - ,(t JCvkJVPZJCvPkIV",
"JGnAGPAGmcP7JVC8       se&@e -!,ttt qRvFInK7L0MT7C",
"AkY8PvKKVqFn8Pqv u- // eseeeX   , (, Z7FPDvmnP7JAY",
"vPPvCKkSC7JVn7C u-# g(/ ere@X$   , t, GKZFvVKvPAKv",
"AKAAcEqM7T7qVCq au    g-  XXX $ A ,t, KKAKvAVJY7YJ",
"C8TSMGCq7ZKq7AG -- GA -uu-  $ X+ J ,  ATkGVTvCVSEv",
"AVEqCvAAn7vPnvnH  KnP        X ++    vTPZnnSnHGT6V",
"AT6P8CVAVnJ8ZJGIGFqJqE -9,  A   XX CCATTv7GvPKAPG7",
"vDA8I8nVVvCJGKqCTcGJmC  ,, GMGJJ   kPcYbKm7CHUvAvG",
"bk8Tq7VKAGPkPPALcAPvvvJ   GCUZP7KCqHvASAvCCkPAY7AJ",
"TACvbCVSGkPAPVGFP5GA4mKCJcHK7PNZ8VCAZSTC7CMKvKPAnV",
"8P5K2GZAGPACPnHAK7CkAGGqPAVJADKv6HZSGLAVkGqGGDLVbA",
"AAkSnVSPcVPNAmGVDkVG8PAkZvEHA8GkSPVAPkR1AvCT8PAAUC",
"VSGACkSFYvPVKAnVkAKkK6AKHnT3TnqvKVPGLAkvZKVAIkVSJq",
"Pk8PGVVKAKAD7PkDV8VKAZ4RLACATV68GGkTVZAI8VYDqGFCc7",
"7GVSvHGSAL8ACVPV88FvFAFYAkDAD5VYvVARkYSSG6RCAT68Ev",
"GVSVVKvZV8IAkT8PvFKVvFvvP8kSSkDAAAHRA1KKVHAFZAkAS7",
"CP7ACAkkZJGVPPvCKvSV8FVk8AALV8DAPSDVAVCkSGGTVP1Y8G",
"3CDAqCVAAVTAJAGkRkA7T6vVA8LG7IZVYVkDvI5VASTDVCC8qK",
"vZAnVGC5PJPC8YSAGCv6ZHq8AGkPVKGDJAGCmn7AFSDVJnM8AA",
"nGvvSkvPVPDDVEkAkGCA8vPvkCPHVLvKSvI5AAqGLLVLVkAGqT",
"GC7G8KCGAGVAT7P8VVACVK8AGGIDZkKqE8P7C8PASP8DJ5AVAY",
"nG6JJkPG6IHkGD8I8AvVkAKAPkZEkGKACqcK1KGMAHJCCCkHcY",
"6CGS7TGVkPYkk8Tv6qKAAPkYKAHkCPvkVG7MAGVPCP7KVkHVGA",
"KC8TKqKCPP1TCVVkCVSKkKCPVKKP4GG4AJnFvGKkPGS8VCASZR",
"7KKGK5PVSKVvY6P4HSAGPAnPnLCK7V8AGGqPACLAGKvkLCAALm",
"Z7KGKUkKKVvAAkFkVZYkCPAGnGVD8AK8HAqAqEJA8G7SPVALnR",
"7TjYvYnT8K5CSGAAkZKPvPVKZvVkAKkK7mKHmT4TvvqKnKGPCv",
"8TkGGGnJ8SvKv8LAvVPAJGS7PkKv8vJAS5TPmCZTv77KGcTnnA",
"FCAPvFvKvGG7AVSCHDAALkCZCKV8kSvKCGYGvGmG5CPvVFRvUS"
};
