/* XPM */
static char *result[] = {
/* columns rows colors chars-per-pixel */
"50 51 191 2 ",
"   c #0D0200",
".  c #120600",
"X  c #1A0600",
"o  c #160A00",
"O  c #1B0C01",
"+  c #1D1103",
"@  c #240E00",
"#  c #241202",
"$  c #2B1602",
"%  c #2C1A03",
"&  c #311500",
"*  c #331C04",
"=  c #3A1E01",
"-  c #351E09",
";  c #381E09",
":  c #372007",
">  c #3B2104",
",  c #3B2209",
"<  c #3C2B09",
"1  c #462503",
"2  c #442A03",
"3  c #492C04",
"4  c #43260C",
"5  c #452A0C",
"6  c #4B2A0D",
"7  c #4A250C",
"8  c #512B0E",
"9  c #502A00",
"0  c #4C3104",
"q  c #4B320C",
"w  c #46310B",
"e  c #543405",
"r  c #593505",
"t  c #553A09",
"y  c #5A3D0A",
"u  c #523508",
"i  c #4E2E10",
"p  c #412F11",
"a  c #512F10",
"s  c #443214",
"d  c #4E3B11",
"f  c #4B381B",
"g  c #533111",
"h  c #5B3512",
"j  c #5F3814",
"k  c #643915",
"l  c #673C19",
"z  c #6A3F19",
"x  c #683C17",
"c  c #4F3D25",
"v  c #5B420C",
"b  c #594614",
"n  c #6E4304",
"m  c #65430C",
"M  c #6C4509",
"N  c #634D0F",
"B  c #734E0C",
"V  c #764B03",
"C  c #7D530C",
"Z  c #73510E",
"A  c #6F431A",
"S  c #714D13",
"D  c #70491B",
"F  c #7E5A10",
"G  c #6A5415",
"H  c #534122",
"J  c #58482F",
"K  c #754A21",
"L  c #734520",
"P  c #6B5D3E",
"I  c #736139",
"U  c #81550C",
"Y  c #85590A",
"T  c #895F0C",
"R  c #815D12",
"E  c #8E620D",
"W  c #93630E",
"Q  c #836113",
"!  c #8A6414",
"~  c #8D6C18",
"^  c #8A6719",
"/  c #936511",
"(  c #976C14",
")  c #9C6D13",
"_  c #94761D",
"`  c #9F781C",
"'  c #A47314",
"]  c #A67B19",
"[  c #B17D16",
"{  c #997522",
"}  c #967822",
"|  c #9B783D",
" . c #96743B",
".. c #8B774E",
"X. c #9D7C42",
"o. c #987642",
"O. c #A7801B",
"+. c #B3841B",
"@. c #B58B1D",
"#. c #BA8E1E",
"$. c #BA8917",
"%. c #BE911D",
"&. c #9D812C",
"*. c #868436",
"=. c #AB8A28",
"-. c #B28C22",
";. c #B59122",
":. c #AF9737",
">. c #C6941A",
",. c #E6B21F",
"<. c #C19223",
"1. c #CBA327",
"2. c #C9A42D",
"3. c #D6AD2C",
"4. c #DDA925",
"5. c #CAA437",
"6. c #CAAB36",
"7. c #E6AF22",
"8. c #EDBC24",
"9. c #F2C735",
"0. c #FFD738",
"q. c #E7C432",
"w. c #FBE138",
"e. c #9C8348",
"r. c #A5864B",
"t. c #B9A352",
"y. c #A58A61",
"u. c #B39A63",
"i. c #BDA36B",
"p. c #BCA975",
"a. c #C89F4B",
"s. c #C5A545",
"d. c #C5A05B",
"f. c #C2A86A",
"g. c #D9BB6B",
"h. c #C2AD76",
"j. c #C0A87C",
"k. c #C6B177",
"l. c #CBB577",
"z. c #CCB579",
"x. c #CBB579",
"c. c #D4BC7B",
"v. c #D8BF7C",
"b. c #D2B874",
"n. c #DEC845",
"m. c #D4C058",
"M. c #E7C847",
"N. c #EDDB47",
"B. c #E4C051",
"V. c #F0DA5C",
"C. c #FFE748",
"Z. c #EDE85E",
"A. c #D7C07F",
"S. c #DAC17E",
"D. c #DCC774",
"F. c #ECDF62",
"G. c #E1C677",
"H. c #FFFE68",
"J. c #C5AC8D",
"K. c #CEB981",
"L. c #D5BE82",
"P. c #D6C084",
"I. c #DCC483",
"U. c #D6C28A",
"Y. c #DCC68A",
"T. c #DFC88C",
"R. c #DAC793",
"E. c #DEC992",
"W. c #DFCC9A",
"Q. c #E0C783",
"!. c #E3CA85",
"~. c #E9CE87",
"^. c #E3CC8B",
"/. c #E8CF8A",
"(. c #E7D08F",
"). c #EAD18E",
"_. c #E3CD92",
"`. c #E2CE99",
"'. c #E6D094",
"]. c #EAD394",
"[. c #E6D29A",
"{. c #EBD59B",
"}. c #EED89E",
"|. c #D5C0A4",
" X c #E6D4A1",
".X c #EBD7A1",
"XX c #EEDAA3",
"oX c #EEDBA9",
"OX c #F0DDAA",
"+X c #F1DFB1",
"@X c #F1E0AF",
/* pixels */
"'.I.U._.Y.I.T.{.L._.{.].].c.oXL.T.[.P.].R.`.U.[.^.!.{.L.).'.).~.!.^.P.Y.Q.~._.I.^.{.!.^.!.[.Q._.].S.",
"T.{.p.{.P.!.^._.[.I.(.].!.'.!.E.[.!.{.I.T.`.).L.(.XX/.L./.!.v.OX!.v.^.!.!.{.P.'.I.U._.P.{.!.{.{.!.].",
"G./.!.^.].v.'.P.[.!./.[.c./.OXc._.{.c.].!.{.!.Q.OXc.(.!.OX].c._.I.{.I./.c.}.I.!.!.^.{./.'.'.^._. X!.",
"^.I.A.'.{.c.E.!._. XY.{.Y.^.~.Y.XXb..X_.c.!.{.~.[.Q.].XXc.L.[.k.I..X_.).b.W._.I.{.!.'.).].^.^.).Q.].",
"^.S.S.].!.{.P.^._.Q.{.!.{.`.L.!.XXz.{._.L..X(.k.OXz.{.`.L.[.L.`.L.{./.!.v._.].^.I.{.'.'.^.Y.{./.).{.",
"{.P.!._.I.I.^.!.{.I.[.~.^.(.(.!.I./.).(.z.{.].L._.L.{.^.Y.XXz.^.^.!.^.Q.{./._._.{.S.{.!.].{.!.P.!.].",
"/.^.Q.Q._.!._.{.Y.~.^.^.!.[.I.Y.XXc./.`.'.Q._._.Q.{.c.].L.Q.[.L.{.A.^.{.P.!. X].Y.!.{.{.^.!.{.S.!.U.",
"~.].!.P.!._.XXz.{.^.!./.(.I.!..XI.^.Y.~.~.(.{.c.!.{.L.'.}.c._.Q.I._._./.^.!.^.OXY.Q.}.A.{.~.Q.Q.{.b.",
"I.I.A.XXv.^.R.E.{.c.!._. XT.Y.^.'._.~.L..XI.{.c.(.'.L.Q._.).c.Q.].{.v.Q.XX!.{.XXI.[.v.'. X^.v.L._.!.",
"b./.].v.!.{.].XXp.{..XP./.!.^.{.L./.L.].L.].^.Q.^.(.[.Q.^.c.].L.^.^.P.OX^.v.(.XXI.XXP.[.!.^.T.T.v.].",
"!.!.!.Y.Q./.^.E.'.P.^._.Y./.XXI.I.].!.).!.!.]./.L.].c.{.z.^.'.^.~.!.S.~.oX{.I.[.).!.^.P._.U.'.!.^.^.",
"L._.{.v.I..XY.Y.^.{.^.].v.!./.~.I./.{.^.L./.^.I.}.c.[.L.{.^.z._.!.S.XX^.oXI.].(.v.^.].c./.!.!.oX[.!.",
"_.{.v.`.L. Xv.].!.E.E.Y._._.Q./._.^.L.].^./.I.].v.I.).(.z.(.^._.!.^.!.{.^.XXU.].T.v.].I.Y._.).`._.P.",
"^./.v.!./.'.!./.!.{./.^.v.^.I.^.)./.{.~.L.^._.c.XXL.^.!.^.L. XL.[.Y.Q.{.^. Xv.OXS.v.'.I.~.XXI. X].I.",
"^.v.!.].!.`._.I._.S.{.(.T.v.{.I.!.Q.I.].].^.Q.^.].L.`.L.'.z.[.v._.!.{.!.{.^.P.{.b.T.oXb.OX].!.{.x.^.",
"`.S._.].{.!.P.}.!.Y.^.^._.Y.{.Y.^.!.].v.L.~.!.}.c.].I.v.I.}.!.`.^.!./.{.!._.U.T.!.Y.!._.XXY.+Xc.I.!.",
"L.!._.I._.!.[.!.!.{.L._.!.S.{.I.'._.L.).^.L._.Y.'.v.R.L.W.T.I.P.XXL. XW._.v.].L.].!./._.).^.}.I.v.P.",
"~.I.I.[.^.I.'.Y.~.].Q.(.T.S  .| o.X.X.X.X.r.X.X.X.r.e.i.c.{.!.S.)._.!./. X!.^.I.(.K.XX!.].S.{.!.I.c.",
"^.!.`.L.oXv.!.^.[.^.OXz.R 3.0 o ; 7 8 8 6 6 6 7 * @ T @.Y f.].I.v.OXv./.^.{.P.P.^.[.^.}.P.!._.~.I. X",
"v.'.v.XX_.v.{.!.I.!.OXf.3.; - 5 g i 6 i i 6 4 ; # ] -.& % C D {.XX!.I.{.!.c.!.^.{.I.{.].!.'.b.^.!.OX",
"(.Y.~.[./.!.^.!.^.^.b.1.b + * 4 a a a a i 4 - * } q.0   # F ! V u.!._._.!.I.).A._.{.{.`.L.I.P.!.+X!.",
"c.U.].!.I._.^.^.(.!.I.G.: g g k k k k x k k k ; s.D.& # + F u Y 6.,./.v.^.Q.^.'.!.'./._.!.Q.{.L.{.Q.",
"^.Q.(.(.^.!._._./.!.I.j.& h z K K A A K D z a $ a.L.& O $ ~ y o n >.I S.{.c._.].}.I.{.c.[.v.R.XXv.!.",
"{.Q.c.oXz.I.'._.!.{.!.J.X :.{ { 3 o.y.= ^ { =.% f.|.$   o ! y . % E e c.T._.!.).{.^.!.Y.Y.{.c.'.^. X",
"(.].L./.Q.XXS._.!.'..Xs.# b w q # f c # 5 d d # 5.g.@ ' _ Z y o % ! n h.Q.'._.].!.).I.!.].I.}.!.'.I.",
"L. Xc.XX!.Y.{.[.!.!.T.6.% k L z z l l A l l A - _ n.* + M ^ v . * E f Y.].z.).).^.{.I.!.I./..Xc..X'.",
"{.S.!.]._._._.^.^..X!.C.< - : : ; ; : : ; : , $ N 9.0 o o Q v o % E f !.A.}.S.OXL._.I.XXI.!.S.].OXI.",
"!.XX/.c.[.'.v.'.^.oX].N.b % 6 6 j j h h h h g , 2 9.( . $ R y   # E s ^.z.XXI.}./.I.!.(.U.[._.oXz.!.",
"Q.{./.[.Q.[._.'.Q.{.A.5.^ o i h h h h h h g i i $ ;.4.$ o _ u +._ Y s h.(.].!.XXY.c._.L.[.].~.{._.v.",
"{.~.^.[.!._.^..XY.T.!._.>.+ # # % * ; * ; 4 ; $ # B 4.U o R y # m T p P.{./.].U.].^.c.!.`. XU.~.I._.",
"^.L.XX_.^.[.L.{.^./.{.z.g.m % % 4 6 7 5 7 5 4 - + $ ;.' 1 ~ y X % / s '.Y.'.{.!.I.!.!.L..X!.XXc.^._.",
"^.).c.]./.].(.Q.^. XS.].c.$.M u r e r r e r r r u M ( >.M ~ y . * W f ).!.(._.!.c.!.^.].I.{.{.!.P.!.",
"L././.~.).{.!.Q./.L._.U.L.F.<.;.-.-.-.;.-.-.;.-.;.@.O.Z.U F y X % E f ).}.Q.oXI.I.!.S._._._.[.!.U.^.",
"!.{.Q..XL.'.L.^.!.XXx.~.c.{.t.1 b t m # B > % 0 # d t G *.Q t . * E H ].)./.{.h.^.I.!.XXv.{.^.!. X!.",
"Q..X/.x.+Xz.`.L.!.!._.Q.!.S.].#.+.' [ V -.B.r C Z F ' ] 1 W ;.$ + E H }.I.{.Q.Y.~.].G./.{.I.I.~.].v.",
"!.Y._.[./.z.Q.'.^.c.L.].I.c.].[.8.9 * ; o ~ 7.#.m > % o 5 $ ' 1.U ) M !.Q.}.Y.{.A.Q.oX_.I.^.].!.P.v.",
"L.{.I.}.!.c.}.c.L.'.c._.^.Y._._.g.0.N 7 & @ & $ % > , > * > . H.1.U r S.^.{.!.^._.b.OXQ.!.oXz.A.OXP.",
"(.!.!.Q.Q.].Q.~.Q.v.{.^.L.oXc.{.u.0.V.;.#.#.' ) ( W W ) ] @.+.M.5.N.P oX~.h.].).!.`.Y.).~.^.S.T./.c.",
"^.].c.!.!.^.L.L.~.[._.Q..X{.I.!.].= 2 w.8.3 1 = : = = > 2 v v B.r X...Y.Y.!.!.A./._.'.XXQ.{.p. Xv._.",
"z.Q.)._.I.Q.I.!./.I.XX^.'.!._.L.oXA.R.P J b.I.Q.!.S.'.'.c.}.~.O {.Q.Y.T.Q.}.l.!.^.).XX/.Y.!.~.S.v.{.",
"Q.^._.Q.Q.(.^.z.{._.{.!.c.}.(.^.'.Q.I.v./.'.I.c.^.^.L.].Q.].].!.].!.'.!.T.!.b.^.).~.'.I.'.I.U.P.^./.",
"Q.).L.L.~.L.S.[.Q.{.^.^.Q.OXL.!.L.^.^.L.v.L.{.Q.L.^..X`.Q.{.L.{._.I.}.z.^.^.P.(.[.'.!.'.T.A.^.(.A.XX",
"(.^.c.`.c.].^._._._.Y.^.XXc.{.L.^.Q.Q.^.^.).L.^.'._.}.(.!.L.).I.OXv.{.c.Q.A.{.T.^.}.A.).'.l.T.!.!..X",
"L._.c.'.].L.].'.c.{.`.Q./.(.v.}.c.^.I.Q.I.Q.).(.{.L.~.OXL.'.{.^.!.S.P.'.k.].'.R.^.[.'.I.!.T.A.[.P.XX",
"L.Q.).^.c.XX'.!.Q.]..XL.L.c.XXQ.c.Q.]._.^.[.L.}.]._.'.L.Q.{.I.L.!.'.b.E._.'.I.{.~.{.c.{.I.A.'.I.^._.",
"].^.v.XX].S.(.^.[.}.j.XX^.Q.Q.L.Q.Q.!.].L.].^..XQ.(.).{.z._.^.k.Y.].Y.].P._.].A.{.E.~.A.!.!.^.^.^.XX",
"c.).].(.].z.{.!./.'.!.L.{.K.[.k.'.~.^.].]._.Y.].Y.`.^.].c.^.v.^._._.A.'.~.Q.{.^.^.{.I.c.'.!.(.^. X^.",
"/.c.[._.'.[.L.'.].!.L.^.^.L./.Q.Q.!..XL.Q.{._.^.Y._.^.^.v.Y.(.v.{.^.A.^.I.oX'.^.c.^.L.^.{.!.!.[.I.oX",
"c..XL..XI..XY.XXc.}.l.Q.^.(._.^.L.!.]..XL.].Q.].!.^.Q.L.^.].L.].b.T.{._.T.OXk.XXI.I.A.].I.'._.{.!.P.",
"v.XXL.`._.^.Y.'.v.).Q.].L.v.'.^.Q.!.].^.].(.'.c.].L.).Q.L.L.].^.^.z.XX{.T.I.^.}.T.c.A.].'.P.oX!.^.!.",
"].!.!.{.Q./.I.{.I.^.^.K.).Q.~.^.`.^./.^.].L.^.!.!.].Q.L.S.).I.].^.'.XX^.P._.!.'.b.I.}.I.Q.).XXP. X^."
};
