/* XPM */
static char *result[] = {
/* columns rows colors chars-per-pixel */
"50 50 221 2 ",
"   c #010201",
".  c #020B01",
"X  c #090D04",
"o  c #090100",
"O  c #150A00",
"+  c #031401",
"@  c #0C1305",
"#  c #031A01",
"$  c #0D1C03",
"%  c #0D1208",
"&  c #121D06",
"*  c #121B09",
"=  c #1C1608",
"-  c #1A1713",
";  c #291B0B",
":  c #221A12",
">  c #042301",
",  c #0C2501",
"<  c #0C2A01",
"1  c #032A00",
"2  c #122504",
"3  c #122B03",
"4  c #15240A",
"5  c #162A09",
"6  c #1A240E",
"7  c #0E3202",
"8  c #0A3902",
"9  c #153403",
"0  c #183506",
"q  c #143902",
"w  c #1A3C05",
"e  c #1B3B09",
"r  c #1B2711",
"t  c #35230D",
"y  c #292A1E",
"u  c #262417",
"i  c #372918",
"p  c #29351A",
"a  c #203B0B",
"s  c #252726",
"d  c #2D3521",
"f  c #36372B",
"g  c #353735",
"h  c #303130",
"j  c #443320",
"k  c #4A3921",
"l  c #483927",
"z  c #523D23",
"x  c #4D3719",
"c  c #154400",
"v  c #1C4405",
"b  c #154A00",
"n  c #1D4A04",
"m  c #1C4708",
"M  c #1F5100",
"N  c #1B5A00",
"B  c #214D06",
"V  c #21440C",
"C  c #224C09",
"Z  c #214707",
"A  c #235306",
"S  c #255904",
"D  c #255409",
"F  c #28570A",
"G  c #275A08",
"H  c #2A5D0A",
"J  c #264418",
"K  c #256201",
"L  c #2B6C03",
"P  c #2C630A",
"I  c #2E6A09",
"U  c #2A6703",
"Y  c #326D0D",
"T  c #30660D",
"R  c #2C7701",
"E  c #33730B",
"W  c #367B0C",
"Q  c #3A7D0D",
"!  c #307E00",
"~  c #396714",
"^  c #2F6211",
"/  c #394826",
"(  c #3F4839",
")  c #437518",
"_  c #58442B",
"`  c #474538",
"'  c #5E4C33",
"]  c #45532F",
"[  c #614929",
"{  c #644E31",
"}  c #6B5433",
"|  c #665032",
" . c #765A34",
".. c #775C38",
"X. c #547333",
"o. c #7E633C",
"O. c #413944",
"+. c #4C4A4C",
"@. c #58594A",
"#. c #625E4B",
"$. c #5B6444",
"%. c #62604E",
"&. c #66694A",
"*. c #7A6548",
"=. c #696C55",
"-. c #76735B",
";. c #7B785D",
":. c #6B7052",
">. c #686866",
",. c #7B7766",
"<. c #767576",
"1. c #80633B",
"2. c #8A6D44",
"3. c #826945",
"4. c #8E7045",
"5. c #8C7149",
"6. c #927246",
"7. c #93754A",
"8. c #98794B",
"9. c #877556",
"0. c #987D56",
"q. c #866E50",
"w. c #847D67",
"e. c #3B830D",
"r. c #3C8C0D",
"t. c #368408",
"y. c #3E950A",
"u. c #3E8A10",
"i. c #408F0E",
"p. c #41940D",
"a. c #449B0E",
"s. c #499F0F",
"d. c #439311",
"f. c #449911",
"g. c #4A9613",
"h. c #51921C",
"j. c #46A40E",
"k. c #48A50E",
"l. c #4AAB0F",
"z. c #46A90C",
"x. c #4BB60C",
"c. c #48A610",
"v. c #49AA10",
"b. c #47A910",
"n. c #4FB711",
"m. c #51BB11",
"M. c #56C911",
"N. c #9E8257",
"B. c #A28354",
"V. c #A5865A",
"C. c #AC8D5D",
"Z. c #A98858",
"A. c #888269",
"S. c #938B72",
"D. c #9D947B",
"F. c #8A8370",
"G. c #AF9369",
"H. c #B7996B",
"J. c #A59B79",
"K. c #B49972",
"L. c #A98D62",
"P. c #AAA27E",
"I. c #BBA875",
"U. c #C2AE77",
"Y. c #C6B177",
"T. c #CCB579",
"R. c #CAB478",
"E. c #D4BC7B",
"W. c #D8BF7C",
"Q. c #D7C07F",
"!. c #DAC17D",
"~. c #8A8B89",
"^. c #A49C8C",
"/. c #ACA386",
"(. c #BBAF89",
"). c #B6A988",
"_. c #B4AE99",
"`. c #B5A98F",
"'. c #A8A4A2",
"]. c #B9B6BA",
"[. c #C3B48A",
"{. c #CAB887",
"}. c #D4BE82",
"|. c #C6B994",
" X c #CCBC93",
".X c #C6B997",
"XX c #D6C084",
"oX c #DCC483",
"OX c #D5C18A",
"+X c #DCC68A",
"@X c #DFC98C",
"#X c #DFC886",
"$X c #CFC29F",
"%X c #D4C392",
"&X c #DAC793",
"*X c #DEC993",
"=X c #D5C59B",
"-X c #DDCB9B",
";X c #E0C783",
":X c #E3CA85",
">X c #E9CE87",
",X c #E3CB8B",
"<X c #E9CF8A",
"1X c #EAD18E",
"2X c #E7D08F",
"3X c #E3CD92",
"4X c #E2CE9B",
"5X c #E6D094",
"6X c #EAD394",
"7X c #E6D29A",
"8X c #EBD59A",
"9X c #EED89E",
"0X c #DACCA5",
"qX c #E5D3A2",
"wX c #EBD7A1",
"eX c #EED9A3",
"rX c #EEDBAA",
"tX c #E3D4AB",
"yX c #F1DDAB",
"uX c #F1DFB2",
"iX c #F1E0AF",
/* pixels */
"@X8XI.8X}.@X,X,X7X*XwX7X#X7XoX@X9X#X8X!.,X4X6XQ.5XtX. 2 & &X+ tX;X!.,X;X,X8X}.6XoX+X3X!.8XoX6X9XoX8X",
";X,X;X,X6XW.6XXXwXp >   .   0XE.3X8XE.5X;X8X[.$.1 > a.u.< b d.7 + @.[.3XE.9XoX:X,X:X6X<X6X6X2X3X8X>X",
",X;X!.5X8XE.*X;Xd q n w A A # |.wXE.9X3XE.oX. y.d.n I n v P F m C C # -.E.3X3XXX9X,X7X1X6X,X,X1XoX6X",
",X!.!.6X:X8XXX,X, W n Q ~ $ . . qXT.8X*X;.9 9 s.Y E f.Z D r.F w H 9 v 9 -.1X6X,XoX6X6X4X;X+X6X1X6X8X",
"6XXX;X5XoX+X<X  p.E z.e.a %.A.A.oX1X1XA.R x.7 w A W l.d.D Y e.^ V P e 2 + ).3X3X8XXX8X>X6X4XoX+X@X1X",
"1X3X#X;X,X;X5X  S w A W < 6X!.@X9XE.3X  z.P W t.E A H h.q . # , # 0 ) 5 3 &.7X1XoX;X8X8X:X>X8X!.;X+X",
":X6X:X!.>X5XwX. x.E Q n.W y ;XwXoX@X/ S e.C M.m.x.j.v   8XE.3XOXoX{.  5 V   3XyX@XoXwX!.6X,X;X;X6XT.",
";XoX!.9XE.,X-Xp ) W k.i.U t.% @X5X3X+ l.n E 5 ] f r {.+X,X1XE.oX1X8X!.#.s {.8XwXoX8X!.6XwX,X!.}.5X,X",
"E.<X6XW.:X8X<XwX+ Y w G y.j.$ 8XoX=X1 r.n K &.#X;X5X5XoX,X!.6X}.,X,X}.eX3X!.2XeX+XwX}.4X:X,X,X+XE.1X",
";X;X,X+X;X1X,X*X$ e.y.P d.m wXoX!.: c P H v.! / +X5XE.8XE.,X3X,X>X,XoX<XrX8X+X8X<X:X3XoX3XOX7X:X<X,X",
"}.3X7X!.oXwX,X+X(.q e.D D & f % =X` n C F e.e.+ 8XE.8X}.8X,XT.3X;X!.eX<XyX+X<X2XW.,X6XW.>X:X:XyX5X,X",
",X8XE.3XOX7XE.6X*X+ < D w r.E > =X` I w m 9   &X!.%X-X2X{.-X,X3X,X<X;X6X,XwXOX6X;XW.6X;XOX3X2X3X5XXX",
",X6X!.;X<X6X;X<X>X7X2 Q H v Z , S.y F v Y c $.)..X. + S.< 1 =./.`.P.@X7X,XqXE.yXoXE.5XoX<XwX;XqX6XoX",
",XW.>X8X;X4X*X+X5XXX9X. C w 9 e @ . G 9 w @ f ] # e.H 9 j.p.S N c 7 / @./.,XoX7XE.oXeXT.yX1X,X9XY.1X",
"3XXX,X1X8X:XX.5 + # & 4X. 3 3 2 X 4 3 2 % % 9 I C r.Y j.i.E y.k.W l.L q #    X@X:X,X:X2XeXoXuXE.oX,X",
"oX;X3XXXJ.@ v v.I I r.+ @ @ $ % X & * X % q I v 3 C B 9 w B Y T r.Y D e.Y 9    X3X,X<X2X3X>XeXoXE.oX",
",XoXXX/.m z.f.v D w A C F 2 . % X X . % 5 v w C w f.P > z.E p.W w I C A U C w # =X}.eX:X<X!.8X,XW.W.",
",XoX/.q a.H A v C H B 9 Z v & X .   X 4 2 v C H W P S  XV x.W m.. A a.w H 0 2 , + -X:XwXoX:X2X:X;XqX",
"!. X7 P v d.g.< i.d.w T P 9 3 X X X X % & , v n H e.  OX4X* b c s =XN q g.C w v 9 P.9X6X,X,XT.,X;XuX",
"2X;.U Y E Q J.3 e.H 0 D 0 2 4 % .   X X X X @ 2 # X /.<X,XY.S.D.tX+Xr < G 9 T 9 3   7X4X}.:XoX:XyX,X",
"E.< v c.h.8 @X7 E $           X X X X * % X @    X5XOX5XE.oX+XwX,X2X6X. . < D w 2   <X3X,X;X8X}.8X;X",
":X+ 3 b.+ [.,X, . %XoXqXE.%., 2 5 % . * 3 3 X & $ g 9XXX3XXX6X6X@X6X,XE.qX. $ e v 9 . E.7XW.&XeXW.;X",
"8XX q d.  (.6X3X;X8X,X+X-.+ 9 5 9 X   & 0 A 0 0 G 1 ` T.,XwX;X,X6X,X3XE.@X,X(.. a 0   +X+X9XW.6X<XwX",
"2X> I V   $X;X3X;X6XwX%.> D 0 v 9   /., 9 B B & C I , g 8X6X!.6X8X6X,XY.>X5X4X}.    P.:X1X}.8X,X6X}.",
"Q.7 P X @ * 9X4X:X:X%.> w m 3 Y # 3X3X. I 9 W m X F G   eXW.7X6X3X}.,X@X2XT.2X6X,X6X}.,X;X<XwXW.wX5X",
"8X> 5 & c 6 3X,X,XwX* r.G w Y w   oXOX$ e.n j.j.5 , 9 2   4XXX<XeX}.,X:X;XwXW.yXW.3X:XeX}.,X!.<XyX}.",
";X:.$ 9 X w.W.6X,XA.8 H F E u.n ` @XoX`.L A I m . $ $ & i - qX2X;XW.8X<XT.wXoX9X<X+X;X<X;X4X5XrXE.;X",
">X X> 4 4   3X7X;XD.K t.C e.b.c %XoXXX^.c e.P r.e.H : 2.B.x h g :X+XqXU.2X6X;XeX;XE.1X}.8X8X>X7X3XW.",
"6X1Xw.e $ . ,X8X X9 a.E n 9 e # OX;X5X^.8 m.Y H E I $ { H.Z.[ [ s }.,X}.6X<X6X}.2X,XT.,X7XqX}.:X;X3X",
",XoXeXw.#.qXOX7X XN E P E < -XoXXX5XT.7Xl y.e.H v.m.L + 1.1. .Z.= h ,X5X+X5X9X,X;X:X,X}.eX:XyXE.3X3X",
"@X2XE.8X,X6X<X;X Xq e.k.e.p.< $XY.wXE.3X$Xw a.P G U +.g 0.K.K.B._ t +.<.<X<X3X,XW.:X,X5X}.6X7X,XoX;X",
"oX,X<X<X1X6X:X,X|.N C p.A e.! @.R.5XXX3XoX  n a.Q b ) J i d : 3.7.7.[   >.;XeX;XW.,X!.3X4X2X7X,X}.,X",
"#X9X!.9XXX6XE.,X%Xr X H t.I S =.yXE.:X:XeX;X  U a.D v P F n q $ @ 4.Z.j O >.7XU.,XoX:X9XW.8X,X>XqX,X",
"!.wX1XT.iXR.4X}.,X3X^ Q e.m.7 ,.;X9X5X}.<X8X4Xp 8 c e.3 3 D Y B , p 0. .o.O <.|.:X6X;X<X9XoX!.>X2X}.",
",X+X1X8X1XT.;X5X=XH r.Y P r.L ,.2X+XoX5XeXT.eX&X'.~.n n D 9 Z w P 9 6  .H.{ = o `.oXwX3X!.3X6X;X;XE.",
"!.8X!.8X,XE.8XE.(.c E C m P K ,.8X,X3X,X}.9XE.1X,X5X  , L 3 + 3 3 9 . K.0.| } j : X uX;X;XeXT.!.yX}.",
"3X;X:X;X;X6XoX<X%Xa P e.I P v A.oX6X2X;X!.1XoXW.9X!.oX~.h ~.].c < , & Z.6.Z.B.| k :   4X>X1XoX@X<XW.",
":X8X!.,X;X,XE.XX>XF.R D m u.v A.6X!.<X:XW.6X;X+XE.;X@X5XoXE.3X'.>.  } 1.B.B.8..._ _ j X *X8XI.8XW.5X",
"T.;X6X,X!.;XoX;X,X:.b w 9 F n S.yXW.@XE.wXE.!.:X,X!.8X5XE.9X>X;XwX<._ 2.C.L.N.2. .0._ j   ,X;XoX}.5X",
"oX>X,XXX;X3X,XE.9X5X6 9 , 3 3 + 3X;XoXW.,X3X!.E.,X*XoX8X!.1X2X,X6X%Xo  .6.6.6.2.0.*. .l i   %X!.,X<X",
";X5X}.;X<XoX!.7XoX7XP.# 9 V I <  X,X:X@XE.oX8X;XoX;X8X4X;X8X;X9X6XoX_.i j { ..N.K.6.7.| z ;  X3XW.eX",
"3X,XW.4XW.6X,X3X,X3XoXJ.> * + , }.;X,X+X+X<XE.,X2X3XwX3X<X}.<X}.rX}.wXo u | V.*.C.L.B.[ 3.o.  |.,XwX",
"%X<XT.2X6X}.6X2XE.9X4XoXJ.  OX  {.:X;X;XoX,X6X3X8X}.>XeX}.3X5X,X;X!.}.8X  i _ 8.8.0.6...L.Z.; >.}.eX",
"E.:X5X<XE.wX4X:XoX8X8XOX}.}.eX;XT.;X6X:X,X7XE.9X6X,X7X}.:X9X;X}.oX6XT.&X4XX k l | _  .H.q.6.i ; [.3X",
"1X,XW.eX3X!.6X:X7X9XI.eX,X;XoXOX:X;X<X4X}.8X,X8X;X3X1X7XR.3X3XY.,X5X+X1XoX-X  i _ 5.G.q.1.5.' ..-.rX",
"W.5X5X<X6XT.6X,X6X2X:XXX8XT.5XR.3X>X:X3X6X,X;X8X:X4X:X6XE.:XW.,X3X3X!.7X:X:X7X  = f { 6.4.{ *.q.  ,X",
"<XT.6X3X6X8XXX6X6X;X!.,X,X}.<X;X:X>X9X+X:X8X*X3X:X3X,X3XW.,X3XW.7X3X!.,XoXyX7X<X[.  i  .} o.7.' ; yX",
"W.eXE.8X!.wXoXeXE.8XT.oX<X3X,X,X}.<X1X8X}.7X;X1X,X;X;XoXoX6X}.8XE.@X6X3X@XeXR.eXoX{.w.; *.q.{ k l oX",
"W.eX=X*X3X3X;X5XW.<X;X5XW.W.7X3XoX;X8X<X5X<X1XE.5X}.5X;XW.oX5X,X,XR.eX8X@X;X,XwXoXE.Q.|.,.  t ` :X,X",
"1X,X,X6X;X<X}.8XoX<X5X}.2X:X<X;X3X3X,X,X7X}.,X<X:X5X:XW.W.2X;X1X,X6X9X,XXX3X,X6XT.;X9XoX!.1XeXoXqX<X"
};
