/* XPM */
static char *result[] = {
/* columns rows colors chars-per-pixel */
"35 35 142 2 ",
"   c #000000",
".  c #000408",
"X  c #06090F",
"o  c gray3",
"O  c #110900",
"+  c #000810",
"@  c #0D131F",
"#  c #380F06",
"$  c #3C130D",
"%  c #301A0F",
"&  c #381E12",
"*  c #151D31",
"=  c #202020",
"-  c #2B2E34",
";  c #59150D",
":  c #60160C",
">  c #6D190F",
",  c #621E13",
"<  c #533E08",
"1  c #5E331D",
"2  c #742317",
"3  c #63351E",
"4  c #6E520D",
"5  c #76590E",
"6  c #7B4315",
"7  c #7B5C10",
"8  c #7D5A1A",
"9  c #664C09",
"0  c #754527",
"q  c #243154",
"w  c #2C3B66",
"e  c #2E3E6B",
"r  c #484E5A",
"t  c #4C525F",
"y  c #86190C",
"u  c #961C0E",
"i  c #9E1D0E",
"p  c #801F12",
"a  c #AC1E0F",
"s  c #B21E0E",
"d  c #A81F10",
"f  c #8F2B19",
"g  c #9E2012",
"h  c #9E301D",
"j  c #B9200F",
"k  c #AE2213",
"l  c #B32719",
"z  c #B72A19",
"x  c #C4200E",
"c  c #CE200E",
"v  c #C42919",
"b  c #CA2413",
"n  c #D32C1B",
"m  c #D32817",
"M  c #D63D1D",
"N  c #D93221",
"B  c #D53120",
"V  c #824714",
"C  c #804C15",
"Z  c #8D5613",
"A  c #8D690E",
"S  c #8F6316",
"D  c #997317",
"F  c #9C5531",
"G  c #AB4421",
"H  c #A35833",
"J  c #A46D39",
"K  c #B7793F",
"L  c #D84521",
"P  c #AD6C41",
"I  c #B8754B",
"U  c #BE7B50",
"Y  c #B68815",
"T  c #B18D33",
"R  c #D19C15",
"E  c #EFB41C",
"W  c #FEBB14",
"Q  c #D5962F",
"!  c #D79730",
"~  c #C59828",
"^  c #CEA02C",
"/  c #E6AF28",
"(  c #E4AA25",
")  c #E4B12F",
"_  c #EBB328",
"`  c #F0B523",
"'  c #FFC73F",
"]  c #FFC83F",
"[  c #BC824E",
"{  c #BBA875",
"}  c #C48155",
"|  c #C68D58",
" . c #CF965F",
".. c #EC8A42",
"X. c #DCA26C",
"o. c #C4AF77",
"O. c #C6B177",
"+. c #CCB679",
"@. c #CAB478",
"#. c #D4BC7B",
"$. c #D8BF7C",
"%. c #EBAE7A",
"&. c #E4A774",
"*. c #FFC941",
"=. c #D7C07F",
"-. c #DBC17D",
";. c #FFD366",
":. c #3A4F87",
">. c #747C8E",
",. c #4E6AB3",
"<. c #9DA7BE",
"1. c #CEB981",
"2. c #D5BE82",
"3. c #D6C085",
"4. c #DCC483",
"5. c #DCC68A",
"6. c #DFC88C",
"7. c #D7C48F",
"8. c #DAC792",
"9. c #DEC993",
"0. c #DECC9B",
"q. c #E0C783",
"w. c #E3C985",
"e. c #E9CE86",
"r. c #E3CB8B",
"t. c #E8CF89",
"y. c #FFC38C",
"u. c #EAD18E",
"i. c #E4CD92",
"p. c #E2CF99",
"a. c #E7D094",
"s. c #EBD394",
"d. c #E7D29A",
"f. c #EBD59B",
"g. c #EED89E",
"h. c #E5D4A1",
"j. c #EBD7A3",
"k. c #EEDAA2",
"l. c #EEDBA8",
"z. c #F0DDAA",
"x. c #F1DFB2",
"c. c #D2DEFC",
/* pixels */
"r.5.f.5.6.w.s.-.4.e.r.f.#.a.4.-.-.f.w.p.w.w.r.f.w.p.5.5.w.5.q.i.k.3.x.",
"5.-.s.5.            i.7.u.$.8.#.p.6.5.4.k.3.j.0.r.$.s.2.i.t.t.i.a.t.k.",
"6.s.w.  < R *.' ] D     #.f.+.s.4.s.r.$.r.a.5.t.j.w.r.3.i.1.k.w.u.-.f.",
"s.s.  A R 8 8 2 2 f ^ <   r.r.q.a.w.a.4.-.k.-.t.e.f.4.4.r.f.r.g.4.w.u.",
"w.  < ] 8 T ;.;.~ L f *.<       i.#.q.s.k.w.4.g.w.#.w.r.a.4.g.a.e.r.+.",
"i.  ] 8 T ;.*./ ;...M D ] & F F       4.l.5.d.6.w.4.u.-.i.s.f.p.2.r.-.",
"#.  ] 8 ' / W ` ;...M Z ] D 1 | y.y.F     i.u.-.w.w.a.a.w.a.t.i.w.4.f.",
"#.  ] G ' W ] _ *...M 6 ;.D > y F %.%.| 3   w.$.g.1.r.a.g.5.f.#.d.=.8.",
"f.  ] G ! E W *.( ..B 6 ;.D = y y 1 P J P F   $.5.i.r.u.f.t.6.5.5.f.#.",
"9.  ( C 7 ! ! ! T l c 6 ;.D = x m u 1 & 3 F   O.w.a.i.u.r.u.4.w.s.3.f.",
"d.  R S , 7 7 7 2 h 2 Z ] 5 = d x N g y & 3   8.u.+.a.u.r.s.4.w.4.u.k.",
"i.  < R < $ , , 2 , C R ) < = d c x n l ;   w.w.-.k.-.z.3.r.5.k.4.r.-.",
"i.i.  < D < $ $ , C R ) 9 = > d c c x n z ;   t.+.k.-.g.t.4.w.t.5.d.a.",
"w.3.4.  < D Y Y Y Y Y < = # > a c c x c m d y   i.s.w.k.5.#.u.3.d.s.w.",
"i.#.w.#.    < D D 4 < O # > k j c c x x c d B y   t.a.5.a.i.#.w.d.h.5.",
"u.#.5.4.4.a.            > N N s j x x j B x c l i   s.r.4.w.w.#.k.5.k.",
"#.2.4.a.o.k.#.i.w.4.  > a k N N j x j j n c N s n   i.r.#.w.6.a.4.s.f.",
"2.4.r.i.@.d.2.i.4.g.  J y.J 3 n N x j c n c N s n w   5.4.w.-.i.9.u.d.",
"#.f.w.o.z.$.q.w.k.4.  J y.| J ; d B x m x x N s n ,.*   r.-.e.k.#.s.t.",
"w.2.s.#.4.g.s.2.a.s.6.+ F | y.0 : d d d x N c s i w r   t.a.q.t.g.5.-.",
"4.#.a.f.a.5.4.a.g.+.k.4.  3 y. .% : d c n c l n p * >.&     k.i.-.i.s.",
"r.5.i.i.f.t.a.w.3.g.#.a.5.  [ y.% $ : u l l k v w X r 3 & &   q.w.k.@.",
"2.j.#.f.-.s.a.w.-.u.4.-.f.. J y.1   : ; u k v w w @ X & 3 }   u.e.u.4.",
"k.d.5.w.a.-.e.w.$.a.w.3.#.  J y.0 .   y l v w :.,.e @ + . F o k.4.f.{ ",
"d.w.r.2.z.$.r.#.k.#.-.q.r.  J y.J   e.  * * w :.,.,.q >.. &   r.6.w.w.",
"$.k.i.r.p.w.2.#.r.p.-.$.r.  F y.K   i.t.  * q :.:.,.q <.t   a.w.a.5.7.",
"q.z.-.w.2.r.w.r.#.4.f.5.4.  3 y.K 3   g.a.. * q :.w * c.t . . a.4.-.r.",
"k.#.f.$.r.4.r.w.w.t.$.r.a.  F y.y.H   -.z.#.. * q * >.c.t P 3   a.+.6.",
"t.i.#.g.$.w.4.q.4.5.u.r.a.4.  U H 3   r.4.-.  t t >.<.>.- &.&.&     3.",
"2.$.k.4.#.q.s.r.r.f.2.g.f.r.a.      4.4.w.a.#.  t t t -   P y.y.F &   ",
"w.q.4.5.w.q.r.d.2.f.r.g.q.i.a.a.@.i.i.O.6.a.6.u.      . 3 0 P X.y.}   ",
"k.+.a.O.p.t.w.i.f.r.w.s.5.p.r.s.#.w.#.r.a.6.-.d.w.e.d.  y.1 &.X.y.F   ",
"r.2.e.q.q.t.g.3.w.f.i.r.r.i.w.i.$.5.p.$.a.i.$.r.q.z.d.  I | 1 I F &   ",
"r.i.r.r.-.r.a.f.$.f.-.s.w.w.q.3.5.s.2.s.#.5.s.p.5.k.@.k.            i.",
"$.$.d.i.q.w.f.r.s.i.a.#.f.2.s.4.#.4.s.r.t.+.k.f.6.q.t.j.5.#.-.i.i.3.l."
};
