/* XPM */
static char *result[] = {
/* columns rows colors chars-per-pixel */
"35 35 142 2 ",
"   c #000000",
".  c #000408",
"X  c #06090F",
"o  c gray3",
"O  c #110900",
"+  c #000810",
"@  c #0D131F",
"#  c #380F06",
"$  c #3C130D",
"%  c #301A0F",
"&  c #381E12",
"*  c #151D31",
"=  c #202020",
"-  c #2B2E34",
";  c #59150D",
":  c #60160C",
">  c #6D190F",
",  c #621E13",
"<  c #533E08",
"1  c #5E331D",
"2  c #742317",
"3  c #63351E",
"4  c #6E520D",
"5  c #76590E",
"6  c #7B4315",
"7  c #7B5C10",
"8  c #7D5A1A",
"9  c #664C09",
"0  c #754527",
"q  c #243154",
"w  c #2C3B66",
"e  c #2E3E6B",
"r  c #484E5A",
"t  c #4C525F",
"y  c #86190C",
"u  c #961C0E",
"i  c #9E1D0E",
"p  c #801F12",
"a  c #AC1E0F",
"s  c #B21E0E",
"d  c #A81F10",
"f  c #8F2B19",
"g  c #9E2012",
"h  c #9E301D",
"j  c #B9200F",
"k  c #AE2213",
"l  c #B32719",
"z  c #B72A19",
"x  c #C4200E",
"c  c #CE200E",
"v  c #C42919",
"b  c #CA2413",
"n  c #D32C1B",
"m  c #D32817",
"M  c #D63D1D",
"N  c #D93221",
"B  c #D53120",
"V  c #824714",
"C  c #804C15",
"Z  c #8D5613",
"A  c #8D690E",
"S  c #8F6316",
"D  c #997317",
"F  c #9C5531",
"G  c #AB4421",
"H  c #A35833",
"J  c #A46D39",
"K  c #B7793F",
"L  c #D84521",
"P  c #AD6C41",
"I  c #B8754B",
"U  c #BE7B50",
"Y  c #B68815",
"T  c #B18D33",
"R  c #D19C15",
"E  c #EFB41C",
"W  c #FEBB14",
"Q  c #D5962F",
"!  c #D79730",
"~  c #C59828",
"^  c #CEA02C",
"/  c #E6AF28",
"(  c #E4AA25",
")  c #E4B12F",
"_  c #EBB328",
"`  c #F0B523",
"'  c #FFC73F",
"]  c #FFC83F",
"[  c #BC824E",
"{  c #BBA875",
"}  c #C68D58",
"|  c #C48155",
" . c #CF965F",
".. c #EC8A42",
"X. c #DCA26C",
"o. c #C4AF77",
"O. c #C6B177",
"+. c #CBB579",
"@. c #C8B378",
"#. c #D5BC7B",
"$. c #D8BF7C",
"%. c #EBAE7A",
"&. c #E4A774",
"*. c #FFC941",
"=. c #D7C07F",
"-. c #DBC17D",
";. c #FFD366",
":. c #3A4F87",
">. c #747C8E",
",. c #4E6AB3",
"<. c #9DA7BE",
"1. c #CEB981",
"2. c #D4BE82",
"3. c #D6C083",
"4. c #DCC483",
"5. c #DCC68A",
"6. c #DFC88C",
"7. c #DBC792",
"8. c #DEC992",
"9. c #DECC9B",
"0. c #E0C783",
"q. c #E3CA86",
"w. c #E3CB8B",
"e. c #E8CF8A",
"r. c #E9CE87",
"t. c #FFC38C",
"y. c #EAD18E",
"u. c #E3CD92",
"i. c #E3CF9A",
"p. c #E6D095",
"a. c #EAD393",
"s. c #E7D29A",
"d. c #EBD59B",
"f. c #EED89E",
"g. c #E6D4A1",
"h. c #EAD6A2",
"j. c #EEDAA3",
"k. c #EDDBA9",
"l. c #F1DEAB",
"z. c #F1DFB2",
"x. c #F1E0AF",
"c. c #D2DEFC",
/* pixels */
"w.y.y.a.r.-.w.8.-.j.2.5.q.w.2.f.3.d.4.0.d.q.h.#.l.-.#.p.4.r.j.0.j.a.4.",
"4.w.0.3.                5.d.@.s.#.p.4.f.q.a.w.5.s.#.w.h.+.l.p.w.d.@.y.",
"5.w.w.  < ] ] ] ] ( R <   -.f.r.i.w.q.e.d.q.u.5.5.q.w.w.e.j.4.z.#.4.5.",
"5.p.  A ] 8 8 G G C S R <   6.4.2.j.3.g.i.u.#.a.2.u.w.q.u.p.e.h.-.$.3.",
"4.  < R 8 T ' ' Q 7 , < D <   w.-.y.u.0.y.f.q.w.4.u.2.j.q.a.-.d.w.2.#.",
"4.  R 8 T ;.( W E ! 7 $ < D   a.4.2.j.=.e.q.d.-.3.w.s.w.d.3.q.e.q.4.f.",
"5.  ] 8 ;.] W ] W ! 7 , $ Y <   d.h.q.4.f.w.#.q.w.s.4.d.a.w.w.#.w.w.z.",
"s.  ] 2 ;./ ` _ *.! 7 , $ Y D   -.k.5.p.6.w.3.y.-.u.d.s.u.2.q.-.w.l.q.",
"3.  ] 2 ~ ;.;.*.( T 2 2 , Y D   h.e.w.y.#.w.0.u.a.q.p.y.u.q.0.f.2.d.0.",
"-.  D f L ........l h , V Y 4   a.5.p.w.-.f.#.u.p.d.4.d.#.s.#.7.j.$.0.",
"3.4.  ^ f M M M N c 2 V R Y <         u.#.q.w.w.y.f.w.q.5.5.f.#.a.q.j.",
"0.p.  < ] D Z 6 6 6 Z R ) < O   > J J + @.0.p.u.a.q.y.4.5.a.4.d.w.p.4.",
"r.-.e.  < ] ] ;.;.;.] ) 9 = # > k t.t.F   p.+.p.a.q.d.3.w.4.y.f.$.d.a.",
"7.w.4.#.  & D D D D 4 < = # > N d J } } 3   .           f.4.w.-.p.l.3.",
"p.#.w.4.  F 1 > = = = = , > d M N 3 J t.t.[ J J J F 1 F   5.s.p.j.+.q.",
"r.q.4.-.  F } y y x k k d d j j N n ; 0  .t.t.t.t.t.t.t.U   a.q.s.u.#.",
"#.4.0.u.0.  t.F y m x c c c c j j N k : % % 3 0 J K K t.H   g.5.q.4.u.",
"4.4.a.#.s.  t.%.1 u N x c c c x x x N a : $   .     3 H 3   5.h.#.u.p.",
"p.O.d.#.u.  F %.P 1 g n x x x x j j x i d : :   w.#.      3.d.d.w.4.4.",
"u.@.s.3.u.4.  } P & y k n c x j j c m a c u ; y   4.w.-.u.u.w.s.4.5.w.",
"o.l.$.0.q.f.  3 P 1 & ; z m c N n n x x n z u l *   -.r.j.$.d.q.q.g.w.",
"#.4.f.p.3.a.d.  F F 3 . ; i a x c x x N c l k v * * . 0.y.d.4.0.r.p.=.",
"s.a.4.4.a.h.+.h.      w.  y N c N N N x l k v w w q * o   -.u.p.q.4.#.",
"u.s.w.u.6.4.d.#.a.0.q.3.#.  y l j s s s n v w :.:.:.q * t   j.+.-.l.3.",
"d.0.a.a.q.-.e.4.-.d.#.3.e.q.  i n n n d 2 w w ,.,.:.:.q t t   4.6.q.#.",
"w.a.2.r.0.$.p.w.5.#.q.6.s.0.-.    w ,.w * X @ e ,.,.w * >.t   { f.-.p.",
"2.l.$.u.#.j.#.-.4.w.-.s.p.#.f.r.4.  * r >.r X @ q q * >.<.t   r.4.-.p.",
"6.u.q.2.#.r.p.-.#.w.8.4.d.-.a.e.q.p.    & 3 & X >.<.c.c.>.- .     q.y.",
"w.-.6.w.5.#.4.d.4.4.w.s.i.4.s.4.f.y.4.f.  & 3 . . t t t -   1 t.I   h.",
"$.q.4.w.w.4.e.$.q.p.u.f.u.r.-.p.-.l.-.p.  & | F &   o J &.P 0 1 }   h.",
"f.$.w.0.0.0.w.p.u.a.=.r.j.4.u.a.6.w.-.4.s.    o   u.. 1 &.t.P %.1   h.",
"4.#.-.a.w.w.s.2.f.p.w.s.4.w.d.4.3.4.u.#.8.w.u.w.s.w.d.  & t.X.X.I   u.",
"5.q.0.q.a.2.d.w.d.0.u.e.i.@.u.u.o.w.u.6.p.4.u.p.$.f.u.w.  F t.t.F   l.",
"o.u.e.w.u.s.w.5.d.4.i.w.a.$.q.$.u.u.w.-.a.w.q.s.w.w.a.4.  & | F &   w.",
"4.q.r.d.5.0.d.8.w.w.u.w.e.$.5.u.#.a.u.$.w.4.j.s.w.#.u.$.w.        4.k."
};
