/* XPM */
static char *result[] = {
/* columns rows colors chars-per-pixel */
"35 35 140 2 ",
"   c #000000",
".  c #080000",
"X  c #000408",
"o  c #0B0C0C",
"O  c #110900",
"+  c #0B0F17",
"@  c #0D121E",
"#  c #2A1E03",
"$  c #3B120C",
"%  c #381E12",
"&  c #382011",
"*  c #151D31",
"=  c #202020",
"-  c #4F130B",
";  c #5C160E",
":  c #6D190F",
">  c #621E13",
",  c #731E12",
"<  c #533E08",
"1  c #5F341D",
"2  c #452A09",
"3  c #742317",
"4  c #76590E",
"5  c #71560D",
"6  c #7B4315",
"7  c #7B5C10",
"8  c #664C09",
"9  c #7A4D2A",
"0  c #7C542E",
"q  c #202C4A",
"w  c #243154",
"e  c #2F406C",
"r  c #334575",
"t  c #4C525F",
"y  c #70675E",
"u  c #9D1D0E",
"i  c #811F12",
"p  c #8B1F11",
"a  c #901F11",
"s  c #A71F10",
"d  c #A81F10",
"f  c #9E301D",
"g  c #BC200F",
"h  c #AE2111",
"j  c #A12519",
"k  c #B32719",
"l  c #BF2B1B",
"z  c #B82716",
"x  c #A73D1F",
"c  c #B8371D",
"v  c #C0200F",
"b  c #CE200E",
"n  c #D62E1D",
"m  c #D63D1D",
"M  c #D83221",
"N  c #DF3F2E",
"B  c #824714",
"V  c #8D5613",
"C  c #997317",
"Z  c #885834",
"A  c #9C5531",
"S  c #A56D39",
"D  c #D84521",
"F  c #E74D3D",
"G  c #AE6C42",
"H  c #AD7B4B",
"J  c #B68815",
"K  c #BD9125",
"L  c #B18D33",
"P  c #D19C15",
"I  c #EFB41C",
"U  c #FEBB13",
"Y  c #C99B2A",
"T  c #D79730",
"R  c #CEA02C",
"E  c #E6AB27",
"W  c #E4B12F",
"Q  c #EBB328",
"!  c #F0B523",
"~  c #FFC73F",
"^  c #FFC83F",
"/  c #AD825A",
"(  c #BD966B",
")  c #BBA875",
"_  c #C68D58",
"`  c #CF965F",
"'  c #EC8A42",
"]  c #DCA26B",
"[  c #C4AF77",
"{  c #C6B177",
"}  c #CCB678",
"|  c #C8B378",
" . c #D5BC7B",
".. c #D8BF7C",
"X. c #F1B67F",
"o. c #FFC941",
"O. c #DAC17D",
"+. c #D7C07F",
"@. c #FFD366",
"#. c #3A4F87",
"$. c #747C8E",
"%. c #4E6AB3",
"&. c #9AA2B9",
"*. c #A7A8A7",
"=. c #CEB981",
"-. c #DEB284",
";. c #D4BE81",
":. c #E7BA94",
">. c #D7C083",
",. c #DCC483",
"<. c #DCC68A",
"1. c #DFC88C",
"2. c #D7C48F",
"3. c #DAC792",
"4. c #DEC992",
"5. c #DECC9B",
"6. c #E0C783",
"7. c #E3CA85",
"8. c #E9CE86",
"9. c #E3CB8B",
"0. c #E8CF89",
"q. c #FFC38C",
"w. c #E7D08F",
"e. c #EAD18E",
"r. c #E4CE92",
"t. c #E2CE99",
"y. c #EFC794",
"u. c #E7D094",
"i. c #EAD394",
"p. c #E6D29A",
"a. c #EBD59B",
"s. c #EED89E",
"d. c #E5D4A1",
"f. c #EBD7A1",
"g. c #EED9A3",
"h. c #EFDCA8",
"j. c #F1DDAB",
"k. c #F1DFB2",
"l. c #D2DEFC",
"z. c #F3EDE7",
/* pixels */
"p.<.9.9.        0.s. .i.O.O.O.a.7.t.9.6.0.a.9.t.,.<.7.<.6.r.g.,.k. .<.",
"i.<.p.  C Y R C     i...3. .t.9.9.;.g.;.p.t.r...i.;.t.0.0.r.i.9.g.>...",
"7.,.  $ 3 3 c R Y <   p.} i.,.i.9...e.r.,.e.d.9.9.<.0.=.h.7.e.O.i.9.,.",
",.  L @.@.Y D c ^ K       <.i.<.i.,.O.h.O.0.9.i.O.,.9.p.7.s.>.7.r.9.,.",
"  L @.o.E @.' m C ^ < =         6.i.g.7.>.s.9. .7.9.i.>.a.i.9.0. .0.<.",
"  ^ E U ! @.' m V ^ 5 y A q.q.A       <.u.9.9.,.e...t.a.a.t.;.9.O.7.h.",
"  ^ U ~ W o.' m 6 @.4   % 1 _ q.q.q.A   i...7.6.r.i.6.i.8.t.6.6.a.;.a.",
"  T I U o.E ' m 6 @.C :./ % 1 % _ % A   <.O.a. .9.i.s.<.i. .p...3.g...",
"  7 T T T T k b 6 @.C z.:./ %   % H %   9...<.r.9.i.a.0.<.1.<.a. .i.9.",
"g.  7 7 7 3 x , V o.4   y.( 1 -       i.9.| 7.i.r.i.9.i.>.7.i.>.a.9.i.",
",.  $ > > 3 3 6 P W < *.] H 1 a -   u.>.9.<.e.} r.e.9.i.O.9.,.e.f...a.",
"p.4.  $ $ 2 B P W 8 # 0 0 1 S 9 b u   ;.6.9.>.g.O.j...r.<.s.,.9.O.i.j.",
" .i.  < C C J J < # =   % S -.-.a - b   i.0.} g.O.s.9.<.6.e.,.p.r.j.} ",
">.9.<.  < C C < O   o $ > > > a N U a b X   i.i.7.g.,. .w.>.a.u.9.u.r.",
"7. .6.7.        > $ p a a a b b b F - a b u   9.i.,.i.9. .9.p.d.<.9.>.",
"1.,.,.i. .  1 d s N b b b n n n M b F U - * +   i.9.,.7.7.;.f.<.g. .0.",
"<.0.{ s. .  S q.` x M b b b M M b b b F i i r +   9. .7.9.i.,.i.a.9.,.",
"9.r.| t.>.  S q.` S d M b b b b b v v n n i * %.  <.,.9.O.r.5.0.p.7.<.",
"7.{ j...7.7.  _ _ 1 1 $ : s d u u u M g k M q e $.  9.O.7.g. .a.9.9.d.",
"i. .6.s.i.;.  _ _ S       $ : u u g g h k z 3 t l.  9.i.6.0.s.,.O.8.i.",
"e.p.e.<.O.i.  S X.S   7.9.  ; , p g k k v M i @ t   O.6.f.0.,.r.i.7.,.",
"r.r.p.9.t.9.X 1 q.S   7.>...  ; j l M v i w w *   1     h.6.6.h.} ..j.",
";.a.,.i.i.7.O.X S ` 1   >.9.7.  ; i 3 w w r %.%.#.  _ ]   i.8.0.>.9.9.",
",.6.i.,.9.7. .  A ` S   9.p.,.O.  @ * * w r %.%.#.q X 1   g.6.a.) a.O.",
"9.;.h...9. .g.  1 q._ 1      .s.8.    @ * r %.%.#.q $.X   e.<.7.9.O.O.",
"e.4.t.6.;...9.i.  A q.] A _   i.r.9.i.  * q q #.#.e l.    <.u.,.2...0.",
",.9.,.9.9.<. .,.a.X A q.q.1 A   ,.a.u.,.    * * e &.l.    i.<.O.1.r.O.",
"p...7.6.6.9.<.0...0.  A q._ &   u.O.j...i.  t $.$.l.$.  +.w.u.} 9.6.9.",
"..s...6.<.6.6.6.i.9.i.  A _ A   i.9.<.O.;.p.  t t t 1   u.<.9.<...p.>.",
"g.,. .6.i.9.9.p.;.s.p.9.  .   p.,.O.6.i. .4.9.  X   q.A         t.<.0.",
">.2.6.6.9.i.;.s.7.s.7.r.i.i.| r.r.{ 9.u.1.e.,.r.u.  _ q.] 1 _ q.  9.8.",
"i.| t.8.9.r.p.9.<.a.,.t.9.i. .9...9.r.9.O.u.9.7.p.  A q.q.] 1 1   9.p.",
"8.,.<.8.s.<.<.a.4.9.1.r.7.0...<.u. .i.4.+.9.O.h.u.  1 G _ 1 _ ]   p.,.",
"9.9.O.9.i.d.O.u.6.i.7.<.6.<.<.i.;.i. .1.i.t.1.h.| g.  1 Z 1 Z 1   a.9.",
"p.9.6.7.i.0.i.r.0...p.;.r.<...,.i.9.0.} h.i.1.7.9.g.1.          h.<.1."
};
