/* XPM */
static char *result[] = {
/* columns rows colors chars-per-pixel */
"50 50 124 2 ",
"   c black",
".  c #000400",
"X  c #080000",
"o  c #000408",
"O  c #0B0C0C",
"+  c #110900",
"@  c #0B0F17",
"#  c #0D121E",
"$  c #2A1E03",
"%  c #3A110B",
"&  c #3C130D",
"*  c #381E12",
"=  c #382011",
"-  c #151D31",
";  c #161F33",
":  c #202020",
">  c #4F130B",
",  c #5C160E",
"<  c #6D190F",
"1  c #611D12",
"2  c #621E13",
"3  c #731E12",
"4  c #452A09",
"5  c #533E08",
"6  c #563F08",
"7  c #5F341D",
"8  c #742317",
"9  c #664C09",
"0  c #71560D",
"q  c #76590E",
"w  c #7B4315",
"e  c #7B5C10",
"r  c #7A4D2A",
"t  c #7C542E",
"y  c #212C49",
"u  c #202C4A",
"i  c #243154",
"p  c #2F406C",
"a  c #334575",
"s  c #4C525F",
"d  c #70675E",
"f  c #9D1D0E",
"g  c #9E1D0E",
"h  c #801F12",
"j  c #861F12",
"k  c #8B1F11",
"l  c #901F11",
"z  c #A71F10",
"x  c #A81F10",
"c  c #9E301D",
"v  c #BC200F",
"b  c #AE2111",
"n  c #A12519",
"m  c #BD2313",
"M  c #B32719",
"N  c #B22B18",
"B  c #BF2B1B",
"V  c #A73D1F",
"C  c #B8371D",
"Z  c #C0200F",
"A  c #CE200E",
"S  c #D42A19",
"D  c #D42F1E",
"F  c #D72F1E",
"G  c #D63D1D",
"H  c #D83221",
"J  c #D93221",
"K  c #DF3F2E",
"L  c #824714",
"P  c #8D5613",
"I  c #997317",
"U  c #885834",
"Y  c #9C5531",
"T  c #A56D39",
"R  c #D84521",
"E  c #E74D3D",
"W  c #AE6C42",
"Q  c #AD794B",
"!  c #AD7D4A",
"~  c #B68815",
"^  c #BD9125",
"/  c #B18D33",
"(  c #D19C15",
")  c #EFB41C",
"_  c #FFBB12",
"`  c #FBB915",
"'  c #FFBC15",
"]  c #C59828",
"[  c #CC9D2B",
"{  c #D79730",
"}  c #CEA02C",
"|  c #EAAF20",
" . c #E1A42C",
".. c #E6AF28",
"X. c #E4B12F",
"o. c #EBB328",
"O. c #F0B523",
"+. c #FFC73F",
"@. c #FFC83E",
"#. c #FFC83F",
"$. c #AD825A",
"%. c #BD966B",
"&. c #C68D58",
"*. c #CF955F",
"=. c #CF965F",
"-. c #EC8A42",
";. c #DCA16B",
":. c #DEA66B",
">. c #F1B67F",
",. c #FFC940",
"<. c #FFC942",
"1. c #FFD366",
"2. c #3A4F87",
"3. c #747C8E",
"4. c #4E6AB3",
"5. c #9AA2B9",
"6. c #A7A8A7",
"7. c #DEB284",
"8. c #E7BA94",
"9. c #FFC38C",
"0. c #EFC794",
"q. c #D2DEFC",
"w. c #F3EDE7",
"e. c None",
/* pixels */
"e.e.e.e.e.e.e.e.e.e.e.e.e.e.e.e.e.e.e.e.e.e.e.e.e.e.e.e.e.e.e.e.e.e.e.e.e.e.e.e.e.e.e.e.e.e.e.e.e.e.",
"e.e.e.e.e.e.e.e.e.e.e.e.e.e.e.e.e.e.e.e.e.e.e.e.e.e.e.e.e.e.e.e.e.e.e.e.e.e.e.e.e.e.e.e.e.e.e.e.e.e.",
"e.e.e.e.e.e.e.e.e.e.e.e.e.e.e.e.e.e.e.e.e.e.e.e.e.e.e.e.e.e.e.e.e.e.e.e.e.e.e.e.e.e.e.e.e.e.e.e.e.e.",
"e.e.e.e.e.e.e.e.e.e.e.e.e.e.e.e.e.e.e.e.e.e.e.e.e.e.e.e.e.e.e.e.e.e.e.e.e.e.e.e.e.e.e.e.e.e.e.e.e.e.",
"e.e.e.e.e.e.e.e.e.e.e.e.e.e.e.e.e.e.e.e.e.e.e.e.e.e.e.e.e.e.e.e.e.e.e.e.e.e.e.e.e.e.e.e.e.e.e.e.e.e.",
"e.e.e.e.e.e.e.e.e.e.e.e.e.e.e.e.e.e.e.e.e.e.e.e.e.e.e.e.e.e.e.e.e.e.e.e.e.e.e.e.e.e.e.e.e.e.e.e.e.e.",
"e.e.e.e.e.e.e.e.e.e.e.e.e.e.e.e.e.e.e.e.e.e.e.e.e.e.e.e.e.e.e.e.e.e.e.e.e.e.e.e.e.e.e.e.e.e.e.e.e.e.",
"e.e.e.e.e.e.e.e.e.e.e.e.e.e.e.e.e.e.e.e.e.e.e.e.e.e.e.e.e.e.e.e.e.e.e.e.e.e.e.e.e.e.e.e.e.e.e.e.e.e.",
"e.e.e.e.e.e.e.e.e.e.e.e.e.e.e.e.e.e.e.e.e.e.e.e.e.e.e.e.e.e.e.e.e.e.e.e.e.e.e.e.e.e.e.e.e.e.e.e.e.e.",
"e.e.e.e.e.e.e.e.e.e.e.e.e.e.e.e.e.e.e.e.e.e.e.e.e.e.e.e.e.e.e.e.e.e.e.e.e.e.e.e.e.e.e.e.e.e.e.e.e.e.",
"e.e.e.e.e.e.e.e.e.e.e.e.e.e.e.e.e.e.e.e.e.e.e.e.e.e.e.e.e.e.e.e.e.e.e.e.e.e.e.e.e.e.e.e.e.e.e.e.e.e.",
"e.e.e.e.e.e.e.e.e.e.e.e.e.e.e.e.e.e.e.e.e.e.e.e.e.e.e.e.e.e.e.e.e.e.e.e.e.e.e.e.e.e.e.e.e.e.e.e.e.e.",
"e.e.e.e.e.e.e.e.e.e.e.e.e.e.e.e.e.e.e.e.e.e.e.e.e.e.e.e.e.e.e.e.e.e.e.e.e.e.e.e.e.e.e.e.e.e.e.e.e.e.",
"e.e.e.e.e.e.e.e.e.e.e.e.e.e.e.e.e.e.e.e.e.e.e.e.e.e.e.e.e.e.e.e.e.e.e.e.e.e.e.e.e.e.e.e.e.e.e.e.e.e.",
"e.e.e.e.e.e.e.e.e.e.e.e.e.e.e.e.e.e.        e.e.e.e.e.e.e.e.e.e.e.e.e.e.e.e.e.e.e.e.e.e.e.e.e.e.e.e.",
"e.e.e.e.e.e.e.e.e.e.e.e.e.e.e.e.e.  I } } I     e.e.e.e.e.e.e.e.e.e.e.e.e.e.e.e.e.e.e.e.e.e.e.e.e.e.",
"e.e.e.e.e.e.e.e.e.e.e.e.e.e.e.e.  & 8 8 C } [ 5   e.e.e.e.e.e.e.e.e.e.e.e.e.e.e.e.e.e.e.e.e.e.e.e.e.",
"e.e.e.e.e.e.e.e.e.e.e.e.e.e.e.  / 1.1.] R C #.^       e.e.e.e.e.e.e.e.e.e.e.e.e.e.e.e.e.e.e.e.e.e.e.",
"e.e.e.e.e.e.e.e.e.e.e.e.e.e.  / 1.,...1.-.G I #.5 :         e.e.e.e.e.e.e.e.e.e.e.e.e.e.e.e.e.e.e.e.",
"e.e.e.e.e.e.e.e.e.e.e.e.e.e.  +.| ' O.1.-.G P #.0 d Y 9.9.Y       e.e.e.e.e.e.e.e.e.e.e.e.e.e.e.e.e.",
"e.e.e.e.e.e.e.e.e.e.e.e.e.e.  +.` @.o.<.-.G w 1.q   * 7 &.9.9.9.Y   e.e.e.e.e.e.e.e.e.e.e.e.e.e.e.e.",
"e.e.e.e.e.e.e.e.e.e.e.e.e.e.  { ) _ ,. .-.G w 1.I 8.$.* 7 * &.* Y   e.e.e.e.e.e.e.e.e.e.e.e.e.e.e.e.",
"e.e.e.e.e.e.e.e.e.e.e.e.e.e.  e { { { { N A w 1.I w.8.$.*   * Q *   e.e.e.e.e.e.e.e.e.e.e.e.e.e.e.e.",
"e.e.e.e.e.e.e.e.e.e.e.e.e.e.e.  e e e 8 c 8 P #.q   0.%.7 >       e.e.e.e.e.e.e.e.e.e.e.e.e.e.e.e.e.",
"e.e.e.e.e.e.e.e.e.e.e.e.e.e.e.  & 2 2 8 8 w ( X.5 6.:.! 7 l >   e.e.e.e.e.e.e.e.e.e.e.e.e.e.e.e.e.e.",
"e.e.e.e.e.e.e.e.e.e.e.e.e.e.e.e.  & & 4 L ( X.9 $ t t 7 T r A f   e.e.e.e.e.e.e.e.e.e.e.e.e.e.e.e.e.",
"e.e.e.e.e.e.e.e.e.e.e.e.e.e.e.e.  5 I I ~ ~ 5 $ :   * T 7.7.l > A   e.e.e.e.e.e.e.e.e.e.e.e.e.e.e.e.",
"e.e.e.e.e.e.e.e.e.e.e.e.e.e.e.e.e.  5 I I 6 +   O % 1 1 1 l K _ l A o   e.e.e.e.e.e.e.e.e.e.e.e.e.e.",
"e.e.e.e.e.e.e.e.e.e.e.e.e.e.e.e.e.e.        2 % k l l l A A A E > l A f   e.e.e.e.e.e.e.e.e.e.e.e.e.",
"e.e.e.e.e.e.e.e.e.e.e.e.e.e.e.e.e.e.e.  7 x x K A A A S S H H A E _ > - @   e.e.e.e.e.e.e.e.e.e.e.e.",
"e.e.e.e.e.e.e.e.e.e.e.e.e.e.e.e.e.e.e.  T 9.*.V J A A A H H A A A E h h a @   e.e.e.e.e.e.e.e.e.e.e.",
"e.e.e.e.e.e.e.e.e.e.e.e.e.e.e.e.e.e.e.  T 9.*.T x J A A A A A Z Z F D h - 4.  e.e.e.e.e.e.e.e.e.e.e.",
"e.e.e.e.e.e.e.e.e.e.e.e.e.e.e.e.e.e.e.e.  &.&.7 7 % < z z f g f H m M F u p 3.  e.e.e.e.e.e.e.e.e.e.",
"e.e.e.e.e.e.e.e.e.e.e.e.e.e.e.e.e.e.e.e.  &.&.T       % < f f v v b M M h s q.  e.e.e.e.e.e.e.e.e.e.",
"e.e.e.e.e.e.e.e.e.e.e.e.e.e.e.e.e.e.e.e.  T >.T   e.e.  , 3 j v b M B F h @ s   e.e.e.e.e.e.e.e.e.e.",
"e.e.e.e.e.e.e.e.e.e.e.e.e.e.e.e.e.e.e.e.o 7 9.T   e.e.e.  , n B F B h i i ; . 7     e.e.e.e.e.e.e.e.",
"e.e.e.e.e.e.e.e.e.e.e.e.e.e.e.e.e.e.e.e.e.o T =.7   e.e.e.  , h h i i a 4.4.2.. &.;.  e.e.e.e.e.e.e.",
"e.e.e.e.e.e.e.e.e.e.e.e.e.e.e.e.e.e.e.e.e.  Y =.T   e.e.e.e.  # - - i a 4.4.2.u o 7   e.e.e.e.e.e.e.",
"e.e.e.e.e.e.e.e.e.e.e.e.e.e.e.e.e.e.e.e.e.  7 9.&.7     e.e.e.    # - a 4.4.2.u 3.o   e.e.e.e.e.e.e.",
"e.e.e.e.e.e.e.e.e.e.e.e.e.e.e.e.e.e.e.e.e.e.  Y 9.;.Y &.  e.e.e.e.  - y y 2.2.p q.    e.e.e.e.e.e.e.",
"e.e.e.e.e.e.e.e.e.e.e.e.e.e.e.e.e.e.e.e.e.e.e.o Y 9.9.7 Y   e.e.e.e.    - - p 5.q.    e.e.e.e.e.e.e.",
"e.e.e.e.e.e.e.e.e.e.e.e.e.e.e.e.e.e.e.e.e.e.e.e.  Y 9.&.= . e.e.e.e.e.  s 3.3.q.3.  e.e.e.e.e.e.e.e.",
"e.e.e.e.e.e.e.e.e.e.e.e.e.e.e.e.e.e.e.e.e.e.e.e.e.  Y &.Y . e.e.e.e.e.e.  s s s 7   e.e.e.e.e.e.e.e.",
"e.e.e.e.e.e.e.e.e.e.e.e.e.e.e.e.e.e.e.e.e.e.e.e.e.e.. X   e.e.e.e.e.e.e.e.  o   9.Y         e.e.e.e.",
"e.e.e.e.e.e.e.e.e.e.e.e.e.e.e.e.e.e.e.e.e.e.e.e.e.e.e.e.e.e.e.e.e.e.e.e.e.e.e.  &.9.;.7 &.9.  e.e.e.",
"e.e.e.e.e.e.e.e.e.e.e.e.e.e.e.e.e.e.e.e.e.e.e.e.e.e.e.e.e.e.e.e.e.e.e.e.e.e.e.  Y 9.9.;.7 7   e.e.e.",
"e.e.e.e.e.e.e.e.e.e.e.e.e.e.e.e.e.e.e.e.e.e.e.e.e.e.e.e.e.e.e.e.e.e.e.e.e.e.e.  7 W &.7 &.;.  e.e.e.",
"e.e.e.e.e.e.e.e.e.e.e.e.e.e.e.e.e.e.e.e.e.e.e.e.e.e.e.e.e.e.e.e.e.e.e.e.e.e.e.e.  7 U 7 U 7   e.e.e.",
"e.e.e.e.e.e.e.e.e.e.e.e.e.e.e.e.e.e.e.e.e.e.e.e.e.e.e.e.e.e.e.e.e.e.e.e.e.e.e.e.e.          e.e.e.e.",
"e.e.e.e.e.e.e.e.e.e.e.e.e.e.e.e.e.e.e.e.e.e.e.e.e.e.e.e.e.e.e.e.e.e.e.e.e.e.e.e.e.e.e.e.e.e.e.e.e.e."
};
