/* XPM */
static char *result[] = {
/* columns rows colors chars-per-pixel */
"50 51 142 2 ",
"   c #000000",
".  c #000408",
"X  c #0A0606",
"o  c #110900",
"O  c #0B0F17",
"+  c #0D121E",
"@  c #2A1E03",
"#  c #3B120C",
"$  c #381E12",
"%  c #382011",
"&  c #151D31",
"*  c #202020",
"=  c #4F130B",
"-  c #5C160E",
";  c #6D190F",
":  c #621E13",
">  c #731E12",
",  c #533E08",
"<  c #5F341D",
"1  c #452A09",
"2  c #742317",
"3  c #76590E",
"4  c #71560D",
"5  c #7B4315",
"6  c #7B5C10",
"7  c #664C09",
"8  c #7C542E",
"9  c #7A4D2A",
"0  c #202C4A",
"q  c #243154",
"w  c #2F406C",
"e  c #334575",
"r  c #4C525F",
"t  c #70675E",
"y  c #9D1D0E",
"u  c #811F12",
"i  c #8B1F11",
"p  c #901F11",
"a  c #A71F10",
"s  c #A81F10",
"d  c #9E301D",
"f  c #BC200F",
"g  c #AE2111",
"h  c #A12519",
"j  c #B32719",
"k  c #BF2B1B",
"l  c #B82716",
"z  c #A73D1F",
"x  c #B8371D",
"c  c #C0200F",
"v  c #CE200E",
"b  c #D62E1D",
"n  c #D63D1D",
"m  c #D83221",
"M  c #DF3F2E",
"N  c #8D5613",
"B  c #824714",
"V  c #997317",
"C  c #885834",
"Z  c #9C5531",
"A  c #A56D39",
"S  c #D84521",
"D  c #E74D3D",
"F  c #AE6C42",
"G  c #AD7B4B",
"H  c #B68815",
"J  c #BD9125",
"K  c #B18D33",
"L  c #D19C15",
"P  c #EFB41C",
"I  c #FEBB13",
"U  c #C99B2A",
"Y  c #D79730",
"T  c #CEA02C",
"R  c #E6AB27",
"E  c #E4B12F",
"W  c #EBB328",
"Q  c #F0B523",
"!  c #FFC73F",
"~  c #FFC83F",
"^  c #AD825A",
"/  c #BD966B",
"(  c #BBA875",
")  c #C68D58",
"_  c #CF965F",
"`  c #EC8A42",
"'  c #DCA26B",
"]  c #C2AE77",
"[  c #C6B177",
"{  c #CAB477",
"}  c #CCB579",
"|  c #CBB579",
" . c #D4BC7B",
".. c #D8BF7C",
"X. c #F1B67F",
"o. c #FFC941",
"O. c #D7C07F",
"+. c #DAC17D",
"@. c #FFD366",
"#. c #3A4F87",
"$. c #747C8E",
"%. c #4E6AB3",
"&. c #9AA2B9",
"*. c #A7A8A7",
"=. c #CEB981",
"-. c #D4BE82",
";. c #DEB284",
":. c #E7BA94",
">. c #D6C084",
",. c #DCC483",
"<. c #D7C28A",
"1. c #DCC68A",
"2. c #DFC98C",
"3. c #DAC792",
"4. c #DEC992",
"5. c #DFCC9A",
"6. c #E0C783",
"7. c #E3CA85",
"8. c #E9CE87",
"9. c #E3CC8B",
"0. c #E8CF8A",
"q. c #FFC38C",
"w. c #E7D08F",
"e. c #EAD18E",
"r. c #E3CD92",
"t. c #E2CE99",
"y. c #EFC794",
"u. c #E6D094",
"i. c #EAD394",
"p. c #E6D29A",
"a. c #EBD59B",
"s. c #EED89E",
"d. c #E6D4A1",
"f. c #EBD6A1",
"g. c #EEDAA3",
"h. c #EEDBA9",
"j. c #F0DDAA",
"k. c #F1DFB1",
"l. c #F1E0AF",
"z. c #F2E1B4",
"x. c #D2DEFC",
"c. c #F3EDE7",
/* pixels */
"u.,.<.r.1.,.2.a.>.9.a.i.i. .h.>.2.a.>.a.<.p.1.p.6.9.a.,.i.u.e.8.6.r.+.1.7.7.r.,.2.p.7.9.7.p.7.r.i.+.",
"2.a.( a.+.        1.i.e.6.u.,.2.a.7.i.,.9.t.i.-.i.g.9.,.0.1.+.g.6.+.0.7.7.a.,.u.1.<.r.,.a.6.a.a.7.a.",
"+.e.7.9.  V T T V     a...u.h. .9.a. .i.6.a.7.,.h. .e.6.h.r. .2.+.a.,.0...g.>.7.7.7.i.0.u.u.0.t.a.7.",
"0.+.+.  # 2 2 x T U ,   1.7.e.1.g. .a.r. .7.a.8.p.,.u.s...<.a.} ,.g.r.e. .4.r.+.g.7.u.i.r.0.7.e.1.i.",
"9.+.  K @.@.U S x ~ J       +.2.g.} a.2.>.g.i.[ j.{ a.t.,.p.-.t.-.a.0.7...t.i.r.1.i.u.t.8.1.p.e.e.a.",
"i.  K @.o.W @.` n V ~ , *         w.e.i. .p.i.>.r.,.a.7.,.f.} 9.7.7.r.6.a.9.9.r.a.+.a.7.i.p.7.<.6.e.",
"9.  ! R I W @.` n N ~ 4 t Z q.q.Z       u.,.9.r.,.a. .i.>.1.p.>.a.>.r.u.,.6.a.u.<.7.p.a.0.6.a...7.1.",
"8.  ! I ! W o.` n 5 @.3   $ < ) q.q.q.Z   u.a. .6.a.-.i.a. .r.,.,.r.w.0.9.7.0.j.7.6.g.+.i.0.7.6.u. .",
"1.  Y P I o.E ` n 5 @.V :.^ % < $ ) $ Z   6.a...i.r.6.1.9.w...,.i.p...7.g.1.a.g.>.p.>.u.d.9...-.t.7.",
" .  6 Y Y Y Y j v 5 @.V c.:.^ %   $ G $   i.1.1.7.w.p.+.9...i.-.r.9.,.g.9.+.w.g.6.g.+.u.7.7.9.1. .e.",
"9.7.  6 6 6 2 h 2 N ~ 3   y./ < =       8.6.i.0.1.t. .a.} 0.r.7.0.7.+.0.h.u.1.p.e.7.4.>.5.1.u.9.0.9.",
"-.9.  # : : 2 2 5 L E , *.' G < p =   7.-.0.7.1.a...p.-.a.7.} t.6.+.g.0.j.1.0.i...9.i...8.6.6.h.t.9.",
"r.a...  # # 1 B L E 7 @ 8 8 < A 9 v y   7.i.,.i...6.w.9.| t.9.r.7.9.7.i.r.f.<.i.7...i.1.1.r.w.t.u.>.",
"9.0.>.  , V V H H , @ * . % A ;.;.p = v   9.r. .g.-.1.7.9.-.a.-.a.1.7.p.9.f...j.>...i.>.0.s.1.a.i.7.",
"0...7.i.  , V V , o   X # : : : p M I p v .   9.i.,.t.1.p.| p...u.7.s.7.u.9.,.p.} 2.g. .j.i.0.a.[ 9.",
"t.+.r.e.a.        : # i p p p v v v D = p v y    .e.,...+.a.8.t.7.6.0.a.7.t.<.2.7.7.6.9.g.1.j. .,.7.",
",.6.r.>.r.9.  < s s M v v v b b m m v D I = & O   ..3. .t.7.1.+.g.>.d.5.r. .e.-.r.9.9.r.u.8.g.>...>.",
"7.+.1.a.6.,.  A q._ z b v v v m m v v v D u u e O   } a.>.a.7.+.e.9.6.e.f.7.0.1.i. .h.6.e.+.i.2.+. .",
"0.7.t.-.g.,.  A q._ A a b v v v v v c c m m > & %.  7.6.u.7.u.1.>.h.+.0.0.a.>.>.7.p.8.a.>.7.u.7.,.f.",
"..u...g.4.+.a.  ) ) < < # ; a a y y y m c l b 0 w $.  <.r. .+.a.a.7.1.a.7. .7.9.p.>.s.i.0.9. .w.2.j.",
"i.1.0.a.e.7.8.  ) ) A       # ; y y f f g j j u r x.  0.0.[ u.>.h.<.p.9.6.,.0...u.a.a.t. .2.+.6.j.6.",
" .<.w.7.,.t.7.  A X.A   ..r.  - > i f g j k m i O r   u. .,.7.g.0.9.e.+.0.7.r.i.6.i.8.r.6.,.a.-.a.6.",
"7.1.r.r.6.7.r.. < q.A    .u.i.  - h k m k > q q &   <     ,.u.a.1.i.1...a.-.r.i.s.1.a. .a.O.3.f...6.",
"a.7. .g.} 1.i.r.. A _ <   ,.p.>.  - > i q q e %.%.#.  ) '   6.7.a.9.r...1.9.7.e.a.w.,.2.1.a. .i.9.g.",
"w.i.+.0.,.g.6.9.  Z _ A   1.g.,.e.  + & & q e %.%.#.0 . <   +.u.a.i.7.| 7.t.r.i.7.e.1.6.i.<.a.7.u.1.",
"-.f. .g.7.1.a.t.  < q.) <     0...0.    + & e %.%.#.0 $..   p.i.t.>.7.3.e.} i.i.7.a.,.9.6.0.g. .g.u.",
"a.6.6.i.r.r.r.r.9.  Z q.' Z )   r.,...9.  & 0 0 #.#.w x.    ,.w.g...7.7.+.s.+.g.>.r.1.a.,.7.+.i.j.+.",
"7.a.w. .t.i...w.7.j.. Z q.q.< Z   9.>.7...    & & w &.x.    7.w.7...a.9.} g.,.a.0.1.7.0.1.t.i.j.} 6.",
"6.a.9.i.,.a.r.t.,.s.O.  Z q.) %   ,.+.s...>.  r $.$.x.$.  i.>.a.6.1.f.] w.i.7.g.,. .r.>.a.u.7.p.9...",
"a.0.9.p.7.t.9.a.1.1.2.u.  Z ) Z   7.w.7.7.6. .  r r r <   } e.7.a.6.7.-.a.0.u.1.i.7. .7.p.d.1.7.,.t.",
"7.6.g.r.7.a.<.a.u.0.a.} e.      ,.u.} p.1.7.2.u.  .   q.Z         >.7.u.,.p.a.7.,.7.7.-.s.7.g. .r.u.",
"7.r. .a.0.i.w.+.9.p.+.i. .>.1.u.[ s. .r.7.+.1.g.,.u.  ) q.' < ) q.  i.0.7.w.r.7. .6.r.i.+.a.p.7.1.6.",
"-.9.w.0.e.a.0.6.9.-.9.1.-.1.7.r.| i.-.r.,.f.8.9.t.+.  Z q.q.' < <   >.i.a.7.g.1.,.6.+.r.t.9.a.7.<.r.",
"7.a.6.s.-.u. .9.0.g.[ 8.} a.7.] j...7.7.g.,.t.,.u.-.  < F ) < ) '   1.i.e.0.a.] 9.,.7.g. .a.9.7.d.7.",
"6.g.0.{ k.[ t.-.7.7.r.6.7.-.a. .6.a.w.-.e.a.7.r.-.t.6.  < C < C <   ,.a.6.a.7.1.7.i.7.0.a.1.,.0.9.+.",
"7.1.r.p.0.} 7.i.7. .-.a.6. .w.p.i.1.,.i.g.} g.,.-.7.0.w.          g.7.7.,.s.1.a.+.6.a.u.+.9.i.7.1. .",
"-.a.-.s.0. .a. .-.u.} i.0.-.t.r.a.7.t.7.-.f. .i.7.7.-...i.,.6.r.6.z...,.7.a.7.9.9. .j.+.6.g.} +.j.>.",
"r.7.7.6.6.i.6.0.6...g.0.-.h.-.a.+.a.i.7.,.0.,...a.-.-.0.7.,.e.9.9.7.r.h.0.] i.e.1.p.2.i.8.u.,.2.8. .",
"7.a...0.6.9...-.8.u.r.-.f.i.,.7.i.+.0.6. .i.7.,...7.r.t.6...w.9.a.0.9.1.1.6.7.,.e.0.u.g.7.a.( a.+.r.",
"{ 7.0.9.-.7.6.7.0.6.g.9.i.0.r.-.h...4. .a. .+.6.7...p.i. .g.8.,.g.1.1.9.,.s.} 7.7.e.g.9.1.6.8.+.,.u.",
",.0.9.,.+.t.7. .a.r.a.7.+.a.0.4.t.6.,. .7.p.+...7.9.1.i.7.w.w.9.i.7.u.6.2.2. .9.i.8.9.,.i.1.<.>.9.9.",
"6.i.-.7.0.-.+.u.-.a.r.7.6.j.,.7.,.9.7.2. .,.a.1.<.1.p.t.1.a.,.a.u.,.g.{ 7.7.+.e.p.u.7.u.2.+.2.9...g.",
"r.9.} t...i.9.t.y.t.1.7.g. .p.+.6.6.1.7.1.i. .0.u.r.s.r.8...i.+.h...a. .6.,.p.2.7.a.O.w.u.} 9.6.7.g.",
"1.r. .w.i.-.u.i. .a.u.1.0.r...s...1.7.7.6.6.i.9.i.+.8.g.>.t.u.7.7.+.>.u.[ i.u.4.r.p.u.2.7.6.>.p.>.g.",
"} 7.w.y. .g.t.7.1.a.a.<.-.+.g.1. .+.i.9.9.p.-.s.p.9.p.1.6.a.1.>.2.u. .1.9.u.,.a.7.a. .i.2.+.u.1.9.r.",
"i.7...g.r.+.e.7.u.a.( g.7.6.,.1.8.+.0.u.-.a.7.g.6.r.e.u.{ r.9.| 2.i.1.e.<.u.u.O.s.4.8.O.,.7.7.8.8.h.",
"..u.i.9.u. .u.7.i.i.6.,.a.} t.] t.8.7.r.i.9.1.i.1.t.7.i. .7...9.r.2.+.u.7.7.p.9.w.i.1. .u.7.w.9.d.2.",
"0. .u.r.u.p.,.i.i.,.,.9.9.-.8.6.7.7.g.<.7.a.3.r.7.r.7.r.+.2.r...p.r.+.9.,.h.u.0. .r. .0.a.2.7.p.1.h.",
" .g. .d.,.a.1.g. .a.{ 6.8.9.9.7.,.7.e.a.>.p.7.e.0.,.7.,.1.i.>.a. .2.i.t.2.g.{ g.,.+.+.i.,.i.r.a.7.,.",
"+.g.3.5.9.r.1.u.+.0.1.a.+.+.p.9.1.7.a.9.i.u.9. .u.-.u.,. .,.u.7.e.} h.a.2.,.0.g.1. .+.u.u.<.g.2.7.9.",
"e.6.7.a.6.0.,.a.1.7.r. .9.7.0.1.t.9.9.0.p.>.0.7.7.i.7.+.+.e.,.e.7.u.f.9.>.9.2.u.} 7.s.,.+.e.h.+.d.9."
};
