/* XPM */
static char *result[] = {
/* columns rows colors chars-per-pixel */
"50 50 147 2 ",
"   c black",
".  c #000400",
"X  c #000408",
"o  c #06090F",
"O  c gray3",
"+  c #110900",
"@  c #000810",
"#  c #0D131F",
"$  c #380F06",
"%  c #3A110B",
"&  c #3C130D",
"*  c #301A0F",
"=  c #381E12",
"-  c #151D31",
";  c #202020",
":  c #2D3139",
">  c #58150C",
",  c #5C160E",
"<  c #60160C",
"1  c #6D190F",
"2  c #621E13",
"3  c #533E08",
"4  c #563F08",
"5  c #442514",
"6  c #5B311D",
"7  c #5E331C",
"8  c #5F341D",
"9  c #742317",
"0  c #60341D",
"q  c #64361E",
"w  c #664C09",
"e  c #6E520D",
"r  c #76590E",
"t  c #7B4315",
"y  c #7A5A11",
"u  c #7B5C10",
"i  c #7D5A1A",
"p  c #7A4B2C",
"a  c #202C4A",
"s  c #253152",
"d  c #243154",
"f  c #2C3B66",
"g  c #2C3D66",
"h  c #2E3E6B",
"j  c #484E5A",
"k  c #4C525F",
"l  c #86190C",
"z  c #85190E",
"x  c #931D0F",
"c  c #971C0E",
"v  c #9E1D0E",
"b  c #801F12",
"n  c #AA1D0E",
"m  c #AE1F0F",
"M  c #B21E0E",
"N  c #A81F10",
"B  c #8F2B19",
"V  c #9E2012",
"C  c #9E301D",
"Z  c #B8200F",
"A  c #BD200F",
"S  c #AE2111",
"D  c #AF2516",
"F  c #B32719",
"G  c #B22B18",
"H  c #BB2919",
"J  c #C3200E",
"K  c #C4200E",
"L  c #CC200E",
"P  c #CD200E",
"I  c #CC210E",
"U  c #CE200E",
"Y  c #C32212",
"T  c #CD2210",
"R  c #CE2916",
"E  c #C42919",
"W  c #D32716",
"Q  c #D32817",
"!  c #D42A19",
"~  c #D42A1A",
"^  c #D32D1B",
"/  c #D52C1A",
"(  c #D63D1D",
")  c #D53120",
"_  c #D83120",
"`  c #D83221",
"'  c #D93221",
"]  c #824714",
"[  c #804C15",
"{  c #8D5613",
"}  c #8D690E",
"|  c #8F6316",
" . c #997317",
".. c #8F5B30",
"X. c #9C5531",
"o. c #AB4421",
"O. c #A35833",
"+. c #A36C38",
"@. c #A46D39",
"#. c #A56D39",
"$. c #B7793F",
"%. c #D84521",
"&. c #AD6C41",
"*. c #B8754B",
"=. c #BE7B50",
"-. c #B68815",
";. c #B18D33",
":. c #D19C15",
">. c #EFB41C",
",. c #FFBB12",
"<. c #FBB915",
"1. c #FFBC15",
"2. c #C59828",
"3. c #D5962F",
"4. c #D79730",
"5. c #CEA02C",
"6. c #E1AB24",
"7. c #EAAF20",
"8. c #E1A42C",
"9. c #E6AF28",
"0. c #E4B12F",
"q. c #EBB328",
"w. c #F0B523",
"e. c #FFC73F",
"r. c #FFC83E",
"t. c #FFC83F",
"y. c #C48155",
"u. c #C68D58",
"i. c #CF965F",
"p. c #EC8A42",
"a. c #D59B66",
"s. c #DBA16C",
"d. c #DCA26C",
"f. c #E4AA72",
"g. c #E7AC75",
"h. c #FFC940",
"j. c #FFC942",
"k. c #FFD366",
"l. c #3A4F87",
"z. c #747C8E",
"x. c #4E6AB3",
"c. c #9DA7BE",
"v. c #FEC28B",
"b. c #FFC38C",
"n. c #CDD9F7",
"m. c #D2DEFC",
"M. c None",
/* pixels */
"M.M.M.M.M.M.M.M.M.M.M.M.M.M.M.M.M.M.M.M.M.M.M.M.M.M.M.M.M.M.M.M.M.M.M.M.M.M.M.M.M.M.M.M.M.M.M.M.M.M.",
"M.M.M.M.M.M.M.M.M.M.M.M.M.M.M.M.M.M.M.M.M.M.M.M.M.M.M.M.M.M.M.M.M.M.M.M.M.M.M.M.M.M.M.M.M.M.M.M.M.M.",
"M.M.M.M.M.M.M.M.M.M.M.M.M.M.M.M.M.M.M.M.M.M.M.M.M.M.M.M.M.M.M.M.M.M.M.M.M.M.M.M.M.M.M.M.M.M.M.M.M.M.",
"M.M.M.M.M.M.M.M.M.M.M.M.M.M.M.M.M.M.M.M.M.M.M.M.M.M.M.M.M.M.M.M.M.M.M.M.M.M.M.M.M.M.M.M.M.M.M.M.M.M.",
"M.M.M.M.M.M.M.M.M.M.M.M.M.M.M.M.M.M.M.M.M.M.M.M.M.M.M.M.M.M.M.M.M.M.M.M.M.M.M.M.M.M.M.M.M.M.M.M.M.M.",
"M.M.M.M.M.M.M.M.M.M.M.M.M.M.M.M.M.M.M.M.M.M.M.M.M.M.M.M.M.M.M.M.M.M.M.M.M.M.M.M.M.M.M.M.M.M.M.M.M.M.",
"M.M.M.M.M.M.M.M.M.M.M.M.M.M.M.M.M.M.M.M.M.M.M.M.M.M.M.M.M.M.M.M.M.M.M.M.M.M.M.M.M.M.M.M.M.M.M.M.M.M.",
"M.M.M.M.M.M.M.M.M.M.M.M.M.M.M.M.M.M.M.M.M.M.M.M.M.M.M.M.M.M.M.M.M.M.M.M.M.M.M.M.M.M.M.M.M.M.M.M.M.M.",
"M.M.M.M.M.M.M.M.M.M.M.M.M.M.M.M.M.M.M.M.M.M.M.M.M.M.M.M.M.M.M.M.M.M.M.M.M.M.M.M.M.M.M.M.M.M.M.M.M.M.",
"M.M.M.M.M.M.M.M.M.M.M.M.M.M.M.M.M.M.M.M.M.M.M.M.M.M.M.M.M.M.M.M.M.M.M.M.M.M.M.M.M.M.M.M.M.M.M.M.M.M.",
"M.M.M.M.M.M.M.M.M.M.M.M.M.M.M.M.M.M.M.M.M.M.M.M.M.M.M.M.M.M.M.M.M.M.M.M.M.M.M.M.M.M.M.M.M.M.M.M.M.M.",
"M.M.M.M.M.M.M.M.M.M.M.M.M.M.M.M.M.M.M.M.M.M.M.M.M.M.M.M.M.M.M.M.M.M.M.M.M.M.M.M.M.M.M.M.M.M.M.M.M.M.",
"M.M.M.M.M.M.M.M.M.M.M.M.M.M.M.M.M.M.M.M.M.M.M.M.M.M.M.M.M.M.M.M.M.M.M.M.M.M.M.M.M.M.M.M.M.M.M.M.M.M.",
"M.M.M.M.M.M.M.M.M.M.M.M.M.M.M.M.M.M.M.M.M.M.M.M.M.M.M.M.M.M.M.M.M.M.M.M.M.M.M.M.M.M.M.M.M.M.M.M.M.M.",
"M.M.M.M.M.M.M.M.M.M.M.M.M.M.M.M.            M.M.M.M.M.M.M.M.M.M.M.M.M.M.M.M.M.M.M.M.M.M.M.M.M.M.M.M.",
"M.M.M.M.M.M.M.M.M.M.M.M.M.M.M.  3 :.t.t.t. .    M.M.M.M.M.M.M.M.M.M.M.M.M.M.M.M.M.M.M.M.M.M.M.M.M.M.",
"M.M.M.M.M.M.M.M.M.M.M.M.M.M.  } :.i i 9 9 B 5.3   M.M.M.M.M.M.M.M.M.M.M.M.M.M.M.M.M.M.M.M.M.M.M.M.M.",
"M.M.M.M.M.M.M.M.M.M.M.M.M.  3 t.i ;.k.k.2.%.B t.3     M.M.M.M.M.M.M.M.M.M.M.M.M.M.M.M.M.M.M.M.M.M.M.",
"M.M.M.M.M.M.M.M.M.M.M.M.M.  t.i ;.k.h.9.k.p.(  .t.= X.    M.M.M.M.M.M.M.M.M.M.M.M.M.M.M.M.M.M.M.M.M.",
"M.M.M.M.M.M.M.M.M.M.M.M.M.  t.i e.7.1.w.k.p.( { t. .8 b.X.    M.M.M.M.M.M.M.M.M.M.M.M.M.M.M.M.M.M.M.",
"M.M.M.M.M.M.M.M.M.M.M.M.M.  t.o.e.<.r.q.j.p.( t k. .1 l X.b.X.    M.M.M.M.M.M.M.M.M.M.M.M.M.M.M.M.M.",
"M.M.M.M.M.M.M.M.M.M.M.M.M.  t.o.3.>.,.h.8.p.( t k. .; l l 6 &.u.X.  M.M.M.M.M.M.M.M.M.M.M.M.M.M.M.M.",
"M.M.M.M.M.M.M.M.M.M.M.M.M.  6.[ y 4.4.4.;.G U t k. .; K Q x 6 = &.X.  M.M.M.M.M.M.M.M.M.M.M.M.M.M.M.",
"M.M.M.M.M.M.M.M.M.M.M.M.M.  :.| 2 u u u 9 C 9 { t.r ; N K _ V l = X.  M.M.M.M.M.M.M.M.M.M.M.M.M.M.M.",
"M.M.M.M.M.M.M.M.M.M.M.M.M.  3 :.3 & 2 2 9 2 ] :.0.3 ; N U K / D > .   M.M.M.M.M.M.M.M.M.M.M.M.M.M.M.",
"M.M.M.M.M.M.M.M.M.M.M.M.M.M.  3  .3 & & 2 ] :.0.w ; 1 N U U K ! H >   M.M.M.M.M.M.M.M.M.M.M.M.M.M.M.",
"M.M.M.M.M.M.M.M.M.M.M.M.M.M.M.  3  .-.-.-.-.-.3 ; $ 1 N U U K U W v l   M.M.M.M.M.M.M.M.M.M.M.M.M.M.",
"M.M.M.M.M.M.M.M.M.M.M.M.M.M.M.M.    3  . .e 4 + $ 1 N Z U U K K P n ) l   M.M.M.M.M.M.M.M.M.M.M.M.M.",
"M.M.M.M.M.M.M.M.M.M.M.M.M.M.M.M.M.M.            1 ' ' Z Z K K Z ` Y I F v     M.M.M.M.M.M.M.M.M.M.M.",
"M.M.M.M.M.M.M.M.M.M.M.M.M.M.M.M.M.M.M.M.M.M.  1 N N ' ' A K Z Z ~ T ' M ^ l.- @ M.M.M.M.M.M.M.M.M.M.",
"M.M.M.M.M.M.M.M.M.M.M.M.M.M.M.M.M.M.M.M.M.M.  #.b.#.8 ' ' K Z U ^ L ' M ^ x.d c.X M.M.M.M.M.M.M.M.M.",
"M.M.M.M.M.M.M.M.M.M.M.M.M.M.M.M.M.M.M.M.M.M.  #.b.u.+.8 N ' K R K K ' M ^ x.d m.=   M.M.M.M.M.M.M.M.",
"M.M.M.M.M.M.M.M.M.M.M.M.M.M.M.M.M.M.M.M.M.M.M.@ u.u...8 8 N v m J ' P M ^ d s m.8 = X M.M.M.M.M.M.M.",
"M.M.M.M.M.M.M.M.M.M.M.M.M.M.M.M.M.M.M.M.M.M.M.  5 u.u...* < N U ^ P F ^ v a j n.8 X.8   M.M.M.M.M.M.",
"M.M.M.M.M.M.M.M.M.M.M.M.M.M.M.M.M.M.M.M.M.M.M.M.  X.b.i.0 % < c F F S E b - z.z.= X.b.X.    M.M.M.M.",
"M.M.M.M.M.M.M.M.M.M.M.M.M.M.M.M.M.M.M.M.M.M.M.M.M.X X.i.#.0 < , c S E b f d o : = = d.b.X.=   M.M.M.",
"M.M.M.M.M.M.M.M.M.M.M.M.M.M.M.M.M.M.M.M.M.M.M.M.M.M.X X.b.#.  z F E b f x.h # o 8 = &.d.b.y.  M.M.M.",
"M.M.M.M.M.M.M.M.M.M.M.M.M.M.M.M.M.M.M.M.M.M.M.M.M.M.M.  i.s.7 X - - f l.x.x.d z.X = g.a.b.X.O M.M.M.",
"M.M.M.M.M.M.M.M.M.M.M.M.M.M.M.M.M.M.M.M.M.M.M.M.M.M.M.  X.v.@.*   - d l.l.x.d c.X X.8 *.X.=   M.M.M.",
"M.M.M.M.M.M.M.M.M.M.M.M.M.M.M.M.M.M.M.M.M.M.M.M.M.M.M.M.  i.f.0   X - d l.g - m.=           M.M.M.M.",
"M.M.M.M.M.M.M.M.M.M.M.M.M.M.M.M.M.M.M.M.M.M.M.M.M.M.M.M.  0 b.$.q   X - d - z.m.= 8 X M.M.M.M.M.M.M.",
"M.M.M.M.M.M.M.M.M.M.M.M.M.M.M.M.M.M.M.M.M.M.M.M.M.M.M.M.  X.b.b.O.    k k z.c.z.8 u.8   M.M.M.M.M.M.",
"M.M.M.M.M.M.M.M.M.M.M.M.M.M.M.M.M.M.M.M.M.M.M.M.M.M.M.M.M.  =.O.q   M.  k k k = X.u.b.X.  . M.M.M.M.",
"M.M.M.M.M.M.M.M.M.M.M.M.M.M.M.M.M.M.M.M.M.M.M.M.M.M.M.M.M.M.      M.M.M.          = d.b.X.=   M.M.M.",
"M.M.M.M.M.M.M.M.M.M.M.M.M.M.M.M.M.M.M.M.M.M.M.M.M.M.M.M.M.M.M.M.M.M.M.M.M.M.M.X 8 p &.d.b.y.  M.M.M.",
"M.M.M.M.M.M.M.M.M.M.M.M.M.M.M.M.M.M.M.M.M.M.M.M.M.M.M.M.M.M.M.M.M.M.M.M.M.M.M.  b.8 g.d.b.X.  M.M.M.",
"M.M.M.M.M.M.M.M.M.M.M.M.M.M.M.M.M.M.M.M.M.M.M.M.M.M.M.M.M.M.M.M.M.M.M.M.M.M.M.  *.u.8 *.X.=   M.M.M.",
"M.M.M.M.M.M.M.M.M.M.M.M.M.M.M.M.M.M.M.M.M.M.M.M.M.M.M.M.M.M.M.M.M.M.M.M.M.M.M.M.            M.M.M.M.",
"M.M.M.M.M.M.M.M.M.M.M.M.M.M.M.M.M.M.M.M.M.M.M.M.M.M.M.M.M.M.M.M.M.M.M.M.M.M.M.M.M.M.M.M.M.M.M.M.M.M.",
"M.M.M.M.M.M.M.M.M.M.M.M.M.M.M.M.M.M.M.M.M.M.M.M.M.M.M.M.M.M.M.M.M.M.M.M.M.M.M.M.M.M.M.M.M.M.M.M.M.M."
};
