/* XPM */
static char *result[] = {
/* columns rows colors chars-per-pixel */
"50 51 143 2 ",
"   c black",
".  c #000408",
"X  c gray3",
"o  c #110900",
"O  c #000810",
"+  c #0D131F",
"@  c #380F06",
"#  c #3B120C",
"$  c #301A0F",
"%  c #381E12",
"&  c #151D31",
"*  c #1D2129",
"=  c #202020",
"-  c #58150C",
";  c #60160C",
":  c #6D190F",
">  c #621E13",
",  c #533E08",
"<  c #5E331D",
"1  c #742317",
"2  c #61351D",
"3  c #6E520D",
"4  c #7B4315",
"5  c #7B5C10",
"6  c #7D5A1A",
"7  c #6E530C",
"8  c #7A4B2C",
"9  c #243154",
"0  c #2C3B66",
"q  c #4C525F",
"w  c #484E5A",
"e  c #666D7D",
"r  c #9E1D0E",
"t  c #951D0F",
"y  c #801F12",
"u  c #86190C",
"i  c #AC1E0F",
"p  c #B21E0E",
"a  c #A81F10",
"s  c #8F2B19",
"d  c #9E301D",
"f  c #B8200F",
"g  c #AE2111",
"h  c #B42719",
"j  c #B22B18",
"k  c #C4200E",
"l  c #CE200E",
"z  c #C52817",
"x  c #CE2916",
"c  c #C42919",
"v  c #C62211",
"b  c #D32C1B",
"n  c #D32716",
"m  c #D63D1D",
"M  c #D93221",
"N  c #D53120",
"B  c #814914",
"V  c #8D5613",
"C  c #8D690E",
"Z  c #8F6316",
"A  c #997317",
"S  c #8F5B30",
"D  c #9C5531",
"F  c #AB4421",
"G  c #A35833",
"H  c #A56D39",
"J  c #B7793F",
"K  c #D84521",
"L  c #AD6C41",
"P  c #B8754B",
"I  c #BE7B50",
"U  c #B68815",
"Y  c #B18D33",
"T  c #D19C15",
"R  c #EFB41C",
"E  c #FEBB14",
"W  c #D79730",
"Q  c #CD972C",
"!  c #CEA02C",
"~  c #E5AB26",
"^  c #E4B12F",
"/  c #EBB328",
"(  c #F0B523",
")  c #FFC73F",
"_  c #FFC83F",
"`  c #BE804F",
"'  c #BBA875",
"]  c #C68D58",
"[  c #C48155",
"{  c #CF965F",
"}  c #EC8A42",
"|  c #D59B66",
" . c #DCA26C",
".. c #C2AE77",
"X. c #C6B177",
"o. c #CAB477",
"O. c #CCB579",
"+. c #CBB579",
"@. c #D4BC7B",
"#. c #D8BF7C",
"$. c #E7AC75",
"%. c #FFC941",
"&. c #D7C07F",
"*. c #DAC17E",
"=. c #FFD366",
"-. c #3A4F87",
";. c #747C8E",
":. c #4E6AB3",
">. c #9DA7BE",
",. c #CEB981",
"<. c #D4BE82",
"1. c #D6C084",
"2. c #DCC483",
"3. c #D7C28A",
"4. c #DCC68A",
"5. c #DFC88C",
"6. c #DBC792",
"7. c #DEC992",
"8. c #DFCC9A",
"9. c #E0C783",
"0. c #E3CA85",
"q. c #E9CE87",
"w. c #E3CC8B",
"e. c #E8CF8A",
"r. c #FFC38C",
"t. c #E7D08F",
"y. c #EAD18E",
"u. c #E4CD92",
"i. c #E2CE99",
"p. c #E6D094",
"a. c #EAD394",
"s. c #E6D29A",
"d. c #EBD59B",
"f. c #EED89E",
"g. c #E6D4A2",
"h. c #EBD6A1",
"j. c #EED9A3",
"k. c #EEDBA9",
"l. c #F0DDAA",
"z. c #F1DFB1",
"x. c #F1E0AF",
"c. c #F2E1B4",
"v. c #D2DEFC",
/* pixels */
"p.2.4.u.4.2.5.f.<.w.d.a.a.@.k.2.6.f.2.a.3.g.4.i.0.w.d.2.y.p.y.0.0.w.*.4.2.0.u.4.5.a.5.w.0.s.*.p.p.*.",
"5.d.' d.            a.y.2.p.2.5.d.2.a.2.7.u.p.*.t.j.w.1.w.0.*.l.9.*.w.w.0.d.1.p.2.4.u.*.f.2.d.f.9.d.",
"*.y.0.  , T _ _ _ A     #.p.l.@.u.a.@.p.0.d.q.9.l.@.y.0.k.p.@.w.*.d.2.y.@.f.2.0.0.0.d.e.s.a.w.u.f.q.",
"e.*.  C T 6 6 1 1 s ! ,   w.q.4.j.@.h.u.@.9.d.0.s.2.a.f.<.<.d.o.4.j.w.y.@.u.u.2.d.w.a.t.w.e.w.y.9.a.",
"w.  , _ 6 Y =.=.Q K s _ ,     4.j.@.d.5.1.f.p.X.l.X.d.i.2.s.<.i.<.d.w.0.@.u.p.u.4.p.a.s.0.4.a.y.p.a.",
"a.  _ 6 Y =.%.~ =.} m A _ % D     w.y.y.@.s.p.2.w.2.f.0.1.j.O.w.w.0.w.9.d.e.u.u.f.*.d.0.a.s.4.4.w.t.",
"w.  _ 6 ) / E ( =.} m V _ A < r.D   e.8.p.2.w.u.4.d.@.a.<.4.s.2.f.#.w.p.2.w.d.a.4.0.d.d.e.0.d.*.0.4.",
"q.  ) F ) E _ / %.} m 4 =.A < < { L   e.0.p.f.@.0.d.<.a.d.#.w.3.4.w.u.e.e.4.e.l.4.*.f.*.d.0.0.9.a.O.",
"4.  _ F W R E %.~ } M 4 =.A : u % < L   f.*.d.#.u.p.2.3.w.a.#.2.p.d.*.9.j.9.d.f.1.d.<.a.h.w.@.<.u.0.",
"@.  ~ B 5 W W W Y j l 4 =.A = k i t <   1.d.4.2.w.e.s.9.w.#.t.<.w.w.1.k.w.*.p.j.5.h.*.s.2.w.w.5.#.p.",
"w.  T Z > 5 5 5 1 d 1 V %.5 = f N N -   q.9.a.e.2.a.@.s.O.e.t.w.0.e.2.0.k.d.2.s.y.0.w.1.u.4.a.4.e.w.",
"<.  , T , # > > 1 > 4 T ^ , = f k k b n     w.2.f.@.s.<.s.w.O.u.0.*.j.e.l.4.e.p.@.w.p.@.e.0.0.k.i.w.",
"w.d.  , A , # # > B T ^ 7 * = a l l k l n -   d.#.9.y.w.o.i.w.u.q.e.9.a.5.k.1.a.0.#.a.4.4.u.y.i.p.1.",
"e.y.*.  , A U U U U U , = @ : a l l k k l a -   j.<.5.9.w.<.s.2.s.4.9.d.w.h.#.l.*.#.p.2.q.j.2.j.y.4.",
"w.&.0.d.    , A A 7 , o @ : g p l l k k M k N i   2.i.4.s.o.s.#.u.9.f.0.a.w.1.d.@.4.j.@.l.p.w.d.X.y.",
"p.&.u.y.d.0.            : b m M f l k p b v M h b   2.*.*.f.0.i.w.0.w.d.0.i.3.4.0.4.0.w.j.1.z.@.2.0.",
"2.9.u.1.w.w.s.0.w.f.  : a z z M M k f f b l M p b &   <.8.5.2.2.j.1.g.8.t.@.p.&.u.w.w.u.p.e.f.2.@.2.",
"0.2.4.d.0.2.a.0.0.p.  H ] H 2 ; p x f x k k M p b 0 & O 2.a.w.&.y.u.2.y.d.w.e.4.p.@.l.0.y.*.a.w.*.@.",
"e.9.i.<.h.2.0.4.a.w.  H r.] S < $ r p a k M l p b 0 9 ;.. 0.y.4.*.k.#.e.e.p.2.1.w.p.0.f.1.9.t.w.1.h.",
"#.a.#.h.7.2.h.9.2.e.k.  D ] r.{ < # a l k M l p b 0 9 v.%   *.d.j.2.2.f.w.@.0.5.p.2.f.p.e.w.@.w.4.x.",
"u.4.q.d.e.0.e.0.0.0.e.p.  . D r.H < ; r b l h b 9 0 9 v.2 % .   k.4.u.w.w.*.e.*.p.d.s.u.<.5.*.0.l.0.",
"@.3.p.w.2.i.0.w.p.4.w.f.@.w.. D r.D # t h i c y & 9 & >.2 D D <     p.*.0.9.i.a.0.a.e.p.0.2.d.<.f.9.",
"w.5.e.u.9.0.7.u.e.0.9.g.@.d.p.  {  .< ; h c y 9 + + q ;.% D  .r.D %   #.d.<.w.p.f.4.d.&.s.&.6.j.#.0.",
"a.9.@.j.@.4.p.u.0.d.w.5.d.2.s.  { r.< # y y 9 -.    * * % % L  .r.[   #.w.w.e.y.d.w.2.2.4.d.@.p.w.h.",
"t.d.*.w.9.j.9.w.9.p.h.4.u.1.f.  ` r.2 # & 9 :.-.  4.    P % $.| r.D X X.0.p.u.y.w.y.2.0.a.1.d.w.p.2.",
"2.s.@.j.9.4.h.i.w.0.4.q.s.u.4.  D r.J # & -.:.0   *.0.  D D < P D %   7.p.O.p.y.w.a.2.e.2.e.f.#.h.p.",
"d.2.9.a.u.u.u.w.w.h.0.0.u.<.i.  2 r.J 2   0 -.9 q . 9.0.            0.w.*.f.*.l.#.7.4.f.4.0.*.a.l.*.",
"9.f.t.@.i.a.#.a.w.l.t.@.i.e.@.  D r.r.G   & 9 & >.. 2.f.4.d.e.p.9.#.a.w.O.j.2.d.w.4.9.e.3.s.a.j.O.0.",
"0.d.w.a.2.s.w.i.2.f.#.f.w.<.2.0.  I G 2   e >.v.;.%   i.w.p.*.a.9.0.g...e.d.9.l.9.@.p.*.s.d.q.d.w.#.",
"d.e.w.s.w.u.w.h.w.3.4.p.w.@.w.@.9.      * q q q % 8 D     @.p.0.d.2.w.<.d.q.p.1.p.w.@.w.s.g.1.0.2.i.",
"w.2.j.u.w.d.3.d.w.e.d.O.y.@.0.2.2.s.@.s.4.    % L  .r.D %   s.1.w.2.9.a.4.p.d.w.2.0.0.#.f.4.j.@.w.p.",
"w.w.@.a.e.a.e.*.w.s.2.p.@.<.4.p...d.@.u.w.2.. 2 8 L  .r.[   4.#.e.e.u.e.w.e.u.0.@.9.7.a.*.d.s.w.4.9.",
"2.w.e.e.y.d.0.0.w.<.5.5.<.3.w.w.X.s.<.u.2.h.  r.2 $. .r.D   @.e.i.2.*.y.f.9.j.4.2.9.*.t.i.w.s.0.3.u.",
"2.d.9.f.1.i.@.w.q.f.O.0.@.s.w.X.l.#.0.0.h.9.  P ] < P D %   e.*.h.9.0.p.p.e.f...w.9.0.j.#.d.w.w.s.w.",
"9.h.y.X.z.O.i.<.0.0.u.2.0.2.a.@.9.j.t.<.e.a.w.            f.*.1.5.a.3.f.9.a.9.4.w.a.*.e.d.4.9.0.p.*.",
"w.4.w.d.e.O.0.a.w.@.2.a.1.@.e.s.y.4.2.a.j.@.h.9.2.0.w.u.#.0.4.@.u.h.0.0.9.f.4.s.#.9.j.t.*.w.a.0.1.@.",
"2.a.<.d.e.#.f.O.<.i.@.a.e.5.u.u.s.w.a.0.<.h.#.a.0.w.<.#.a.1.4.w.9.z.<.9.w.a.0.w.u.@.l.*.0.l.O.*.k.2.",
"i.9.w.9.9.a.2.e.9.#.f.0.<.h.<.s.9.a.u.0.2.e.2.<.d.#.2.w.0.4.e.w.w.0.u.h.e...a.y.2.i.w.y.q.w.2.0.e.@.",
"0.d.#.w.9.w.#.<.q.a.u.*.f.d.4.0.a.<.e.9.#.y.9.<.@.9.u.p.9.#.p.w.f.e.u.4.5.9.0.2.e.w.p.l.9.d.' h.*.u.",
"O.9.e.w.*.0.9.0.e.2.j.w.i.w.w.1.j.#.u.#.j.O.9.9.w.#.a.i.@.d.q.9.h.9.4.w.2.f.O.0.w.y.j.w.4.0.0.#.*.a.",
"9.e.u.<.9.u.0.O.d.i.a.0.#.j.e.6.i.9.*.@.w.a.*.#.w.u.2.d.9.y.u.e.t.w.p.0.5.4.@.w.a.q.p.9.p.4.6.&.w.w.",
"0.y.<.9.q.<.9.s.9.d.u.w.9.l.2.0.<.u.w.0.@.2.d.2.<.0.i.u.9.s.9.d.p.2.f.O.w.w.*.t.s.a.9.p.2.*.5.w.*.j.",
"u.w.,.u.#.y.w.u.w.u.0.0.j.@.s.#.9.9.w.0.4.t.#.e.a.u.f.i.q.<.a.<.k.@.d.@.9.*.s.w.e.d.*.t.p.O.w.0.0.h.",
"<.u.@.t.s.<.a.u.O.f.i.4.e.t.#.f.#.5.2.9.2.0.t.u.a.<.0.l.2.u.a.w.0.*.1.p.X.a.p.6.w.i.u.5.w.5.<.s.1.k.",
",.0.y.u.@.h.a.0.<.d.h.<.<.#.h.9.@.*.a.w.w.s.<.d.a.u.i.<.0.d.2.<.9.p.@.5.w.u.2.d.w.d.@.a.2.*.p.4.t.w.",
"a.0.#.j.a.*.u.w.d.f.' j.w.0.4.<.0.9.e.a.<.d.0.f.9.a.e.d.+.u.u.X.w.p.4.p.1.u.a.1.f.u.0.1.9.9.e.0.0.k.",
"#.a.a.y.a.O.d.0.e.a.0.9.h.O.a.X.i.q.w.a.d.w.4.a.9.i.w.a.@.0.#.w.u.w.*.a.0.q.s.w.e.p.2.@.p.q.t.w.s.5.",
"q.O.a.u.a.s.<.a.a.9.<.w.w.<.q.4.2.q.h.<.9.d.6.u.w.u.0.u.#.5.t.#.s.7.*.w.2.k.p.e.@.u.#.w.d.2.w.s.2.k.",
"#.h.<.h.2.h.<.l.#.d.o.9.e.u.w.w.<.q.y.h.#.s.9.a.w.9.9.4.3.a.<.a.@.5.a.s.3.k.X.j.4.*.*.p.2.a.u.d.w.2.",
"#.j.<.8.u.u.0.y.#.e.9.a.<.#.s.7.9.9.d.u.a.u.e.#.a.<.t.9.#.9.s.w.e.O.j.d.5.0.w.f.4.@.&.p.u.2.l.2.5.w.",
"y.0.w.d.9.e.<.f.9.w.u.,.e.0.q.0.i.u.q.0.d.<.w.0.0.a.9.#.#.t.2.e.w.p.h.w.2.t.5.p.@.2.f.*.2.y.k.*.g.e."
};
