/* XPM */
static char *result[] = {
/* columns rows colors chars-per-pixel */
"35 35 142 2 ",
"   c black",
".  c #000408",
"X  c gray3",
"o  c #110900",
"O  c #000810",
"+  c #0D131F",
"@  c #380F06",
"#  c #3B120C",
"$  c #301A0F",
"%  c #381E12",
"&  c #151D31",
"*  c #1D2129",
"=  c #202020",
"-  c #58150C",
";  c #60160C",
":  c #6D190F",
">  c #621E13",
",  c #533E08",
"<  c #5E331D",
"1  c #742317",
"2  c #61351D",
"3  c #6E520D",
"4  c #76590E",
"5  c #7B4315",
"6  c #7B5C10",
"7  c #7D5A1A",
"8  c #664C09",
"9  c #7A4B2C",
"0  c #243154",
"q  c #2C3B66",
"w  c #484E5A",
"e  c #4C525F",
"r  c #666D7D",
"t  c #951D0F",
"y  c #9E1D0E",
"u  c #801F12",
"i  c #86190C",
"p  c #AC1E0F",
"a  c #B21E0E",
"s  c #A81F10",
"d  c #8F2B19",
"f  c #9E301D",
"g  c #B8200F",
"h  c #AE2111",
"j  c #B42719",
"k  c #B22B18",
"l  c #C4200E",
"z  c #CE200E",
"x  c #C52817",
"c  c #CE2916",
"v  c #C42919",
"b  c #C62211",
"n  c #D32716",
"m  c #D32C1B",
"M  c #D63D1D",
"N  c #D93221",
"B  c #D53120",
"V  c #824714",
"C  c #804C15",
"Z  c #8D5613",
"A  c #8D690E",
"S  c #8F6316",
"D  c #997317",
"F  c #8F5B30",
"G  c #9C5531",
"H  c #AB4421",
"J  c #A35833",
"K  c #A56D39",
"L  c #B7793F",
"P  c #D84521",
"I  c #AD6C41",
"U  c #B8754B",
"Y  c #BE7B50",
"T  c #B68815",
"R  c #B18D33",
"E  c #D19C15",
"W  c #EFB41C",
"Q  c #FEBB14",
"!  c #D5962F",
"~  c #D79730",
"^  c #C59828",
"/  c #CEA02C",
"(  c #E5AB26",
")  c #E4B12F",
"_  c #EBB328",
"`  c #F0B523",
"'  c #FFC73F",
"]  c #FFC83F",
"[  c #BE804F",
"{  c #C68D58",
"}  c #C48155",
"|  c #CF965F",
" . c #EC8A42",
".. c #D59B66",
"X. c #DCA26C",
"o. c #C4AF77",
"O. c #C6B177",
"+. c #CCB679",
"@. c #C8B378",
"#. c #D4BC7B",
"$. c #D8BF7C",
"%. c #E7AC75",
"&. c #FFC941",
"*. c #DAC17D",
"=. c #D7C07F",
"-. c #FFD366",
";. c #3A4F87",
":. c #747C8E",
">. c #4E6AB3",
",. c #9DA7BE",
"<. c #CEB981",
"1. c #D4BE82",
"2. c #D6C083",
"3. c #DCC483",
"4. c #DCC689",
"5. c #DFC88C",
"6. c #D7C48F",
"7. c #DAC792",
"8. c #DEC993",
"9. c #DFCC9A",
"0. c #E0C783",
"q. c #E3CA85",
"w. c #E3CB8B",
"e. c #E9CF89",
"r. c #E9CE87",
"t. c #FFC38C",
"y. c #E7D08F",
"u. c #E9D18E",
"i. c #E3CD92",
"p. c #E2CF99",
"a. c #E6D095",
"s. c #EBD393",
"d. c #E6D29A",
"f. c #EBD59B",
"g. c #EED89E",
"h. c #E5D4A1",
"j. c #EAD7A3",
"k. c #EED9A2",
"l. c #EEDBA9",
"z. c #F0DDAA",
"x. c #F1DFB2",
"c. c #D2DEFC",
/* pixels */
"*.g.0.w.0.2.s.a.4.0.5.a.2.p.4.f.@.d.$.d.5.f.0.s.w.3.f.#.4.k.#.z.s.5.f.",
"4.d.4.            r.g.#.u.2.*.*.g.0.d.0.0.y.f.r.p.4.4.0.4.0.w.k.3.x.#.",
"*.s.  , E ] ] ] D     s.*.7.#.a.0.4.2.k.2.d.9.a.#.s.=.i.w.e.i.s.r.j.3.",
"s.  A E 7 7 1 1 d / ,   d.+.f.2.f.w.*.u.a.3.u.d.w.w.3.s.<.k.0.s.*.f.w.",
"  , ' 7 R -.-.^ P d ] ,     0.a.0.s.3.=.l.*.u.r.d.*.2.w.d.w.g.2.0.a.r.",
"  ' 7 R -.&.( -. .M D ] % G     #.*.f.k.0.3.g.w.#.r.w.d.3.g.d.r.w.#.w.",
"  ] 7 ' ` Q ` -. .M Z ] D < t.G   s.2.l.4.a.w.w.3.r.$.i.d.g.p.#.0.*.0.",
"  ] H ' Q ] _ &. .M 5 -.D < < | I   k.r.w.s.=.0.0.i.s.q.d.r.i.0.3.g.1.",
"  ] H ! W Q &.(  .N 5 -.D : i % < I   4.u.5.*.f.#.i.s.f.4.s.$.d.#.7.j.",
"  ( 5 6 ~ ~ ~ R k z 5 -.D = l p t <   s.w.i.#.w.i.w.u.g.w.0.4.4.g.$.s.",
"  E S > 6 6 6 1 f 1 Z &.4 = a N N -   g.s.w.@.0.i.i.u.w.u.3.0.s.3.f.w.",
"  , E , # > > 1 > C E ) , = g l l m n     w.5.s.+.d.u.w.s.3.w.3.u.g.#.",
"1.  , D , # # > C E ) 8 = = s z z l z n -   w.*.k.*.l.=.i.3.g.3.0.*.s.",
"y.#.  , D T T T T T , = @ : s z z l l z s -   +.k.*.f.u.5.0.a.3.d.d.z.",
"2.2.r.    , D D 3 , o @ : h g z z l l N b B p   s.0.l.3.#.u.2.f.a.0.f.",
"#.5.#.3.r.            : N N N g z l a m b N j m   s.2.s.w.+.r.d.h.4.r.",
"#.w.3.3.a.+.d.0.0.  : s x x N N l g g m z N a m &   w.4.0.w.1.g.5.l.#.",
"1.4.e.O.k.#.i.w.2.  K { K 2 ; s c g c l b N a m q & O $.q.w.s.2.s.f.0.",
"4.w.i.@.a.3.8.3.k.  K t.{ F < $ s s p l N z a m q 0 :.. w.*.i.8.w.d.0.",
"f.q.o.z.1.0.r.g.3.d.  G { t.| 2 @ y z l N z a m q 0 c.%   r.k.$.g.r.w.",
"$.s.#.3.g.s.$.u.s.4.p.  . G t.K 2 ; y m z j m 0 q 0 c.2 % .   g.4.*.r.",
"#.e.d.s.4.3.d.g.#.k.3.3.0.. G t.G # y j s v u & 0 & ,.< G G <     s.0.",
"4.i.i.d.w.i.w.2.g.#.s.4.r.$.  | X.< ; g v u 0 + + w :.% G X.t.G %   *.",
"j.$.f.0.s.a.0.2.e.3.*.s.*.2.  | t.< # 1 u 0 ;.    * * % % I X.t.}   5.",
"f.3.w.s.$.r.0.#.s.q.3.#.w.w.  } t.2 # & 0 >.;.  0.    U % %...t.G X j.",
"w.w.1.z.$.i.#.k.#.*.0.w.$.d.  G t.L # & ;.>.q   g.+.  G G < U G %   *.",
"k.e.i.p.q.1.#.r.i.*.$.w.i.4.  2 t.L 2   q ;.0 e . #.w.            6.*.",
"z.1.0.3.w.w.4.#.4.s.4.3.3.p.  G t.t.J   & 0 & ,.. *.s.a.a.0.d.4.2.w.w.",
"#.d.$.q.0.w.0.4.e.$.w.i.i.g.p.  Y J 2   r ,.c.:.%   w.w.g.*.w.a.+.w.0.",
"w.$.g.$.w.3.q.3.w.s.i.s.*.r.k.3.      * e e e % 9 G     a.a.5.5.5.*.d.",
"$.k.3.#.0.s.w.w.d.1.g.d.w.d.3.0.s.4.3.0.    % I X.t.G %   #.s.0.*.a.3.",
"q.3.4.q.0.w.p.1.s.w.g.0.w.s.d.@.p.w.O.w.d.. < 9 I X.t.}   r.*.0.q.w.w.",
"+.a.@.a.r.w.i.d.w.0.d.3.p.0.s.$.r.$.w.i.w.  t.2 %.X.t.G   3.$.i.r.w.w.",
"1.e.3.0.r.k.1.0.g.p.w.4.i.w.y.$.4.y.#.d.i.  U { < U G %   $.w.g.4.0.d.",
"i.w.w.3.r.e.j.$.d.0.s.r.0.0.3.4.s.1.d.#.5.d.            3.*.s.3.d.i.g."
};
