/* XPM */
static char *result[] = {
/* columns rows colors chars-per-pixel */
"50 51 142 2 ",
"   c #000000",
".  c #000408",
"X  c #06090F",
"o  c gray3",
"O  c #110900",
"+  c #000810",
"@  c #0D131F",
"#  c #380F06",
"$  c #3C130D",
"%  c #301A0F",
"&  c #381E12",
"*  c #151D31",
"=  c #202020",
"-  c #2B2E34",
";  c #59150D",
":  c #60160C",
">  c #6D190F",
",  c #621E13",
"<  c #533E08",
"1  c #5E331D",
"2  c #742317",
"3  c #63351E",
"4  c #6E520D",
"5  c #7B4315",
"6  c #7B5C10",
"7  c #7D5A1A",
"8  c #6E530C",
"9  c #754527",
"0  c #243154",
"q  c #2C3B66",
"w  c #2E3E6B",
"e  c #484E5A",
"r  c #4C525F",
"t  c #86190C",
"y  c #961C0E",
"u  c #9E1D0E",
"i  c #801F12",
"p  c #AC1E0F",
"a  c #B21E0E",
"s  c #A81F10",
"d  c #8F2B19",
"f  c #9E2012",
"g  c #9E301D",
"h  c #B9200F",
"j  c #AE2213",
"k  c #B32719",
"l  c #B72A19",
"z  c #C4200E",
"x  c #CE200E",
"c  c #C42919",
"v  c #CA2413",
"b  c #D32C1B",
"n  c #D32817",
"m  c #D63D1D",
"M  c #D93221",
"N  c #D53120",
"B  c #814914",
"V  c #8D5613",
"C  c #8D690E",
"Z  c #8F6316",
"A  c #997317",
"S  c #9C5531",
"D  c #AB4421",
"F  c #A35833",
"G  c #A46D39",
"H  c #B7793F",
"J  c #D84521",
"K  c #AD6C41",
"L  c #B8754B",
"P  c #BE7B50",
"I  c #B68815",
"U  c #B18D33",
"Y  c #D19C15",
"T  c #EFB41C",
"R  c #FEBB14",
"E  c #D5962F",
"W  c #D79730",
"Q  c #C59828",
"!  c #CEA02C",
"~  c #E5AB26",
"^  c #E4B12F",
"/  c #EBB328",
"(  c #F0B523",
")  c #FFC73F",
"_  c #FFC83F",
"`  c #BC824E",
"'  c #BBA875",
"]  c #C68D58",
"[  c #C48155",
"{  c #CF965F",
"}  c #EC8A42",
"|  c #DCA26C",
" . c #C2AE77",
".. c #C6B177",
"X. c #CAB477",
"o. c #CCB579",
"O. c #CBB579",
"+. c #D4BC7B",
"@. c #D8BF7C",
"#. c #E7AA76",
"$. c #FFC941",
"%. c #D7C07F",
"&. c #DAC17E",
"*. c #FFD366",
"=. c #3A4F87",
"-. c #747C8E",
";. c #4E6AB3",
":. c #9DA7BE",
">. c #CEB981",
",. c #D4BE82",
"<. c #D6C084",
"1. c #DCC483",
"2. c #D7C28A",
"3. c #DCC68A",
"4. c #DFC88C",
"5. c #DBC792",
"6. c #DEC992",
"7. c #DECC9B",
"8. c #E0C783",
"9. c #E3CA85",
"0. c #E9CE87",
"q. c #E3CC8B",
"w. c #E8CF8A",
"e. c #FFC38C",
"r. c #E7D08F",
"t. c #EAD18E",
"y. c #E3CD92",
"u. c #E2CE99",
"i. c #E6D094",
"p. c #EAD394",
"a. c #E6D29A",
"s. c #EBD59B",
"d. c #EED89E",
"f. c #E6D4A2",
"g. c #EAD6A1",
"h. c #EED9A3",
"j. c #EEDBA9",
"k. c #F0DDAA",
"l. c #F1DFB1",
"z. c #F1E0AF",
"x. c #F2E1B4",
"c. c #D2DEFC",
/* pixels */
"i.1.3.y.3.1.4.d.<.q.s.p.p.+.j.1.4.s.%.p.5.a.2.a.9.9.s.<.t.p.t.9.8.q.<.3.8.0.y.1.9.p.q.q.9.a.&.p.p.&.",
"4.s.' s.                9.i.1.4.s.4.s.1.4.u.p.%.y.j.q.<.t.8.&.k.9.%.t.9.9.s.2.p.3.2.y.<.s.3.s.s.4.p.",
"&.t.9.  < _ _ _ $.~ Y <   t.j.+.q.s.+.i.9.p.9.1.j.@.y.9.j.q.+.4.&.s.1.w.+.d.<.9.9.9.p.w.p.p.w.y.s.9.",
"w.&.  C _ 7 7 D D 5 Z Y <   t.3.j.o.d.y.@.8.d.9.p.1.p.d.@.2.s.o.1.h.y.t.+.6.q.1.d.q.a.t.y.w.4.t.9.p.",
"r.  < Y 7 U ) ) W 6 , < A <   9.d.o.s.6.%.d.p...l.X.s.u.1.a.+.u.,.s.w.9.@.y.p.y.3.p.p.u.0.2.p.t.p.p.",
"p.  Y 7 U *.~ R T W 6 $ < A   9.3.t.t.r.+.a.p.1.q.<.s.9.2.h.+.y.q.9.q.8.s.q.y.y.s.&.s.9.p.a.9.2.3.p.",
"r.  _ 7 *._ R _ R W 6 , $ I <   d.@.q.a.p.1.q.y.3.s.+.p.<.3.u.%.s.%.y.p.<.9.a.p.2.9.a.s.w.9.s.&.9.3.",
"9.  _ 2 *.~ ( / $.W 6 , $ I A   &.q.4.9.9.p.d.o.9.s.@.p.s.@.q.2.3.q.y.w.q.9.w.k.8.8.h.&.s.0.8.8.p.o.",
"8.  _ 2 Q *.*.$.~ U 2 2 , I A   u.y.9.<.s.8.s.@.y.p.2.1.q.t.@.1.p.a.@.8.h.8.p.h.<.s.,.p.g.q.@.,.i.q.",
"+.  A d J } } } } k g , B I 4   &.w.<.p.2.p.3.8.9.q.p.8.q.,.p.,.q.w.<.h.q.%.i.h.3.h.%.i.1.q.4.9.+.t.",
"q.9.  ! d m m m N x 2 B Y I <         t.0.8.p.w.3.p.+.a.o.w.y.9.0.q.&.9.j.s.1.a.t.9.6.<.y.3.i.3.w.9.",
",.q.  < _ A V 5 5 5 V Y ^ < O   > G G + ,.w.q.1.d.+.a.,.d.q.o.y.9.&.j.w.k.8.i.p.%.9.i.@.w.9.9.j.a.q.",
"y.p.@.  < $._ *.*.*._ ^ 8 = # > s e.e.S   t.<.s.@.8.p.q...y.q.y.q.w.8.s.y.g.2.p.9.@.p.3.3.y.r.u.u.<.",
"9.p.@.9.  & A A A A 8 < = # > N s G ] ] 3   .           q.,.s.<.a.8.8.s.q.g.@.k.&.@.p.<.w.d.3.s.t.1.",
"q.@.9.s.  S 1 > = = = = : > s N M 3 G e.e.` G G G S 3 S   o.a.@.i.3.d.8.p.q.1.a.+.3.h.+.k.p.9.s.o.w.",
"a.%.y.t.  S ] t t z j j j s h h M b ; 9 { e.e.e.e.e.e.e.P   9.u.9.8.w.s.q.y.2.3.9.3.9.q.j.1.l.+.3.9.",
"<.8.y.2.y.  e.F t b z x x x x h z M j ; % % 3 9 G H H e.F   8.<.h.,.f.7.y.+.t.<.y.w.q.y.p.9.h.1.@.<.",
"9.1.1.s.9.. e.#.1 y N z x x x z z z M s : $   .     3 F 3   q.%.t.r.8.t.s.q.w.3.t.>.j.9.p.&.s.9.&.+.",
"w.8.u.,.h.  S #.K 1 s b z z z z h h z u s : :   +.w.      9.t.3.%.j.&.w.w.a.<.<.q.p.9.d.&.9.i.9.3.s.",
"@.p.@.h.y.%.  ] K % t j b x z h h x n p x y ; t   %.y.2.y.+.&.s.d.9.<.d.9.+.9.q.i.<.d.p.9.t.o.r.4.k.",
"i.3.0.s.w.9.  3 K 3 & ; l n x M b b z z b k y k *   u.0.w...p.%.j.3.y.4.9.1.t.@.i.s.s.u.,.9.%.9.k.9.",
"+.2.p.9.3.y.9.  S S 3   ; u p z v x z M x k j c * * . p.+.2.8.h.w.q.p.%.9.8.y.p.9.p.9.i.9.1.s.,.s.9.",
"q.9.y.q.8.q.y.6.      f.  t N x N M M x k j c q q 0 * .   2.p.s.3.p.3.@.d.>.q.p.d.3.s.%.a.%.5.g.@.3.",
"a.8.+.j.o.3.p.y.9.s.q.4.s.  t k a a a a b c q =.=.=.0 * r   8.9.s.q.y.@.9.y.q.t.s.q.1.1.2.d.@.i.q.g.",
"t.p.&.q.8.h.8.q.3.p.h.3.q.2.  u b b b s 2 q q ;.;.=.=.0 r r   t.s.p.9.X.9.i.y.t.w.t.2.9.p.2.s.q.p.1.",
"<.s.+.h.8.3.d.u.9.9.3.9.a.y.1.    q ;.q * X @ w ;.;.q * -.r   p.a.<.9.5.p.O.p.t.9.s.&.w.8.w.d.@.d.i.",
"s.1.8.p.y.y.y.q.q.h.9.q.y.,.u.5.q.  * e -.e X @ 0 0 * -.:.r   w.h.@.9.9.%.d.&.j.@.6.3.d.1.9.&.t.k.&.",
"8.h.t.+.a.i.@.i.q.k.w.+.u.w.+.p.+.y.    & 3 & X -.:.c.c.-.- .     @.s.q.o.h.1.s.q.3.8.w.2.a.i.k.o.3.",
"9.s.q.p.1.a.q.a.8.d.@.s.9.<.<.0.9.1.&.d.  & 3 . . r r r -   1 e.L   f. .i.p.9.h.8.+.y.%.s.p.9.a.y.@.",
"p.w.q.a.9.u.q.d.4.2.3.i.q.@.9.+.1.9.q.8.  & [ S &   . K #.K 9 1 ]   9.<.s.0.p.2.p.q.+.9.a.f.3.9.1.y.",
"q.1.h.y.q.d.2.a.q.w.s.o.p.+.4.<.1.i.+.a.8.    o   p.. 1 #.e.K #.3   8.p.1.p.s.q.1.9.q.@.d.3.h.+.q.i.",
"9.y.+.p.q.p.w.&.q.a.1.i.+.,.1.p...h.+.6.9.%.3.j.<.p.w.  & e.| | L   y.w.9.i.y.9.+.8.6.p.&.s.s.9.2.9.",
"<.w.i.0.t.p.0.q.q.,.4.2.2.2.q.q...i.,.u.8.d.9.w.u.@.a.w.  S e.e.S   <.t.s.1.h.8.1.9.&.y.y.q.a.9.2.q.",
"8.s.&.d.<.u.+.9.q.d.X.w.+.p.q...k.@.9.9.h.,.s.@.i.,.g.8.  & [ S &   4.p.p.w.s. .y.1.9.h.@.s.q.w.f.9.",
"1.h.t.o.z.o.u.,.9.8.y.1.9.<.p.+.8.h.t.,.t.p.q.u.>.p.,.,.q.        p.1.d.8.s.8.3.9.p.&.w.d.1.1.9.t.%.",
"9.3.q.s.t.o.9.p.9.@.1.p.1.+.w.a.p.9.,.p.h.+.g.8.9.8.w.t.+.q.9.o.q.d.9.4.8.d.3.s.&.8.h.p.%.y.p.9.3.+.",
"1.a.&.d.0.+.s.o.,.u.+.i.q.3.y.y.s.9.i.q.,.d.+.p.3.9.,.,.p.1.9.q.8.x.<.1.w.s.9.q.q.+.j.8.9.j.o.&.k.<.",
"y.8.9.1.8.p.8.w.8.@.d.9.2.g.@.s.8.p.i.8.8.w.1.,.s.,.,.0.0.,.i.q.q.9.y.g.w. .p.t.1.u.4.t.0.q.&.4.0.+.",
"q.p.@.q.8.q.@.,.0.p.q.8.d.s.2.9.p.,.0.8.+.t.8.,.+.9.y.a.8.@.t.q.d.w.i.3.3.9.9.%.t.q.i.h.8.s.' d.&.y.",
"o.9.p.q.1.8.1.q.q.1.h.q.u.q.9.2.k.@.5.+.h.+.8.8.9.@.s.y.+.d.0.8.h.1.3.9.1.s.o.9.q.t.h.w.4.9.9.%.<.p.",
"1.0.w.,.8.y.8.+.d.y.p.9.@.h.w.5.i.8.8.+.q.u.&.@.9.u.1.s.8.t.y.0.i.9.i.q.4.1.+.q.t.t.i.1.i.1.5.<.q.q.",
"9.p.,.1.0.,.8.a.8.s.y.q.8.k.@.q.,.y.9.3.+.8.s.1.,.8.a.y.8.d.,.s.i.1.d.o.w.q.%.r.i.i.9.i.1.1.4.q.%.h.",
"y.q.+.u.+.t.q.y.q.y.9.9.h.+.s.@.8.8.q.9.8.i.@.w.i.y.d.u.0.,.t.1.j.%.p.+.9.%.a.q.w.s.<.t.i.o.4.9.w.s.",
",.y.+.i.a.,.p.i.o.d.u.3.w.i.@.d.@.4.1.8.1.9.i.q.p.,.0.k.,.y.p.q.9.&.<.i...p.i.6.y.i.i.1.4.9.%.a.<.g.",
",.8.i.w.+.h.i.9.1.p.a.2.,.@.h.8.+.8.p.q.q.s.,.d.p.y.p.3.9.d.,.,.8.i.o.q.q.i.3.a.q.s.+.p.1.&.a.3.q.y.",
"p.9.@.h.p.&.i.9.a.d. .h.9.8.,.5.8.8.0.i.,.s.9.g.8.i.t.i.O.y.y.X.4.p.4.t.<.i.i.%.d.y.9.%.8.9.9.0.w.j.",
"@.y.p.y.p.o.s.9.t.i.9.1.h.o.i...u.0.q.i.i.q.3.p.8.u.q.p.+.8.@.q.y.y.%.p.9.9.a.q.w.p.1.,.i.0.r.q.a.4.",
"0.+.p.y.i.a.,.p.p.1.,.q.9.,.w.8.8.0.g.,.8.s.5.y.q.y.8.y.@.q.y.@.a.q.%.q.1.j.i.w.+.y.+.r.p.1.q.a.1.j.",
"+.h.,.g.1.s.,.k.@.s.X.8.w.y.q.9.,.0.t.g.,.s.8.t.0.8.8.3.,.p.,.p.+.4.p.y.3.j.o.h.1.1.&.p.1.p.y.s.q.<.",
"@.h.,.u.y.y.9.i.@.w.8.p.,.@.a.y.1.9.p.y.p.i.y.@.p.,.i.8.,.9.a.q.w.O.j.s.4.1.w.d.1.+.<.p.i.<.j.1.4.w.",
"t.9.q.s.8.w.1.s.1.q.y.>.w.8.w.9.u.y.w.9.s.,.9.9.9.p.8.@.@.w.8.t.9.i.g.y.<.q.4.i.o.8.d.1.1.t.h.1.f.w."
};
