/* XPM */
static char *result[] = {
/* columns rows colors chars-per-pixel */
"50 50 147 2 ",
"   c black",
".  c #000400",
"X  c #000408",
"o  c #06090F",
"O  c gray3",
"+  c #110900",
"@  c #000810",
"#  c #0D131F",
"$  c #380F06",
"%  c #3A110B",
"&  c #3C130D",
"*  c #301A0F",
"=  c #381E12",
"-  c #151D31",
";  c #202020",
":  c #2D3139",
">  c #58150C",
",  c #5C160E",
"<  c #60160C",
"1  c #6D190F",
"2  c #621E13",
"3  c #533E08",
"4  c #563F08",
"5  c #442514",
"6  c #5B311D",
"7  c #5E331C",
"8  c #5F341D",
"9  c #742317",
"0  c #60341D",
"q  c #64361E",
"w  c #664C09",
"e  c #6E520D",
"r  c #76590E",
"t  c #7B4315",
"y  c #7A5A11",
"u  c #7B5C10",
"i  c #7D5A1A",
"p  c #7A4B2C",
"a  c #202C4A",
"s  c #253152",
"d  c #243154",
"f  c #2C3B66",
"g  c #2C3D66",
"h  c #2E3E6B",
"j  c #484E5A",
"k  c #4C525F",
"l  c #86190C",
"z  c #85190E",
"x  c #931D0F",
"c  c #971C0E",
"v  c #9E1D0E",
"b  c #801F12",
"n  c #AA1D0E",
"m  c #AE1F0F",
"M  c #B21E0E",
"N  c #A81F10",
"B  c #8F2B19",
"V  c #9E2012",
"C  c #9E301D",
"Z  c #B8200F",
"A  c #BD200F",
"S  c #AE2111",
"D  c #AF2516",
"F  c #B32719",
"G  c #B22B18",
"H  c #BB2919",
"J  c #C3200E",
"K  c #C4200E",
"L  c #CC200E",
"P  c #CD200E",
"I  c #CC210E",
"U  c #CE200E",
"Y  c #C32212",
"T  c #CD2210",
"R  c #CE2916",
"E  c #C42919",
"W  c #D32716",
"Q  c #D32817",
"!  c #D42A19",
"~  c #D42A1A",
"^  c #D32D1B",
"/  c #D52C1A",
"(  c #D63D1D",
")  c #D53120",
"_  c #D83120",
"`  c #D83221",
"'  c #D93221",
"]  c #824714",
"[  c #804C15",
"{  c #8D5613",
"}  c #8D690E",
"|  c #8F6316",
" . c #997317",
".. c #8F5B30",
"X. c #9C5531",
"o. c #AB4421",
"O. c #A35833",
"+. c #A36C38",
"@. c #A46D39",
"#. c #A56D39",
"$. c #B7793F",
"%. c #D84521",
"&. c #AD6C41",
"*. c #B8754B",
"=. c #BE7B50",
"-. c #B68815",
";. c #B18D33",
":. c #D19C15",
">. c #EFB41C",
",. c #FFBB12",
"<. c #FBB915",
"1. c #FFBC15",
"2. c #C59828",
"3. c #D5962F",
"4. c #D79730",
"5. c #CEA02C",
"6. c #E1AB24",
"7. c #EAAF20",
"8. c #E1A42C",
"9. c #E6AF28",
"0. c #E4B12F",
"q. c #EBB328",
"w. c #F0B523",
"e. c #FFC73F",
"r. c #FFC83E",
"t. c #FFC83F",
"y. c #C48155",
"u. c #C68D58",
"i. c #CF965F",
"p. c #EC8A42",
"a. c #D59B66",
"s. c #DBA16C",
"d. c #DCA26C",
"f. c #E4AA72",
"g. c #E7AC75",
"h. c #FFC940",
"j. c #FFC942",
"k. c #FFD366",
"l. c #3A4F87",
"z. c #747C8E",
"x. c #4E6AB3",
"c. c #9DA7BE",
"v. c #FEC28B",
"b. c #FFC38C",
"n. c #CDD9F7",
"m. c #D2DEFC",
"M. c None",
/* pixels */
"M.M.M.M.M.M.M.M.M.M.M.M.M.M.M.M.M.M.M.M.M.M.M.M.M.M.M.M.M.M.M.M.M.M.M.M.M.M.M.M.M.M.M.M.M.M.M.M.M.M.",
"M.M.M.M.M.M.M.M.M.M.M.M.M.M.M.M.M.M.M.M.M.M.M.M.M.M.M.M.M.M.M.M.M.M.M.M.M.M.M.M.M.M.M.M.M.M.M.M.M.M.",
"M.M.M.M.M.M.M.M.M.M.M.M.M.M.M.M.M.M.M.M.M.M.M.M.M.M.M.M.M.M.M.M.M.M.M.M.M.M.M.M.M.M.M.M.M.M.M.M.M.M.",
"M.M.M.M.M.M.M.M.M.M.M.M.M.M.M.M.M.M.M.M.M.M.M.M.M.M.M.M.M.M.M.M.M.M.M.M.M.M.M.M.M.M.M.M.M.M.M.M.M.M.",
"M.M.M.M.M.M.M.M.M.M.M.M.M.M.M.M.M.M.M.M.M.M.M.M.M.M.M.M.M.M.M.M.M.M.M.M.M.M.M.M.M.M.M.M.M.M.M.M.M.M.",
"M.M.M.M.M.M.M.M.M.M.M.M.M.M.M.M.M.M.M.M.M.M.M.M.M.M.M.M.M.M.M.M.M.M.M.M.M.M.M.M.M.M.M.M.M.M.M.M.M.M.",
"M.M.M.M.M.M.M.M.M.M.M.M.M.M.M.M.M.M.M.M.M.M.M.M.M.M.M.M.M.M.M.M.M.M.M.M.M.M.M.M.M.M.M.M.M.M.M.M.M.M.",
"M.M.M.M.M.M.M.M.M.M.M.M.M.M.M.M.M.M.M.M.M.M.M.M.M.M.M.M.M.M.M.M.M.M.M.M.M.M.M.M.M.M.M.M.M.M.M.M.M.M.",
"M.M.M.M.M.M.M.M.M.M.M.M.M.M.M.M.M.M.M.M.M.M.M.M.M.M.M.M.M.M.M.M.M.M.M.M.M.M.M.M.M.M.M.M.M.M.M.M.M.M.",
"M.M.M.M.M.M.M.M.M.M.M.M.M.M.M.M.M.M.M.M.M.M.M.M.M.M.M.M.M.M.M.M.M.M.M.M.M.M.M.M.M.M.M.M.M.M.M.M.M.M.",
"M.M.M.M.M.M.M.M.M.M.M.M.M.M.M.M.M.M.M.M.M.M.M.M.M.M.M.M.M.M.M.M.M.M.M.M.M.M.M.M.M.M.M.M.M.M.M.M.M.M.",
"M.M.M.M.M.M.M.M.M.M.M.M.M.M.M.M.M.M.M.M.M.M.M.M.M.M.M.M.M.M.M.M.M.M.M.M.M.M.M.M.M.M.M.M.M.M.M.M.M.M.",
"M.M.M.M.M.M.M.M.M.M.M.M.M.M.M.M.M.M.M.M.M.M.M.M.M.M.M.M.M.M.M.M.M.M.M.M.M.M.M.M.M.M.M.M.M.M.M.M.M.M.",
"M.M.M.M.M.M.M.M.M.M.M.M.M.M.M.M.M.M.M.M.M.M.M.M.M.M.M.M.M.M.M.M.M.M.M.M.M.M.M.M.M.M.M.M.M.M.M.M.M.M.",
"M.M.M.M.M.M.M.M.M.M.M.M.M.M.M.M.M.M.M.M.M.M.M.M.M.M.M.M.M.M.M.M.M.M.M.M.M.M.M.M.M.M.M.M.M.M.M.M.M.M.",
"M.M.M.M.M.M.M.M.M.M.M.M.M.M.M.M.M.                M.M.M.M.M.M.M.M.M.M.M.M.M.M.M.M.M.M.M.M.M.M.M.M.M.",
"M.M.M.M.M.M.M.M.M.M.M.M.M.M.M.M.  3 t.t.t.t.6.:.3   M.M.M.M.M.M.M.M.M.M.M.M.M.M.M.M.M.M.M.M.M.M.M.M.",
"M.M.M.M.M.M.M.M.M.M.M.M.M.M.M.  } t.i i o.o.[ | :.3   M.M.M.M.M.M.M.M.M.M.M.M.M.M.M.M.M.M.M.M.M.M.M.",
"M.M.M.M.M.M.M.M.M.M.M.M.M.M.  3 :.i ;.e.e.3.y 2 3  .3   M.M.M.M.M.M.M.M.M.M.M.M.M.M.M.M.M.M.M.M.M.M.",
"M.M.M.M.M.M.M.M.M.M.M.M.M.M.  :.i ;.k.7.<.>.4.u & 3  .  M.M.M.M.M.M.M.M.M.M.M.M.M.M.M.M.M.M.M.M.M.M.",
"M.M.M.M.M.M.M.M.M.M.M.M.M.M.  t.i k.h.1.r.,.4.u 2 & -.3   M.M.M.M.M.M.M.M.M.M.M.M.M.M.M.M.M.M.M.M.M.",
"M.M.M.M.M.M.M.M.M.M.M.M.M.M.  t.9 k.9.w.q.h.4.u 2 & -. .  M.M.M.M.M.M.M.M.M.M.M.M.M.M.M.M.M.M.M.M.M.",
"M.M.M.M.M.M.M.M.M.M.M.M.M.M.  t.9 2.k.k.j.8.;.9 9 2 -. .  M.M.M.M.M.M.M.M.M.M.M.M.M.M.M.M.M.M.M.M.M.",
"M.M.M.M.M.M.M.M.M.M.M.M.M.M.   .B %.p.p.p.p.G C 2 ] -.e   M.M.M.M.M.M.M.M.M.M.M.M.M.M.M.M.M.M.M.M.M.",
"M.M.M.M.M.M.M.M.M.M.M.M.M.M.M.  5.B ( ( ( ( U 9 ] :.-.4         M.M.M.M.M.M.M.M.M.M.M.M.M.M.M.M.M.M.",
"M.M.M.M.M.M.M.M.M.M.M.M.M.M.M.  3 t. .{ t t t { :.0.3 +   1 #.#.@   M.M.M.M.M.M.M.M.M.M.M.M.M.M.M.M.",
"M.M.M.M.M.M.M.M.M.M.M.M.M.M.M.M.  3 t.t.k.k.k.t.0.w ; $ 1 N b.b.u.5   M.M.M.M.M.M.M.M.M.M.M.M.M.M.M.",
"M.M.M.M.M.M.M.M.M.M.M.M.M.M.M.M.M.  =  . . . .r 3 ; $ 1 ' N #.u.u.u.X.X M.M.M.M.M.M.M.M.M.M.M.M.M.M.",
"M.M.M.M.M.M.M.M.M.M.M.M.M.M.M.M.M.  X.8 1 ; ; ; ; 1 1 N ' ' 8 +...u.b.X.X M.M.M.M.M.M.M.M.M.M.M.M.M.",
"M.M.M.M.M.M.M.M.M.M.M.M.M.M.M.M.M.M.  b.l l K N N N N Z Z ' ' 8 8 ..i.i.X.    M.M.M.M.M.M.M.M.M.M.M.",
"M.M.M.M.M.M.M.M.M.M.M.M.M.M.M.M.M.M.  X.X.l Q K U U U U Z A ' N 8 * 0 #.b.i.X.      M.M.M.M.M.M.M.M.",
"M.M.M.M.M.M.M.M.M.M.M.M.M.M.M.M.M.M.M.  b.6 x _ K U U U K K K ' N < % 0 #.s.v.i.0 X.  M.M.M.M.M.M.M.",
"M.M.M.M.M.M.M.M.M.M.M.M.M.M.M.M.M.M.M.  X.&.6 V / K K K K Z Z K v N < <   7 @.f.b.b.=.  M.M.M.M.M.M.",
"M.M.M.M.M.M.M.M.M.M.M.M.M.M.M.M.M.M.M.M.  u.= l D ! U K Z Z U R m U c , z X * 0 $.b.O.  M.M.M.M.M.M.",
"M.M.M.M.M.M.M.M.M.M.M.M.M.M.M.M.M.M.M.M.  X.&.= > H W P ` ~ ^ K J ^ F c F -     q O.q   M.M.M.M.M.M.",
"M.M.M.M.M.M.M.M.M.M.M.M.M.M.M.M.M.M.M.M.M.  X.X.. > v n Y T L K ' P F S E - - X       M.M.M.M.M.M.M.",
"M.M.M.M.M.M.M.M.M.M.M.M.M.M.M.M.M.M.M.M.M.M.        l ) I ' ' ' P F S E b f d - X   M.M.M.M.M.M.M.M.",
"M.M.M.M.M.M.M.M.M.M.M.M.M.M.M.M.M.M.M.M.M.M.M.M.M.M.  l F M M M M ^ E b f l.l.d - k   M.M.M.M.M.M.M.",
"M.M.M.M.M.M.M.M.M.M.M.M.M.M.M.M.M.M.M.M.M.M.M.M.M.M.M.  v ^ ^ ^ ^ v b f x.x.l.l.d k k   M.M.M.M.M.M.",
"M.M.M.M.M.M.M.M.M.M.M.M.M.M.M.M.M.M.M.M.M.M.M.M.M.M.M.M.  l.x.x.d a - d h x.x.g - z.k   M.M.M.M.M.M.",
"M.M.M.M.M.M.M.M.M.M.M.M.M.M.M.M.M.M.M.M.M.M.M.M.M.M.M.M.  - d d s j z.o # d d - z.c.k   M.M.M.M.M.M.",
"M.M.M.M.M.M.M.M.M.M.M.M.M.M.M.M.M.M.M.M.M.M.M.M.M.M.M.M.M.@ c.m.m.n.z.: o z.c.m.m.z.=   X     M.M.M.",
"M.M.M.M.M.M.M.M.M.M.M.M.M.M.M.M.M.M.M.M.M.M.M.M.M.M.M.M.M.M.X = 8 8 = = 8 X X = = 8 X.  8 b.*.  M.M.",
"M.M.M.M.M.M.M.M.M.M.M.M.M.M.M.M.M.M.M.M.M.M.M.M.M.M.M.M.M.M.M.  = X.X.= = = X.  8 u.u.= p 8 u.  M.M.",
"M.M.M.M.M.M.M.M.M.M.M.M.M.M.M.M.M.M.M.M.M.M.M.M.M.M.M.M.M.M.M.M.X 8 b.d.&.g.8   X 8 b.d.&.g.8   M.M.",
"M.M.M.M.M.M.M.M.M.M.M.M.M.M.M.M.M.M.M.M.M.M.M.M.M.M.M.M.M.M.M.M.M.  X.b.d.a.*.  M.  X.b.d.d.*.  M.M.",
"M.M.M.M.M.M.M.M.M.M.M.M.M.M.M.M.M.M.M.M.M.M.M.M.M.M.M.M.M.M.M.M.M.M.  X.b.b.X.  M.M.  X.b.b.X.  M.M.",
"M.M.M.M.M.M.M.M.M.M.M.M.M.M.M.M.M.M.M.M.M.M.M.M.M.M.M.M.M.M.M.M.M.M.  = y.X.=   M.M.. = y.X.=   M.M.",
"M.M.M.M.M.M.M.M.M.M.M.M.M.M.M.M.M.M.M.M.M.M.M.M.M.M.M.M.M.M.M.M.M.M.M.    O   M.M.M.M.        M.M.M.",
"M.M.M.M.M.M.M.M.M.M.M.M.M.M.M.M.M.M.M.M.M.M.M.M.M.M.M.M.M.M.M.M.M.M.M.M.M.M.M.M.M.M.M.M.M.M.M.M.M.M."
};
