/* XPM */
static char *result[] = {
/* columns rows colors chars-per-pixel */
"35 35 144 2 ",
"   c #000000",
".  c #000408",
"X  c #06090F",
"o  c gray3",
"O  c #110900",
"+  c #000810",
"@  c #0D131F",
"#  c #380F06",
"$  c #3C130D",
"%  c #301A0F",
"&  c #381E12",
"*  c #151D31",
"=  c #202020",
"-  c #2D3139",
";  c #59150D",
":  c #60160C",
">  c #6D190F",
",  c #621E13",
"<  c #533E08",
"1  c #442514",
"2  c #5F341D",
"3  c #742317",
"4  c #61351D",
"5  c #6E520D",
"6  c #76590E",
"7  c #7B4315",
"8  c #7B5C10",
"9  c #7D5A1A",
"0  c #664C09",
"q  c #7A4B2C",
"w  c #202C4A",
"e  c #243154",
"r  c #2C3C66",
"t  c #2E3E6B",
"y  c #484E5A",
"u  c #4C525F",
"i  c #86190C",
"p  c #961C0E",
"a  c #9E1D0E",
"s  c #801F12",
"d  c #AC1E0F",
"f  c #B21E0E",
"g  c #A81F10",
"h  c #8F2B19",
"j  c #9E2012",
"k  c #9E301D",
"l  c #B9200F",
"z  c #AE2213",
"x  c #B32719",
"c  c #B72A19",
"v  c #C4200E",
"b  c #CE200E",
"n  c #C42919",
"m  c #CA2413",
"M  c #D32C1B",
"N  c #D32817",
"B  c #D63D1D",
"V  c #D93221",
"C  c #D53120",
"Z  c #824714",
"A  c #804C15",
"S  c #8D5613",
"D  c #8D690E",
"F  c #8F6316",
"G  c #997317",
"H  c #8F5B30",
"J  c #9C5531",
"K  c #AB4421",
"L  c #A35833",
"P  c #A56D39",
"I  c #B7793F",
"U  c #D84521",
"Y  c #AD6C41",
"T  c #B8754B",
"R  c #BE7B50",
"E  c #B68815",
"W  c #B18D33",
"Q  c #D19C15",
"!  c #EFB41C",
"~  c #FEBB14",
"^  c #D5962F",
"/  c #D79730",
"(  c #C59828",
")  c #CEA02C",
"_  c #E5AB26",
"`  c #E4B12F",
"'  c #EBB328",
"]  c #F0B523",
"[  c #FFC73F",
"{  c #FFC83F",
"}  c #BBA875",
"|  c #C68D58",
" . c #C48155",
".. c #CF965F",
"X. c #EC8A42",
"o. c #D59B66",
"O. c #DCA26C",
"+. c #C4AF77",
"@. c #C6B177",
"#. c #CCB679",
"$. c #C8B378",
"%. c #D5BC7B",
"&. c #D8BF7C",
"*. c #E6AB74",
"=. c #FFC941",
"-. c #D7C07F",
";. c #DAC17D",
":. c #FFD366",
">. c #3A4F87",
",. c #747C8E",
"<. c #4E6AB3",
"1. c #9DA7BE",
"2. c #CEB981",
"3. c #D4BE82",
"4. c #D6C083",
"5. c #DCC483",
"6. c #DCC68A",
"7. c #DFC88C",
"8. c #D7C48F",
"9. c #DAC792",
"0. c #DEC993",
"q. c #DECC9B",
"w. c #E0C783",
"e. c #E3CA85",
"r. c #E9CE86",
"t. c #E3CB8B",
"y. c #E9CF89",
"u. c #FFC38C",
"i. c #E9D18E",
"p. c #E4CE92",
"a. c #E2CF99",
"s. c #E7D095",
"d. c #EBD393",
"f. c #E6D29B",
"g. c #EBD59B",
"h. c #EED89E",
"j. c #E5D4A1",
"k. c #EAD7A3",
"l. c #EEDAA3",
"z. c #EEDBA9",
"x. c #F1DEAC",
"c. c #F1DFB2",
"v. c #CDD9F7",
"b. c #D2DEFC",
/* pixels */
"f.6.7.e.d.;.5.r.y.h.%.d.;.;.;.k.e.a.6.w.y.g.e.a.6.6.w.6.w.i.l.6.c.%.6.",
"d.6.f.                -.9.%.a.t.w.5.l.4.j.a.p.&.d.&.a.t.y.p.i.t.k.5.&.",
"e.5.  < { { { { _ Q <   #.d.5.d.e.&.i.p.5.i.j.t.t.5.p.%.l.e.i.5.d.t.5.",
"5.  D =.9 9 K K A F Q <   6.d.6.d.6.;.z.&.y.y.d.5.5.t.f.t.g.5.w.p.t.5.",
"  < Q 9 W { { ^ 8 , < G <   0.%.;.g.l.e.5.h.t.%.e.t.d.5.g.d.t.t.#.t.t.",
"  Q 9 W :._ ~ ! / 8 $ < G   t.+.d.;.z.6.a.t.t.;.y.&.a.g.g.a.3.t.;.e.x.",
"  { 9 :.{ ~ { ~ / 8 , $ E <   6.t.l.y.t.i.&.t.5.a.d.e.d.y.p.w.w.g.3.g.",
"  { 3 :._ ] ' { / 8 , $ E G   5.d.d.6.d.e.&.g.3.t.d.g.6.d.%.f.&.9.k.&.",
"  { 3 ( :.:.=._ W 3 3 , E G   k.w.t.g.t.p.&.6.t.t.d.g.i.6.7.6.g.&.d.y.",
"  G h U X.X.X.X.x k , Z E 5   d.;.d.g.p.t.$.e.s.p.d.t.i.5.e.d.4.g.t.d.",
"5.  ) h B B B B b 3 Z Q E <         s.5.t.6.d.#.p.d.t.d.5.t.5.i.l.%.g.",
"f.  < { G S 7 7 7 S Q ` < O   > P P +   w.t.;.l.;.z.&.0.7.h.5.e.;.d.x.",
"%.d.  < =.{ :.:.:.=.` 0 = # > g u.u.| 1   y.#.l.5.g.y.6.;.i.6.f.p.z.#.",
"4.y.e.  & G G G G 6 < = # > V g P | | | J . p.d.e.l.5.%.i.4.f.d.t.d.p.",
"7.-.;.  J 2 > = = = = > > g V V 2 P H | u.J . y.d.5.d.t.%.t.s.j.6.t.5.",
"7.;.5.d.  u.i i v g g g g l l V V 2 2 H ....J     t.5.w.t.%.l.6.l.%.t.",
"6.y.+.k.  J J i N v b b b b l l V g 2 % 4 P u...J       7.d.;.d.g.e.6.",
"t.p.$.d.5.  u.2 p V v b b b v v v V g : $ 4 P O.u...2 J   a.a.p.f.6.5.",
"e.+.x.&.6.  J Y 2 j M v v v v l l v a g : :   2 P *.u.u.R   %.g.y.y.f.",
"d.%.6.g.i.5.  | & i x M b v l l b N d b p ; i . % 2 I u.L   g.5.5.y.t.",
"y.f.d.6.;.d.  J Y & ; c N b C M M v v M x p x *     4 L 4   ;.t.d.e.6.",
"a.p.f.t.a.e.4.  J J   ; a d v b b v V b x z l * * .       e.e.z.#.&.x.",
"&.g.;.d.a.e.;.i.        i C b V V M b x z m h r e * .   6.d.r.y.5.6.y.",
"5.t.d.;.y.e.%.d.w.6.%.e.  i x f z f l M n 3 r >.>.e * u   z.w.g.} k.;.",
"t.5.z.&.6.%.k.%.;.e.t.&.f.  a M M M M a h t <.<.>.>.e u u   7.e.e.;.;.",
"p.9.a.w.5.&.r.a.;.%.t.t.5.g.  >.<.<.e w * e t <.<.r * ,.u   p.6.8.5.t.",
"5.t.5.t.e.8.%.5.g.6.5.w.f.a.  * e e e y ,.. @ e e * ,.1.u   6.;.t.t.;.",
"d.&.e.w.t.e.e.y.&.y.p.p.l.p.r.+ 1.b.b.v.,.- + ,.1.b.b.,.&   .     w.t.",
"&.g.;.w.5.w.5.e.d.p.d.3.r.l.5.p.  & 2 2 & & 2 . . & & 2 J   4 u.T   4.",
"l.5.%.e.d.t.t.f.3.g.d.p.a.5.e.g.6.  & J J & & & J   4 | | & q 4 |   p.",
"5.8.e.;.t.d.3.g.e.k.w.p.d.s.$.a.p.$.. 2 u.O.Y *.2   . 4 u.O.Y *.2   r.",
"d.@.a.y.t.p.f.t.e.g.5.a.t.d.%.e.&.t.p.  J u.O.o.T   t.  J u.O.O.T   f.",
"r.5.6.r.h.6.6.g.0.t.6.p.e.p.;.6.s.%.s.t.  J u.u.J   &.a.  J u.u.J   6.",
"t.t.5.y.i.k.;.d.w.d.y.w.w.5.6.d.4.d.%.7.  &  .J &   6.;.  &  .J &   r.",
"f.t.5.w.g.t.d.t.s.%.s.3.d.5.%.6.d.7.r.#.l.    o   g.6.%.&.        6.7."
};
