/* XPM */
static char *result[] = {
/* columns rows colors chars-per-pixel */
"35 35 140 2 ",
"   c #000000",
".  c #080000",
"X  c #000408",
"o  c #0B0C0C",
"O  c #110900",
"+  c #0B0F17",
"@  c #2A1E03",
"#  c #3B120C",
"$  c #381E12",
"%  c #382011",
"&  c #151D31",
"*  c #202020",
"=  c #2F353F",
"-  c #4F130B",
";  c #5C160E",
":  c #6D190F",
">  c #7B190E",
",  c #621E13",
"<  c #731E12",
"1  c #533E08",
"2  c #5F341D",
"3  c #452A09",
"4  c #742317",
"5  c #733E24",
"6  c #76590E",
"7  c #71560D",
"8  c #7B4315",
"9  c #7B5C10",
"0  c #664C09",
"q  c #7A4D2A",
"w  c #7C542E",
"e  c #202C4A",
"r  c #2A3A63",
"t  c #2F406C",
"y  c #4C525F",
"u  c #70675E",
"i  c #434C62",
"p  c #9D1D0E",
"a  c #801F12",
"s  c #8F1E11",
"d  c #901F11",
"f  c #A71F10",
"g  c #A81F10",
"h  c #9E301D",
"j  c #BC200F",
"k  c #A42010",
"l  c #A12519",
"z  c #AE2111",
"x  c #B02514",
"c  c #B32719",
"v  c #BA2817",
"b  c #A53B18",
"n  c #B8371D",
"m  c #CE200E",
"M  c #CD2B19",
"N  c #D52B1A",
"B  c #D63D1D",
"V  c #D83221",
"C  c #DF3F2E",
"Z  c #824714",
"A  c #8D5613",
"S  c #997317",
"D  c #885834",
"F  c #9C5531",
"G  c #A56D39",
"H  c #D84521",
"J  c #E74D3D",
"K  c #AE6C42",
"L  c #AE7B48",
"P  c #B68815",
"I  c #BD9125",
"U  c #B18D33",
"Y  c #D19C15",
"T  c #EFB41C",
"R  c #FEBB13",
"E  c #C99B2A",
"W  c #D79730",
"Q  c #CEA02C",
"!  c #E6AB27",
"~  c #E4B12F",
"^  c #EBB328",
"/  c #F0B523",
"(  c #FFC73F",
")  c #FFC83F",
"_  c #AD825A",
"`  c #BA8755",
"'  c #BD966B",
"]  c #C68D58",
"[  c #CF965F",
"{  c #EC8A42",
"}  c #DCA26B",
"|  c #C3AE77",
" . c #C6B177",
".. c #CCB679",
"X. c #CAB478",
"o. c #D4BC7B",
"O. c #D8BF7C",
"+. c #F1B67F",
"@. c #FFC941",
"#. c #D7C07F",
"$. c #DAC17D",
"%. c #FFD366",
"&. c #3A4F87",
"*. c #747C8E",
"=. c #99A2B9",
"-. c #A7A8A7",
";. c #CEB981",
":. c #D4BE82",
">. c #DEB284",
",. c #E7BA94",
"<. c #D6C085",
"1. c #DCC483",
"2. c #DCC68A",
"3. c #DFC88B",
"4. c #DAC792",
"5. c #DDC992",
"6. c #DECC9B",
"7. c #E0C783",
"8. c #E3C985",
"9. c #E3CB8B",
"0. c #E8CF89",
"q. c #E9CE87",
"w. c #FFC38C",
"e. c #E7D08F",
"r. c #E9D18E",
"t. c #E4CD92",
"y. c #E2CE99",
"u. c #EFC794",
"i. c #E6D095",
"p. c #EBD394",
"a. c #E7D29A",
"s. c #EBD59B",
"d. c #EED89E",
"f. c #E5D4A1",
"g. c #EBD7A3",
"h. c #EED9A2",
"j. c #EDDBA9",
"k. c #F0DDAA",
"l. c #D2DEFC",
"z. c #F3EDE7",
/* pixels */
"2.$.p.3.i.t.        t.2.p.O.4.:.6.9.2.#.h.<.g.6.t.o.i.1.t.9.r.t.r.9.d.",
"9.p.2.1.9.  S Q Q S     ..a...p.1.i.q.#.r.9.1.r.a.q.9.1.i...k.8.p.$.p.",
"p.s.1.1.  # 4 4 n Q E 1   9.9.7.i.7.p.1.#.k.#.9.9.s.#.1.9.i.8.d.#.8.e.",
"8.9.9.  U %.%.E H n @.I     t.1.t.o.7.i.d.8.1.d.9.o.8.9.i.1.d.i.9.9.o.",
"9.2.  U %.) ^ %.{ B S ) 1          .p.1.j.2.i.9.9.1.r.#.i.p.d.y.:.8.#.",
"o.t.  @.! R / %.{ B A ) 7 u   ] F     g.9.t.r.#.8.7.9.p.8.i.9.t.8.1.d.",
"o.i.  @.R ( ^ @.{ B 8 %.6   $ F ] w.F   3.p.2.O.d.o.t.p.d.2.p.O.a.o.4.",
"s.1.  W T R @.! { B 8 %.S ,._ $ F $ F   s.9.9.O.3.t.9.r.p.9.3.2.2.d.o.",
"5.2.  9 W W W W c m 8 %.S z.,._ $ 5 $   s.t.9. .7.i.t.r.9.r.2.7.p.1.s.",
"a.t.1.  9 9 9 4 h 4 A @.6   u.' 2 -   p.i.1.9.3.r...p.r.9.p.$.9.1.r.g.",
"t.:.a.  # , , 4 4 8 Y ~ 1 -.} L 2 m d   h.O.8.9.$.h.$.k.#.9.3.d.2.8.$.",
"y.9.o.i.  # # 3 Z Y ~ 0 @ w w 2 G d m d   O.p.9...h.1.s.9.3.1.r.<.a.p.",
"9.:.:.0.  1 S S P P 1 @ *   $ G >.` d - d     | p.p.9.h.1.o.e.<.a.p.8.",
"9.O.8.o.7.  1 S S 1 O   o , , , q L d R d m -   p.8.p.2.p.9.o.8.a.f.2.",
"p.o.3.1.1.i.        , , # d x x x m m J - s m -     p.9.1.8.8.O.g.3.h.",
"o.:.1.e. .h.o.t.  2 z k C m N N N m M m J b d - r &   8.o.7.t.i.1.p.s.",
":.2.9.t.X.i.1.t.  G w.[ b V m V N V V m J R - & &.&.r + X q.1.t.5.9.d.",
"o.p.8.| k.:.8.8.  G w.[ G g V m m m m m V M a e &.&.&.e *.  8.h.$.s.9.",
"9.:.p.o.1.d.p.:.p.  ] ] 2 2 , g p p p M M j c & e e &.t l.  7.0.d.1.$.",
"1.o.e.a.r.2.1.i.h.  G ] G 2   # > p j j j x c & & e e r l.  h.t.$.t.p.",
"9.2.t.t.s.q.y.8.<.d.  ] +.2     : d k d k v a     & = *.*.2         ..",
":.j.O.s.$.p.t.8.$.r.X 2 w.G   9.  ; < d V a &   r.  = = } ] w.2 D }   ",
"s.s.1.8.p.#.0.7.o.r.7.X G [ 2     ; l l a e e   2.8.  X F w.w.w.2 2   ",
"i.9.t.:.k.O.5.o.h.o.1.  2 [ G 2         & t &.&   s...X 2 K ] 2 ] w.  ",
"O.h.0.t.t.8.:.O.q.y.$.o.  F w.] ] F ]     t &.t i   o.9.X 2 D 2 D 2   ",
"7.k.O.9.:.t.9.8.o.1.s.7.1.  F w.w.w.2 F   e e e =.  #.9.a.          9.",
"h.o.s.O.8.7.9.2.3.e.o.q.e.t.X F ] w.] %     & i l.  s.9.9.d.#.r.t...9.",
"0.t.O.d.O.2.7.7.1.8.e.t.s.1.8.    F ] F   y =.l.*.  t.5.9.i.p.2.9.2.O.",
":.:.g.1.o.$.p.q.9.s.:.s.s.9.a.1.8.        y y y F         s.o.p.7.$.a.",
"q.7.1.2.8.7.9.y.:.s.3.d.7.t.r.i...i.t.X.3.  2 w.] } 2 ] w.  8.#.7.8.9.",
"a...e.X.y.q.9.t.s.9.2.s.2.y.9.p.o.7.#.9.t.t.  F w.w.} 2 2   7.o.i.8.9.",
"t.:.q.1.7.q.g.1.7.p.t.9.3.t.8.9.$.3.i.o.a.9.  2 K ] 2 ] }   :.9.s.8.9.",
"0.e.9.9.:.q.r.h.:.s.1.p.q.7.7.1.2.p.:.p.o.3.p.  2 D 2 D 2   $.i.7.i.t.",
":.O.y.t.7.7.p.0.i.t.t.o.y.:.i.7.O.3.i.9.0...h.s.          o.O.i.y.1.h.",
"t.7.0.8.y.t.9.q.i.1.q.q.8.p.7.O.O.0.1.r.9.y.d.9.1.t.9.e...7.d.1.1.r.j."
};
