/* XPM */
static char *result[] = {
/* columns rows colors chars-per-pixel */
"35 35 140 2 ",
"   c #000000",
".  c #080000",
"X  c #000408",
"o  c #0B0C0C",
"O  c #110900",
"+  c #0B0F17",
"@  c #2A1E03",
"#  c #3B120C",
"$  c #381E12",
"%  c #382011",
"&  c #151D31",
"*  c #202020",
"=  c #2F353F",
"-  c #4F130B",
";  c #5C160E",
":  c #6D190F",
">  c #7B190E",
",  c #621E13",
"<  c #731E12",
"1  c #533E08",
"2  c #5F341D",
"3  c #452A09",
"4  c #742317",
"5  c #733E24",
"6  c #76590E",
"7  c #71560D",
"8  c #7B4315",
"9  c #7B5C10",
"0  c #664C09",
"q  c #7A4D2A",
"w  c #7C542E",
"e  c #202C4A",
"r  c #2A3A63",
"t  c #2F406C",
"y  c #4C525F",
"u  c #70675E",
"i  c #434C62",
"p  c #9D1D0E",
"a  c #801F12",
"s  c #8F1E11",
"d  c #901F11",
"f  c #A71F10",
"g  c #A81F10",
"h  c #9E301D",
"j  c #BC200F",
"k  c #A42010",
"l  c #A12519",
"z  c #AE2111",
"x  c #B02514",
"c  c #B32719",
"v  c #BA2817",
"b  c #A53B18",
"n  c #B8371D",
"m  c #CE200E",
"M  c #CD2B19",
"N  c #D52B1A",
"B  c #D63D1D",
"V  c #D83221",
"C  c #DF3F2E",
"Z  c #824714",
"A  c #8D5613",
"S  c #997317",
"D  c #885834",
"F  c #9C5531",
"G  c #A56D39",
"H  c #D84521",
"J  c #E74D3D",
"K  c #AE6C42",
"L  c #AE7B48",
"P  c #B68815",
"I  c #BD9125",
"U  c #B18D33",
"Y  c #D19C15",
"T  c #EFB41C",
"R  c #FEBB13",
"E  c #C99B2A",
"W  c #D79730",
"Q  c #CEA02C",
"!  c #E6AB27",
"~  c #E4B12F",
"^  c #EBB328",
"/  c #F0B523",
"(  c #FFC73F",
")  c #FFC83F",
"_  c #AD825A",
"`  c #BA8755",
"'  c #BD966B",
"]  c #C68D58",
"[  c #CF965F",
"{  c #EC8A42",
"}  c #DCA26B",
"|  c #C3AE77",
" . c #C6B177",
".. c #CCB67A",
"X. c #C8B378",
"o. c #D4BC7B",
"O. c #D8BF7C",
"+. c #F1B67F",
"@. c #FFC941",
"#. c #DAC17D",
"$. c #D7C07F",
"%. c #FFD366",
"&. c #3A4F87",
"*. c #747C8E",
"=. c #99A2B9",
"-. c #A7A8A7",
";. c #CEB981",
":. c #D4BE82",
">. c #DEB284",
",. c #E7BA94",
"<. c #D7C082",
"1. c #DCC483",
"2. c #DCC68A",
"3. c #DFC98B",
"4. c #DAC792",
"5. c #DEC993",
"6. c #DFCC9A",
"7. c #E0C783",
"8. c #E3CA86",
"9. c #E9CE87",
"0. c #E3CB8B",
"q. c #E8CF89",
"w. c #FFC38C",
"e. c #EAD18E",
"r. c #E3CD92",
"t. c #E2CF99",
"y. c #EFC794",
"u. c #E6D095",
"i. c #EAD393",
"p. c #E6D29A",
"a. c #EBD59B",
"s. c #EED89E",
"d. c #E5D4A1",
"f. c #EAD6A1",
"g. c #EED9A2",
"h. c #EDDBA9",
"j. c #F1DEAB",
"k. c #F1DFB2",
"l. c #D2DEFC",
"z. c #F3EDE7",
/* pixels */
"1.0.i.e.i.9.#.8.r.o.g.#.2.8.0.:.p.<.p.8.7.a.0.f.o.j.#.o.i.1.9.g.1.g.q.",
"s.1.8.1.<.i.u.2.3.8.i.<.6.2.a.X.a.o.u.3.a.8.i.0.1.a...3.g...j.i.0.a.X.",
"a.2.3.8.          s.o.i.<.<.#.f.8.p.8.8.q.a.8.t.2.3.7.0.0.q.g.1.k.o.3.",
"i.3.p.  U @.@.W 9     <.4.o.t.8.7.:.g.:.d.6.i.o.i.:.r.0.0.r.e.0.g.1.O.",
"1.1.  U %.^ R T W 9 #     i.1.a.0.#.e.r.7.e.p.0.q.1.r.;.g.8.i.#.i.8.<.",
"1.  # %.@.R ( R W 9 , # 1   u.1.i.1.<.g.#.9.8.a.1.<.0.a.0.a.#.8.i.8.1.",
"  S 4 %.! ^ ^ ( W 9 , # S 1   o.7.i.g.8.1.s.8.o.8.0.a.:.p.i.0.q...q.3.",
"  Q 4 E %.%.@.! W 4 4 3 S S    .i.:.h.3.u.3.0.1.i.o.i.a.p.t.:.8.#.0.j.",
"  Q n H { { { { c h 4 Z P S         9.0.e.#.8.7.r.i.8.i.9.r.8.7.p.:.a.",
"  S Q n B B B B m 4 8 Y P 1   2 G G     3.#.a.;.0.i.a.3.a.o.p.O.4.g.O.",
"p.  E @.S A 8 8 8 A Y ~ 1 O , f w.w.] G   X 8.r.0.q.a.0.1.3.2.p.O.i.0.",
"g.  1 I @.@.%.%.%.) ~ 0 @   , f [ [ ] ] ] 2 X   r.i.0.i.1.8.i.1.a.0.i.",
"1.e.    1 7 6 S S 6 1 @ * o # C b G 2 G +.w.G 2   e.0.i.<.8.1.i.g.o.a.",
"p.2.0.    u   ,.z.  -.w   , s m V z 2 2 2 G [ [ F   <.r.8.g.1.8.#.i.j.",
"o.i.o.0.    $ _ ,.y.} w $ , x N m V , X     2 G w.F X 1.8.0.2.t.i.h...",
"<.q.3.1.  ] F $ _ ' _ 2 G , x N V m f #   |   2 ] w.F   u.:.a.i.8.i.r.",
"8.o.1.0.  F ] F $ 2 2 G o.q x N V m p > :       ] w.]   o.q.p.d.2.8.<.",
"0.#.1.i.o.  w.$ 5 - m d L L m m V m p p s ; ;   F w.w.F   :.f.2.g.o.r.",
"3.r.| s.o.  F F $   d m p d m M V m p j f < l   ] 2 ] ] . i.<.i.a.8.1.",
"8.r. .a.:.r.      r.X d - R J m m m M j d d l     F % F   r.6.e.p.3.2.",
"8.| j.O.7.8.g.1.a.#.u.  d d - J J V N j k N a &           g.o.a.q.8.p.",
"i.o.7.a.i.:.e.a.0.6.:.u.  m d b R M v z v a e t t e   y y   s.1.1.q.u.",
"q.p.i.3.1.i.g...g.7.1.7.  - m d - > c c a & e &.&.e & =.y 2     i.8.1.",
"r.r.t.0.r.0.:.a.o.u.7.0.<.  - - & e & &       & t e i l.y w.F 2   O.j.",
":.a.1.i.u.7.#.q.1.O.a.O.#.0.  r &.&.e &   h.q.  i =.l.*.F ] w.K 2   q.",
"2.8.i.1.9.0.O.i.7.2.o.0.5.i.  & &.&.e e &   2.8.          } w.] D   #.",
"0.1.j.O.0.o.g...1.7.0.O.a.r.o.  r &.&.e = =   s...3.0.e.  2 } 2 2   #.",
"r.2.r.7.:.o.9.u.1.o.8.5.1.a.7.e.+ e t r *.= X X $.0.e.9.  ] 2 ] D   0.",
"#.0.<.0.0.2.o.1.a.1.1.7.p.t.1.a.X *.l.l.*.} F 2 X e.p.p.  w.2 } 2   #.",
"a.O.8.1.0.0.3.q.O.0.i.r.s.r.9.:.i.      2 ] w.K 2   q.p.#.        8.8.",
"O.s.O.0.7.7.1.0.i.0.i.<.8.g.1.t.i.0.8.#.  w.w.] D   r.u.u.8.3.8.:.a.:.",
"g.7.o.7.i.2.0.u.:.a.a.0.u.3.8.a.1.<.7.u.  2 w.2 2   q.i.o.i.7.<.t.1.r.",
"<.2.8.7.0.r.:.a.8.g.7.r.e.p.X.r.r. .0.r.X D 2 ] D   a.t.0.#.7.8.q.9.q.",
"i.| r.9.0.r.a.0.1.a.1.t.0.e.o.0.O.0.r.0.  } 2 w.2   0.i.1.:.u.8.0.0.p.",
"9.1.7.9.a.2.8.a.r.r.3.r.8.0.O.3.e.o.t.r.O.        q.O.r.o.0.a.7.0.p.1."
};
