/* XPM */
static char *result[] = {
/* columns rows colors chars-per-pixel */
"50 50 124 2 ",
"   c black",
".  c #000400",
"X  c #080000",
"o  c #000408",
"O  c #0B0C0C",
"+  c #110900",
"@  c #0B0F17",
"#  c #0D121E",
"$  c #2A1E03",
"%  c #3A110B",
"&  c #3C130D",
"*  c #381E12",
"=  c #382011",
"-  c #151D31",
";  c #161F33",
":  c #202020",
">  c #4F130B",
",  c #5C160E",
"<  c #6D190F",
"1  c #611D12",
"2  c #621E13",
"3  c #731E12",
"4  c #452A09",
"5  c #533E08",
"6  c #563F08",
"7  c #5F341D",
"8  c #742317",
"9  c #664C09",
"0  c #71560D",
"q  c #76590E",
"w  c #7B4315",
"e  c #7B5C10",
"r  c #7A4D2A",
"t  c #7C542E",
"y  c #212C49",
"u  c #202C4A",
"i  c #243154",
"p  c #2F406C",
"a  c #334575",
"s  c #4C525F",
"d  c #70675E",
"f  c #9D1D0E",
"g  c #9E1D0E",
"h  c #801F12",
"j  c #861F12",
"k  c #8B1F11",
"l  c #901F11",
"z  c #A71F10",
"x  c #A81F10",
"c  c #9E301D",
"v  c #BC200F",
"b  c #AE2111",
"n  c #A12519",
"m  c #BD2313",
"M  c #B32719",
"N  c #B22B18",
"B  c #BF2B1B",
"V  c #A73D1F",
"C  c #B8371D",
"Z  c #C0200F",
"A  c #CE200E",
"S  c #D42A19",
"D  c #D42F1E",
"F  c #D72F1E",
"G  c #D63D1D",
"H  c #D83221",
"J  c #D93221",
"K  c #DF3F2E",
"L  c #824714",
"P  c #8D5613",
"I  c #997317",
"U  c #885834",
"Y  c #9C5531",
"T  c #A56D39",
"R  c #D84521",
"E  c #E74D3D",
"W  c #AE6C42",
"Q  c #AD794B",
"!  c #AD7D4A",
"~  c #B68815",
"^  c #BD9125",
"/  c #B18D33",
"(  c #D19C15",
")  c #EFB41C",
"_  c #FFBB12",
"`  c #FBB915",
"'  c #FFBC15",
"]  c #C59828",
"[  c #CC9D2B",
"{  c #D79730",
"}  c #CEA02C",
"|  c #EAAF20",
" . c #E1A42C",
".. c #E6AF28",
"X. c #E4B12F",
"o. c #EBB328",
"O. c #F0B523",
"+. c #FFC73F",
"@. c #FFC83E",
"#. c #FFC83F",
"$. c #AD825A",
"%. c #BD966B",
"&. c #C68D58",
"*. c #CF955F",
"=. c #CF965F",
"-. c #EC8A42",
";. c #DCA16B",
":. c #DEA66B",
">. c #F1B67F",
",. c #FFC940",
"<. c #FFC942",
"1. c #FFD366",
"2. c #3A4F87",
"3. c #747C8E",
"4. c #4E6AB3",
"5. c #9AA2B9",
"6. c #A7A8A7",
"7. c #DEB284",
"8. c #E7BA94",
"9. c #FFC38C",
"0. c #EFC794",
"q. c #D2DEFC",
"w. c #F3EDE7",
"e. c None",
/* pixels */
"e.e.e.e.e.e.e.e.e.e.e.e.e.e.e.e.e.e.e.e.e.e.e.e.e.e.e.e.e.e.e.e.e.e.e.e.e.e.e.e.e.e.e.e.e.e.e.e.e.e.",
"e.e.e.e.e.e.e.e.e.e.e.e.e.e.e.e.e.e.e.e.e.e.e.e.e.e.e.e.e.e.e.e.e.e.e.e.e.e.e.e.e.e.e.e.e.e.e.e.e.e.",
"e.e.e.e.e.e.e.e.e.e.e.e.e.e.e.e.e.e.e.e.e.e.e.e.e.e.e.e.e.e.e.e.e.e.e.e.e.e.e.e.e.e.e.e.e.e.e.e.e.e.",
"e.e.e.e.e.e.e.e.e.e.e.e.e.e.e.e.e.e.e.e.e.e.e.e.e.e.e.e.e.e.e.e.e.e.e.e.e.e.e.e.e.e.e.e.e.e.e.e.e.e.",
"e.e.e.e.e.e.e.e.e.e.e.e.e.e.e.e.e.e.e.e.e.e.e.e.e.e.e.e.e.e.e.e.e.e.e.e.e.e.e.e.e.e.e.e.e.e.e.e.e.e.",
"e.e.e.e.e.e.e.e.e.e.e.e.e.e.e.e.e.e.e.e.e.e.e.e.e.e.e.e.e.e.e.e.e.e.e.e.e.e.e.e.e.e.e.e.e.e.e.e.e.e.",
"e.e.e.e.e.e.e.e.e.e.e.e.e.e.e.e.e.e.e.e.e.e.e.e.e.e.e.e.e.e.e.e.e.e.e.e.e.e.e.e.e.e.e.e.e.e.e.e.e.e.",
"e.e.e.e.e.e.e.e.e.e.e.e.e.e.e.e.e.e.e.e.e.e.e.e.e.e.e.e.e.e.e.e.e.e.e.e.e.e.e.e.e.e.e.e.e.e.e.e.e.e.",
"e.e.e.e.e.e.e.e.e.e.e.e.e.e.e.e.e.e.e.e.e.e.e.e.e.e.e.e.e.e.e.e.e.e.e.e.e.e.e.e.e.e.e.e.e.e.e.e.e.e.",
"e.e.e.e.e.e.e.e.e.e.e.e.e.e.e.e.e.e.e.e.e.e.e.e.e.e.e.e.e.e.e.e.e.e.e.e.e.e.e.e.e.e.e.e.e.e.e.e.e.e.",
"e.e.e.e.e.e.e.e.e.e.e.e.e.e.e.e.e.e.e.e.e.e.e.e.e.e.e.e.e.e.e.e.e.e.e.e.e.e.e.e.e.e.e.e.e.e.e.e.e.e.",
"e.e.e.e.e.e.e.e.e.e.e.e.e.e.e.e.e.e.e.e.e.e.e.e.e.e.e.e.e.e.e.e.e.e.e.e.e.e.e.e.e.e.e.e.e.e.e.e.e.e.",
"e.e.e.e.e.e.e.e.e.e.e.e.e.e.e.e.e.e.e.e.e.e.e.e.e.e.e.e.e.e.e.e.e.e.e.e.e.e.e.e.e.e.e.e.e.e.e.e.e.e.",
"e.e.e.e.e.e.e.e.e.e.e.e.e.e.e.e.e.e.e.e.e.e.e.e.e.e.e.e.e.e.e.e.e.e.e.e.e.e.e.e.e.e.e.e.e.e.e.e.e.e.",
"e.e.e.e.e.e.e.e.e.e.e.e.e.e.e.e.e.          e.e.e.e.e.e.e.e.e.e.e.e.e.e.e.e.e.e.e.e.e.e.e.e.e.e.e.e.",
"e.e.e.e.e.e.e.e.e.e.e.e.e.e.e.e.  / +.+.{ e     e.e.e.e.e.e.e.e.e.e.e.e.e.e.e.e.e.e.e.e.e.e.e.e.e.e.",
"e.e.e.e.e.e.e.e.e.e.e.e.e.e.e.  / 1.| ` ) { e &     e.e.e.e.e.e.e.e.e.e.e.e.e.e.e.e.e.e.e.e.e.e.e.e.",
"e.e.e.e.e.e.e.e.e.e.e.e.e.e.  & 1.,.' @._ { e 2 & 5   e.e.e.e.e.e.e.e.e.e.e.e.e.e.e.e.e.e.e.e.e.e.e.",
"e.e.e.e.e.e.e.e.e.e.e.e.e.  I 8 1...O.o.,.{ e 2 & I 5   e.e.e.e.e.e.e.e.e.e.e.e.e.e.e.e.e.e.e.e.e.e.",
"e.e.e.e.e.e.e.e.e.e.e.e.e.  } 8 ] 1.1.<. .{ 8 8 4 I I         e.e.e.e.e.e.e.e.e.e.e.e.e.e.e.e.e.e.e.",
"e.e.e.e.e.e.e.e.e.e.e.e.e.  } C R -.-.-.-.N c 8 L ~ I   7 T T       o e.e.e.e.e.e.e.e.e.e.e.e.e.e.e.",
"e.e.e.e.e.e.e.e.e.e.e.e.e.  I } C G G G G A 8 w ( ~ 6   x 9.9.&.&.T 7 o     e.e.e.e.e.e.e.e.e.e.e.e.",
"e.e.e.e.e.e.e.e.e.e.e.e.e.e.  [ #.I P w w w P ( X.5 + 2 x *.*.&.&.>.9.T Y 7   e.e.e.e.e.e.e.e.e.e.e.",
"e.e.e.e.e.e.e.e.e.e.e.e.e.e.  5 ^ #.#.1.1.1.#.X.9 $   % K V T 7 T T T =.=.9.Y o e.e.e.e.e.e.e.e.e.e.",
"e.e.e.e.e.e.e.e.e.e.e.e.e.e.e.    5 0 q I I q 5 $ : O k A J x 7       7 T &.9.Y   e.e.e.e.e.e.e.e.e.",
"e.e.e.e.e.e.e.e.e.e.e.e.e.e.e.e.  : d   8.w.  6.t   % l A A J %   e.e.    7 ;.9.Y   e.e.e.e.e.e.e.e.",
"e.e.e.e.e.e.e.e.e.e.e.e.e.e.e.e.    Y * $.8.0.:.t * 1 l A A A <   e.e.e.e.  Y 9.9.Y . e.e.e.e.e.e.e.",
"e.e.e.e.e.e.e.e.e.e.e.e.e.e.e.e.e.  9.7 * $.%.! 7 T 1 l S A A z %   e.e.e.  &.7 &.&.X e.e.e.e.e.e.e.",
"e.e.e.e.e.e.e.e.e.e.e.e.e.e.e.e.e.  9.&.7 * 7 7 T 7.1 A S H A z < ,   e.e.e.  Y = Y   e.e.e.e.e.e.e.",
"e.e.e.e.e.e.e.e.e.e.e.e.e.e.e.e.e.  Y 9.*   > l r 7.l A H H A f f 3 ,   e.e.e.  . . e.e.e.e.e.e.e.e.",
"e.e.e.e.e.e.e.e.e.e.e.e.e.e.e.e.e.e.  9.&.*   > A l K A H A A g f j n ,   e.e.e.e.e.e.e.e.e.e.e.e.e.",
"e.e.e.e.e.e.e.e.e.e.e.e.e.e.e.e.e.e.  9.* Q     f > _ E A A Z f v v B h #   e.e.e.e.e.e.e.e.e.e.e.e.",
"e.e.e.e.e.e.e.e.e.e.e.e.e.e.e.e.e.e.  Y Y *   e.  A l > E A Z H v b F h -   e.e.e.e.e.e.e.e.e.e.e.e.",
"e.e.e.e.e.e.e.e.e.e.e.e.e.e.e.e.e.e.e.      e.e.e.  A l _ E F m b M B i - #   e.e.e.e.e.e.e.e.e.e.e.",
"e.e.e.e.e.e.e.e.e.e.e.e.e.e.e.e.e.e.e.e.e.e.e.e.e.e.o A > h D M M B h i i - -   e.e.e.e.e.e.e.e.e.e.",
"e.e.e.e.e.e.e.e.e.e.e.e.e.e.e.e.e.e.e.e.e.e.e.e.e.e.  f - h h F M F i a a a y     e.e.e.e.e.e.e.e.e.",
"e.e.e.e.e.e.e.e.e.e.e.e.e.e.e.e.e.e.e.e.e.e.e.e.e.e.e.  @ a - u h h i 4.4.4.y - s   e.e.e.e.e.e.e.e.",
"e.e.e.e.e.e.e.e.e.e.e.e.e.e.e.e.e.e.e.e.e.e.e.e.e.e.e.e.  @ 4.p s @ ; 4.4.4.2.- 3.s   e.e.e.e.e.e.e.",
"e.e.e.e.e.e.e.e.e.e.e.e.e.e.e.e.e.e.e.e.e.e.e.e.e.e.e.e.e.    3.q.s . 2.2.2.2.p 3.s o e.e.e.e.e.e.e.",
"e.e.e.e.e.e.e.e.e.e.e.e.e.e.e.e.e.e.e.e.e.e.e.e.e.e.e.e.e.e.e.      7 . u u p 5.q.s         e.e.e.e.",
"e.e.e.e.e.e.e.e.e.e.e.e.e.e.e.e.e.e.e.e.e.e.e.e.e.e.e.e.e.e.e.e.e.e.  &.o 3.q.q.3.7 9.&.Y 7   e.e.e.",
"e.e.e.e.e.e.e.e.e.e.e.e.e.e.e.e.e.e.e.e.e.e.e.e.e.e.e.e.e.e.e.e.e.e.  ;.7 o         Y 9.9.W 7   e.e.",
"e.e.e.e.e.e.e.e.e.e.e.e.e.e.e.e.e.e.e.e.e.e.e.e.e.e.e.e.e.e.e.e.e.e.e.          e.e.  ;.9.&.U   e.e.",
"e.e.e.e.e.e.e.e.e.e.e.e.e.e.e.e.e.e.e.e.e.e.e.e.e.e.e.e.e.e.e.e.e.e.e.e.e.e.e.e.e.e.  7 ;.7 7   e.e.",
"e.e.e.e.e.e.e.e.e.e.e.e.e.e.e.e.e.e.e.e.e.e.e.e.e.e.e.e.e.e.e.e.e.e.e.e.e.e.e.e.e.e.  &.7 &.U   e.e.",
"e.e.e.e.e.e.e.e.e.e.e.e.e.e.e.e.e.e.e.e.e.e.e.e.e.e.e.e.e.e.e.e.e.e.e.e.e.e.e.e.e.e.  9.7 ;.7   e.e.",
"e.e.e.e.e.e.e.e.e.e.e.e.e.e.e.e.e.e.e.e.e.e.e.e.e.e.e.e.e.e.e.e.e.e.e.e.e.e.e.e.e.e.e.        e.e.e.",
"e.e.e.e.e.e.e.e.e.e.e.e.e.e.e.e.e.e.e.e.e.e.e.e.e.e.e.e.e.e.e.e.e.e.e.e.e.e.e.e.e.e.e.e.e.e.e.e.e.e.",
"e.e.e.e.e.e.e.e.e.e.e.e.e.e.e.e.e.e.e.e.e.e.e.e.e.e.e.e.e.e.e.e.e.e.e.e.e.e.e.e.e.e.e.e.e.e.e.e.e.e.",
"e.e.e.e.e.e.e.e.e.e.e.e.e.e.e.e.e.e.e.e.e.e.e.e.e.e.e.e.e.e.e.e.e.e.e.e.e.e.e.e.e.e.e.e.e.e.e.e.e.e."
};
