/* XPM */
static char *result[] = {
/* columns rows colors chars-per-pixel */
"50 50 130 2 ",
"   c black",
".  c #000408",
"X  c gray3",
"o  c #110900",
"O  c #000810",
"+  c #0D131F",
"@  c #380F06",
"#  c #3A110B",
"$  c #3C130D",
"%  c #301A0F",
"&  c #381E12",
"*  c #151D31",
"=  c #1D2129",
"-  c #202020",
";  c #58150C",
":  c #60160C",
">  c #6D190F",
",  c #621E13",
"<  c #533E08",
"1  c #563F08",
"2  c #5B311D",
"3  c #5E331C",
"4  c #5F341D",
"5  c #742317",
"6  c #60341D",
"7  c #64361E",
"8  c #664C09",
"9  c #6E520D",
"0  c #76590E",
"q  c #7B4315",
"w  c #7A5A11",
"e  c #7B5C10",
"r  c #7D5A1A",
"t  c #7A4B2C",
"y  c #253152",
"u  c #243154",
"i  c #2C3B66",
"p  c #484E5A",
"a  c #4C525F",
"s  c #666D7D",
"d  c #86190C",
"f  c #931D0F",
"g  c #971C0E",
"h  c #9E1D0E",
"j  c #801F12",
"k  c #AA1D0E",
"l  c #AE1F0F",
"z  c #B21E0E",
"x  c #A81F10",
"c  c #8F2B19",
"v  c #9E301D",
"b  c #B8200F",
"n  c #AE2111",
"m  c #B32719",
"M  c #B52719",
"N  c #B22B18",
"B  c #C3200E",
"V  c #C4200E",
"C  c #CD200E",
"Z  c #CE200E",
"A  c #C32212",
"S  c #CD2210",
"D  c #C52817",
"F  c #CE2916",
"G  c #C42919",
"H  c #D32716",
"J  c #D42A1A",
"K  c #D32D1B",
"L  c #D52C1A",
"P  c #D63D1D",
"I  c #D53120",
"U  c #D83120",
"Y  c #D83221",
"T  c #D93221",
"R  c #824714",
"E  c #804C15",
"W  c #8D5613",
"Q  c #8D690E",
"!  c #8F6316",
"~  c #997317",
"^  c #8F5B30",
"/  c #9C5531",
"(  c #AB4421",
")  c #A35833",
"_  c #A56D39",
"`  c #B7793F",
"'  c #D84521",
"]  c #AD6C41",
"[  c #B8754B",
"{  c #BE7B50",
"}  c #B68815",
"|  c #B18D33",
" . c #D19C15",
".. c #EFB41C",
"X. c #FFBB12",
"o. c #FBB915",
"O. c #FFBC15",
"+. c #C59828",
"@. c #D5962F",
"#. c #D79730",
"$. c #CEA02C",
"%. c #E1AB24",
"&. c #EAAF20",
"*. c #E1A42C",
"=. c #E6AF28",
"-. c #E4B12F",
";. c #EBB328",
":. c #F0B523",
">. c #FFC73F",
",. c #FFC83E",
"<. c #FFC83F",
"1. c #BE804F",
"2. c #C48155",
"3. c #C68D58",
"4. c #CF965F",
"5. c #EC8A42",
"6. c #D59B66",
"7. c #DBA16C",
"8. c #DCA26C",
"9. c #E7AC75",
"0. c #FFC940",
"q. c #FFC942",
"w. c #FFD366",
"e. c #3A4F87",
"r. c #747C8E",
"t. c #4E6AB3",
"y. c #9DA7BE",
"u. c #FFC38C",
"i. c #D2DEFC",
"p. c None",
/* pixels */
"p.p.p.p.p.p.p.p.p.p.p.p.p.p.p.p.p.p.p.p.p.p.p.p.p.p.p.p.p.p.p.p.p.p.p.p.p.p.p.p.p.p.p.p.p.p.p.p.p.p.",
"p.p.p.p.p.p.p.p.p.p.p.p.p.p.p.p.p.p.p.p.p.p.p.p.p.p.p.p.p.p.p.p.p.p.p.p.p.p.p.p.p.p.p.p.p.p.p.p.p.p.",
"p.p.p.p.p.p.p.p.p.p.p.p.p.p.p.p.p.p.p.p.p.p.p.p.p.p.p.p.p.p.p.p.p.p.p.p.p.p.p.p.p.p.p.p.p.p.p.p.p.p.",
"p.p.p.p.p.p.p.p.p.p.p.p.p.p.p.p.p.p.p.p.p.p.p.p.p.p.p.p.p.p.p.p.p.p.p.p.p.p.p.p.p.p.p.p.p.p.p.p.p.p.",
"p.p.p.p.p.p.p.p.p.p.p.p.p.p.p.p.p.p.p.p.p.p.p.p.p.p.p.p.p.p.p.p.p.p.p.p.p.p.p.p.p.p.p.p.p.p.p.p.p.p.",
"p.p.p.p.p.p.p.p.p.p.p.p.p.p.p.p.p.p.p.p.p.p.p.p.p.p.p.p.p.p.p.p.p.p.p.p.p.p.p.p.p.p.p.p.p.p.p.p.p.p.",
"p.p.p.p.p.p.p.p.p.p.p.p.p.p.p.p.p.p.p.p.p.p.p.p.p.p.p.p.p.p.p.p.p.p.p.p.p.p.p.p.p.p.p.p.p.p.p.p.p.p.",
"p.p.p.p.p.p.p.p.p.p.p.p.p.p.p.p.p.p.p.p.p.p.p.p.p.p.p.p.p.p.p.p.p.p.p.p.p.p.p.p.p.p.p.p.p.p.p.p.p.p.",
"p.p.p.p.p.p.p.p.p.p.p.p.p.p.p.p.p.p.p.p.p.p.p.p.p.p.p.p.p.p.p.p.p.p.p.p.p.p.p.p.p.p.p.p.p.p.p.p.p.p.",
"p.p.p.p.p.p.p.p.p.p.p.p.p.p.p.p.p.p.p.p.p.p.p.p.p.p.p.p.p.p.p.p.p.p.p.p.p.p.p.p.p.p.p.p.p.p.p.p.p.p.",
"p.p.p.p.p.p.p.p.p.p.p.p.p.p.p.p.p.p.p.p.p.p.p.p.p.p.p.p.p.p.p.p.p.p.p.p.p.p.p.p.p.p.p.p.p.p.p.p.p.p.",
"p.p.p.p.p.p.p.p.p.p.p.p.p.p.p.p.p.p.p.p.p.p.p.p.p.p.p.p.p.p.p.p.p.p.p.p.p.p.p.p.p.p.p.p.p.p.p.p.p.p.",
"p.p.p.p.p.p.p.p.p.p.p.p.p.p.p.p.p.p.p.p.p.p.p.p.p.p.p.p.p.p.p.p.p.p.p.p.p.p.p.p.p.p.p.p.p.p.p.p.p.p.",
"p.p.p.p.p.p.p.p.p.p.p.p.p.p.p.p.p.p.p.p.p.p.p.p.p.p.p.p.p.p.p.p.p.p.p.p.p.p.p.p.p.p.p.p.p.p.p.p.p.p.",
"p.p.p.p.p.p.p.p.p.p.p.p.p.p.p.p.p.                p.p.p.p.p.p.p.p.p.p.p.p.p.p.p.p.p.p.p.p.p.p.p.p.p.",
"p.p.p.p.p.p.p.p.p.p.p.p.p.p.p.p.  < <.<.<.<.%. .<   p.p.p.p.p.p.p.p.p.p.p.p.p.p.p.p.p.p.p.p.p.p.p.p.",
"p.p.p.p.p.p.p.p.p.p.p.p.p.p.p.  Q <.r r ( ( E !  .<   p.p.p.p.p.p.p.p.p.p.p.p.p.p.p.p.p.p.p.p.p.p.p.",
"p.p.p.p.p.p.p.p.p.p.p.p.p.p.  <  .r | >.>.@.w , < ~ <   p.p.p.p.p.p.p.p.p.p.p.p.p.p.p.p.p.p.p.p.p.p.",
"p.p.p.p.p.p.p.p.p.p.p.p.p.p.   .r | w.&.o...#.e $ < ~   p.p.p.p.p.p.p.p.p.p.p.p.p.p.p.p.p.p.p.p.p.p.",
"p.p.p.p.p.p.p.p.p.p.p.p.p.p.  <.r w.0.O.,.X.#.e , $ } <   p.p.p.p.p.p.p.p.p.p.p.p.p.p.p.p.p.p.p.p.p.",
"p.p.p.p.p.p.p.p.p.p.p.p.p.p.  <.5 w.=.:.;.0.#.e , $ } ~   p.p.p.p.p.p.p.p.p.p.p.p.p.p.p.p.p.p.p.p.p.",
"p.p.p.p.p.p.p.p.p.p.p.p.p.p.  <.5 +.w.w.q.*.| 5 5 , } ~   p.p.p.p.p.p.p.p.p.p.p.p.p.p.p.p.p.p.p.p.p.",
"p.p.p.p.p.p.p.p.p.p.p.p.p.p.  ~ c ' 5.5.5.5.N v , R } 9   p.p.p.p.p.p.p.p.p.p.p.p.p.p.p.p.p.p.p.p.p.",
"p.p.p.p.p.p.p.p.p.p.p.p.p.p.p.  $.c P P P P Z 5 R  .} 1         p.p.p.p.p.p.p.p.p.p.p.p.p.p.p.p.p.p.",
"p.p.p.p.p.p.p.p.p.p.p.p.p.p.p.  < <.~ W q q q W  .-.< o   > _ _   p.p.p.p.p.p.p.p.p.p.p.p.p.p.p.p.p.",
"p.p.p.p.p.p.p.p.p.p.p.p.p.p.p.p.  < <.<.w.w.w.<.-.8 - @ > x 3.u./   p.p.p.p.p.p.p.p.p.p.p.p.p.p.p.p.",
"p.p.p.p.p.p.p.p.p.p.p.p.p.p.p.p.p.  & ~ ~ ~ ~ 0 < - @ > T D _ 3.3.. p.p.p.p.p.p.p.p.p.p.p.p.p.p.p.p.",
"p.p.p.p.p.p.p.p.p.p.p.p.p.p.p.p.p.  / 4 4 > - - - - > x T D 4 ^ u./ . p.p.p.p.p.p.p.p.p.p.p.p.p.p.p.",
"p.p.p.p.p.p.p.p.p.p.p.p.p.p.p.p.p.p.  u.2 d V b b x x b T T : 4 4.u./             p.p.p.p.p.p.p.p.p.",
"p.p.p.p.p.p.p.p.p.p.p.p.p.p.p.p.p.p.  / 4.& k U V Z Z Z b T l % 6 _ u.4.4.1./ 6 /   p.p.p.p.p.p.p.p.",
"p.p.p.p.p.p.p.p.p.p.p.p.p.p.p.p.p.p.p.  ] 2 f U V Z Z Z Z V F h # 6 / 7.u.u.u.u.u.{   p.p.p.p.p.p.p.",
"p.p.p.p.p.p.p.p.p.p.p.p.p.p.p.p.p.p.p.p.  ] 2 ; L V V V V b b l h : # 3 6 6 ` ` u.)   p.p.p.p.p.p.p.",
"p.p.p.p.p.p.p.p.p.p.p.p.p.p.p.p.p.p.p.p.p.      H Z V V b b F l Z h g : # # # 7 ) 7   p.p.p.p.p.p.p.",
"p.p.p.p.p.p.p.p.p.p.p.p.p.p.p.p.p.p.p.p.p.p.p.p.  H Z Y J J V V B K m M j * *       = p.p.p.p.p.p.p.",
"p.p.p.p.p.p.p.p.p.p.p.p.p.p.p.p.p.p.p.p.p.p.p.p.  ; k A A S V T T C n G j u e.i * s a   p.p.p.p.p.p.",
"p.p.p.p.p.p.p.p.p.p.p.p.p.p.p.p.p.p.p.p.p.p.p.p.p.  ; I T T T C C m G j u t.t.e.u y.a   .     p.p.p.",
"p.p.p.p.p.p.p.p.p.p.p.p.p.p.p.p.p.p.p.p.p.p.p.p.p.p.  k m z z z z K j u e.e.i u * i.a & 4 u.[   p.p.",
"p.p.p.p.p.p.p.p.p.p.p.p.p.p.p.p.p.p.p.p.p.p.p.p.p.p.p.  K K K K K u * +       a y.r.& ] t 4 3.  p.p.",
"p.p.p.p.p.p.p.p.p.p.p.p.p.p.p.p.p.p.p.p.p.p.p.p.p.p.p.p.  * i i i i u +   p.p.. . & t 8.] 9.4   p.p.",
"p.p.p.p.p.p.p.p.p.p.p.p.p.p.p.p.p.p.p.p.p.p.p.p.p.p.p.p.p.  * u u y * p =   p.p.p.  / u.8.8.[   p.p.",
"p.p.p.p.p.p.p.p.p.p.p.p.p.p.p.p.p.p.p.p.p.p.p.p.p.p.p.p.p.p.O r.i.i.y.r.=     p.p.p.  / u.u./   p.p.",
"p.p.p.p.p.p.p.p.p.p.p.p.p.p.p.p.p.p.p.p.p.p.p.p.p.p.p.p.p.p.p.. & 4 4 & & [ /   p.p.  & 2./ &   p.p.",
"p.p.p.p.p.p.p.p.p.p.p.p.p.p.p.p.p.p.p.p.p.p.p.p.p.p.p.p.p.p.p.p.  & / / & & /   p.p.p.        p.p.p.",
"p.p.p.p.p.p.p.p.p.p.p.p.p.p.p.p.p.p.p.p.p.p.p.p.p.p.p.p.p.p.p.p.p.. / 8.] 9.4   p.p.p.p.p.p.p.p.p.p.",
"p.p.p.p.p.p.p.p.p.p.p.p.p.p.p.p.p.p.p.p.p.p.p.p.p.p.p.p.p.p.p.p.p.  4 u.8.6.[   p.p.p.p.p.p.p.p.p.p.",
"p.p.p.p.p.p.p.p.p.p.p.p.p.p.p.p.p.p.p.p.p.p.p.p.p.p.p.p.p.p.p.p.p.p.  / u.u./   p.p.p.p.p.p.p.p.p.p.",
"p.p.p.p.p.p.p.p.p.p.p.p.p.p.p.p.p.p.p.p.p.p.p.p.p.p.p.p.p.p.p.p.p.p.  & 2./ &   p.p.p.p.p.p.p.p.p.p.",
"p.p.p.p.p.p.p.p.p.p.p.p.p.p.p.p.p.p.p.p.p.p.p.p.p.p.p.p.p.p.p.p.p.p.p.    X   p.p.p.p.p.p.p.p.p.p.p.",
"p.p.p.p.p.p.p.p.p.p.p.p.p.p.p.p.p.p.p.p.p.p.p.p.p.p.p.p.p.p.p.p.p.p.p.p.p.p.p.p.p.p.p.p.p.p.p.p.p.p.",
"p.p.p.p.p.p.p.p.p.p.p.p.p.p.p.p.p.p.p.p.p.p.p.p.p.p.p.p.p.p.p.p.p.p.p.p.p.p.p.p.p.p.p.p.p.p.p.p.p.p."
};
