/* XPM */
static char *result[] = {
/* columns rows colors chars-per-pixel */
"50 51 142 2 ",
"   c #000000",
".  c #000408",
"X  c #06090F",
"o  c gray3",
"O  c #110900",
"+  c #000810",
"@  c #0D131F",
"#  c #380F06",
"$  c #3C130D",
"%  c #301A0F",
"&  c #381E12",
"*  c #151D31",
"=  c #202020",
"-  c #2B2E34",
";  c #59150D",
":  c #60160C",
">  c #6D190F",
",  c #621E13",
"<  c #533E08",
"1  c #5E331D",
"2  c #742317",
"3  c #63351E",
"4  c #6E520D",
"5  c #7B4315",
"6  c #7B5C10",
"7  c #7D5A1A",
"8  c #6E530C",
"9  c #754527",
"0  c #243154",
"q  c #2C3B66",
"w  c #2E3E6B",
"e  c #484E5A",
"r  c #4C525F",
"t  c #86190C",
"y  c #961C0E",
"u  c #9E1D0E",
"i  c #801F12",
"p  c #AC1E0F",
"a  c #B21E0E",
"s  c #A81F10",
"d  c #8F2B19",
"f  c #9E2012",
"g  c #9E301D",
"h  c #B9200F",
"j  c #AE2213",
"k  c #B32719",
"l  c #B72A19",
"z  c #C4200E",
"x  c #CE200E",
"c  c #C42919",
"v  c #CA2413",
"b  c #D32C1B",
"n  c #D32817",
"m  c #D63D1D",
"M  c #D93221",
"N  c #D53120",
"B  c #814914",
"V  c #8D5613",
"C  c #8D690E",
"Z  c #8F6316",
"A  c #997317",
"S  c #9C5531",
"D  c #AB4421",
"F  c #A35833",
"G  c #A46D39",
"H  c #B7793F",
"J  c #D84521",
"K  c #AD6C41",
"L  c #B8754B",
"P  c #BE7B50",
"I  c #B68815",
"U  c #B18D33",
"Y  c #D19C15",
"T  c #EFB41C",
"R  c #FEBB14",
"E  c #D5962F",
"W  c #D79730",
"Q  c #C59828",
"!  c #CEA02C",
"~  c #E5AB26",
"^  c #E4B12F",
"/  c #EBB328",
"(  c #F0B523",
")  c #FFC73F",
"_  c #FFC83F",
"`  c #BC824E",
"'  c #BBA875",
"]  c #C68D58",
"[  c #C48155",
"{  c #CF965F",
"}  c #EC8A42",
"|  c #DCA26C",
" . c #C2AE77",
".. c #C6B177",
"X. c #CAB477",
"o. c #CCB579",
"O. c #CBB579",
"+. c #D4BC7B",
"@. c #D8BF7C",
"#. c #E7AA76",
"$. c #FFC941",
"%. c #D7C07F",
"&. c #DAC17E",
"*. c #FFD366",
"=. c #3A4F87",
"-. c #747C8E",
";. c #4E6AB3",
":. c #9DA7BE",
">. c #CEB981",
",. c #D4BE82",
"<. c #D6C084",
"1. c #DCC483",
"2. c #D7C28A",
"3. c #DCC68A",
"4. c #DFC88C",
"5. c #DAC792",
"6. c #DEC992",
"7. c #DFCC9A",
"8. c #E0C783",
"9. c #E3CA85",
"0. c #E9CE87",
"q. c #E3CC8B",
"w. c #E8CF8A",
"e. c #FFC38C",
"r. c #E7D08F",
"t. c #EAD18E",
"y. c #E3CD92",
"u. c #E2CE99",
"i. c #E6D094",
"p. c #EAD394",
"a. c #E6D29A",
"s. c #EBD59B",
"d. c #EED89E",
"f. c #E6D4A2",
"g. c #EAD6A1",
"h. c #EED9A3",
"j. c #EEDBA9",
"k. c #F0DDAA",
"l. c #F1DFB1",
"z. c #F1E0AF",
"x. c #F2E1B4",
"c. c #D2DEFC",
/* pixels */
"i.1.3.y.3.1.4.d.,.q.s.p.p.+.j.1.5.d.1.p.2.f.3.a.9.q.s.1.t.i.p.0.3.q.&.4.8.9.y.1.4.a.q.q.9.a.8.y.p.&.",
"4.s.' s.            p.t.1.i.1.4.s.1.p.1.6.y.p.@.y.h.q.<.q.9.&.h.9.&.i.1.9.s.<.i.4.1.y.&.p.4.s.s.4.p.",
"&.t.9.  < Y _ _ _ A     @.i.k.+.y.p.+.i.9.s.9.1.j.@.y.9.j.i.+.4.1.p.1.q.+.d.1.9.1.w.p.r.i.p.q.y.d.9.",
"w.&.  C Y 7 7 2 2 d ! <   q.0.3.h.+.g.y.+.8.s.w.p.1.p.d.,.,.s.O.1.d.i.t.+.y.y.&.d.9.a.r.r.w.q.t.3.p.",
"q.  < _ 7 U *.*.Q J d $.<       h.o.s.4.<.d.t...l...p.u.1.a.,.y.,.s.q.0.@.i.p.y.3.p.p.i.w.2.s.t.t.s.",
"p.  _ 7 U *.$.~ *.} m A _ & S S       i.+.s.p.<.q.1.d.q.<.h.o.y.q.9.q.8.s.q.6.y.s.&.s.8.p.a.1.3.9.t.",
"q.  _ 7 ) / R ( *.} m V _ A 1 ] e.e.S     1.q.y.3.s.+.p.@.3.a.&.g.&.q.p.1.9.a.p.1.9.s.s.w.9.s.&.9.3.",
"0.  ) D ) R _ / $.} m 5 *.A > t S #.#.{ 3   d.+.8.a.,.p.s.@.y.2.1.q.i.w.q.3.w.k.4.1.h.&.s.0.1.8.p.o.",
"3.  _ D W T R _ ~ } m 5 *.A = t t 1 K K K S   @.p.p.<.3.q.t.@.1.p.a.@.9.h.9.p.h.<.s.<.p.f.q.@.@.i.9.",
"+.  ~ B 6 W W W U k x 5 *.A = z n y 1 & 3 S   8.9.q.i.8.q.,.p.,.q.q.<.h.q.&.p.h.4.d.%.i.9.q.4.4.@.p.",
"q.  Y Z , 6 6 6 2 g 2 V $.6 = s a b f t & 3   w.3.i.+.s.o.r.r.9.0.q.&.0.j.s.<.a.t.1.6.<.7.1.i.4.w.q.",
",.  < Y < $ , , 2 , B Y ^ < = s x v b k ;   q.1.d.+.a.,.s.9.o.y.8.&.h.w.j.3.t.p.&.w.i.@.0.9.9.j.u.q.",
"q.s.  < A < $ $ , B Y ^ 4 = > s x x x b l ;   s.@.8.t.q...r.y.y.0.w.8.s.y.h.<.p.1.+.s.8.3.y.r.u.y.<.",
"w.t.&.  < A I I I I I < = # > s x x z x n u t   h.,.4.8.y.,.s.,.a.3.8.s.q.g.+.k.1.+.p.1.w.d.1.g.t.3.",
"q.%.9.s.    < A A 4 < O # > s h x x z z v s b t   1.u.3.a...a.@.y.8.d.9.p.q.<.s.+.3.h.+.j.p.q.s.X.t.",
"i.%.y.t.s.9.            > N M a h z x a N z x k s   8.&.&.d.9.u.q.9.q.s.9.u.2.3.9.3.9.q.h.1.l.+.1.4.",
"1.8.y.1.y.q.i.0.q.d.  > s p M M h z h h b x M a b   5.>.y.q.3.&.h.,.f.7.q.+.p.<.y.q.q.i.i.9.h.1.+.1.",
"9.1.<.s.8.1.p.3.0.p.  G e.G 3 M M z h x b x M a b q   s.<.s.q.&.r.i.3.t.s.w.q.1.i.+.h.9.p.&.p.q.&.+.",
"q.q.u.,.g.1.9.3.i.q.  G e.] G ; s M z n z z M a b ;.*   i.1.t.1.%.h.%.w.w.a.1.1.q.a.0.s.1.9.r.q.3.s.",
"@.p.@.h.6.&.d.9.1.q.j.+ S ] e.9 ; s u p z M x a u q e   y.+.8.s.d.9.1.d.q.+.8.4.i.1.d.a.9.q.+.q.3.z.",
"r.3.0.s.w.8.q.q.9.9.w.p.  1 e.{ % : s x b x k b 2 * -.&     p.1.j.3.a.q.9.1.t.%.y.p.a.7.+.4.&.9.k.9.",
"+.2.r.q.1.y.q.9.i.1.q.h.+.  ` e.% $ : y k k j c q X e 3 & &   g.w.q.r.+.q.8.y.i.9.p.0.a.9.8.s.,.d.8.",
"q.4.y.w.8.9.6.y.t.9.3.f.@.. G e.3   : ; y j c q q @ X & 1 [   p.3.p.9.&.s.+.q.p.d.1.s.+.a.%.5.g.&.1.",
"a.8.+.h.+.3.p.y.9.s.9.3.s.  G e.9 .   t k c q =.;.w @ X . S o 9.s.q.y.+.3.y.q.t.s.r.1.4.3.s.+.p.q.g.",
"r.p.@.q.8.h.8.q.9.p.g.3.6.  G e.G   3.  * * q =.;.;.0 -.o &   p.s.i.0.O.9.i.y.p.q.w.1.9.s.<.s.9.p.1.",
"1.s.+.h.8.3.g.u.9.9.4.9.a.  S e.H   q.O.  * 0 =.=.;.0 :.e   a.p.i.1.4.2.p.o.p.t.q.p.1.w.8.w.h.@.g.i.",
"s.8.8.p.y.y.y.q.q.g.q.9.y.  3 e.H 3   q.1.. * 0 =.q * c.r . . w.h.%.9.q.&.d.&.h.,.y.3.d.1.9.&.t.k.&.",
"8.g.r.+.a.i.@.p.q.k.w.+.y.  S e.e.F   w.+.p.. * 0 * -.c.r K 3   1.&.p.q.o.h.1.d.w.3.8.w.2.a.p.k.o.9.",
"9.s.w.i.1.a.y.i.8.s.&.s.q.,.  P F 3   s.,.&.  r r -.:.-.- #.#.%     f. .y.p.9.h.1.+.q.1.a.p.0.a.y.@.",
"s.w.9.a.q.y.q.d.3.3.3.i.q.+.q.      y.8.9.9.+.  r r r -   K e.e.S &   <.s.w.p.2.p.4.+.q.a.f.2.9.1.y.",
"9.1.h.y.9.a.,.d.y.w.a.o.t.+.q.&.3.i.+.a.3.8.q.i.      . 3 9 G | e.[   i.3.p.p.q.1.9.9.@.d.3.h.+.q.i.",
"q.r.+.s.r.p.q.1.q.a.1.p.+.,.3.t. .s.+.y.9.1.<.h.<.p.0.. e.3 #.| e.S   w.w.q.y.0.+.8.6.i.&.s.s.9.3.3.",
",.w.y.w.p.s.0.8.q.,.6.3.,.3.9.y.o.i.,.u.1.d.0.w.u.@.s.  L ] 3 L S &   t.d.8.h.3.1.9.&.y.y.y.s.3.2.6.",
"8.s.8.d.,.y.+.q.0.h.o.9.+.a.9...k.@.8.9.h.1.u.1.u.@.g.8.            3.p.p.q.s. .y.&.9.h.@.s.w.9.a.q.",
"8.g.t.X.l.O.u.,.9.8.y.1.8.1.p.+.1.h.t.,.w.s.8.u.,.i.,.,.y.d.@.8.4.p.<.d.8.p.&.3.9.t.8.t.s.3.&.w.p.%.",
"q.3.q.a.w.o.9.i.q.+.1.p.1.+.r.a.p.8.1.i.h.o.h.8.,.9.w.t.@.9.8.o.y.d.9.q.8.d.q.g.&.9.h.q.&.q.p.9.<.+.",
"&.s.,.d.0.+.s.+.,.y.+.i.q.2.y.y.s.9.i.q.,.d.+.t.q.9.,.@.p.,.8.y.8.l.@.1.9.s.8.q.q.+.k.&.9.k.o.&.j.1.",
"y.8.9.8.8.p.8.w.8.@.g.9.,.j.@.d.8.p.i.9.8.p.,.@.s.@.,.0.9.8.y.q.q.q.y.j.w. .p.t.3.u.q.p.0.q.&.4.w.+.",
"9.s.@.q.9.q.@.,.0.a.y.8.h.s.2.8.r.,.0.8.+.t.9.3.@.9.y.a.8.@.r.q.s.w.r.2.4.9.9.1.t.q.p.h.8.s.' s.@.y.",
"o.9.w.q.,.9.8.9.w.8.h.q.i.9.q.<.k.@.6.+.h.+.@.9.q.@.a.y.+.h.0.8.d.1.3.q.1.d.o.8.w.t.h.q.3.9.9.1.&.i.",
"1.w.t.,.8.i.8.+.s.y.p.9.,.d.w.5.y.9.1.+.0.u.,.@.q.y.8.s.8.p.t.w.r.q.i.9.4.4.+.q.t.0.p.1.i.3.2.1.q.w.",
"8.p.,.1.w.,.@.a.8.s.y.q.8.k.8.9.,.y.9.3.+.1.s.8.,.9.u.y.8.s.,.s.i.1.d.o.9.q.&.i.a.i.8.i.1.&.4.y.&.h.",
"i.q.>.y.@.t.q.y.q.y.8.q.h.+.a.@.9.8.y.8.8.i.@.9.i.y.d.y.0.,.y.@.j.%.s.+.8.&.p.4.q.s.%.r.i.o.q.9.q.h.",
",.y.+.i.p.,.p.y.o.h.u.8.w.y.@.d.@.3.8.9.8.8.p.y.p.,.0.k.,.u.p.y.9.&.<.i...p.i.5.q.a.i.3.1.4.%.a.<.g.",
">.9.t.t.@.h.y.q.,.s.a.3.,.@.h.8.+.8.t.8.y.p.>.h.s.q.i.,.9.p.8.,.8.i.+.4.q.i.1.s.q.s.+.p.9.&.a.1.q.y.",
"p.9.@.h.i.@.i.9.s.s. .h.9.9.3.,.9.8.q.a.,.s.9.h.9.y.t.s.o.y.y...4.p.3.t.<.a.i.%.d.6.0.%.1.0.q.9.w.h.",
"+.i.p.y.i.+.s.8.w.p.9.,.s.>.a...y.0.y.i.p.q.3.p.8.u.q.p.@.9.@.q.y.q.&.a.9.9.a.q.w.p.1.+.i.9.r.q.a.6.",
"0.+.p.y.r.g.,.p.p.8.,.q.q.,.0.8.8.0.d.,.8.s.5.q.q.y.9.y.,.8.y.@.a.4.%.w.&.j.a.w.+.y.@.r.s.1.q.a.1.j.",
"+.h.>.h.1.f.3.h.+.s.o.8.w.y.q.q.,.0.t.d.@.s.8.t.9.8.9.,.q.p.,.s.+.4.p.u.4.h.O.h.1.1.&.p.1.p.y.s.9.1.",
"@.h.5.5.y.w.8.y.@.w.8.p.,.@.a.y.8.9.s.y.p.y.y.+.p.,.i.8.,.,.p.9.w.O.h.s.4.1.q.h.4.o.&.i.i.<.k.1.4.q.",
"t.8.w.s.8.w.1.s.1.w.y.>.w.8.w.8.u.y.9.9.p.,.w.9.9.p.9.,.@.p.8.t.q.i.g.q.1.y.4.p.o.9.d.&.1.t.j.&.f.w."
};
