/* XPM */
static char *result[] = {
/* columns rows colors chars-per-pixel */
"50 51 146 2 ",
"   c #000000",
".  c #000408",
"X  c #0A0606",
"o  c #110900",
"O  c #0B0F17",
"+  c #2A1E03",
"@  c #3B120C",
"#  c #381E12",
"$  c #382011",
"%  c #151D31",
"&  c #202020",
"*  c #2F353F",
"=  c #4F130B",
"-  c #5C160E",
";  c #6D190F",
":  c #621E13",
">  c #731E12",
",  c #7B190E",
"<  c #533E08",
"1  c #5F341D",
"2  c #452A09",
"3  c #742317",
"4  c #733E24",
"5  c #76590E",
"6  c #71560D",
"7  c #7B4315",
"8  c #7B5C10",
"9  c #664C09",
"0  c #7C542E",
"q  c #7A4D2A",
"w  c #202C4A",
"e  c #2A3A63",
"r  c #2F406C",
"t  c #4C525F",
"y  c #70675E",
"u  c #434C62",
"i  c #9D1D0E",
"p  c #801F12",
"a  c #8F1E11",
"s  c #901F11",
"d  c #A81F10",
"f  c #A71F10",
"g  c #9E301D",
"h  c #BC200F",
"j  c #A42010",
"k  c #A12519",
"l  c #AE2111",
"z  c #B02514",
"x  c #B32719",
"c  c #BA2817",
"v  c #A53B18",
"b  c #B8371D",
"n  c #CE200E",
"m  c #CD2B19",
"M  c #D52B1A",
"N  c #D63D1D",
"B  c #D83221",
"V  c #DF3F2E",
"C  c #8D5613",
"Z  c #824714",
"A  c #997317",
"S  c #885834",
"D  c #9C5531",
"F  c #A56D39",
"G  c #D84521",
"H  c #E74D3D",
"J  c #AE6C42",
"K  c #AE7B48",
"L  c #B68815",
"P  c #BD9125",
"I  c #B18D33",
"U  c #D19C15",
"Y  c #EFB41C",
"T  c #FEBB13",
"R  c #C99B2A",
"E  c #D79730",
"W  c #CEA02C",
"Q  c #E6AB27",
"!  c #E4B12F",
"~  c #EBB328",
"^  c #F0B523",
"/  c #FFC73F",
"(  c #FFC83F",
")  c #AD825A",
"_  c #BA8755",
"`  c #BD966B",
"'  c #BBA875",
"]  c #C68D58",
"[  c #CF965F",
"{  c #EC8A42",
"}  c #DCA26B",
"|  c #C2AE77",
" . c #C6B177",
".. c #CAB477",
"X. c #CCB579",
"o. c #CEB87B",
"O. c #C7B278",
"+. c #D4BC7B",
"@. c #D8BF7C",
"#. c #F1B67F",
"$. c #FFC941",
"%. c #D7C07F",
"&. c #DAC17E",
"*. c #FFD366",
"=. c #3A4F87",
"-. c #747C8E",
";. c #99A2B9",
":. c #A7A8A7",
">. c #CEB981",
",. c #D5BE82",
"<. c #DEB284",
"1. c #E7BA94",
"2. c #D6C084",
"3. c #DCC483",
"4. c #D7C28A",
"5. c #DCC68A",
"6. c #DFC88C",
"7. c #DAC792",
"8. c #DEC992",
"9. c #DFCC9A",
"0. c #E0C783",
"q. c #E3CA85",
"w. c #E9CE87",
"e. c #E3CC8B",
"r. c #E8CF8A",
"t. c #FFC38C",
"y. c #E7D08F",
"u. c #EAD18E",
"i. c #E4CD92",
"p. c #E2CE99",
"a. c #EFC794",
"s. c #E6D094",
"d. c #EAD394",
"f. c #E6D29A",
"g. c #EBD59B",
"h. c #EED89E",
"j. c #E6D4A1",
"k. c #EBD6A1",
"l. c #EED9A3",
"z. c #EEDBA9",
"x. c #F0DDAA",
"c. c #F1DFB1",
"v. c #F1E0AF",
"b. c #F2E1B4",
"n. c #D2DEFC",
"m. c #F3EDE7",
/* pixels */
"s.3.4.i.5.5.5.h.2.e.g.d.d.+.z.2.6.g.&.g.7.f.4.f.q.q.d.2.d.d.u.w.q.e.2.6.0.w.i.3.6.d.6.e.q.d.3.s.d.&.",
"6.g.' g.@.        5.d.u.0.s.0.8.g.5.d.3.6.p.d.%.i.l.r.2.r.5.&.z.q.&.e.q.q.d.2.d.5.5.i.&.g.5.g.g.6.d.",
"&.u.q.e.  A W W A     g.@.s.z.+.e.g.+.d.q.d.q.3.x.+.d.q.z.d.+.6.&.g.3.e.+.h.2.q.q.e.g.r.d.s.e.i.g.q.",
"r.&.&.  @ 3 3 b W R <   5.q.r.5.l.+.g.i.+.0.h.w.f.3.d.h.@.,.g...3.l.i.y.+.9.e.3.g.q.d.y.d.e.e.u.q.d.",
"e.&.  I *.*.R G b ( P     f.&.6.l.o.d.8.%.l.d. .c.O.g.p.2.f.,.p.,.g.e.w.@.s.s.i.5.d.d.p.w.4.d.y.d.d.",
"d.  I *.$.Q *.{ N A ( <         5.e.d.u.+.f.d.2.e.3.g.q.2.l.+.e.e.q.e.0.g.e.e.i.k.&.g.0.d.f.q.4.5.d.",
"e.  $.Q T ^ *.{ N C ( 6 y   ] D     r.9.d.3.e.i.5.g.+.d.@.5.p.2.h.&.i.d.2.q.g.d.3.q.g.g.r.q.g.&.q.5.",
"w.  $.T ( ~ $.{ N 7 *.5   # D ] t.D   w.q.s.g.+.q.g.,.d.g.@.i.2.2.e.d.e.e.q.r.x.5.0.l.&.g.w.0.0.d.X.",
"5.  E Y T $.Q { B 7 *.A 1.) $ D # D   2.k.3.g.@.i.d.3.2.i.d.@.&.d.f.@.0.l.q.g.l.3.f.@.d.j.e.@.@.s.e.",
"+.  8 E E E E x n 7 *.A m.1.) $ 4 #   d.2.d.6.0.q.e.f.3.e.@.d.,.i.e.2.l.e.&.i.l.6.k.%.f.q.e.6.6.+.u.",
"e.q.  8 8 8 3 g 3 C $.5   a.` 1 =   q.u.w.0.d.r.5.d.+.g.o.r.i.e.w.q.2.w.z.g.5.s.r.3.8.2.8.5.s.6.r.q.",
",.e.  @ : : 3 3 7 U ! < :.} K 1 n s   r.,.r.e.2.g.@.f.,.f.q.X.i.q.&.l.r.x.5.r.d.%.r.d.@.w.q.q.z.f.e.",
"i.d.@.  @ @ 2 Z U ! 9 + 0 0 1 F s n s   r.s.3.d.@.0.s.r.O.s.i.i.w.r.0.d.6.z.2.d.6.@.g.3.5.i.y.p.i.2.",
"q.d.@.  < A A L L < + &   $ F <._ s = s     e.@.l.,.5.q.e.,.f.2.f.5.0.g.e.k.@.x.&.+.d.3.r.l.3.k.d.3.",
"e.@.q.d.  < A A < o   O : : : q K s T s n =   q.d.3.p.5.f.X.d.@.s.5.g.q.g.e.2.g.+.6.l.+.x.d.e.g.X.r.",
"f.&.i.d.g.        : : @ s z z z n n H = s n =     d.&.&.&.k.q.p.q.q.r.g.q.i.4.5.0.5.q.e.l.2.c.@.3.6.",
"3.0.i.2.i.q.f.  1 h d H n M M M n M n H v s = e %   7.o.f.q.5.&.l.2.j.9.i.+.d.@.i.r.e.i.u.r.k.3.+.2.",
"e.&.5.g.q.3.f.  F 1.[ v B n M B M B n H T = % =.=.e O   2.g.q.%.u.i.3.u.f.r.r.5.s.>.z.q.d.&.d.q.3.@.",
"r.0.p.,.l.2.q.  F t.[ F j B n n n n n B m p w =.=.=.w -.  0.d.5.&.z.&.r.u.f.&.2.q.g.w.g.2.0.s.e.3.j.",
"@.d.@.l.i.&.g.q.  ] ] 1 1 : f i i i m m h x % w w =.r n.  +.&.g.h.q.2.h.q.+.q.e.f.2.g.d.w.e.+.e.5.v.",
"i.5.r.g.u.0.r.q.  F ] F 1   @ , i h h h z x % % w w r n.  ..d.2.z.5.i.6.e.3.r.@.s.d.f.i.,.6.&.q.x.q.",
"+.2.u.e.5.i.q.e.d.  ] #.1     ; a j s j c p     % * -.-.1         i.d.@.q.0.i.d.0.g.u.s.q.&.f.+.h.0.",
"e.6.e.i.3.q.8.i.r.. 1 t.F   s.  - 3 a M p %   0.  * * } ] t.1 S }   q.@.g.,.e.d.h.5.g.%.g.%.8.z.+.q.",
"g.q.+.l.+.5.d.i.0.g.. F [ 1     - k k , w w   5.3.  . D t.t.t.1 1   i.@.5.e.e.u.g.e.3.3.5.f.+.d.r.k.",
"r.d.&.r.3.l.&.r.3.d.  1 [ F 1         % r =.%   s.3.. 1 J ] 1 ] t.  e. .q.s.i.d.e.u.3.q.d.2.g.e.d.2.",
"2.f.+.l.0.5.k.f.q.q.6.  D t.] ] D ]     r =.r u   0.3.. 1 S 1 S 1   q.8.s.X.d.d.e.d.3.e.0.d.g.@.g.d.",
"h.&.q.d.i.i.i.e.e.l.q.q.  D t.t.t.1 D   w w w ;.  3.q.6.          ,.q.q.&.h.&.l.@.i.5.h.3.q.&.d.x.3.",
"0.l.s.+.p.d.@.s.q.z.d.+.p.. D ] t.] $     % u n.  o.3.h.3.h.r.d.0.@.g.i.X.l.3.g.e.5.0.r.5.p.s.l.o.0.",
"q.g.e.d.5.f.i.s.3.h.&.g.6.2.    D ] D   t ;.n.-.  q.i.i.s.d.&.d.0.e.f.| r.g.q.l.5.+.s.@.f.d.w.f.8.@.",
"g.r.e.f.q.i.i.g.5.5.5.s.e.@.q.+.  X     t t t D         h.X.s.q.g.3.q.,.g.w.d.2.d.q.+.e.p.j.4.w.3.i.",
"e.&.l.i.e.f.2.g.i.r.g.X.d.+.6.&.3.s.+.f.  1 t.] } 1 ] t.  q.f.3.e.3.0.d.3.f.g.e.3.0.q.,.h.e.l.+.i.s.",
"e.s.+.d.r.d.e.0.e.f.&.d.+.,.5.s. .h.+.8.e.  D t.t.} 1 1   k.5.,.r.r.i.r.e.r.i.e.+.q.6.d.&.g.f.e.3.0.",
"@.e.r.r.u.d.r.q.r.2.6.5.4.5.e.e.O.f.3.i.3.  1 J ] 1 ] }   d.+.e.i.3.2.u.h.0.l.0.3.e.&.i.i.i.f.0.4.e.",
"0.g.q.g.2.s.o.6.q.h.X.w.o.d.e.| x.@.0.q.k.3.  1 S 1 S 1   3.r.3.k.0.e.d.d.e.f. .e.3.w.h.+.g.e.r.j.q.",
"0.k.u.O.v.O.p.%.r.0.i.3.6.&.d.+.0.g.d.2.d.g.q.          e.g.@.3.6.d.2.g.0.d.0.0.e.d.&.r.g.3.3.w.d.@.",
"q.5.i.f.u.X.q.s.5.+.3.d.3.+.y.f.u.5.3.d.h.o.l.3.3.q.r.i.@.q.5.+.e.l.q.q.0.h.5.f.@.0.l.s.3.e.d.q.2.@.",
"0.f.3.g.w.+.h.+.2.i.+.s.u.5.8.s.g.q.i.5.2.g.+.u.5.q.@.+.d.2.5.e.0.c.,.3.e.d.e.e.i.+.l.0.0.l.X.&.x.2.",
"i.0.e.0.3.a.&.u.3.&.h.q.2.k.%.f.&.g.d.q.&.u.2.&.g.&.3.r.q.5.u.e.e.e.i.l.r.| d.u.3.p.6.d.w.i.2.q.w.+.",
"q.d.@.e.0.e.%.2.w.f.e.3.h.f.3.6.d.&.r.0.@.d.q.5.+.q.e.f.0.&.s.e.g.r.s.5.5.q.e.3.r.i.d.l.0.g.' k.&.i.",
"X.e.r.e.3.q.3.q.u.&.z.e.s.w.6.3.x.+.8.+.h.+.&.0.e.@.f.i.+.g.w.3.k.0.5.e.0.g.X.0.r.u.l.e.5.q.w.&.2.d.",
"3.w.e.5.&.i.0.+.g.s.g.q.@.h.r.8.i.q.2.+.r.i.&.+.e.8.3.g.0.d.e.r.s.e.i.q.6.6.+.e.u.w.u.5.s.5.4.2.e.e.",
"e.s.,.0.r.2.3.f.5.f.e.e.0.x.3.q.3.e.q.6.@.3.g.5.3.5.f.i.q.f.2.g.y.3.h.X.q.e.&.y.f.s.0.s.3.&.e.e.&.l.",
"i.e.o.i.@.d.q.i.r.i.5.q.l.+.f.&.q.3.q.q.5.s.+.r.s.i.h.s.w.2.d.&.z.%.g.+.q.&.f.6.r.g.2.u.s.X.e.q.q.k.",
"4.e.+.s.d.,.d.i.+.g.p.5.r.i.@.g.&.5.5.q.3.q.d.e.d.%.w.l.2.i.d.e.q.&.2.s. .d.s.8.6.f.s.5.3.6.2.f.2.l.",
"o.q.s.r.+.l.i.e.3.g.f.2.2.@.l.3.+.&.d.6.e.f.,.k.d.i.s.5.q.g.5.2.0.s.+.6.i.i.3.g.q.h.+.d.0.&.f.3.e.i.",
"d.q.@.l.d.&.d.0.d.l.' l.q.q.3.4.0.0.r.d.,.g.q.g.3.s.d.s.X.i.e. .6.d.5.s.3.s.s.%.h.8.w.%.0.w.e.w.w.z.",
"@.d.d.y.d.X.g.q.d.i.q.3.g.o.d. .s.r.e.i.g.e.5.d.5.p.6.d.+.0.@.i.i.i.&.d.q.0.f.e.e.d.3.+.s.q.e.e.j.6.",
"w.o.s.i.d.f.2.u.d.5.2.e.e.,.w.5.0.r.g.2.q.g.8.e.e.i.q.e.&.5.i.@.f.6.&.e.&.z.f.r.+.s.%.e.h.3.e.f.3.z.",
"+.l.+.f.0.g.,.x.@.g.X.0.r.i.e.e.,.w.d.g.@.f.0.d.r.5.0.3.5.d.,.d.+.6.d.p.5.l.X.l.3.&.&.d.3.g.i.g.e.2.",
"@.l.7.7.i.i.q.s.@.r.0.d.@.@.p.i.0.q.g.e.a.s.y.+.s.2.y.3.+.5.d.q.r.X.l.g.6.3.e.l.5.+.&.s.s.2.l.6.q.r.",
"d.q.e.g.q.r.,.g.,.y.i.+.y.0.r.0.p.i.w.e.s.2.r.q.q.d.0.&.&.u.3.u.q.s.k.i.&.i.6.d.o.3.h.3.&.u.z.&.j.e."
};
