/* XPM */
static char *result[] = {
/* columns rows colors chars-per-pixel */
"50 51 145 2 ",
"   c #000000",
".  c #000408",
"X  c #0A0606",
"o  c #110900",
"O  c #0B0F17",
"+  c #2A1E03",
"@  c #3B120C",
"#  c #381E12",
"$  c #382011",
"%  c #151D31",
"&  c #202020",
"*  c #2F353F",
"=  c #4F130B",
"-  c #5C160E",
";  c #6D190F",
":  c #621E13",
">  c #731E12",
",  c #7B190E",
"<  c #533E08",
"1  c #5F341D",
"2  c #452A09",
"3  c #742317",
"4  c #733E24",
"5  c #76590E",
"6  c #71560D",
"7  c #7B4315",
"8  c #7B5C10",
"9  c #664C09",
"0  c #7C542E",
"q  c #7A4D2A",
"w  c #202C4A",
"e  c #2A3A63",
"r  c #2F406C",
"t  c #4C525F",
"y  c #70675E",
"u  c #434C62",
"i  c #9D1D0E",
"p  c #801F12",
"a  c #8F1E11",
"s  c #901F11",
"d  c #A81F10",
"f  c #A71F10",
"g  c #9E301D",
"h  c #BC200F",
"j  c #A42010",
"k  c #A12519",
"l  c #AE2111",
"z  c #B02514",
"x  c #B32719",
"c  c #BA2817",
"v  c #A53B18",
"b  c #B8371D",
"n  c #CE200E",
"m  c #CD2B19",
"M  c #D52B1A",
"N  c #D63D1D",
"B  c #D83221",
"V  c #DF3F2E",
"C  c #8D5613",
"Z  c #824714",
"A  c #997317",
"S  c #885834",
"D  c #9C5531",
"F  c #A56D39",
"G  c #D84521",
"H  c #E74D3D",
"J  c #AE6C42",
"K  c #AE7B48",
"L  c #B68815",
"P  c #BD9125",
"I  c #B18D33",
"U  c #D19C15",
"Y  c #EFB41C",
"T  c #FEBB13",
"R  c #C99B2A",
"E  c #D79730",
"W  c #CEA02C",
"Q  c #E6AB27",
"!  c #E4B12F",
"~  c #EBB328",
"^  c #F0B523",
"/  c #FFC73F",
"(  c #FFC83F",
")  c #AD825A",
"_  c #BA8755",
"`  c #BD966B",
"'  c #BBA875",
"]  c #C68D58",
"[  c #CF965F",
"{  c #EC8A42",
"}  c #DCA26B",
"|  c #C2AE77",
" . c #C6B177",
".. c #CAB477",
"X. c #CCB579",
"o. c #CBB579",
"O. c #D4BC7B",
"+. c #D8BF7C",
"@. c #F1B67F",
"#. c #FFC941",
"$. c #D7C07F",
"%. c #DAC17D",
"&. c #FFD366",
"*. c #3A4F87",
"=. c #747C8E",
"-. c #99A2B9",
";. c #A7A8A7",
":. c #CEB981",
">. c #D4BE82",
",. c #DEB284",
"<. c #E7BA94",
"1. c #D6C084",
"2. c #DCC483",
"3. c #D7C28A",
"4. c #DCC68A",
"5. c #DFC88C",
"6. c #DBC792",
"7. c #DEC992",
"8. c #DECC9B",
"9. c #E0C783",
"0. c #E3CA85",
"q. c #E9CE87",
"w. c #E3CC8B",
"e. c #E8CF8A",
"r. c #FFC38C",
"t. c #E7D08F",
"y. c #EAD18E",
"u. c #E4CD92",
"i. c #E2CE99",
"p. c #EFC794",
"a. c #E6D094",
"s. c #EAD394",
"d. c #E6D29A",
"f. c #EBD59B",
"g. c #EED89E",
"h. c #E6D4A2",
"j. c #EAD6A1",
"k. c #EED9A3",
"l. c #EEDBA9",
"z. c #F0DDAA",
"x. c #F1DFB1",
"c. c #F1E0AF",
"v. c #F2E1B4",
"b. c #D2DEFC",
"n. c #F3EDE7",
/* pixels */
"a.2.3.u.4.4.4.g.>.w.f.f.y.O.l.2.6.f.1.s.6.d.3.a.0.w.a.1.s.s.y.q.4.w.%.4.2.q.u.2.5.d.0.w.0.d.%.a.s.%.",
"5.f.' f.+.          a.y.0.a.2.5.f.0.f.2.5.u.s.$.w.l.e.2.e.4.%.k.0.%.a.0.0.s.1.a.4.4.u.2.f.5.f.g.0.s.",
"%.y.0.w.  I / / E 8     +.y.l.O.w.f.O.a.0.f.0.2.z.O.s.0.l.u.O.5.2.s.2.w.+.k.2.0.2.e.s.e.a.a.w.u.j.q.",
"e.%.%.  I &.Q T ^ E 8 @     e.4.k.X.g.u.O.9.g.w.d.2.a.g.+.3.f.o.2.g.a.t.O.7.u.%.g.0.d.t.y.t.0.y.2.s.",
"t.%.  @ &.( T ( T E 8 : @ <   0.k.O.f.7.$.g.y. .x...f.i.2.d.>.i.>.f.w.q.+.a.s.u.4.s.f.a.e.3.s.t.a.s.",
"s.  A 3 &.Q ^ ~ #.E 8 : @ A <   4.w.y.y.O.d.s.1.w.%.f.0.1.k.X.w.w.0.w.9.f.w.5.u.f.%.s.0.s.d.5.2.0.y.",
"w.  W 3 R &.&.#.Q E 3 3 2 A A   g.+.e.8.a.2.w.u.4.f.O.f.+.4.d.%.j.%.u.a.2.0.f.s.2.0.f.f.e.0.f.%.0.4.",
"q.  W b G { { { { x g 3 Z L A         q.0.s.g.O.0.f.>.a.f.+.u.3.2.w.y.e.w.4.e.z.5.2.j.%.s.e.4.9.s.X.",
"2.  A W b N N N N n 3 7 U L < . 1 F F     2.f.+.t.t.2.3.u.y.+.2.s.f.+.9.j.0.f.k.1.f.>.s.h.w.%.>.a.0.",
"O.e.  R ( A C 7 7 7 C U ! < o : j r.r.] F   . 2.w.t.a.9.w.+.s.>.w.w.1.l.w.%.w.l.4.k.%.a.0.w.0.4.+.s.",
"w.0.  < P ( ( &.&.&.( ! 9 +   : j [ [ ] ] ] 1 .   a.+.d.X.e.u.0.q.w.2.q.l.f.4.a.y.0.7.1.8.2.a.5.w.5.",
">.w.f.    < 6 5 A A 5 < + & X @ H v F 1 F @.r.F 1   d.>.d.w.X.u.9.%.j.e.z.4.e.s.%.0.s.O.q.0.0.l.d.w.",
"u.s.+.8.    y   <.n.  ;.0   : s n M d 1 1 1 F [ [ D   u...a.u.u.0.e.0.s.u.j.1.s.5.+.s.4.4.u.t.i.a.1.",
"0.s.1.0.e.    # ) <.p.} 0 $ : z M n M :       1 F r.D . w.>.d.2.d.0.2.f.w.j.+.z.%.O.s.2.e.g.4.f.s.2.",
"w.+.0.s.0.  ] D # ) ` K 1 F : z M B n d @   0.  1 ] r.D   ..d.+.a.4.g.0.s.w.1.f.O.5.j.O.l.s.0.g...y.",
"d.%.u.y.f.  D ] D # 1 1 F ,.q z M B n f , ;       ] r.]   j.0.u.0.0.w.f.0.i.3.4.0.4.0.w.l.2.c.O.2.5.",
"2.0.u.1.u.0.  r.# 4 = n a _ K n n B n i i s - -   D r.r.D   2.2.l.>.h.8.w.+.s.+.u.e.w.u.a.q.j.2.+.2.",
"0.2.4.f.0.2.  D D #   s n a a n m B n i h j > k   ] 1 ] ] X 0.%.y.w.9.y.h.0.e.4.a.:.l.0.s.%.s.w.>.O.",
"w.0.i.>.j.2.0.      l.  a = T H n n n m h s s k     D $ D   s.2.$.l.+.e.y.f.%.1.0.a.0.g.1.9.a.0.1.j.",
"O.s.%.j.7.%.g.0.%.w.l.0.  a s = H H B m h j M p %           9.f.j.0.2.g.0.O.0.5.d.2.g.s.q.w.O.w.5.c.",
"t.4.q.f.e.0.w.w.0.0.w.s.u.  n s v T m h z m p w r r w   t t   2.l.3.d.w.0.2.y.>.u.f.f.8.:.0.$.0.z.0.",
"O.3.s.0.2.u.w.w.a.0.u.k.O.  = n a = , z z 3 % w *.*.w % -.t 1     w.y.%.w.9.t.a.0.s.e.a.0.2.f.>.f.9.",
"w.w.w.u.4.0.w.u.e.0.9.h.O.s.  = = % w % %       % r w u b.t r.D 1   w.+.f.O.w.s.g.2.f.+.d.$.6.k.+.0.",
"a.9.O.l.O.2.a.u.0.f.w.4.f.2.d.  e *.*.w %   w.4.  u -.b.=.D ] r.J 1   O.w.u.w.y.f.w.2.5.4.f.O.s.w.k.",
"e.f.%.w.2.k.%.e.4.y.j.0.7.1.k.  % *.*.w w %   O.u.          } r.] S   ..0.d.u.y.w.y.4.0.f.1.f.w.s.2.",
"2.d.O.l.9.4.k.d.0.0.5.0.d.u.2.e.  e *.*.w * *   u.9.4.%.l.  1 } 1 1   6.t.X.s.y.0.f.%.0.%.e.k.+.j.u.",
"f.9.9.a.u.u.u.w.0.l.0.0.u.>.d.6.w.O w r r =.* . . 4.9.0.g.  ] 1 ] S   0.2.g.%.l.>.u.4.g.9.0.9.y.z.%.",
"9.j.e.+.d.a.+.t.w.l.s.O.u.t.O.a.+.  =.b.b.=.} D 1 . 2.f.4.  r.1 } 1   e.X.k.2.f.e.4.0.e.3.d.a.k.X.0.",
"0.f.e.a.2.d.u.i.9.g.+.f.0.>.1.e.5.2.      1 ] r.J 1   u.w.s.        d.| t.a.0.l.2.O.u.2.f.s.0.d.u.+.",
"f.e.w.d.0.u.w.k.4.4.4.a.w.+.4.+.2.0.u.9.0.  r.r.] S   u.g.X.s.0.f.2.w.>.f.q.s.1.s.0.O.0.d.h.4.0.2.u.",
"0.2.l.w.w.d.1.f.u.e.f.X.s.O.5.%.4.a.O.d.4.  1 r.1 1   f.0.0.d.2.e.2.0.s.4.a.f.w.2.0.0.>.g.4.j.O.u.u.",
"0.u.O.s.e.s.w.9.w.d.%.s.O.>.4.e. .g.O.7.e.  S 1 ] S   4.w.j.3.O.e.0.u.y.w.e.u.0.O.9.u.a.%.f.f.w.1.0.",
"1.w.e.e.y.f.q.4.w.>.5.5.>.4.w.u...u.2.6.9.  } 1 r.1   e.2.a.O.e.u.2.2.e.g.9.l.9.2.0.2.u.i.w.d.0.3.w.",
"0.f.9.g.3.u.O.w.q.g...e.X.f.0.| z.+.w.0.k.2.        f.2.9.2.e.2.j.9.4.a.s.w.d.| w.9.0.k.O.f.w.w.h.0.",
"0.j.y...x...i.>.0.0.7.9.0.2.s.O.9.g.s.>.y.f.0.i.>.u.1.2.w.g.%.1.5.a.3.g.9.s.0.4.0.t.0.e.g.4.%.q.s.+.",
"0.1.u.d.e.X.q.a.0.+.2.a.1.O.e.d.y.4.2.a.k.X.k.2.2.0.w.u.+.0.4.O.t.g.0.0.9.k.2.d.+.0.k.w.%.w.s.0.1.O.",
"2.d.2.g.w.O.f.X.>.u.O.t.e.3.u.u.g.0.u.w.>.f.O.s.4.0.>.+.a.2.4.0.9.x.+.2.0.f.w.w.u.O.z.%.0.l...%.z.2.",
"u.0.0.9.9.s.9.e.0.+.g.w.3.j.+.f.%.s.a.0.2.e.2.%.f.%.%.e.0.1.s.0.w.w.i.l.q.| s.e.0.i.0.s.q.w.2.0.q.O.",
"0.f.+.w.0.w.+.>.q.d.u.%.g.f.4.w.a.2.e.0.O.s.0.3.O.0.7.d.0.+.t.w.f.e.u.2.4.0.0.+.e.u.t.l.9.f.' j.%.u.",
"X.0.e.w.+.0.2.0.e.2.l.w.u.w.0.>.z.%.3.O.g.O.%.0.0.%.d.a.O.g.q.4.k.9.4.w.9.g...w.w.e.j.e.4.0.0.%.2.a.",
"%.e.e.4.9.u.0.X.f.u.s.0.+.g.t.6.u.0.2.O.e.u.%.O.0.u.2.f.9.s.t.w.a.0.a.0.5.5.O.w.s.q.a.9.a.2.6.>.w.w.",
"4.u.2.,.q.>.9.d.9.f.u.w.0.z.+.w.2.w.4.4.O.4.f.2.1.4.d.u.0.d.2.f.a.2.g.o.w.0.%.s.d.u.0.a.4.%.w.w.%.j.",
"w.w.O.i.+.s.w.u.w.i.4.0.l.O.f.+.0.9.4.0.4.s.+.e.a.u.k.a.0.>.s.%.l.$.f.O.9.%.d.5.e.g.+.w.a.X.5.0.w.g.",
"3.a.O.a.s.:.s.a.O.f.i.2.e.e.+.g.+.4.0.0.%.0.s.w.a.2.q.k.1.u.a.5.0.%.1.a. .s.a.6.w.i.u.w.5.0.>.d.1.j.",
"O.9.s.w.O.k.a.9.2.f.d.4.>.+.k.9.O.%.s.w.w.d.>.g.f.w.a.3.0.f.2.2.9.a.O.5.w.a.2.f.e.f.O.s.2.%.u.2.w.u.",
"s.0.%.j.t.9.t.w.d.f.| k.w.9.4.>.9.9.e.a.>.s.w.g.9.u.s.a.o.u.w...5.s.4.t.1.a.s.$.f.7.q.$.9.q.w.e.q.l.",
"O.s.s.u.s.X.f.w.e.a.0.>.f.:.a. .u.q.w.u.a.w.4.f.0.i.0.s.O.9.+.w.u.w.%.d.e.9.d.w.w.s.2.O.d.q.w.w.h.5.",
"q.O.f.w.t.d.>.s.s.9.>.w.w.>.q.9.0.w.g.1.0.g.6.w.5.u.0.u.%.5.u.+.d.5.$.e.2.l.a.w.O.a.1.w.s.2.w.d.2.l.",
"O.j.O.h.2.f.5.l.O.f...2.e.w.w.w.2.q.y.f.2.d.9.s.0.4.9.2.2.s.>.f.O.5.s.u.5.l...j.2.2.%.s.2.s.w.f.0.2.",
"%.k.6.7.w.u.0.u.%.e.9.f.%.%.d.w.2.2.f.w.a.u.y.O.a.2.s.4.O.4.a.0.e.o.l.f.5.2.y.j.4.O.$.a.a.1.l.4.5.w.",
"y.0.w.f.0.e.2.a.4.w.u.X.w.0.e.4.a.u.w.e.d.%.w.0.9.s.9.%.%.y.2.y.w.a.j.w.2.w.5.s...9.g.2.9.y.l.%.h.e."
};
