/* XPM */
static char *result[] = {
/* columns rows colors chars-per-pixel */
"50 50 129 2 ",
"   c black",
".  c #000400",
"X  c #080000",
"o  c #000408",
"O  c #0B0C0C",
"+  c #110900",
"@  c #0B0F17",
"#  c #2A1E03",
"$  c #3A110B",
"%  c #3C130D",
"&  c #381E12",
"*  c #382011",
"=  c #151D31",
"-  c #161F33",
";  c #202020",
":  c #2F353F",
">  c #4F130B",
",  c #5C160E",
"<  c #6D190F",
"1  c #7B190E",
"2  c #611D12",
"3  c #621E13",
"4  c #731E12",
"5  c #452A09",
"6  c #533E08",
"7  c #563F08",
"8  c #5F341D",
"9  c #742317",
"0  c #664C09",
"q  c #71560D",
"w  c #76590E",
"e  c #7B4315",
"r  c #7B5C10",
"t  c #7A4D2A",
"y  c #7C542E",
"u  c #212C49",
"i  c #202C4A",
"p  c #243154",
"a  c #2F406C",
"s  c #334575",
"d  c #4C525F",
"f  c #70675E",
"g  c #9D1D0E",
"h  c #9E1D0E",
"j  c #801F12",
"k  c #861F12",
"l  c #8B1F11",
"z  c #8F1E11",
"x  c #901F11",
"c  c #A71F10",
"v  c #A81F10",
"b  c #9E301D",
"n  c #BC200F",
"m  c #BD200F",
"M  c #A42010",
"N  c #AE2111",
"B  c #A12519",
"V  c #BD2313",
"C  c #B32719",
"Z  c #B22B18",
"A  c #BF2B1B",
"S  c #A73D1F",
"D  c #B8371D",
"F  c #C0200F",
"G  c #CE200E",
"H  c #D42A19",
"J  c #D42F1E",
"K  c #D72F1E",
"L  c #D63D1D",
"P  c #D83221",
"I  c #D93221",
"U  c #DF3F2E",
"Y  c #824714",
"T  c #8D5613",
"R  c #997317",
"E  c #885834",
"W  c #9C5531",
"Q  c #A56D39",
"!  c #D84521",
"~  c #E74D3D",
"^  c #AE6C42",
"/  c #AD794B",
"(  c #AD7D4A",
")  c #B68815",
"_  c #BD9125",
"`  c #B18D33",
"'  c #D19C15",
"]  c #EFB41C",
"[  c #FFBB12",
"{  c #FBB915",
"}  c #FFBC15",
"|  c #C59828",
" . c #CC9D2B",
".. c #D79730",
"X. c #CEA02C",
"o. c #EAAF20",
"O. c #E1A42C",
"+. c #E6AF28",
"@. c #E4B12F",
"#. c #EBB328",
"$. c #F0B523",
"%. c #FFC73F",
"&. c #FFC83E",
"*. c #FFC83F",
"=. c #AD825A",
"-. c #BD966B",
";. c #C68D58",
":. c #CF955F",
">. c #CF965F",
",. c #EC8A42",
"<. c #DCA16B",
"1. c #DEA66B",
"2. c #DDA36D",
"3. c #F1B67F",
"4. c #FFC940",
"5. c #FFC942",
"6. c #FFD366",
"7. c #3A4F87",
"8. c #747C8E",
"9. c #4E6AB3",
"0. c #9AA2B9",
"q. c #A7A8A7",
"w. c #DEB284",
"e. c #E7BA94",
"r. c #FFC38C",
"t. c #EFC794",
"y. c #D2DEFC",
"u. c #F3EDE7",
"i. c None",
/* pixels */
"i.i.i.i.i.i.i.i.i.i.i.i.i.i.i.i.i.i.i.i.i.i.i.i.i.i.i.i.i.i.i.i.i.i.i.i.i.i.i.i.i.i.i.i.i.i.i.i.i.i.",
"i.i.i.i.i.i.i.i.i.i.i.i.i.i.i.i.i.i.i.i.i.i.i.i.i.i.i.i.i.i.i.i.i.i.i.i.i.i.i.i.i.i.i.i.i.i.i.i.i.i.",
"i.i.i.i.i.i.i.i.i.i.i.i.i.i.i.i.i.i.i.i.i.i.i.i.i.i.i.i.i.i.i.i.i.i.i.i.i.i.i.i.i.i.i.i.i.i.i.i.i.i.",
"i.i.i.i.i.i.i.i.i.i.i.i.i.i.i.i.i.i.i.i.i.i.i.i.i.i.i.i.i.i.i.i.i.i.i.i.i.i.i.i.i.i.i.i.i.i.i.i.i.i.",
"i.i.i.i.i.i.i.i.i.i.i.i.i.i.i.i.i.i.i.i.i.i.i.i.i.i.i.i.i.i.i.i.i.i.i.i.i.i.i.i.i.i.i.i.i.i.i.i.i.i.",
"i.i.i.i.i.i.i.i.i.i.i.i.i.i.i.i.i.i.i.i.i.i.i.i.i.i.i.i.i.i.i.i.i.i.i.i.i.i.i.i.i.i.i.i.i.i.i.i.i.i.",
"i.i.i.i.i.i.i.i.i.i.i.i.i.i.i.i.i.i.i.i.i.i.i.i.i.i.i.i.i.i.i.i.i.i.i.i.i.i.i.i.i.i.i.i.i.i.i.i.i.i.",
"i.i.i.i.i.i.i.i.i.i.i.i.i.i.i.i.i.i.i.i.i.i.i.i.i.i.i.i.i.i.i.i.i.i.i.i.i.i.i.i.i.i.i.i.i.i.i.i.i.i.",
"i.i.i.i.i.i.i.i.i.i.i.i.i.i.i.i.i.i.i.i.i.i.i.i.i.i.i.i.i.i.i.i.i.i.i.i.i.i.i.i.i.i.i.i.i.i.i.i.i.i.",
"i.i.i.i.i.i.i.i.i.i.i.i.i.i.i.i.i.i.i.i.i.i.i.i.i.i.i.i.i.i.i.i.i.i.i.i.i.i.i.i.i.i.i.i.i.i.i.i.i.i.",
"i.i.i.i.i.i.i.i.i.i.i.i.i.i.i.i.i.i.i.i.i.i.i.i.i.i.i.i.i.i.i.i.i.i.i.i.i.i.i.i.i.i.i.i.i.i.i.i.i.i.",
"i.i.i.i.i.i.i.i.i.i.i.i.i.i.i.i.i.i.i.i.i.i.i.i.i.i.i.i.i.i.i.i.i.i.i.i.i.i.i.i.i.i.i.i.i.i.i.i.i.i.",
"i.i.i.i.i.i.i.i.i.i.i.i.i.i.i.i.i.i.i.i.i.i.i.i.i.i.i.i.i.i.i.i.i.i.i.i.i.i.i.i.i.i.i.i.i.i.i.i.i.i.",
"i.i.i.i.i.i.i.i.i.i.i.i.i.i.i.i.i.i.i.i.i.i.i.i.i.i.i.i.i.i.i.i.i.i.i.i.i.i.i.i.i.i.i.i.i.i.i.i.i.i.",
"i.i.i.i.i.i.i.i.i.i.i.i.i.i.i.i.i.i.        i.i.i.i.i.i.i.i.i.i.i.i.i.i.i.i.i.i.i.i.i.i.i.i.i.i.i.i.",
"i.i.i.i.i.i.i.i.i.i.i.i.i.i.i.i.i.  R X.X.R     i.i.i.i.i.i.i.i.i.i.i.i.i.i.i.i.i.i.i.i.i.i.i.i.i.i.",
"i.i.i.i.i.i.i.i.i.i.i.i.i.i.i.i.  % 9 9 D X. .6   i.i.i.i.i.i.i.i.i.i.i.i.i.i.i.i.i.i.i.i.i.i.i.i.i.",
"i.i.i.i.i.i.i.i.i.i.i.i.i.i.i.  ` 6.6.| ! D *._       i.i.i.i.i.i.i.i.i.i.i.i.i.i.i.i.i.i.i.i.i.i.i.",
"i.i.i.i.i.i.i.i.i.i.i.i.i.i.  ` 6.4.+.6.,.L R *.6   W       i.i.i.i.i.i.i.i.i.i.i.i.i.i.i.i.i.i.i.i.",
"i.i.i.i.i.i.i.i.i.i.i.i.i.i.  %.o.} $.6.,.L T *.q f   2.;.W       i.i.i.i.i.i.i.i.i.i.i.i.i.i.i.i.i.",
"i.i.i.i.i.i.i.i.i.i.i.i.i.i.  %.{ &.#.5.,.L e 6.w   & 8 W ;.r.r.W   i.i.i.i.i.i.i.i.i.i.i.i.i.i.i.i.",
"i.i.i.i.i.i.i.i.i.i.i.i.i.i.  ..] [ 4.O.,.L e 6.R e.=.& > & ;.& W   i.i.i.i.i.i.i.i.i.i.i.i.i.i.i.i.",
"i.i.i.i.i.i.i.i.i.i.i.i.i.i.  r ........Z G e 6.R u.e.=.& > & / &   i.i.i.i.i.i.i.i.i.i.i.i.i.i.i.i.",
"i.i.i.i.i.i.i.i.i.i.i.i.i.i.i.  r r r 9 b 9 T *.w   t.-.8 x > &   i.i.i.i.i.i.i.i.i.i.i.i.i.i.i.i.i.",
"i.i.i.i.i.i.i.i.i.i.i.i.i.i.i.  % 3 3 9 9 e ' @.6 q.1.( 8 t G >   i.i.i.i.i.i.i.i.i.i.i.i.i.i.i.i.i.",
"i.i.i.i.i.i.i.i.i.i.i.i.i.i.i.i.  % % 5 Y ' @.0 # y y 8 Q w.x G x   i.i.i.i.i.i.i.i.i.i.i.i.i.i.i.i.",
"i.i.i.i.i.i.i.i.i.i.i.i.i.i.i.i.  6 R R ) ) 6 # ;   & Q w.w.t > H G o   i.i.i.i.i.i.i.i.i.i.i.i.i.i.",
"i.i.i.i.i.i.i.i.i.i.i.i.i.i.i.i.i.  6 R R 7 +   O $ 2 2 2 x U [ x G G >   i.i.i.i.i.i.i.i.i.i.i.i.i.",
"i.i.i.i.i.i.i.i.i.i.i.i.i.i.i.i.i.i.        3 $ l x x x G G G ~ > x G G x   i.i.i.i.i.i.i.i.i.i.i.i.",
"i.i.i.i.i.i.i.i.i.i.i.i.i.i.i.i.i.i.i.i.i.  8 v v U G H H P P G ~ [ > j = i   i.i.i.i.i.i.i.i.i.i.i.",
"i.i.i.i.i.i.i.i.i.i.i.i.i.i.i.i.i.i.i.i.i.  Q r.:.S I G P P G G G ~ j @ = 7.@   i.i.i.i.i.i.i.i.i.i.",
"i.i.i.i.i.i.i.i.i.i.i.i.i.i.i.i.i.i.i.i.i.  Q r.:.Q v I G G G F F K J j i 7.i 8.  i.i.i.i.i.i.i.i.i.",
"i.i.i.i.i.i.i.i.i.i.i.i.i.i.i.i.i.i.i.i.i.i.  ;.;.8 8 2 c g h g P V C K j 7.a y.  i.i.i.i.i.i.i.i.i.",
"i.i.i.i.i.i.i.i.i.i.i.i.i.i.i.i.i.i.i.i.i.i.  Q ;.Q 8   $ 1 g m n N C C j i a y.  i.i.i.i.i.i.i.i.i.",
"i.i.i.i.i.i.i.i.i.i.i.i.i.i.i.i.i.i.i.i.i.i.i.  ;.3.8     < , z M C C K p @ 8.8.8       .   i.i.i.i.",
"i.i.i.i.i.i.i.i.i.i.i.i.i.i.i.i.i.i.i.i.i.i.i.o 8 r.Q   i.  , 4 k A K p 7.- . : <.;.r.8 E <.  i.i.i.",
"i.i.i.i.i.i.i.i.i.i.i.i.i.i.i.i.i.i.i.i.i.i.i.i.o Q >.8   i.  , B B j p 9.7.. o W r.r.r.8 8   i.i.i.",
"i.i.i.i.i.i.i.i.i.i.i.i.i.i.i.i.i.i.i.i.i.i.i.i.  8 >.Q 8   i.  = = = s 9.7.i o 8 ^ ;.8 ;.r.  i.i.i.",
"i.i.i.i.i.i.i.i.i.i.i.i.i.i.i.i.i.i.i.i.i.i.i.i.i.  W r.;.8       = u 7.9.7.i 8.o 8 E 8 E 8   i.i.i.",
"i.i.i.i.i.i.i.i.i.i.i.i.i.i.i.i.i.i.i.i.i.i.i.i.i.i.  W r.<.W ;.    = u 7.7.a y.            i.i.i.i.",
"i.i.i.i.i.i.i.i.i.i.i.i.i.i.i.i.i.i.i.i.i.i.i.i.i.i.i.o W r.r.8 W     = = a 0.y.  i.i.i.i.i.i.i.i.i.",
"i.i.i.i.i.i.i.i.i.i.i.i.i.i.i.i.i.i.i.i.i.i.i.i.i.i.i.i.  W r.;.* .   d 8.8.y.8.  i.i.i.i.i.i.i.i.i.",
"i.i.i.i.i.i.i.i.i.i.i.i.i.i.i.i.i.i.i.i.i.i.i.i.i.i.i.i.i.  W ;.W . i.  d d d 8 W           i.i.i.i.",
"i.i.i.i.i.i.i.i.i.i.i.i.i.i.i.i.i.i.i.i.i.i.i.i.i.i.i.i.i.i.. X   i.i.i.  o   W r.;.<.8 ;.r.  i.i.i.",
"i.i.i.i.i.i.i.i.i.i.i.i.i.i.i.i.i.i.i.i.i.i.i.i.i.i.i.i.i.i.i.i.i.i.i.i.i.i.i.  W r.r.<.8 8   i.i.i.",
"i.i.i.i.i.i.i.i.i.i.i.i.i.i.i.i.i.i.i.i.i.i.i.i.i.i.i.i.i.i.i.i.i.i.i.i.i.i.i.  8 ^ ;.8 ;.<.  i.i.i.",
"i.i.i.i.i.i.i.i.i.i.i.i.i.i.i.i.i.i.i.i.i.i.i.i.i.i.i.i.i.i.i.i.i.i.i.i.i.i.i.i.  8 E 8 E 8   i.i.i.",
"i.i.i.i.i.i.i.i.i.i.i.i.i.i.i.i.i.i.i.i.i.i.i.i.i.i.i.i.i.i.i.i.i.i.i.i.i.i.i.i.i.          i.i.i.i.",
"i.i.i.i.i.i.i.i.i.i.i.i.i.i.i.i.i.i.i.i.i.i.i.i.i.i.i.i.i.i.i.i.i.i.i.i.i.i.i.i.i.i.i.i.i.i.i.i.i.i.",
"i.i.i.i.i.i.i.i.i.i.i.i.i.i.i.i.i.i.i.i.i.i.i.i.i.i.i.i.i.i.i.i.i.i.i.i.i.i.i.i.i.i.i.i.i.i.i.i.i.i."
};
