/* XPM */
static char *result[] = {
/* columns rows colors chars-per-pixel */
"50 50 126 2 ",
"   c black",
".  c #000400",
"X  c #080000",
"o  c #000408",
"O  c #0B0C0C",
"+  c #110900",
"@  c #0B0F17",
"#  c #2A1E03",
"$  c #3A110B",
"%  c #3C130D",
"&  c #381E12",
"*  c #382011",
"=  c #151D31",
"-  c #202020",
";  c #2F353F",
":  c #4F130B",
">  c #5C160E",
",  c #6D190F",
"<  c #7B190E",
"1  c #611D12",
"2  c #621E13",
"3  c #731E12",
"4  c #452A09",
"5  c #533E08",
"6  c #563F08",
"7  c #5F341D",
"8  c #742317",
"9  c #733E24",
"0  c #664C09",
"q  c #71560D",
"w  c #76590E",
"e  c #7B4315",
"r  c #7B5C10",
"t  c #7A4D2A",
"y  c #7C542E",
"u  c #202C4A",
"i  c #202D4B",
"p  c #2A3A63",
"a  c #2F406C",
"s  c #4C525F",
"d  c #70675E",
"f  c #434C62",
"g  c #9D1D0E",
"h  c #801F12",
"j  c #8F1E11",
"k  c #901F11",
"l  c #A71F10",
"z  c #A81F10",
"x  c #9E301D",
"c  c #BC200F",
"v  c #BD200F",
"b  c #A42010",
"n  c #AE2111",
"m  c #A12519",
"M  c #B02514",
"N  c #BD2313",
"B  c #B32719",
"V  c #B22B18",
"C  c #BF2B1B",
"Z  c #A33911",
"A  c #A73D1F",
"S  c #B8371D",
"D  c #CE200E",
"F  c #CD2B19",
"G  c #D42A19",
"H  c #D72F1E",
"J  c #D63D1D",
"K  c #D83221",
"L  c #D93221",
"P  c #DF3F2E",
"I  c #824714",
"U  c #8D5613",
"Y  c #997317",
"T  c #885834",
"R  c #9C5531",
"E  c #A56D39",
"W  c #D84521",
"Q  c #E74D3D",
"!  c #AE6C42",
"~  c #AE7845",
"^  c #AD7D4A",
"/  c #B68815",
"(  c #BD9125",
")  c #B18D33",
"_  c #D19C15",
"`  c #EFB41C",
"'  c #FFBB12",
"]  c #FBB915",
"[  c #FFBC15",
"{  c #C59828",
"}  c #CC9D2B",
"|  c #D79730",
" . c #CEA02C",
".. c #EAAF20",
"X. c #E1A42C",
"o. c #E6AF28",
"O. c #E4B12F",
"+. c #EBB328",
"@. c #F0B523",
"#. c #FFC73F",
"$. c #FFC83E",
"%. c #FFC83F",
"&. c #AD825A",
"*. c #BA8755",
"=. c #BD966B",
"-. c #C68D58",
";. c #CF955F",
":. c #CF965F",
">. c #EC8A42",
",. c #DCA16B",
"<. c #DEA66B",
"1. c #F1B67F",
"2. c #FFC940",
"3. c #FFC942",
"4. c #FFD366",
"5. c #3A4F87",
"6. c #747C8E",
"7. c #99A2B9",
"8. c #A7A8A7",
"9. c #DEB284",
"0. c #E7BA94",
"q. c #FFC38C",
"w. c #EFC794",
"e. c #D2DEFC",
"r. c #F3EDE7",
"t. c None",
/* pixels */
"t.t.t.t.t.t.t.t.t.t.t.t.t.t.t.t.t.t.t.t.t.t.t.t.t.t.t.t.t.t.t.t.t.t.t.t.t.t.t.t.t.t.t.t.t.t.t.t.t.t.",
"t.t.t.t.t.t.t.t.t.t.t.t.t.t.t.t.t.t.t.t.t.t.t.t.t.t.t.t.t.t.t.t.t.t.t.t.t.t.t.t.t.t.t.t.t.t.t.t.t.t.",
"t.t.t.t.t.t.t.t.t.t.t.t.t.t.t.t.t.t.t.t.t.t.t.t.t.t.t.t.t.t.t.t.t.t.t.t.t.t.t.t.t.t.t.t.t.t.t.t.t.t.",
"t.t.t.t.t.t.t.t.t.t.t.t.t.t.t.t.t.t.t.t.t.t.t.t.t.t.t.t.t.t.t.t.t.t.t.t.t.t.t.t.t.t.t.t.t.t.t.t.t.t.",
"t.t.t.t.t.t.t.t.t.t.t.t.t.t.t.t.t.t.t.t.t.t.t.t.t.t.t.t.t.t.t.t.t.t.t.t.t.t.t.t.t.t.t.t.t.t.t.t.t.t.",
"t.t.t.t.t.t.t.t.t.t.t.t.t.t.t.t.t.t.t.t.t.t.t.t.t.t.t.t.t.t.t.t.t.t.t.t.t.t.t.t.t.t.t.t.t.t.t.t.t.t.",
"t.t.t.t.t.t.t.t.t.t.t.t.t.t.t.t.t.t.t.t.t.t.t.t.t.t.t.t.t.t.t.t.t.t.t.t.t.t.t.t.t.t.t.t.t.t.t.t.t.t.",
"t.t.t.t.t.t.t.t.t.t.t.t.t.t.t.t.t.t.t.t.t.t.t.t.t.t.t.t.t.t.t.t.t.t.t.t.t.t.t.t.t.t.t.t.t.t.t.t.t.t.",
"t.t.t.t.t.t.t.t.t.t.t.t.t.t.t.t.t.t.t.t.t.t.t.t.t.t.t.t.t.t.t.t.t.t.t.t.t.t.t.t.t.t.t.t.t.t.t.t.t.t.",
"t.t.t.t.t.t.t.t.t.t.t.t.t.t.t.t.t.t.t.t.t.t.t.t.t.t.t.t.t.t.t.t.t.t.t.t.t.t.t.t.t.t.t.t.t.t.t.t.t.t.",
"t.t.t.t.t.t.t.t.t.t.t.t.t.t.t.t.t.t.t.t.t.t.t.t.t.t.t.t.t.t.t.t.t.t.t.t.t.t.t.t.t.t.t.t.t.t.t.t.t.t.",
"t.t.t.t.t.t.t.t.t.t.t.t.t.t.t.t.t.t.t.t.t.t.t.t.t.t.t.t.t.t.t.t.t.t.t.t.t.t.t.t.t.t.t.t.t.t.t.t.t.t.",
"t.t.t.t.t.t.t.t.t.t.t.t.t.t.t.t.t.t.t.t.t.t.t.t.t.t.t.t.t.t.t.t.t.t.t.t.t.t.t.t.t.t.t.t.t.t.t.t.t.t.",
"t.t.t.t.t.t.t.t.t.t.t.t.t.t.t.t.t.t.t.t.t.t.t.t.t.t.t.t.t.t.t.t.t.t.t.t.t.t.t.t.t.t.t.t.t.t.t.t.t.t.",
"t.t.t.t.t.t.t.t.t.t.t.t.t.t.t.t.t.t.t.t.t.t.t.t.t.t.t.t.t.t.t.t.t.t.t.t.t.t.t.t.t.t.t.t.t.t.t.t.t.t.",
"t.t.t.t.t.t.t.t.t.t.t.t.t.t.t.t.t.t.        t.t.t.t.t.t.t.t.t.t.t.t.t.t.t.t.t.t.t.t.t.t.t.t.t.t.t.t.",
"t.t.t.t.t.t.t.t.t.t.t.t.t.t.t.t.t.  Y  . .Y     t.t.t.t.t.t.t.t.t.t.t.t.t.t.t.t.t.t.t.t.t.t.t.t.t.t.",
"t.t.t.t.t.t.t.t.t.t.t.t.t.t.t.t.  % 8 8 S  .} 5   t.t.t.t.t.t.t.t.t.t.t.t.t.t.t.t.t.t.t.t.t.t.t.t.t.",
"t.t.t.t.t.t.t.t.t.t.t.t.t.t.t.  ) 4.4.{ W S %.(     t.t.t.t.t.t.t.t.t.t.t.t.t.t.t.t.t.t.t.t.t.t.t.t.",
"t.t.t.t.t.t.t.t.t.t.t.t.t.t.  ) 4.2.o.4.>.J Y %.5         t.t.t.t.t.t.t.t.t.t.t.t.t.t.t.t.t.t.t.t.t.",
"t.t.t.t.t.t.t.t.t.t.t.t.t.t.  #...[ @.4.>.J U %.q d   -.R     t.t.t.t.t.t.t.t.t.t.t.t.t.t.t.t.t.t.t.",
"t.t.t.t.t.t.t.t.t.t.t.t.t.t.  #.] $.+.3.>.J e 4.w   & R -.q.R   t.t.t.t.t.t.t.t.t.t.t.t.t.t.t.t.t.t.",
"t.t.t.t.t.t.t.t.t.t.t.t.t.t.  | ` ' 2.X.>.J e 4.Y 0.&.& R & R   t.t.t.t.t.t.t.t.t.t.t.t.t.t.t.t.t.t.",
"t.t.t.t.t.t.t.t.t.t.t.t.t.t.  r | | | | V D e 4.Y r.0.&.& 9 &   t.t.t.t.t.t.t.t.t.t.t.t.t.t.t.t.t.t.",
"t.t.t.t.t.t.t.t.t.t.t.t.t.t.t.  r r r 8 x 8 U %.w   w.=.7 :   t.t.t.t.t.t.t.t.t.t.t.t.t.t.t.t.t.t.t.",
"t.t.t.t.t.t.t.t.t.t.t.t.t.t.t.  % 2 2 8 8 e _ O.5 8.<.^ 7 D k   t.t.t.t.t.t.t.t.t.t.t.t.t.t.t.t.t.t.",
"t.t.t.t.t.t.t.t.t.t.t.t.t.t.t.t.  % % 4 I _ O.0 # y y 7 E k D k   t.t.t.t.t.t.t.t.t.t.t.t.t.t.t.t.t.",
"t.t.t.t.t.t.t.t.t.t.t.t.t.t.t.t.  5 Y Y / / 5 # -   & E 9.*.k : k     t.t.t.t.t.t.t.t.t.t.t.t.t.t.t.",
"t.t.t.t.t.t.t.t.t.t.t.t.t.t.t.t.t.  5 Y Y 6 +   O 1 1 1 t ~ k ' k D :   t.t.t.t.t.t.t.t.t.t.t.t.t.t.",
"t.t.t.t.t.t.t.t.t.t.t.t.t.t.t.t.t.t.        2 2 $ k M M M D D Q : k D :     t.t.t.t.t.t.t.t.t.t.t.t.",
"t.t.t.t.t.t.t.t.t.t.t.t.t.t.t.t.t.t.t.t.  7 z z P D G G G D F D Q Z k : p =   t.t.t.t.t.t.t.t.t.t.t.",
"t.t.t.t.t.t.t.t.t.t.t.t.t.t.t.t.t.t.t.t.  E q.;.A L D K K K K D Q ' : = 5.5.p @   t.t.t.t.t.t.t.t.t.",
"t.t.t.t.t.t.t.t.t.t.t.t.t.t.t.t.t.t.t.t.  E q.;.E z L D D D D D K F h u 5.5.5.u 6.  t.t.t.t.t.t.t.t.",
"t.t.t.t.t.t.t.t.t.t.t.t.t.t.t.t.t.t.t.t.t.  -.-.7 7 1 l g g g F F N B = u u 5.a e.  t.t.t.t.t.t.t.t.",
"t.t.t.t.t.t.t.t.t.t.t.t.t.t.t.t.t.t.t.t.t.  E -.E 7   $ < g c v c n B = = u u a e.  t.t.t.t.t.t.t.t.",
"t.t.t.t.t.t.t.t.t.t.t.t.t.t.t.t.t.t.t.t.t.t.  -.1.7     , j b j b C h     = ; 6.6.7     .   t.t.t.t.",
"t.t.t.t.t.t.t.t.t.t.t.t.t.t.t.t.t.t.t.t.t.t.o 7 q.E   t.  > 3 j H h =   t.  ; ; ,.-.q.7 T ,.  t.t.t.",
"t.t.t.t.t.t.t.t.t.t.t.t.t.t.t.t.t.t.t.t.t.t.t.o E :.7     > m m h u u   t.t.. o R q.q.q.7 7   t.t.t.",
"t.t.t.t.t.t.t.t.t.t.t.t.t.t.t.t.t.t.t.t.t.t.t.  7 :.E 7         = a 5.=   t.t.o 7 ! -.7 -.q.  t.t.t.",
"t.t.t.t.t.t.t.t.t.t.t.t.t.t.t.t.t.t.t.t.t.t.t.t.  R q.-.-.R -.    a 5.a f   t.t.o 7 T 7 T 7   t.t.t.",
"t.t.t.t.t.t.t.t.t.t.t.t.t.t.t.t.t.t.t.t.t.t.t.t.t.  R q.q.q.7 R   u i i 7.  t.t.t.          t.t.t.t.",
"t.t.t.t.t.t.t.t.t.t.t.t.t.t.t.t.t.t.t.t.t.t.t.t.t.t.o R -.q.-.* .   = f e.  t.t.t.t.t.t.t.t.t.t.t.t.",
"t.t.t.t.t.t.t.t.t.t.t.t.t.t.t.t.t.t.t.t.t.t.t.t.t.t.t.    R -.R . s 7.e.6.  t.t.t.t.t.t.t.t.t.t.t.t.",
"t.t.t.t.t.t.t.t.t.t.t.t.t.t.t.t.t.t.t.t.t.t.t.t.t.t.t.t.t.. X     s s s R         t.t.t.t.t.t.t.t.t.",
"t.t.t.t.t.t.t.t.t.t.t.t.t.t.t.t.t.t.t.t.t.t.t.t.t.t.t.t.t.t.t.t.t.  7 q.-.,.7 -.q.  t.t.t.t.t.t.t.t.",
"t.t.t.t.t.t.t.t.t.t.t.t.t.t.t.t.t.t.t.t.t.t.t.t.t.t.t.t.t.t.t.t.t.t.  R q.q.,.7 7   t.t.t.t.t.t.t.t.",
"t.t.t.t.t.t.t.t.t.t.t.t.t.t.t.t.t.t.t.t.t.t.t.t.t.t.t.t.t.t.t.t.t.t.  7 ! -.7 -.,.  t.t.t.t.t.t.t.t.",
"t.t.t.t.t.t.t.t.t.t.t.t.t.t.t.t.t.t.t.t.t.t.t.t.t.t.t.t.t.t.t.t.t.t.t.  7 T 7 T 7   t.t.t.t.t.t.t.t.",
"t.t.t.t.t.t.t.t.t.t.t.t.t.t.t.t.t.t.t.t.t.t.t.t.t.t.t.t.t.t.t.t.t.t.t.t.          t.t.t.t.t.t.t.t.t.",
"t.t.t.t.t.t.t.t.t.t.t.t.t.t.t.t.t.t.t.t.t.t.t.t.t.t.t.t.t.t.t.t.t.t.t.t.t.t.t.t.t.t.t.t.t.t.t.t.t.t."
};
