/* XPM */
static char *result[] = {
/* columns rows colors chars-per-pixel */
"35 35 140 2 ",
"   c black",
".  c #000408",
"X  c gray3",
"o  c #110900",
"O  c #000810",
"+  c #0D131F",
"@  c #380F06",
"#  c #3B120C",
"$  c #301A0F",
"%  c #381E12",
"&  c #151D31",
"*  c #1D2129",
"=  c #202020",
"-  c #58150C",
";  c #60160C",
":  c #6D190F",
">  c #621E13",
",  c #533E08",
"<  c #5E331D",
"1  c #742317",
"2  c #61351D",
"3  c #6E520D",
"4  c #76590E",
"5  c #7B4315",
"6  c #7B5C10",
"7  c #7D5A1A",
"8  c #664C09",
"9  c #7A4B2C",
"0  c #243154",
"q  c #2C3B66",
"w  c #484E5A",
"e  c #4C525F",
"r  c #666D7D",
"t  c #951D0F",
"y  c #9E1D0E",
"u  c #801F12",
"i  c #86190C",
"p  c #AC1E0F",
"a  c #B21E0E",
"s  c #A81F10",
"d  c #8F2B19",
"f  c #9E301D",
"g  c #B8200F",
"h  c #AE2111",
"j  c #B42719",
"k  c #B22B18",
"l  c #C4200E",
"z  c #CE200E",
"x  c #C52817",
"c  c #CE2916",
"v  c #C42919",
"b  c #C62211",
"n  c #D32716",
"m  c #D32C1B",
"M  c #D63D1D",
"N  c #D93221",
"B  c #D53120",
"V  c #824714",
"C  c #804C15",
"Z  c #8D5613",
"A  c #8D690E",
"S  c #8F6316",
"D  c #997317",
"F  c #8F5B30",
"G  c #9C5531",
"H  c #AB4421",
"J  c #A35833",
"K  c #A56D39",
"L  c #B7793F",
"P  c #D84521",
"I  c #AD6C41",
"U  c #B8754B",
"Y  c #BE7B50",
"T  c #B68815",
"R  c #B18D33",
"E  c #D19C15",
"W  c #EFB41C",
"Q  c #FEBB14",
"!  c #D5962F",
"~  c #D79730",
"^  c #C59828",
"/  c #CEA02C",
"(  c #E5AB26",
")  c #E4B12F",
"_  c #EBB328",
"`  c #F0B523",
"'  c #FFC73F",
"]  c #FFC83F",
"[  c #BE804F",
"{  c #C68D58",
"}  c #C48155",
"|  c #CF965F",
" . c #EC8A42",
".. c #D59B66",
"X. c #DCA26C",
"o. c #C3AE77",
"O. c #C6B177",
"+. c #CCB579",
"@. c #C8B378",
"#. c #D4BC7B",
"$. c #D8BF7C",
"%. c #E7AC75",
"&. c #FFC941",
"*. c #DAC17D",
"=. c #D7C07F",
"-. c #FFD366",
";. c #3A4F87",
":. c #747C8E",
">. c #4E6AB3",
",. c #9DA7BE",
"<. c #CEB981",
"1. c #D4BE82",
"2. c #D7C083",
"3. c #DCC483",
"4. c #DCC68A",
"5. c #DFC98C",
"6. c #DAC792",
"7. c #DEC993",
"8. c #DFCC9A",
"9. c #E0C783",
"0. c #E3CA85",
"q. c #E3CB8B",
"w. c #E9CF8A",
"e. c #E9CE87",
"r. c #FFC38C",
"t. c #E9D18E",
"y. c #E3CD92",
"u. c #E2CF99",
"i. c #E6D095",
"p. c #EBD393",
"a. c #E6D29B",
"s. c #EBD59A",
"d. c #EED89E",
"f. c #E5D4A1",
"g. c #EAD7A4",
"h. c #EED9A2",
"j. c #EEDBA9",
"k. c #F1DEAB",
"l. c #F1DFB2",
"z. c #D2DEFC",
/* pixels */
"d.3.5.3.*.p.i.4.0.5.i.3.8.3.s.@.a.#.i.5.s.9.p.q.3.a.#.4.h.#.j.p.q.s.O.",
"a.4.q.                p.3.*.*.d.e.y.q.9.t.s.e.i.4.4.0.5.4.w.h.3.l.#.3.",
"p.4.  , ] ] ] ] ( E ,   6.#.8.5.4.2.h.1.g.8.q.#.p.2.y.q.w.w.y.q.h.3.#.",
"0.  A ] 7 7 H H C S E ,   s.3.i.e.*.t.y.3.t.f.q.q.3.t.<.j.0.p.*.p.q.3.",
"  , E 7 R ' ' ! 6 > , D ,   i.4.p.3.=.j.*.w.e.s.3.3.q.a.q.d.3.9.y.0.3.",
"  E 7 R -._ Q W ~ 6 # , D   y.#.9.i.h.0.3.d.q.#.9.y.i.3.s.i.0.t.#.w.4.",
"  ] 7 -.&.Q ' Q ~ 6 > # T ,   @.p.3.j.4.i.5.0.*.t.*.i.p.a.u.1.q.*.0.k.",
"  &.1 -.( W _ ' ~ 6 > # T D   3.0.g.q.q.t.=.q.9.y.i.0.p.q.i.0.*.a.1.d.",
"  ] 1 ^ -.-.&.( R 1 1 > T D   3.p.p.4.p.q.*.d.<.w.i.d.3.s.#.i.*.6.h.#.",
"  D d P  . . . .j f > 5 T 3   g.9.q.s.q.q.#.4.w.q.t.s.t.4.4.4.d.#.p.w.",
"h.  / d M M M M z 1 V E T ,         s.p.q.O.0.i.y.p.q.t.3.0.p.2.s.q.p.",
"3.  , ] D Z 5 5 5 Z E ) , o   : K K   3.5.5.t.+.i.t.q.i.*.q.3.t.h.#.d.",
"a.7.  , &.] -.-.-.&.) 8 = @ : h { r.G   0.q.*.h.*.j.=.q.4.d.3.q.*.p.k.",
"#.p.#.  % D D D D 4 , = @ : N x K { { . p.q.+.h.3.s.w.4.3.t.3.a.p.j.+.",
"=.e.4.  G < < : = = = * : p m v < F r.G . o.p.p.0.j.3.#.i.=.s.i.0.p.7.",
"5.#.*.e.  r.< i l g g h s a N N ; < | r.G             5.#.q.a.f.4.0.4.",
"q.3.4.y.  G | % p N z z z z g N h $ 2 K r.| | Y G 2 G   q.1.d.4.h.#.w.",
"4.t.o.h.#.  I < t B l z z z z l c y # 2 G X.r.r.r.r.r.Y   p.3.p.a.q.3.",
"0.w.@.p.3.7.  I < - m l l l l g a p y - @ < 2 2 L L r.J   y.u.w.a.0.3.",
"q.o.k.1.9.0.h.      n z l l g g n p z s y ; # @ # 2 J 2   h.#.a.q.q.f.",
"p.#.3.h.i.1.t.p.5.y.  n z B m m l l l m k j 1 & &       * w.d.4.*.e.i.",
"w.a.p.4.3.p.h.#.h.3.  - p b b b b m m z h v i 0 ;.q & r e   *.q.p.0.3.",
"y.y.a.q.y.q.1.d.#.p.4.  - B N N N z z j v 1 0 >.>.;.0 ,.e   .     *.k.",
"$.s.*.p.y.0.*.w.3.*.s.*.  p k a g h a m d 0 ;.;.q 0 & z.e % 2 r.U   e.",
"3.q.p.3.0.9.$.p.0.3.#.q.5.  m m m m m 0 & +       e ,.:.% I 9 < {   *.",
"q.1.k.$.7.#.d.+.*.0.q.#.s.i.  & q q q q 0 +   d.+.. . % 9 X.I %.2   *.",
"y.7.y.9.*.#.w.y.*.$.q.7.3.a.9.  & 0 0 0 & w *   #.q.p.  G r.X.X.U   y.",
"3.0.3.q.q.4.$.4.s.3.3.0.a.u.9.a.O :.z.z.,.:.*     p.y.a.  G r.r.G   *.",
"a.*.0.9.q.0.4.w.#.w.y.y.d.y.e.2.i.. % < 2 % % U G   q.d.  % } G %   q.",
"$.s.*.q.3.9.3.q.i.q.i.3.e.j.2.y.p.q.  % G G % % G   q.a.i.        a.1.",
"h.9.#.*.p.q.q.a.1.d.i.q.i.3.q.s.3.3.9.. G X.I %.<   q.p.#.p.9.*.y.3.w.",
"3.4.0.9.q.a.1.p.q.d.0.y.t.a.+.y.q.O.5.  < r.X...U   d.7.e.*.9.0.q.e.q.",
"y.@.y.e.5.y.p.w.5.i.4.u.q.p.#.0.*.q.y.q.  G r.r.G   y.p.3.1.y.0.w.q.a.",
"w.4.9.e.h.3.4.p.y.y.4.w.9.y.*.4.y.$.a.q.  % } G %   $.y.1.w.s.9.q.a.4.",
"q.q.*.q.p.a.*.s.3.p.e.4.9.4.3.p.1.p.#.5.p.    X   h.4.*.*.p.9.p.y.a.q."
};
