/* XPM */
static char *result[] = {
/* columns rows colors chars-per-pixel */
"50 50 126 2 ",
"   c black",
".  c #000400",
"X  c #080000",
"o  c #000408",
"O  c #0B0C0C",
"+  c #110900",
"@  c #0B0F17",
"#  c #2A1E03",
"$  c #3A110B",
"%  c #3C130D",
"&  c #381E12",
"*  c #382011",
"=  c #151D31",
"-  c #202020",
";  c #2F353F",
":  c #4F130B",
">  c #5C160E",
",  c #6D190F",
"<  c #7B190E",
"1  c #611D12",
"2  c #621E13",
"3  c #731E12",
"4  c #452A09",
"5  c #533E08",
"6  c #563F08",
"7  c #5F341D",
"8  c #742317",
"9  c #733E24",
"0  c #664C09",
"q  c #71560D",
"w  c #76590E",
"e  c #7B4315",
"r  c #7B5C10",
"t  c #7A4D2A",
"y  c #7C542E",
"u  c #202C4A",
"i  c #202D4B",
"p  c #2A3A63",
"a  c #2F406C",
"s  c #4C525F",
"d  c #70675E",
"f  c #434C62",
"g  c #9D1D0E",
"h  c #801F12",
"j  c #8F1E11",
"k  c #901F11",
"l  c #A71F10",
"z  c #A81F10",
"x  c #9E301D",
"c  c #BC200F",
"v  c #BD200F",
"b  c #A42010",
"n  c #AE2111",
"m  c #A12519",
"M  c #B02514",
"N  c #BD2313",
"B  c #B32719",
"V  c #B22B18",
"C  c #BF2B1B",
"Z  c #A33911",
"A  c #A73D1F",
"S  c #B8371D",
"D  c #CE200E",
"F  c #CD2B19",
"G  c #D42A19",
"H  c #D72F1E",
"J  c #D63D1D",
"K  c #D83221",
"L  c #D93221",
"P  c #DF3F2E",
"I  c #824714",
"U  c #8D5613",
"Y  c #997317",
"T  c #885834",
"R  c #9C5531",
"E  c #A56D39",
"W  c #D84521",
"Q  c #E74D3D",
"!  c #AE6C42",
"~  c #AE7845",
"^  c #AD7D4A",
"/  c #B68815",
"(  c #BD9125",
")  c #B18D33",
"_  c #D19C15",
"`  c #EFB41C",
"'  c #FFBB12",
"]  c #FBB915",
"[  c #FFBC15",
"{  c #C59828",
"}  c #CC9D2B",
"|  c #D79730",
" . c #CEA02C",
".. c #EAAF20",
"X. c #E1A42C",
"o. c #E6AF28",
"O. c #E4B12F",
"+. c #EBB328",
"@. c #F0B523",
"#. c #FFC73F",
"$. c #FFC83E",
"%. c #FFC83F",
"&. c #AD825A",
"*. c #BA8755",
"=. c #BD966B",
"-. c #C68D58",
";. c #CF955F",
":. c #CF965F",
">. c #EC8A42",
",. c #DCA16B",
"<. c #DEA66B",
"1. c #F1B67F",
"2. c #FFC940",
"3. c #FFC942",
"4. c #FFD366",
"5. c #3A4F87",
"6. c #747C8E",
"7. c #99A2B9",
"8. c #A7A8A7",
"9. c #DEB284",
"0. c #E7BA94",
"q. c #FFC38C",
"w. c #EFC794",
"e. c #D2DEFC",
"r. c #F3EDE7",
"t. c None",
/* pixels */
"t.t.t.t.t.t.t.t.t.t.t.t.t.t.t.t.t.t.t.t.t.t.t.t.t.t.t.t.t.t.t.t.t.t.t.t.t.t.t.t.t.t.t.t.t.t.t.t.t.t.",
"t.t.t.t.t.t.t.t.t.t.t.t.t.t.t.t.t.t.t.t.t.t.t.t.t.t.t.t.t.t.t.t.t.t.t.t.t.t.t.t.t.t.t.t.t.t.t.t.t.t.",
"t.t.t.t.t.t.t.t.t.t.t.t.t.t.t.t.t.t.t.t.t.t.t.t.t.t.t.t.t.t.t.t.t.t.t.t.t.t.t.t.t.t.t.t.t.t.t.t.t.t.",
"t.t.t.t.t.t.t.t.t.t.t.t.t.t.t.t.t.t.t.t.t.t.t.t.t.t.t.t.t.t.t.t.t.t.t.t.t.t.t.t.t.t.t.t.t.t.t.t.t.t.",
"t.t.t.t.t.t.t.t.t.t.t.t.t.t.t.t.t.t.t.t.t.t.t.t.t.t.t.t.t.t.t.t.t.t.t.t.t.t.t.t.t.t.t.t.t.t.t.t.t.t.",
"t.t.t.t.t.t.t.t.t.t.t.t.t.t.t.t.t.t.t.t.t.t.t.t.t.t.t.t.t.t.t.t.t.t.t.t.t.t.t.t.t.t.t.t.t.t.t.t.t.t.",
"t.t.t.t.t.t.t.t.t.t.t.t.t.t.t.t.t.t.t.t.t.t.t.t.t.t.t.t.t.t.t.t.t.t.t.t.t.t.t.t.t.t.t.t.t.t.t.t.t.t.",
"t.t.t.t.t.t.t.t.t.t.t.t.t.t.t.t.t.t.t.t.t.t.t.t.t.t.t.t.t.t.t.t.t.t.t.t.t.t.t.t.t.t.t.t.t.t.t.t.t.t.",
"t.t.t.t.t.t.t.t.t.t.t.t.t.t.t.t.t.t.t.t.t.t.t.t.t.t.t.t.t.t.t.t.t.t.t.t.t.t.t.t.t.t.t.t.t.t.t.t.t.t.",
"t.t.t.t.t.t.t.t.t.t.t.t.t.t.t.t.t.t.t.t.t.t.t.t.t.t.t.t.t.t.t.t.t.t.t.t.t.t.t.t.t.t.t.t.t.t.t.t.t.t.",
"t.t.t.t.t.t.t.t.t.t.t.t.t.t.t.t.t.t.t.t.t.t.t.t.t.t.t.t.t.t.t.t.t.t.t.t.t.t.t.t.t.t.t.t.t.t.t.t.t.t.",
"t.t.t.t.t.t.t.t.t.t.t.t.t.t.t.t.t.t.t.t.t.t.t.t.t.t.t.t.t.t.t.t.t.t.t.t.t.t.t.t.t.t.t.t.t.t.t.t.t.t.",
"t.t.t.t.t.t.t.t.t.t.t.t.t.t.t.t.t.t.t.t.t.t.t.t.t.t.t.t.t.t.t.t.t.t.t.t.t.t.t.t.t.t.t.t.t.t.t.t.t.t.",
"t.t.t.t.t.t.t.t.t.t.t.t.t.t.t.t.t.t.t.t.t.t.t.t.t.t.t.t.t.t.t.t.t.t.t.t.t.t.t.t.t.t.t.t.t.t.t.t.t.t.",
"t.t.t.t.t.t.t.t.t.t.t.t.t.t.t.t.t.t.          t.t.t.t.t.t.t.t.t.t.t.t.t.t.t.t.t.t.t.t.t.t.t.t.t.t.t.",
"t.t.t.t.t.t.t.t.t.t.t.t.t.t.t.t.t.  ) #.#.| r     t.t.t.t.t.t.t.t.t.t.t.t.t.t.t.t.t.t.t.t.t.t.t.t.t.",
"t.t.t.t.t.t.t.t.t.t.t.t.t.t.t.t.  ) 4...] ` | r %     t.t.t.t.t.t.t.t.t.t.t.t.t.t.t.t.t.t.t.t.t.t.t.",
"t.t.t.t.t.t.t.t.t.t.t.t.t.t.t.  % 4.2.[ $.' | r 2 % 5   t.t.t.t.t.t.t.t.t.t.t.t.t.t.t.t.t.t.t.t.t.t.",
"t.t.t.t.t.t.t.t.t.t.t.t.t.t.  Y 8 4.o.@.+.2.| r 2 % Y 5   t.t.t.t.t.t.t.t.t.t.t.t.t.t.t.t.t.t.t.t.t.",
"t.t.t.t.t.t.t.t.t.t.t.t.t.t.   .8 { 4.4.3.X.| 8 8 4 Y Y   t.t.t.t.t.t.t.t.t.t.t.t.t.t.t.t.t.t.t.t.t.",
"t.t.t.t.t.t.t.t.t.t.t.t.t.t.   .S W >.>.>.>.V x 8 I / Y         t.t.t.t.t.t.t.t.t.t.t.t.t.t.t.t.t.t.",
"t.t.t.t.t.t.t.t.t.t.t.t.t.t.  Y  .S J J J J D 8 e _ / 6   7 E E     t.t.t.t.t.t.t.t.t.t.t.t.t.t.t.t.",
"t.t.t.t.t.t.t.t.t.t.t.t.t.t.t.  } %.Y U e e e U _ O.5 + 2 z q.q.-.E   o t.t.t.t.t.t.t.t.t.t.t.t.t.t.",
"t.t.t.t.t.t.t.t.t.t.t.t.t.t.t.  5 ( %.%.4.4.4.%.O.0 #   2 z ;.;.-.-.-.7 o   t.t.t.t.t.t.t.t.t.t.t.t.",
"t.t.t.t.t.t.t.t.t.t.t.t.t.t.t.t.    5 q w Y Y w 5 # - O $ P A E 7 E 1.q.E 7   t.t.t.t.t.t.t.t.t.t.t.",
"t.t.t.t.t.t.t.t.t.t.t.t.t.t.t.t.t.    d   0.r.  8.y   1 k D L z 7 7 7 E :.:.R   t.t.t.t.t.t.t.t.t.t.",
"t.t.t.t.t.t.t.t.t.t.t.t.t.t.t.t.t.t.    & &.0.w.<.y & 1 M G D L 1       7 E q.R o t.t.t.t.t.t.t.t.t.",
"t.t.t.t.t.t.t.t.t.t.t.t.t.t.t.t.t.t.  -.R & &.=.^ 7 E 1 M G K D l $   t.  7 -.q.R   t.t.t.t.t.t.t.t.",
"t.t.t.t.t.t.t.t.t.t.t.t.t.t.t.t.t.t.  R -.R & 7 7 E 9.t M G K D g < ,       -.q.-.  t.t.t.t.t.t.t.t.",
"t.t.t.t.t.t.t.t.t.t.t.t.t.t.t.t.t.t.t.  q.& 9 : D k *.~ D D K D g g j > >   R q.q.R . t.t.t.t.t.t.t.",
"t.t.t.t.t.t.t.t.t.t.t.t.t.t.t.t.t.t.t.  R R &   k D k k D F K D g c b 3 m   -.7 -.-.X t.t.t.t.t.t.t.",
"t.t.t.t.t.t.t.t.t.t.t.t.t.t.t.t.t.t.t.t.      t.  k : ' Q D D D F v j j m     R * R   t.t.t.t.t.t.t.",
"t.t.t.t.t.t.t.t.t.t.t.t.t.t.t.t.t.t.t.t.t.t.t.t.t.  k k : Q Q K F c b H h =     . .   t.t.t.t.t.t.t.",
"t.t.t.t.t.t.t.t.t.t.t.t.t.t.t.t.t.t.t.t.t.t.t.t.t.t.  D k Z ' F N n C h u a a u   s s   t.t.t.t.t.t.",
"t.t.t.t.t.t.t.t.t.t.t.t.t.t.t.t.t.t.t.t.t.t.t.t.t.t.  : D k : h B B h = u 5.5.i = 7.s 7     t.t.t.t.",
"t.t.t.t.t.t.t.t.t.t.t.t.t.t.t.t.t.t.t.t.t.t.t.t.t.t.t.  : : = u = =       = a i f e.s q.R 7   t.t.t.",
"t.t.t.t.t.t.t.t.t.t.t.t.t.t.t.t.t.t.t.t.t.t.t.t.t.t.t.t.  p 5.5.u =   t.t.  f 7.e.6.R -.q.! 7   t.t.",
"t.t.t.t.t.t.t.t.t.t.t.t.t.t.t.t.t.t.t.t.t.t.t.t.t.t.t.t.  = 5.5.u u =   t.t.          ,.q.-.T   t.t.",
"t.t.t.t.t.t.t.t.t.t.t.t.t.t.t.t.t.t.t.t.t.t.t.t.t.t.t.t.t.  p 5.5.u ; ; . t.t.t.t.t.  7 ,.7 7   t.t.",
"t.t.t.t.t.t.t.t.t.t.t.t.t.t.t.t.t.t.t.t.t.t.t.t.t.t.t.t.t.t.@ u a a 6.; o o t.t.t.t.  -.7 -.T   t.t.",
"t.t.t.t.t.t.t.t.t.t.t.t.t.t.t.t.t.t.t.t.t.t.t.t.t.t.t.t.t.t.  6.e.e.6.,.R 7 o t.t.t.  q.7 ,.7   t.t.",
"t.t.t.t.t.t.t.t.t.t.t.t.t.t.t.t.t.t.t.t.t.t.t.t.t.t.t.t.t.t.t.      7 -.q.! 7   t.t.t.        t.t.t.",
"t.t.t.t.t.t.t.t.t.t.t.t.t.t.t.t.t.t.t.t.t.t.t.t.t.t.t.t.t.t.t.t.t.t.  q.q.-.T   t.t.t.t.t.t.t.t.t.t.",
"t.t.t.t.t.t.t.t.t.t.t.t.t.t.t.t.t.t.t.t.t.t.t.t.t.t.t.t.t.t.t.t.t.t.  7 q.7 7   t.t.t.t.t.t.t.t.t.t.",
"t.t.t.t.t.t.t.t.t.t.t.t.t.t.t.t.t.t.t.t.t.t.t.t.t.t.t.t.t.t.t.t.t.t.. T 7 -.T   t.t.t.t.t.t.t.t.t.t.",
"t.t.t.t.t.t.t.t.t.t.t.t.t.t.t.t.t.t.t.t.t.t.t.t.t.t.t.t.t.t.t.t.t.t.  ,.7 q.7   t.t.t.t.t.t.t.t.t.t.",
"t.t.t.t.t.t.t.t.t.t.t.t.t.t.t.t.t.t.t.t.t.t.t.t.t.t.t.t.t.t.t.t.t.t.t.        t.t.t.t.t.t.t.t.t.t.t.",
"t.t.t.t.t.t.t.t.t.t.t.t.t.t.t.t.t.t.t.t.t.t.t.t.t.t.t.t.t.t.t.t.t.t.t.t.t.t.t.t.t.t.t.t.t.t.t.t.t.t.",
"t.t.t.t.t.t.t.t.t.t.t.t.t.t.t.t.t.t.t.t.t.t.t.t.t.t.t.t.t.t.t.t.t.t.t.t.t.t.t.t.t.t.t.t.t.t.t.t.t.t.",
"t.t.t.t.t.t.t.t.t.t.t.t.t.t.t.t.t.t.t.t.t.t.t.t.t.t.t.t.t.t.t.t.t.t.t.t.t.t.t.t.t.t.t.t.t.t.t.t.t.t."
};
