/* XPM */
static char *result[] = {
/* columns rows colors chars-per-pixel */
"50 50 142 2 ",
"   c black",
".  c #000400",
"X  c #000408",
"o  c #06090F",
"O  c gray3",
"+  c #110900",
"@  c #000810",
"#  c #0D131F",
"$  c #380F06",
"%  c #3A110B",
"&  c #3C130D",
"*  c #301A0F",
"=  c #381E12",
"-  c #151D31",
";  c #202020",
":  c #2B2E34",
">  c #58150C",
",  c #5C160E",
"<  c #60160C",
"1  c #6D190F",
"2  c #621E13",
"3  c #533E08",
"4  c #563F08",
"5  c #5B311D",
"6  c #5F341D",
"7  c #742317",
"8  c #60341D",
"9  c #64361E",
"0  c #664C09",
"q  c #6E520D",
"w  c #76590E",
"e  c #7B4315",
"r  c #7A5A11",
"t  c #7B5C10",
"y  c #7D5A1A",
"u  c #724224",
"i  c #7A4B2C",
"p  c #243154",
"a  c #2C3B66",
"s  c #2C3D66",
"d  c #2E3E6B",
"f  c #484E5A",
"g  c #4C525F",
"h  c #86190C",
"j  c #85190E",
"k  c #931D0F",
"l  c #971C0E",
"z  c #9E1D0E",
"x  c #801F12",
"c  c #AA1D0E",
"v  c #AE1F0F",
"b  c #B21E0E",
"n  c #A81F10",
"m  c #8F2B19",
"M  c #9E2012",
"N  c #9E301D",
"B  c #B8200F",
"V  c #BD200F",
"C  c #AE2111",
"Z  c #AF2516",
"A  c #B32719",
"S  c #B22B18",
"D  c #BB2919",
"F  c #C3200E",
"G  c #C4200E",
"H  c #CC200E",
"J  c #CD200E",
"K  c #CC210E",
"L  c #CE200E",
"P  c #C32212",
"I  c #CD2210",
"U  c #CE2916",
"Y  c #C42919",
"T  c #D32716",
"R  c #D32817",
"E  c #D42A19",
"W  c #D42A1A",
"Q  c #D32D1B",
"!  c #D52C1A",
"~  c #D63D1D",
"^  c #D53120",
"/  c #D83120",
"(  c #D83221",
")  c #D93221",
"_  c #824714",
"`  c #804C15",
"'  c #8D5613",
"]  c #8D690E",
"[  c #8F6316",
"{  c #997317",
"}  c #9C5531",
"|  c #AB4421",
" . c #A35833",
".. c #A36C38",
"X. c #A46D39",
"o. c #A56D39",
"O. c #B7793F",
"+. c #D84521",
"@. c #AD6C41",
"#. c #B8754B",
"$. c #BE7B50",
"%. c #B68815",
"&. c #B18D33",
"*. c #D19C15",
"=. c #EFB41C",
"-. c #FFBB12",
";. c #FBB915",
":. c #FFBC15",
">. c #C59828",
",. c #D5962F",
"<. c #D79730",
"1. c #CEA02C",
"2. c #E1AB24",
"3. c #EAAF20",
"4. c #E1A42C",
"5. c #E6AF28",
"6. c #E4B12F",
"7. c #EBB328",
"8. c #F0B523",
"9. c #FFC73F",
"0. c #FFC83E",
"q. c #FFC83F",
"w. c #BC824E",
"e. c #C48155",
"r. c #C68D58",
"t. c #CF965F",
"y. c #EC8A42",
"u. c #DCA26C",
"i. c #E3A573",
"p. c #E7AC75",
"a. c #EBAE7A",
"s. c #FFC940",
"d. c #FFC942",
"f. c #FFD366",
"g. c #3A4F87",
"h. c #747C8E",
"j. c #4E6AB3",
"k. c #9DA7BE",
"l. c #FEC28B",
"z. c #FFC38C",
"x. c #D2DEFC",
"c. c None",
/* pixels */
"c.c.c.c.c.c.c.c.c.c.c.c.c.c.c.c.c.c.c.c.c.c.c.c.c.c.c.c.c.c.c.c.c.c.c.c.c.c.c.c.c.c.c.c.c.c.c.c.c.c.",
"c.c.c.c.c.c.c.c.c.c.c.c.c.c.c.c.c.c.c.c.c.c.c.c.c.c.c.c.c.c.c.c.c.c.c.c.c.c.c.c.c.c.c.c.c.c.c.c.c.c.",
"c.c.c.c.c.c.c.c.c.c.c.c.c.c.c.c.c.c.c.c.c.c.c.c.c.c.c.c.c.c.c.c.c.c.c.c.c.c.c.c.c.c.c.c.c.c.c.c.c.c.",
"c.c.c.c.c.c.c.c.c.c.c.c.c.c.c.c.c.c.c.c.c.c.c.c.c.c.c.c.c.c.c.c.c.c.c.c.c.c.c.c.c.c.c.c.c.c.c.c.c.c.",
"c.c.c.c.c.c.c.c.c.c.c.c.c.c.c.c.c.c.c.c.c.c.c.c.c.c.c.c.c.c.c.c.c.c.c.c.c.c.c.c.c.c.c.c.c.c.c.c.c.c.",
"c.c.c.c.c.c.c.c.c.c.c.c.c.c.c.c.c.c.c.c.c.c.c.c.c.c.c.c.c.c.c.c.c.c.c.c.c.c.c.c.c.c.c.c.c.c.c.c.c.c.",
"c.c.c.c.c.c.c.c.c.c.c.c.c.c.c.c.c.c.c.c.c.c.c.c.c.c.c.c.c.c.c.c.c.c.c.c.c.c.c.c.c.c.c.c.c.c.c.c.c.c.",
"c.c.c.c.c.c.c.c.c.c.c.c.c.c.c.c.c.c.c.c.c.c.c.c.c.c.c.c.c.c.c.c.c.c.c.c.c.c.c.c.c.c.c.c.c.c.c.c.c.c.",
"c.c.c.c.c.c.c.c.c.c.c.c.c.c.c.c.c.c.c.c.c.c.c.c.c.c.c.c.c.c.c.c.c.c.c.c.c.c.c.c.c.c.c.c.c.c.c.c.c.c.",
"c.c.c.c.c.c.c.c.c.c.c.c.c.c.c.c.c.c.c.c.c.c.c.c.c.c.c.c.c.c.c.c.c.c.c.c.c.c.c.c.c.c.c.c.c.c.c.c.c.c.",
"c.c.c.c.c.c.c.c.c.c.c.c.c.c.c.c.c.c.c.c.c.c.c.c.c.c.c.c.c.c.c.c.c.c.c.c.c.c.c.c.c.c.c.c.c.c.c.c.c.c.",
"c.c.c.c.c.c.c.c.c.c.c.c.c.c.c.c.c.c.c.c.c.c.c.c.c.c.c.c.c.c.c.c.c.c.c.c.c.c.c.c.c.c.c.c.c.c.c.c.c.c.",
"c.c.c.c.c.c.c.c.c.c.c.c.c.c.c.c.c.c.c.c.c.c.c.c.c.c.c.c.c.c.c.c.c.c.c.c.c.c.c.c.c.c.c.c.c.c.c.c.c.c.",
"c.c.c.c.c.c.c.c.c.c.c.c.c.c.c.c.c.c.c.                c.c.c.c.c.c.c.c.c.c.c.c.c.c.c.c.c.c.c.c.c.c.c.",
"c.c.c.c.c.c.c.c.c.c.c.c.c.c.c.c.c.c.  3 q.q.q.q.2.*.3   c.c.c.c.c.c.c.c.c.c.c.c.c.c.c.c.c.c.c.c.c.c.",
"c.c.c.c.c.c.c.c.c.c.c.c.c.c.c.c.c.  ] q.y y | | ` [ *.3   c.c.c.c.c.c.c.c.c.c.c.c.c.c.c.c.c.c.c.c.c.",
"c.c.c.c.c.c.c.c.c.c.c.c.c.c.c.c.  3 *.y &.9.9.,.r 2 3 { 3   c.c.c.c.c.c.c.c.c.c.c.c.c.c.c.c.c.c.c.c.",
"c.c.c.c.c.c.c.c.c.c.c.c.c.c.c.c.  *.y &.f.3.;.=.<.t & 3 {   c.c.c.c.c.c.c.c.c.c.c.c.c.c.c.c.c.c.c.c.",
"c.c.c.c.c.c.c.c.c.c.c.c.c.c.c.c.  q.y f.s.:.0.-.<.t 2 & %.3   c.c.c.c.c.c.c.c.c.c.c.c.c.c.c.c.c.c.c.",
"c.c.c.c.c.c.c.c.c.c.c.c.c.c.c.c.  q.7 f.5.8.7.s.<.t 2 & %.{   c.c.c.c.c.c.c.c.c.c.c.c.c.c.c.c.c.c.c.",
"c.c.c.c.c.c.c.c.c.c.c.c.c.c.c.c.  q.7 >.f.f.d.4.&.7 7 2 %.{   c.c.c.c.c.c.c.c.c.c.c.c.c.c.c.c.c.c.c.",
"c.c.c.c.c.c.c.c.c.c.c.c.c.c.c.c.  { m +.y.y.y.y.S N 2 _ %.q   c.c.c.c.c.c.c.c.c.c.c.c.c.c.c.c.c.c.c.",
"c.c.c.c.c.c.c.c.c.c.c.c.c.c.c.c.c.  1.m ~ ~ ~ ~ L 7 _ *.%.4         c.c.c.c.c.c.c.c.c.c.c.c.c.c.c.c.",
"c.c.c.c.c.c.c.c.c.c.c.c.c.c.c.c.c.  3 q.{ ' e e e ' *.6.3 +   1 o.o.@ c.c.c.c.c.c.c.c.c.c.c.c.c.c.c.",
"c.c.c.c.c.c.c.c.c.c.c.c.c.c.c.c.c.c.  3 q.q.f.f.f.q.6.0 ; $ 1 n z.z.}   c.c.c.c.c.c.c.c.c.c.c.c.c.c.",
"c.c.c.c.c.c.c.c.c.c.c.c.c.c.c.c.c.c.c.  = { { { { w 3 ; $ 1 ) n o.r.r.8   X           c.c.c.c.c.c.c.",
"c.c.c.c.c.c.c.c.c.c.c.c.c.c.c.c.c.c.c.  } 6 1 ; ; ; ; 1 1 n ) ) 6 ..z.z.w...o.o.} 8 }   c.c.c.c.c.c.",
"c.c.c.c.c.c.c.c.c.c.c.c.c.c.c.c.c.c.c.  } r.h h G n n n n B B ) ) < u t.z.z.z.l.z.z.z.$.  c.c.c.c.c.",
"c.c.c.c.c.c.c.c.c.c.c.c.c.c.c.c.c.c.c.c.  z.} h R G L L L L B V ) n < * * 8 u X.O.O.z. .  c.c.c.c.c.",
"c.c.c.c.c.c.c.c.c.c.c.c.c.c.c.c.c.c.c.c.  z.a.5 k / G L L L G G G ) n < %   X     9  .9   c.c.c.c.c.",
"c.c.c.c.c.c.c.c.c.c.c.c.c.c.c.c.c.c.c.c.  } a.@.5 M ! G G G G B B G z n < <   c.c.      c.c.c.c.c.c.",
"c.c.c.c.c.c.c.c.c.c.c.c.c.c.c.c.c.c.c.c.c.  r.@.= h Z E L G B B L U v L l , j   c.c.c.c.c.c.c.c.c.c.",
"c.c.c.c.c.c.c.c.c.c.c.c.c.c.c.c.c.c.c.c.c.  9 @.9 = > D T J ( W Q G F Q A l A -   c.c.c.c.c.c.c.c.c.",
"c.c.c.c.c.c.c.c.c.c.c.c.c.c.c.c.c.c.c.c.c.c.  } } 9 . > z c P I H G ) J A C Y - - X c.c.c.c.c.c.c.c.",
"c.c.c.c.c.c.c.c.c.c.c.c.c.c.c.c.c.c.c.c.c.c.c.      c.  h ^ K ) ) ) J A C Y a a p - X   c.c.c.c.c.c.",
"c.c.c.c.c.c.c.c.c.c.c.c.c.c.c.c.c.c.c.c.c.c.c.c.c.c.c.c.  h A b b b b Q Y a g.g.g.p - g   c.c.c.c.c.",
"c.c.c.c.c.c.c.c.c.c.c.c.c.c.c.c.c.c.c.c.c.c.c.c.c.c.c.c.c.  z Q Q Q z x a a j.j.g.g.p g g   c.c.c.c.",
"c.c.c.c.c.c.c.c.c.c.c.c.c.c.c.c.c.c.c.c.c.c.c.c.c.c.c.c.c.c.    a j.a - o # d j.j.s - h.g   c.c.c.c.",
"c.c.c.c.c.c.c.c.c.c.c.c.c.c.c.c.c.c.c.c.c.c.c.c.c.c.c.c.c.c.c.c.  - f h.f o # p p - h.k.g   c.c.c.c.",
"c.c.c.c.c.c.c.c.c.c.c.c.c.c.c.c.c.c.c.c.c.c.c.c.c.c.c.c.c.c.c.c.c.    = 6 = o h.k.x.x.h.: X     c.c.",
"c.c.c.c.c.c.c.c.c.c.c.c.c.c.c.c.c.c.c.c.c.c.c.c.c.c.c.c.c.c.c.c.c.c.c.  = 6 X X g g g :   6 z.#.  c.",
"c.c.c.c.c.c.c.c.c.c.c.c.c.c.c.c.c.c.c.c.c.c.c.c.c.c.c.c.c.c.c.c.c.c.c.  = e.} =   X @.i.@.i 6 r.  c.",
"c.c.c.c.c.c.c.c.c.c.c.c.c.c.c.c.c.c.c.c.c.c.c.c.c.c.c.c.c.c.c.c.c.c.c.c.    O   c.X 6 i.z.@.p.6   c.",
"c.c.c.c.c.c.c.c.c.c.c.c.c.c.c.c.c.c.c.c.c.c.c.c.c.c.c.c.c.c.c.c.c.c.c.c.c.c.c.c.c.c.  = z.u.u.#.  c.",
"c.c.c.c.c.c.c.c.c.c.c.c.c.c.c.c.c.c.c.c.c.c.c.c.c.c.c.c.c.c.c.c.c.c.c.c.c.c.c.c.c.c.c.  } z.z.}   c.",
"c.c.c.c.c.c.c.c.c.c.c.c.c.c.c.c.c.c.c.c.c.c.c.c.c.c.c.c.c.c.c.c.c.c.c.c.c.c.c.c.c.c.c.. = e.} =   c.",
"c.c.c.c.c.c.c.c.c.c.c.c.c.c.c.c.c.c.c.c.c.c.c.c.c.c.c.c.c.c.c.c.c.c.c.c.c.c.c.c.c.c.c.c.        c.c.",
"c.c.c.c.c.c.c.c.c.c.c.c.c.c.c.c.c.c.c.c.c.c.c.c.c.c.c.c.c.c.c.c.c.c.c.c.c.c.c.c.c.c.c.c.c.c.c.c.c.c.",
"c.c.c.c.c.c.c.c.c.c.c.c.c.c.c.c.c.c.c.c.c.c.c.c.c.c.c.c.c.c.c.c.c.c.c.c.c.c.c.c.c.c.c.c.c.c.c.c.c.c.",
"c.c.c.c.c.c.c.c.c.c.c.c.c.c.c.c.c.c.c.c.c.c.c.c.c.c.c.c.c.c.c.c.c.c.c.c.c.c.c.c.c.c.c.c.c.c.c.c.c.c."
};
