/* XPM */
static char *result[] = {
/* columns rows colors chars-per-pixel */
"35 35 144 2 ",
"   c #000000",
".  c #000408",
"X  c #06090F",
"o  c gray3",
"O  c #110900",
"+  c #000810",
"@  c #0D131F",
"#  c #380F06",
"$  c #3C130D",
"%  c #301A0F",
"&  c #381E12",
"*  c #151D31",
"=  c #202020",
"-  c #2D3139",
";  c #59150D",
":  c #60160C",
">  c #6D190F",
",  c #621E13",
"<  c #533E08",
"1  c #442514",
"2  c #5F341D",
"3  c #742317",
"4  c #61351D",
"5  c #6E520D",
"6  c #76590E",
"7  c #7B4315",
"8  c #7B5C10",
"9  c #7D5A1A",
"0  c #664C09",
"q  c #7A4B2C",
"w  c #202C4A",
"e  c #243154",
"r  c #2C3C66",
"t  c #2E3E6B",
"y  c #484E5A",
"u  c #4C525F",
"i  c #86190C",
"p  c #961C0E",
"a  c #9E1D0E",
"s  c #801F12",
"d  c #AC1E0F",
"f  c #B21E0E",
"g  c #A81F10",
"h  c #8F2B19",
"j  c #9E2012",
"k  c #9E301D",
"l  c #B9200F",
"z  c #AE2213",
"x  c #B32719",
"c  c #B72A19",
"v  c #C4200E",
"b  c #CE200E",
"n  c #C42919",
"m  c #CA2413",
"M  c #D32C1B",
"N  c #D32817",
"B  c #D63D1D",
"V  c #D93221",
"C  c #D53120",
"Z  c #824714",
"A  c #804C15",
"S  c #8D5613",
"D  c #8D690E",
"F  c #8F6316",
"G  c #997317",
"H  c #8F5B30",
"J  c #9C5531",
"K  c #AB4421",
"L  c #A35833",
"P  c #A56D39",
"I  c #B7793F",
"U  c #D84521",
"Y  c #AD6C41",
"T  c #B8754B",
"R  c #BE7B50",
"E  c #B68815",
"W  c #B18D33",
"Q  c #D19C15",
"!  c #EFB41C",
"~  c #FEBB14",
"^  c #D5962F",
"/  c #D79730",
"(  c #C59828",
")  c #CEA02C",
"_  c #E6AF28",
"`  c #E4AA25",
"'  c #E4B12F",
"]  c #EBB328",
"[  c #F0B523",
"{  c #FFC73F",
"}  c #FFC83F",
"|  c #C68D58",
" . c #C48155",
".. c #CF965F",
"X. c #EC8A42",
"o. c #D59B66",
"O. c #DCA26C",
"+. c #C4AF77",
"@. c #C6B177",
"#. c #CCB579",
"$. c #C8B378",
"%. c #D4BC7B",
"&. c #D8BF7C",
"*. c #E6AB74",
"=. c #FFC941",
"-. c #D7C07F",
";. c #DAC17D",
":. c #FFD366",
">. c #3A4F87",
",. c #747C8E",
"<. c #4E6AB3",
"1. c #9DA7BE",
"2. c #CEB981",
"3. c #D4BE82",
"4. c #D6C084",
"5. c #DCC483",
"6. c #DCC68A",
"7. c #DFC88C",
"8. c #D7C48F",
"9. c #DAC792",
"0. c #DEC992",
"q. c #DFCC9A",
"w. c #E0C783",
"e. c #E3CA85",
"r. c #E3CB8B",
"t. c #E9CF89",
"y. c #E9CE87",
"u. c #FFC38C",
"i. c #EAD18E",
"p. c #E3CD92",
"a. c #E2CF99",
"s. c #E7D095",
"d. c #EBD394",
"f. c #E6D29A",
"g. c #EBD59A",
"h. c #EED89E",
"j. c #E5D4A1",
"k. c #EAD7A2",
"l. c #EED9A2",
"z. c #EEDBA8",
"x. c #F0DDAA",
"c. c #F1DFB2",
"v. c #CDD9F7",
"b. c #D2DEFC",
/* pixels */
";.h.w.e.w.4.d.s.6.w.7.s.;.q.6.f.#.f.-.s.6.h.w.d.r.5.g.%.6.l.%.x.d.r.h.",
"6.f.6.            i.h.%.i.4.;.;.g.e.f.e.w.i.d.y.a.6.6.w.6.w.r.k.5.c.%.",
";.d.  < Q } } } G     d.;.9.%.s.e.6.&.k.3.j.q.s.%.d.4.s.r.i.d.p.r.k.5.",
"d.  D Q 9 9 3 3 h ) <   g.#.g.4.g.r.-.i.s.5.i.f.r.r.5.i.3.l.w.d.;.g.e.",
"  < { 9 W :.:.( U h } <     5.s.6.i.6.-.z.;.i.y.d.5.4.e.f.y.g.4.w.s.y.",
"  { 9 W :.=._ :.X.B G } & J     %.w.d.k.w.5.k.r.%.w.p.d.4.g.d.y.r.%.r.",
"  } 9 { [ ~ [ :.X.B S } G 4 u.J     ;.z.6.s.r.e.5.t.4.s.g.g.a.3.e.;.w.",
"  } K { ~ } ] =.X.B 7 :.G > i J u.J     r.d.;.e.w.p.s.w.d.y.a.w.w.g.3.",
"  } K ^ ! ~ } ` X.V 7 :.G = i i 2 Y | J   6.;.g.3.r.d.h.6.d.%.g.;.9.k.",
"  ` 7 8 / / / W x b 7 :.G = v N p 2 & P J   &.e.p.r.i.g.r.6.6.6.g.%.d.",
"  Q F , 8 8 8 3 k 3 S =.6 = g v C j i & J   @.e.s.a.i.r.i.5.w.d.4.h.r.",
"  < Q < $ , , 3 , 7 Q ' < = g b v M x ;     7.d.#.s.i.r.d.;.r.5.d.k.&.",
"3.  < G < $ $ , A Q ' 0 = > g b b v M c ;   r.;.l.;.z.-.p.6.h.5.w.;.d.",
"p.%.  < G E E E E E < = # > g b b v b N a i   #.k.5.d.i.w.w.i.6.f.s.l.",
"4.;.y.    < G G 6 < O # > z l b b v v b g C i   d.w.z.5.%.i.4.g.s.r.g.",
"-.6.%.5.y.            > V V l l v v l V v b c j     4.d.7.%.r.s.j.5.y.",
"%.r.5.5.d.#.f.6.w.  > g g V V l v l l N b V f M >.* + 5.e.e.3.k.6.l.%.",
"3.6.t.+.k.%.p.t.4.  P u.P 4 V V v l b M b V f M <.e 1.. e.p.i.5.g.g.w.",
"6.r.p.$.s.5.a.;.h.  P u.| P 2 g C v N v v V g M <.e b.&   5.p.0.r.g.w.",
"d.e.+.x.%.r.e.g.5.f.+ | | H 2 2 g g g v V b f M e e b.2 & . l.&.g.i.r.",
"4.d.%.w.h.d.3.d.d.r.  1 | | H % : g b M b x M g w y v.4 J 4   g.6.;.y.",
"%.t.f.d.6.5.d.h.%.k.5.  J u...4 $ : p x x g n s * ,.,.& J u.J     d.w.",
"6.p.p.f.e.a.e.4.g.%.d.6.. J ..P 2 : ; a f n s r e X - & & O.u.J &   ;.",
"k.&.f.w.d.d.e.;.i.4.;.g.;.. J u.P   s x n s r <.t @ + 2 & Y O.u. .  7.",
"g.5.e.d.w.r.w.%.i.w.6.%.r.0.  ..O.2 . * * r >.<.<.e ,.. & *.o.u.J o k.",
"r.r.3.z.&.r.%.l.%.w.w.e.&.f.  J u.P %   * e >.>.<.e 1.. J 4 T J &   ;.",
"l.i.9.p.e.3.%.t.p.;.%.r.p.5.g.  ..*.4   . * e >.r * b.&           8.;.",
"x.&.r.5.r.r.7.%.6.g.w.5.w.a.a.  2 u.T 4   . * e * ,.b.& 4 . s.7.4.r.r.",
"%.g.&.r.w.r.w.6.i.&.r.p.p.h.p.  J u.u.L     u u ,.1.,.2 | 2   s.%.7.w.",
"r.&.h.&.r.5.w.w.e.d.p.d.;.y.z.4.  R L 4   3.  u u u & J | u.J     4.f.",
"&.l.w.%.w.d.r.r.d.3.g.d.r.f.6.w.g.      s.%.7.          & O.u.J &   4.",
"e.5.3.e.w.r.a.3.g.r.k.w.p.i.d.$.a.p.@.e.d.6.d.4.a.d.. 2 q Y O.u. .  y.",
"#.s.$.p.y.r.p.g.r.r.d.6.a.r.d.%.w.&.r.p.p.&.d.r.e.f.  u.2 *.O.u.J   r.",
"3.t.5.r.y.g.4.w.g.0.r.r.p.e.r.&.7.i.&.f.p.&.r.5.z.s.  T | 4 T J &   f.",
"t.r.r.3.y.d.k.3.f.w.d.e.w.w.5.6.d.3.g.%.7.d.a.6.z.$.l.            p.g."
};
