/* XPM */
static char *result[] = {
/* columns rows colors chars-per-pixel */
"35 35 139 2 ",
"   c #000000",
".  c #080000",
"X  c #000408",
"o  c #0B0C0C",
"O  c #110900",
"+  c #0B0F17",
"@  c #0D121E",
"#  c #2A1E03",
"$  c #3B120C",
"%  c #381E12",
"&  c #382011",
"*  c #151D31",
"=  c #202020",
"-  c #4F130B",
";  c #5C160E",
":  c #6D190F",
">  c #621E13",
",  c #731E12",
"<  c #533E08",
"1  c #5F341D",
"2  c #452A09",
"3  c #742317",
"4  c #76590E",
"5  c #71560D",
"6  c #7B4315",
"7  c #7B5C10",
"8  c #664C09",
"9  c #7A4D2A",
"0  c #7C542E",
"q  c #202C4A",
"w  c #243154",
"e  c #2F406C",
"r  c #334575",
"t  c #4C525F",
"y  c #70675E",
"u  c #9D1D0E",
"i  c #811F12",
"p  c #8B1F11",
"a  c #901F11",
"s  c #A71F10",
"d  c #A81F10",
"f  c #9E301D",
"g  c #BC200F",
"h  c #AE2111",
"j  c #A12519",
"k  c #B32719",
"l  c #BF2B1B",
"z  c #B82716",
"x  c #A73D1F",
"c  c #B8371D",
"v  c #C0200F",
"b  c #CE200E",
"n  c #D62E1D",
"m  c #D63D1D",
"M  c #D83221",
"N  c #DF3F2E",
"B  c #824714",
"V  c #8D5613",
"C  c #997317",
"Z  c #885834",
"A  c #9C5531",
"S  c #A56D39",
"D  c #D84521",
"F  c #E74D3D",
"G  c #AE6C42",
"H  c #AD7B4B",
"J  c #B68815",
"K  c #BD9125",
"L  c #B18D33",
"P  c #D19C15",
"I  c #EFB41C",
"U  c #FEBB13",
"Y  c #C99B2A",
"T  c #D79730",
"R  c #CEA02C",
"E  c #E6AB27",
"W  c #E4B12F",
"Q  c #EBB328",
"!  c #F0B523",
"~  c #FFC73F",
"^  c #FFC83F",
"/  c #AD825A",
"(  c #BD966B",
")  c #BBA875",
"_  c #C68D58",
"`  c #CF965F",
"'  c #EC8A42",
"]  c #DCA26B",
"[  c #C3AE77",
"{  c #C6B177",
"}  c #CCB67A",
"|  c #C8B378",
" . c #D4BC7B",
".. c #D8BF7C",
"X. c #F1B67F",
"o. c #FFC941",
"O. c #DBC27D",
"+. c #D7C07F",
"@. c #FFD366",
"#. c #3A4F87",
"$. c #747C8E",
"%. c #4E6AB3",
"&. c #9AA2B9",
"*. c #A7A8A7",
"=. c #CEB981",
"-. c #DEB284",
";. c #D4BE82",
":. c #E7BA94",
">. c #D6C084",
",. c #DCC483",
"<. c #DCC68A",
"1. c #DFC98C",
"2. c #D7C48F",
"3. c #DAC792",
"4. c #DEC992",
"5. c #DFCC9A",
"6. c #E0C783",
"7. c #E3CA85",
"8. c #E9CE86",
"9. c #E3CB8B",
"0. c #E8CF8A",
"q. c #FFC38C",
"w. c #EAD18E",
"e. c #E4CE92",
"r. c #E2CF99",
"t. c #EFC794",
"y. c #E6D095",
"u. c #EAD394",
"i. c #E6D29A",
"p. c #EBD59A",
"a. c #EED89E",
"s. c #E5D3A1",
"d. c #EAD6A2",
"f. c #EEDAA3",
"g. c #EDDBA9",
"h. c #F0DDAA",
"j. c #F1DFB2",
"k. c #D2DEFC",
"l. c #F3EDE7",
/* pixels */
"9.,.0.u.0.u.0.O.9.4...f.;.<.6.0.;.s.,.i.,.6.u.0.d. .h.O. .p.,.7.a.<.p.",
"O.d.,.<.6.O.u.y.<.6.9.y.,.r.<.u.} i. .y.<.a.6.p.9.,.p. .<.f. .h.p.9.p.",
"<.p.<.9.          0.a. .w.,...O.p.7.i.<.6.w.p.7.r.<.<.6.9.6.0.d.,.j. .",
"O.u.<.  L ~ ~ T 7     u...3.=.r.9.<.,.f.>.s.r.e. .u.;.y.9.0.e.e.7.f.,.",
"p.6.  L @.Q U I T 7 $     } p.,.p.6.O.w.0.<.0.s.9.0.,.e.=.f.9.u.O.u.7.",
"p.  $ @.o.U ~ U T 7 > $ <   6.y.6.u.<. .f...0.0.y.,.,.9.i.7.a.O.7.e.0.",
"  C 3 @.E Q Q ~ T 7 > $ C <   e. .6.u.d.6.,.a.9. .6.9.r.,.p.p.6.0.} 0.",
"  Y 3 Y @.@.o.E T 3 3 2 C C         ,.g.1.y.1.9.,.0.,.e.u.i.r.;.<.,.7.",
"  R c D ' ' ' ' k f 3 B J C   1 S S       X O.9.6.e.y.6.p.0.e.9.6.p.;.",
"  C R c m m m m b 3 6 P J <   d q.q._ _ S 1 X     e.u.a.,.u. .i.;.3.f.",
",.  Y o.C V 6 6 6 V P W < O > s ` ` _ _ X.q.S A 1   w.p.0.,.<.<.p. .u.",
"<.  < K o.o.@.@.@.^ W 8 #   $ N x S 1 S S S ` ` q.A X 0.w.<.6.u.,.a.7.",
"y.,.    < 5 4 C C 4 < # = o p b M d 1       1 S _ q.A   u.O.0.,.w.d. .",
";.i.1.  = y   :.l.  *.0   $ a b b M $   ,.6.    1 ] q.A   1.a.,.0.O.w.",
"0. .p.    A % / :.t.] 0 % > a b b b :   O.u.7.}   A q.q.A   0.2.i.e.g.",
";.>.7.6.  q.1 % / ( / 1 S > a n b b s $   s.[ y.  _ 1 _ _ . +.p.u.7.i.",
"..<. .6.  q._ 1 % 1 1 S -.> b n M b s : ;   >.p.7.  A & A   0.i.s.<.7.",
" .9.O.,.  A q.%   - a 9 -.a b M M b u u , ; X <.p.u.      0.;.a.<.f. .",
";.<.u.[ f.  q._ %   - b a N b M b b u u p j ;   0.e.9. .6.1.u.,.p.i.7.",
"<.7.e.| y.  q.% H     u - U F b b v u g z v i @   f.<.,.9.O.e.3.0.i.9.",
"u.7.{ h...  A A %   6.  b a - F b v M g h n 3 *   p.[ e.6.7.f.O.u.0.0.",
"O.u. .<.p.u.      <.3.;.  b a U F n z h k v w * @   ,.7.u.O.w.p.<.O.7.",
" .0.i.w.<.<.u.f.} d.6.<.6.X b - i n k k n 3 w w * *   O.6.f.w.O.e.u.6.",
"<.e.e.i.7.e.<.;.a. .u.6.7.  u * i i n k M w r r r q     } h.6.6.f.} O.",
"d.;.i.6.u.w.7.O.w.,.O.p.O.,.  + r * q i i w %.%.%.q * t   1.u.8.0.,.1.",
"u.<.7.u.;.0.7...u.6.>. .6.4.p.  + %.e t + * %.%.%.#.* $.t   f.,.p.) d.",
"0.9.;.h...9. .d. .O.,.9.O.p.y. .    $.k.t   #.#.#.#.e $.t X 0.<.7.7.,.",
"a.w.3.e.7.;. .0.y.O. .9.4.,.p.,.u.y.      1   q q e &.k.t         2.;.",
"h.6.7.O.9.9.2. .,.p.6.,.<.i.e.<.i.,.u.y.,.  _ X $.k.k.$.1 q._ A 1   0.",
" .i.O.7.6.9.7.,.w. .0.y.e.a.e.0.+.y.O.h...  ] 1 X         A q.q.G 1   ",
"9...a...<.,.7.,.1.w.e.u.+.7.f.,.y.u.9.1.,.;.          e.y.  ] q._ Z   ",
"..f.,. .6.u.9.9.i.;.a.p.9.u.<.6.p.,.O.6.e. .4.9.0.<.d.7.p.  1 ] 1 1   ",
"6.,.2.6.6.7.i.;.p.7.a.6.e.w.r.} r.9.{ 7.e.1.0.<.e.w.;.a.r.  _ 1 _ Z   ",
"} p.| e.7.9.e.u.e.7.p.,.r.9.u. .7...e.e.e...i.7.7.i.9.9.u.  q.1 ] 1   ",
";.0.,.6.0.a.<.6.p.3.9.9.e.7.9...<.w...i.9.;.9.6.h.i.9...e. .        i."
};
