/* XPM */
static char *result[] = {
/* columns rows colors chars-per-pixel */
"35 35 139 2 ",
"   c #000000",
".  c #080000",
"X  c #000408",
"o  c #0B0C0C",
"O  c #110900",
"+  c #0B0F17",
"@  c #2A1E03",
"#  c #3B120C",
"$  c #381E12",
"%  c #382011",
"&  c #151D31",
"*  c #202020",
"=  c #2F353F",
"-  c #4F130B",
";  c #5C160E",
":  c #6D190F",
">  c #7B190E",
",  c #611D12",
"<  c #731E12",
"1  c #533E08",
"2  c #5F341D",
"3  c #452A09",
"4  c #742317",
"5  c #76590E",
"6  c #71560D",
"7  c #7B4315",
"8  c #7B5C10",
"9  c #664C09",
"0  c #7A4D2A",
"q  c #7C542E",
"w  c #202C4A",
"e  c #243154",
"r  c #2F406C",
"t  c #334575",
"y  c #4C525F",
"u  c #70675E",
"i  c #9D1D0E",
"p  c #811F12",
"a  c #8D1F11",
"s  c #901F11",
"d  c #A71F10",
"f  c #A81F10",
"g  c #9E301D",
"h  c #BD200F",
"j  c #A12519",
"k  c #A92111",
"l  c #B32719",
"z  c #BA2817",
"x  c #A73D1F",
"c  c #B8371D",
"v  c #C0200F",
"b  c #CE200E",
"n  c #D62D1C",
"m  c #D63D1D",
"M  c #D83221",
"N  c #DF3F2E",
"B  c #824714",
"V  c #8D5613",
"C  c #997317",
"Z  c #885834",
"A  c #9C5531",
"S  c #A56D39",
"D  c #D84521",
"F  c #E74D3D",
"G  c #AE6C42",
"H  c #AD7B4B",
"J  c #B68815",
"K  c #BD9125",
"L  c #B18D33",
"P  c #D19C15",
"I  c #EFB41C",
"U  c #FEBB13",
"Y  c #C99B2A",
"T  c #D79730",
"R  c #CEA02C",
"E  c #E6AB27",
"W  c #E4B12F",
"Q  c #EBB328",
"!  c #F0B523",
"~  c #FFC73F",
"^  c #FFC83F",
"/  c #AD825A",
"(  c #BD966B",
")  c #C68D58",
"_  c #CF965F",
"`  c #EC8A42",
"'  c #DCA26B",
"]  c #C4AF77",
"[  c #C6B177",
"{  c #CCB579",
"}  c #C8B378",
"|  c #D4BC7B",
" . c #D8BF7C",
".. c #F1B67F",
"X. c #FFC941",
"o. c #D7C07F",
"O. c #DAC17D",
"+. c #FFD366",
"@. c #3A4F87",
"#. c #747C8E",
"$. c #4E6AB3",
"%. c #9AA2B9",
"&. c #A7A8A7",
"*. c #CEB981",
"=. c #DEB284",
"-. c #D4BE81",
";. c #E7BA94",
":. c #D6C084",
">. c #DCC483",
",. c #DCC68A",
"<. c #DFC88B",
"1. c #D7C48F",
"2. c #DAC792",
"3. c #DEC992",
"4. c #DFCC9A",
"5. c #E0C783",
"6. c #E3CA85",
"7. c #E3CB8B",
"8. c #E8CF8A",
"9. c #E9CE87",
"0. c #FFC38C",
"q. c #E7D08F",
"w. c #EAD18E",
"e. c #E3CD92",
"r. c #E2CF99",
"t. c #EFC794",
"y. c #E6D095",
"u. c #EAD393",
"i. c #E6D29B",
"p. c #EBD59B",
"a. c #EED89E",
"s. c #E5D4A1",
"d. c #EAD6A1",
"f. c #EED9A2",
"g. c #EFDCA8",
"h. c #F1DEAB",
"j. c #F1DFB2",
"k. c #D2DEFC",
"l. c #F3EDE7",
/* pixels */
">.7.w.8.u.8.O.7.e. .f. .,.<.7.-.i.>.i.>.5.u.7.f. .h.O.| y.:.8.f.>.f.u.",
"f.>.<.5.O.u.y.,.>.7.u.>.4.>.p.} i.o.y.<.p.6.p.7.:.u.| ,.f.| h.u.7.u.} ",
"p.,.<.7.        7.a.| u.>.>.O.p.6.r.7.5.7.p.7.e.,.,.7.6.5.8.f.:.j. .,.",
"u.<.y.  C R R C     u. .2.{ r.7.6.o.f.:.s.4.e. .u.-.e.7.8.e.q.8.f.>. .",
"6.>.  # 4 4 c Y Y 1   p.{ u.O.p.7. .q.e.5.w.p.7.8.>.q.*.g.5.u.O.p.7.O.",
">.  L +.+.Y D c X.K       >.y.6.u.>.O.g.O.8.7.u.>.:.7.p.7.a.>.6.7.7.:.",
"  L +.^ Q +.` m C X.1   A       5.u.f.6.>.a.7.| 6.e.u.:.p.u.6.7.| 7.<.",
"  X.E U ! +.` m V X.5 u   ' ) A       ,.e.7.7.>.8. .e.p.i.r.-.7.O.7.g.",
"  ~ U ~ ! X.` m 7 +.5   $ 2 A ) 0.0.A   w. .7.>.e.u.6.u.8.e.6.5.p.-.p.",
"  T I U ^ T ` D 7 +.C ;./ $ - $ ) $ A   7.O.p.| e.u.a.,.p.| p. .2.d. .",
"  8 T T T T l b 7 +.C l.;./ $ - $ H $   7. .6.e.7.8.a.7.,.6.,.i. .u.7.",
"f.  8 8 8 4 x 4 V X.5   t.( 2 s - $   u.7.[ 6.y.r.8.7.q.>.7.u.-.p.7.u.",
">.  # , , 4 4 7 P W 1 &.' H 2 0 b -   >.7.,.y.{ e.u.7.p.>.7.>.w.f.| a.",
"i.<.  # # 3 B P W 9 @ q q 2 S =.s b a   6.7.O.f.O.g. .e.>.a.>.7.O.w.h.",
"| u.  1 C C J J 1 @ *   % S =.=.0 - n b X   { f.O.a.7.5.5.7.:.i.u.g.{ ",
":.7.6.  1 C C 1 O   o # , , , s N U s b b -   u.5.g.>.| u.>.p.u.6.i.e.",
"6. .5.5.        , # a s s a b b b F - s b b s   u.,.u.7.| 7.i.i.,.7.>.",
"<.>.>.y.| p.>.  2 f f N b n n M n b F U - p & w   7.>.5.7. .d.,.f.| 7.",
",.q.] f.| 3.6.  S 0._ x n b M M b b b F p + & @.+    .5.3.u.>.u.p.7.>.",
"7.e.} p.:.3.5.  S 0._ S f M b b b v v n n 4 w @.w #.  7.O.e.3.e.p.>.,.",
"6.] h.| 6.6.f.>.  ) ) 2 2 , k i i i M h l M p @.r k.  O.9.f. .p.7.9.i.",
"u.| >.a.q.>.q.p.  S ) S 2   # > i h h l l l p w r k.  u.5.8.a.>.O.9.y.",
"u.i.u.>.>.u.f.{ f.  ) ..2     : ; s d l l n e + #.#.2           u.6.>.",
"e.e.i.7.e.<.:.p.| X 2 0.S   u.  ; 4 p v n e @.&   = ' ) 0.2 Z '   O.h.",
" .p.O.u.y.6.O.w.>.O.X S _ 2   :.  ; j j p e $.@.  X A 0.0.0.2 2   <.7.",
",.6.u.>.8.5. .u.>.,.  2 _ S 2   u.  & & & t $.@.w X 2 G ) 2 ) 0.  d.O.",
"7.:.h. .7.| f.| O.6.7.  A 0.) 2       & w @.$.@.w #.X 2 Z 2 Z 2   O.O.",
"7.2.e.6.-.| 7.e.O. .7.<.  A 0.' A )     & w @.@.r k.            1.>.7.",
">.7.>.7.7.,.| >.p.>.>.<.i.X A 0.0.2 A     & & r %.k.  y.6.y.<.O.<.7.O.",
"p. .6.5.7.6.6.q. .7.y.e.a.y.  A 0.) %     y #.#.k.#.  a.O.q.y.{ 7.5.7.",
" .p. .,.>.5.>.6.u.7.p.>.9.f.>.  A ) A   -.  y y y 2 A           >.i.:.",
"f.5.| 5.u.7.7.i.-.p.u.7.i.:.6.a.  .   y.| 3.  X   A 0.) ' 2 ) 0.  >.e.",
">.1.6.5.7.u.-.p.7.a.5.e.u.y.{ r.e.[ 6.e.<.q.-.e.u.  A 0.0.' 2 2   7.9.",
"e.[ e.9.7.e.p.7.,.u.>.r.6.u.| 6. .7.e.e. .p.7.6.i.  2 G ) 2 ) '   7.i.",
"9.>.5.9.a.:.5.a.3.7.<.r.7.7. .,.e.| p.7. .8.5.g.i.7.  2 Z 2 Z 2   i.>."
};
