/* XPM */
static char *result[] = {
/* columns rows colors chars-per-pixel */
"50 51 142 2 ",
"   c #000000",
".  c #000408",
"X  c #0A0606",
"o  c #110900",
"O  c #0B0F17",
"+  c #0D121E",
"@  c #2A1E03",
"#  c #3B120C",
"$  c #381E12",
"%  c #382011",
"&  c #151D31",
"*  c #202020",
"=  c #4F130B",
"-  c #5C160E",
";  c #6D190F",
":  c #621E13",
">  c #731E12",
",  c #533E08",
"<  c #5F341D",
"1  c #452A09",
"2  c #742317",
"3  c #76590E",
"4  c #71560D",
"5  c #7B4315",
"6  c #7B5C10",
"7  c #664C09",
"8  c #7C542E",
"9  c #7A4D2A",
"0  c #202C4A",
"q  c #243154",
"w  c #2F406C",
"e  c #334575",
"r  c #4C525F",
"t  c #70675E",
"y  c #9D1D0E",
"u  c #811F12",
"i  c #8B1F11",
"p  c #901F11",
"a  c #A71F10",
"s  c #A81F10",
"d  c #9E301D",
"f  c #BC200F",
"g  c #AE2111",
"h  c #A12519",
"j  c #B32719",
"k  c #BF2B1B",
"l  c #B82716",
"z  c #A73D1F",
"x  c #B8371D",
"c  c #C0200F",
"v  c #CE200E",
"b  c #D62E1D",
"n  c #D63D1D",
"m  c #D83221",
"M  c #DF3F2E",
"N  c #8D5613",
"B  c #824714",
"V  c #997317",
"C  c #885834",
"Z  c #9C5531",
"A  c #A56D39",
"S  c #D84521",
"D  c #E74D3D",
"F  c #AE6C42",
"G  c #AD7B4B",
"H  c #B68815",
"J  c #BD9125",
"K  c #B18D33",
"L  c #D19C15",
"P  c #EFB41C",
"I  c #FEBB13",
"U  c #C99B2A",
"Y  c #D79730",
"T  c #CEA02C",
"R  c #E6AB27",
"E  c #E4B12F",
"W  c #EBB328",
"Q  c #F0B523",
"!  c #FFC73F",
"~  c #FFC83F",
"^  c #AD825A",
"/  c #BD966B",
"(  c #BBA875",
")  c #C68D58",
"_  c #CF965F",
"`  c #EC8A42",
"'  c #DCA26B",
"]  c #C3AE77",
"[  c #C6B177",
"{  c #CAB477",
"}  c #CCB579",
"|  c #CBB579",
" . c #D4BC7B",
".. c #D8BF7C",
"X. c #F1B67F",
"o. c #FFC941",
"O. c #D7C07F",
"+. c #DAC17D",
"@. c #FFD366",
"#. c #3A4F87",
"$. c #747C8E",
"%. c #4E6AB3",
"&. c #9AA2B9",
"*. c #A7A8A7",
"=. c #CEB981",
"-. c #D4BE82",
";. c #DEB284",
":. c #E7BA94",
">. c #D6C084",
",. c #DCC483",
"<. c #D6C28A",
"1. c #DCC68A",
"2. c #DFC88C",
"3. c #DAC792",
"4. c #DEC992",
"5. c #DECC9B",
"6. c #E0C783",
"7. c #E3CA85",
"8. c #E9CE87",
"9. c #E3CC8B",
"0. c #E8CF8A",
"q. c #FFC38C",
"w. c #E7D08F",
"e. c #EAD18E",
"r. c #E3CD92",
"t. c #E2CE99",
"y. c #EFC794",
"u. c #E6D094",
"i. c #EAD394",
"p. c #E6D29A",
"a. c #EBD59A",
"s. c #EED89E",
"d. c #E6D4A2",
"f. c #EAD6A1",
"g. c #EED9A3",
"h. c #EEDBA9",
"j. c #F0DDAA",
"k. c #F1DFB1",
"l. c #F1E0AF",
"z. c #F2E1B4",
"x. c #D2DEFC",
"c. c #F3EDE7",
/* pixels */
"u.,.<.u.1.,.2.a.-.9.a.i.i. .h.,.2.a.+.a.<.d.<.p.7.7.a.,.9.i.i.8.7.9.,.2.,.8.4.1.7.p.7.9.7.i.,.u.i.+.",
"2.a.( a...2.          e.7.u.1.2.a.1.u.,.2.t.i.+.r.g.0.,.e.,.+.g.6.+.9.7.2.i.,.u.1.,.r.,.a.1.a.a.2.i.",
"+.e.7.9.i.  K o.o.Y 6     i.h. .9.a. .i.7.a.8.,.j. .i.6.h.u. .2.+.a.,.9. .a.,.7.1.8.i.9.u.i.8.t.s.7.",
"0.+.+.u.  K @.R I P Y 6 #     1.g. .a.r. .6.a.7.p.,.a.a.-.-.a.| ,.g.r.w. .5.w.,.a.9.u.i.w.0.2.e.,.i.",
"9...,.  # @.o.I o.I Y 6 : # ,   g.} a.4...g.i.[ j.{ a.t.,.p.-.t.-.a.9.8. .r.i.r.1.i.i.u.0.<.i.e.i.a.",
"i.,.  V 2 @.W Q W o.Y 6 : # V ,   e.e.i. .p.i.,.r.,.a.7.,.f. .9.9.7.9.6.a.0.r.r.s.+.a.7.i.p.1.1.7.e.",
"w.r.  T 2 U @.@.o.E Y 2 2 1 V V         u.,.9.r.1.a...i.-.1.t.,.a.,.9.u.,.7.p.u.,.6.a.a.0.7.a.+.7.1.",
"7.i.  U x S ` ` ` ` j d 2 B H V   < A A       . 7.p.-.u.a. .9.<.,.9.i.0.9.2.0.j.2.,.s.+.a.8.,.6.i.} ",
"6.,.  V T x n n n n v 2 5 L H ,   s q.q.) ) A < .     1.9.i. .,.i.a...1.s.7.a.g.,.p...i.d.9.O.O.u.7.",
" .8.i.  U ~ V N 5 5 5 N L E , o : s _ _ ) ) X.q.A Z <   9...i.-.r.9.,.g.9.+.r.g.2.f.O.u.7.7.9.1. .i.",
"9.7.7.  , J ~ ~ @.@.@.o.E 7 @   # M z A < A A A _ _ q.Z . 0.r.7.8.7.+.8.h.a.,.a.0.2.4.<.t.,.i.2.0.9.",
"-.2.a...    , 4 3 V V 3 , @ * X i v m s <       < A ) q.Z   } r.6.+.g.0.h.1.0.u.+.7.i. .8.7.6.h.p.9.",
"r.a...t.<.  * t   :.c.  *.8   # p v v m #   ,.a.    < ' q.Z   r.7.9.7.a.r.f.,.i.1.+.a.,.<.u.e.5.r.>.",
"9.e.+.7.0.    Z $ ^ :.y.' 8 $ : p v v v ;   4...g.-.  Z q.q.Z   a.1.6.a.9.f. .j.+. .i.,.8.g.1.s.e.1.",
"0...7.u.7.t.  q.< $ ^ / ^ < A - p b v v a #   7.u.,.  ) < ) ) X u.1.a.7.i.9.,.p. .2.g. .h.i.7.a.{ e.",
"r.+.r.i.a.7.  q.) < $ < < A ..; v b m v a ; -    .i.+.  Z $ Z   7.7.0.a.7.t.<.1.6.1.7.9.f.1.z. .,.1.",
",.6.r.>.9.9.  Z q.$   = p 9 ;.p v b m v y y > -   ,.3. .      ,.g.>.d.5.9.O.i.-.u.0.0.r.u.8.s.,. .,.",
"9.,.,.a.9.,.u.  q.) $   = v p M v b v v y y u h -   } a.,.p.9.+.e.r.,.e.f.7.9.,.u.=.g.1.i.+.i.9.,. .",
"9.6.t.-.f.,.9.  q.$ G     y = I D v v c y f l j u +   ,.i.1.e.,.+.h.+.e.8.p.+.,.9.p.8.a.,.6.u.7.,.d.",
"..u...g.r.+.a.  Z Z $   7.  v p = D v c m f g m u &   ,.r. .6.i.s.1.,.a.9. .7.9.u.,.a.i.7.9. .w.1.j.",
"i.<.0.a.0.7.0.6.      i.9.1.  v p I D b c g j b q & +   w.[ i.>.h.1.t.7.9.,.0.+.u.a.p.t.-.1.+.7.j.7.",
" .,.i.7.1.r.9.9.u.1.9.g. .r.p.. v = 2 b l l c u q q & &   ,.2.f.e.9.e.+.7.6.r.u.7.u.8.r.8.+.p.>.s.,.",
"9.2.r.9.6.9.r.r.0.7.6.d...u.u.  y & u u m j m q e e e 0     i.i.1.e.9.+.a. .r.i.s.,.i. .p.O.3.f...7.",
"p.6...g.} ,.i.r.7.a.9.1.a.,.p.-.  O e & 0 > u q %.%.%.0 & r   0.a.4.9...1.r.7.e.a.w.2.2.1.a. .i.9.f.",
"e.u.+.9.1.g.+.0.1.i.g.1.r.,.g.6.e.  O %.w r O & %.%.%.#.& $.r   a.i.7.| 6.u.r.i.0.e.,.6.i.,.a.9.u.,.",
",.a. .g.6.1.f.a.7.7.1.7.p.r.,.0.+.0.    $.x.r   #.#.#.#.w $.r . t.,.7.3.i.} i.i.7.a.,.0.,.0.g...g.u.",
"a.,.6.u.r.r.r.9.9.g.7.9.r.-.t.2.9.,. .9.      <   0 0 w &.x.r         7.+.s.+.g...4.1.s.,.9.6.e.j.+.",
"6.g.0...p.r...u.7.j.e. .r.r. .u. .9.,.9...i.+.  ) . $.x.x.$.< q.) Z <   } g.,.a.9.1.6.r.,.t.u.g.} 7.",
"7.s.9.u.,.p.r.p.6.a.,.a.7.-.,.8.2.,.+.a.-.+.0.  ' < .         Z q.q.F <   i.7.g.6. .i...p.u.8.p.r...",
"a.0.9.a.7.r.9.a.2.<.1.r.9...1. .6.7.r.6.7.7. .t.          } u.  ' q.) C   0.u.,.u.9. .7.p.d.<.7.,.r.",
"7.,.g.4.9.p.<.a.9.0.a.} i. .2.+.1.u. .p.1.6.7.u.+.u.7.p.7.7.p.  < ' < <   p.a.9.,.7.7.-.a.2.g. .r.r.",
"7.r. .i.0.i.0.6.9.p.,.i. .-.1.w.[ a. .r.7.,.,.h.,.u.0.1.9.g.1.  ) < ) C   i.r.7. .6.r.u.,.a.a.7.,.7.",
",.9.0.0.0.a.9.9.7.-.2.2.-.1.9.r.{ u.,.r.,.a.8.9.t.+.p.9.,.u. .  q.< ' <   6.g.1.,.7.+.r.t.9.a.1.<.9.",
",.a.6.s.,.r. .9.7.g.| 0.} a.7.] j...9.6.g.,.t.,.i.-.f.6.6.,.0.,.        i.0.a.] 9.,.7.s...a.0.8.d.7.",
"6.g.e.{ z.| p.-.7.6.r.,.7.+.i. .,.s.u.,.u.a.7.r.-.u.,...9.s...,.2.p.,.a.,.i.6.,.9.i.+.0.a.,.+.0.u.+.",
"9.1.9.p.0.} 7.u.7...,.u.,. .r.a.e.1.,.i.s.} g.6.,.7.9.r...7.1.} 9.g.7.7.6.g.1.a.+.6.g.i.,.9.i.7.,. .",
",.u.,.a.9. .a.} -.r. .u.9.1.r.t.a.0.r.1.-.a. .i.1.7.-...i.,.9.9.6.z.-.6.9.a.9.7.u.} j.+.1.g.} +.j.>.",
"r.6.9.6.6.i.6.0.6...a.9.<.f.+.u.+.i.u.7.+.e.,.+.a...+.0.9.,.e.9.9.7.r.f.0.] i.e.1.p.7.i.8.9.,.9.8. .",
"9.a...9.+.9...-.8.p.r.,.a.a.,.7.u.,.0.7. .i.7.1. .7.r.p.,...u.9.a.0.u.1.1.7.7.+.8.w.r.g.,.a.( a.+.r.",
"{ 7.0.9.6.7.6.7.0.6.g.9.u.9.4.,.h.O.1. .s. .+.6.9...p.r. .a.8.,.g.1.1.7.6.a.} 9.0.e.g.0.2.7.7.,.,.u.",
"-.0.w.-.6.r.7.} a.r.i.7...g.0.3.u.7.,. .8.u.+. .9.4.,.i.6.i.r.0.u.9.u.7.2.2. .9.e.8.w.,.i.,.3.O.9.9.",
"7.i.-.6.9.-.6.i.6.a.r.9.6.j.+.9.+.9.2.1. .,.a.1.,.2.p.5.6.u.1.a.w.,.s.} 9.7.+.w.u.p.6.u.1.+.2.9...g.",
"w.9.-.r...i.9.r.9.t.1.7.g. .a...6.6.7.7.1.w...9.u.9.s.r.8.>.i.+.h.O.i. .6.+.a.2.9.a.>.w.u.} 2.7.7.g.",
":.w.} w.i.-.u.w. .a.t.6.0.r...s.+.2.1.6.,.7.i.9.i.>.8.g.,.r.u.2.7.+.<.u.[ i.u.4.9.p.u.1.2.7.>.p.>.g.",
"} 6.i.9. .g.u.9.-.a.a.1.-...g.,. .+.i.2.9.p...s.i.9.p.1.7.a.,.,.6.u. .<.9.r.,.p.0.a. .i.6.+.u.,.9.r.",
"i.7.+.g.u.+.u.7.a.g.( g.7.7.-.3.8.+.e.u.-.a.7.s.7.r.i.u.{ t.9.[ 2.i.2.i.<.u.i.O.a.4.7.O.,.8.9.9.8.h.",
"..u.i.9.u. .i.9.0.u.7.-.g.} i.[ u.8.7.r.a.7.1.a.1.t.2.i. .7...9.r.r.+.u.7.7.p.9.w.i.,. .u.7.w.9.p.4.",
"0. .u.r.r.a.-.i.i.6...9.9.-.8.6.1.0.f.<.7.a.4.9.1.r.7.9.+.1.r...p.2.+.0.,.h.u.0. .u...e.a.,.9.p.,.h.",
" .s.-.p.,.a.1.g. .a.{ 1.e.0.9.9.,.9.i.a.+.p.6.i.0.,.6.1.,.i.,.i. .2.i.t.2.h.[ g.,.,.+.i.,.i.r.a.9.,.",
"+.g.3.3.r.r.1.u...e.6.i.+...u.9.,.6.a.9.u.u.w. .u.>.i.,. .1.u.9.0.{ g.a.2.6.0.s.1. .O.u.r.<.h.7.2.7.",
"i.7.7.a.6.0.,.a.,.9.r. .9.6.e.1.u.r.0.7.u.,.0.7.6.i.1...+.e.+.e.7.u.f.r.,.9.2.u.} 6.s.,.+.e.h.+.d.0."
};
