/* XPM */
static char *result[] = {
/* columns rows colors chars-per-pixel */
"35 35 137 2 ",
"   c #000000",
".  c #080000",
"X  c #000408",
"o  c #0B0C0C",
"O  c #110900",
"+  c #0B0F17",
"@  c #2A1E03",
"#  c #3B120C",
"$  c #381E12",
"%  c #382011",
"&  c #151D31",
"*  c #202020",
"=  c #2F353F",
"-  c #4F130B",
";  c #5C160E",
":  c #6D190F",
">  c #7B190E",
",  c #611D12",
"<  c #731E12",
"1  c #533E08",
"2  c #5F341D",
"3  c #452A09",
"4  c #742317",
"5  c #76590E",
"6  c #71560D",
"7  c #7B4315",
"8  c #7B5C10",
"9  c #664C09",
"0  c #7A4D2A",
"q  c #7C542E",
"w  c #202C4A",
"e  c #243154",
"r  c #2F406C",
"t  c #334575",
"y  c #4C525F",
"u  c #70675E",
"i  c #9D1D0E",
"p  c #811F12",
"a  c #8D1F11",
"s  c #901F11",
"d  c #A71F10",
"f  c #A81F10",
"g  c #9E301D",
"h  c #BD200F",
"j  c #A12519",
"k  c #A92111",
"l  c #B32719",
"z  c #BA2817",
"x  c #A73D1F",
"c  c #B8371D",
"v  c #C0200F",
"b  c #CE200E",
"n  c #D62D1C",
"m  c #D63D1D",
"M  c #D83221",
"N  c #DF3F2E",
"B  c #824714",
"V  c #8D5613",
"C  c #997317",
"Z  c #885834",
"A  c #9C5531",
"S  c #A56D39",
"D  c #D84521",
"F  c #E74D3D",
"G  c #AE6C42",
"H  c #AD7B4B",
"J  c #B68815",
"K  c #BD9125",
"L  c #B18D33",
"P  c #D19C15",
"I  c #EFB41C",
"U  c #FEBB13",
"Y  c #C99B2A",
"T  c #D79730",
"R  c #CEA02C",
"E  c #E6AB27",
"W  c #E4B12F",
"Q  c #EBB328",
"!  c #F0B523",
"~  c #FFC73F",
"^  c #FFC83F",
"/  c #AD825A",
"(  c #BD966B",
")  c #C68D58",
"_  c #CF965F",
"`  c #EC8A42",
"'  c #DCA26B",
"]  c #C3AE77",
"[  c #C6B177",
"{  c #CCB579",
"}  c #C9B377",
"|  c #D4BC7B",
" . c #D8BF7C",
".. c #F1B67F",
"X. c #FFC941",
"o. c #D7C07F",
"O. c #DAC17D",
"+. c #FFD366",
"@. c #3A4F87",
"#. c #747C8E",
"$. c #4E6AB3",
"%. c #9AA2B9",
"&. c #A7A8A7",
"*. c #DEB284",
"=. c #D4BE82",
"-. c #E7BA94",
";. c #D6C085",
":. c #DCC483",
">. c #DCC68A",
",. c #DFC88B",
"<. c #D7C288",
"1. c #DAC793",
"2. c #DEC991",
"3. c #DFCC9A",
"4. c #E0C783",
"5. c #E3CA85",
"6. c #E4CC8B",
"7. c #E8CF89",
"8. c #E9CE87",
"9. c #FFC38C",
"0. c #EAD18E",
"q. c #E3CD92",
"w. c #E2CF99",
"e. c #EFC794",
"r. c #E7D094",
"t. c #EAD393",
"y. c #E6D29B",
"u. c #EBD59B",
"i. c #EED89E",
"p. c #E7D4A1",
"a. c #EAD6A2",
"s. c #EED9A3",
"d. c #ECDBAB",
"f. c #F0DDA9",
"g. c #F1E0AF",
"h. c #D2DEFC",
"j. c #F3EDE7",
/* pixels */
"q.4.q.i.>.8.7.6.5.y.O.,.i. .8.w.r.4.6.q.>.u.| t.:.4.w.:.u. .q.r.:.6.p.",
"5.q.a.{           >.5.s.:.,.>.8.5.r.u.| 4.u.=.r.u.| 6.>.:.q.r.8.6.,.6.",
"O.7.1.  L ^ ~ T 8     6.w.q.6.=.s.O.u. .7.r.:.:.6.0. .:.t.u. .4.s.4.t.",
"5.u.  L +.E U I T 8 #     6.:.r.>.t.>.>.5.r.y.4.6.=.t.=.6.6.:.s.7.O.r.",
">.  # +.^ U ^ U T 8 , # 1   5.0.5.O.t.7.>.q.| u.{ 7.7.6.6.6.:.8.d.u.:.",
"  C 4 +.E ! Q ^ T 8 , # C 1   6.:.0.6.:.u. .y.=.u.6.{ q.4.O.s.6.f.>.r.",
"  R 4 Y +.+.X.E T 4 4 3 C C   0.8.7.:.u. .4.7.q.[ q.2.q.5.7.4.t.2.a.<.",
"  R c D ` ` ` ` l g 4 B J C   8.O.6.2. .f.=.>.5.q.=.y.:.u.4.5.u.6.a.| ",
"  C R c m m m m b 4 7 P J 1         5.,.t.O.3.>.y.{ r. .t.>.u.5.t.6.:.",
"u.  Y ^ C V 7 7 7 V P W 1 O , 2 S S     | t.O.;.O.u.5.w.5.4.7.u.5.w.>.",
"7.  1 K X.^ +.+.+.^ W 9 @   # f 9.9.) S   X 1.| w.6.>.:.a.=.p.3.q.| t.",
"6.:.    1 6 5 C C 5 1 @ * o a f _ _ ) ) ) 2 X   :.u.5. .t.q.4.0.u.6.8.",
"a.:.5.    u   -.j.  &.q   # s N x S 2 S ..9.S 2   5.t.>.O.a.O.0.8.y.O.",
"2.O.u.  A   $ / -.e.' q % , a b M f 2 2 2 S _ _ A . O.t.s.5.:.i.6.| 5.",
"0.4.7.>.  ' 2 $ / ( H 2 S , s n b M ,       2 S 9.A X =.d.>.r.6.6.O.r.",
":.w.6.6.  ) A - $ 2 2 S *., b n M b d #   u.  2 ) 9.A   6.7.t. .5.4.q.",
"4.5.6.w.  A ) $ - s 0 *.*.s b M M b i > :   y.  2 ' 9.A   t.6.o.u.=.6.",
"| >.t.q.5.  9.) $ - b s 0 N b M b b i i ; ;   }   A 9.9.A   6. .5.q.6.",
":.s.:.q.>.  9.$ H $ - b - U F b b v i h a < ; X   ) 2 ) ) . 6.[ 5.r.q.",
"4.>.u.y.5.  A A $     s n s - F b h M h k a j &     A % A   ,.,.7.{ r.",
"7.q.2.6.6.s.      =.w.  b b s U F n z k z z j & &          .,.5.O.s.O.",
"p.q.O.r.6.f.0.| w.7.| r.X b b - p n l l z M > & w &     5. .u.7.{ s.4.",
":.u.q.w.4.u.:.p.6.=.:.7.  - b p + p n l n e e t @.w & y   >.y.] r.t.6.",
"6.q.6.u.>.>.>.q.6. .>.| 4.  s & & w p p e @.$.$.$.@.& #.y   6.;.r.7.t.",
"6.y.:.y.7.6.y.{ 0. .,.O.:.u.  w @.@.@.w + & @.@.@.@.r #.y X 5.r.>.r.t.",
"7.0.q.:.q.y.4.t.| ;.<.0.[ i.|   + w r r #.    w w r %.h.y   q.0.5.q.q.",
"r.t.6.5.8.=.,.>.;.<.7.2.[ r.:.2.  #.h.h.#.w X X #.h.h.#.2 A     u.6.s.",
":.q.| 6.7.s.} 8.{ u.5.[ f.o.,.5.s.    O 2 ' A 2 X       A 9.A 2   7.u.",
"f.{ w.=.6.4.6.:.,.O.t.| O.i.t.o.0.t.,.w.  ) 9.G 2   O.:.  ) 9.G 2   4.",
"0.{ 5.t.>. .:.r.:.| 0.y.0.>.:.r.s.| s.O.  9.9.) Z   >.{   ' 9.) Z   >.",
"7.| u.| =.q.| r.6.>.6.r.u.6.r.,.;.u.o.0.  2 9.2 2   >.6.  2 ' 2 2   ,.",
">.r.:.8.:.O.s.5.<.a.o.u.O.u.r.5.O.0.:.o.  Z 2 ) Z   t.6.  ) 2 ) Z   r.",
"5.6. .;.8.y.q.:.u.u.>.>.r.:.8.4.| 0.5.>.  ' 2 9.2   t.6.  9.2 ' 2   5.",
"O.5.>.5.7.:.s.7.r.6.6.:.f. .2.| s.| O.5.6.        i.8.:.a.        u.{ ",
"O.2.5.| u.r.u.5. .i.7.2.q.5.=. .8.w.O.| 6.2.:.y.4.r.7.6.t.6.q.5.,.5.| "
};
