/* XPM */
static char *result[] = {
/* columns rows colors chars-per-pixel */
"50 51 221 2 ",
"   c #0C0200",
".  c #0D0902",
"X  c #130600",
"o  c #1C0C00",
"O  c #180801",
"+  c #1C1507",
"@  c #220D01",
"#  c #251301",
"$  c #2C1604",
"%  c #221804",
"&  c #2D1A03",
"*  c #341601",
"=  c #341C03",
"-  c #391E01",
";  c #371A09",
":  c #3C2204",
">  c #3B240C",
",  c #372609",
"<  c #3F2E14",
"1  c #581900",
"2  c #521A09",
"3  c #701D0F",
"4  c #442103",
"5  c #452B01",
"6  c #4E2B01",
"7  c #42260C",
"8  c #4C2500",
"9  c #512A00",
"0  c #57280A",
"q  c #4E3305",
"w  c #4C3409",
"e  c #4E3908",
"r  c #543201",
"t  c #5E3D04",
"y  c #523709",
"u  c #543B0A",
"i  c #5A3D0B",
"p  c #553704",
"a  c #482C10",
"s  c #473519",
"d  c #563011",
"f  c #5C3511",
"g  c #552F10",
"h  c #633C03",
"j  c #693A07",
"k  c #7E3307",
"l  c #613814",
"z  c #603712",
"x  c #722C00",
"c  c #523624",
"v  c #085516",
"b  c #3A560A",
"n  c #30720A",
"m  c #5D4106",
"M  c #6D4404",
"N  c #65440C",
"B  c #6E4C0C",
"V  c #694308",
"C  c #744B0A",
"Z  c #754903",
"A  c #735512",
"S  c #714F0D",
"D  c #504022",
"F  c #5A4E39",
"G  c #725D21",
"H  c #726F26",
"J  c #261856",
"K  c #3D3149",
"L  c #232A72",
"P  c #521579",
"I  c #534543",
"U  c #7B6441",
"Y  c #882E00",
"T  c #8A3503",
"R  c #933B09",
"E  c #AC3E0A",
"W  c #C61C0C",
"Q  c #FF2410",
"!  c #E52218",
"~  c #874500",
"^  c #83560C",
"/  c #885B09",
"(  c #80511D",
")  c #B55001",
"_  c #8E620D",
"`  c #8E6601",
"'  c #94680C",
"]  c #91700E",
"[  c #896718",
"{  c #936511",
"}  c #9B6C12",
"|  c #94751C",
" . c #9A7A1D",
".. c #997517",
"X. c #B66B02",
"o. c #AC7B16",
"O. c #A57616",
"+. c #AD730B",
"@. c #8F4C25",
"#. c #8A6828",
"$. c #A57F20",
"%. c #C3560E",
"&. c #F75009",
"*. c #C96C04",
"=. c #DE7504",
"-. c #CC7B15",
";. c #C15B34",
":. c #CB7428",
">. c #FF6E3C",
",. c #8C4C5B",
"<. c #896C43",
"1. c #947A50",
"2. c #CA6868",
"3. c #B3841A",
"4. c #BB8E1E",
"5. c #B58C1F",
"6. c #BE911D",
"7. c #A7821E",
"8. c #A58622",
"9. c #AB8B24",
"0. c #B48C23",
"q. c #BB9525",
"w. c #A18339",
"e. c #97B43F",
"r. c #D89809",
"t. c #D08E13",
"y. c #FF8D0E",
"u. c #E99903",
"i. c #F9B503",
"p. c #FBA713",
"a. c #F3B71C",
"s. c #C39825",
"d. c #D68E2C",
"f. c #E38221",
"g. c #C9A32B",
"h. c #DCB32E",
"j. c #C6A534",
"k. c #D5AA39",
"l. c #E7B92B",
"z. c #E2B934",
"x. c #E6AF22",
"c. c #FCCF00",
"v. c #FAC918",
"b. c #DEC13E",
"n. c #F6C937",
"m. c #EFC931",
"M. c #FBE138",
"N. c #FFFC3B",
"B. c #B99851",
"V. c #A48E6D",
"C. c #BCA975",
"Z. c #B4B146",
"A. c #C5985E",
"S. c #D5B54F",
"D. c #C3AE77",
"F. c #C8AD7D",
"G. c #C6B177",
"H. c #CCB579",
"J. c #CBB578",
"K. c #D4BC7B",
"L. c #D8BF7C",
"P. c #CAAF68",
"I. c #E6CB48",
"U. c #E9D554",
"Y. c #FFFD4B",
"T. c #D7C07F",
"R. c #DAC17E",
"E. c #C1C973",
"W. c #E2C864",
"Q. c #FFFF6A",
"!. c #FFFF79",
"~. c #641C99",
"^. c #9E328C",
"/. c #7494AB",
"(. c #9F9D9D",
"). c #AEA289",
"_. c #A9A298",
"`. c #BDB7B0",
"'. c #D4BE82",
"]. c #CEB981",
"[. c #E2BB8B",
"{. c #C39FA4",
"}. c #D7C084",
"|. c #DCC483",
" X c #D6C289",
".X c #DCC68A",
"XX c #DFC88C",
"oX c #DAC793",
"OX c #DEC992",
"+X c #DCCB9B",
"@X c #E0C783",
"#X c #E3CA85",
"$X c #E9CE87",
"%X c #E3CC8B",
"&X c #E8CF8A",
"*X c #E7D08F",
"=X c #EAD18E",
"-X c #E3CD92",
";X c #E2CE99",
":X c #E6D094",
">X c #EAD394",
",X c #E6D29A",
"<X c #EBD59B",
"1X c #EED89E",
"2X c #F2C18B",
"3X c #CEC2B2",
"4X c #E6D4A2",
"5X c #EBD6A1",
"6X c #EED9A3",
"7X c #EEDBA9",
"8X c #F0DDAA",
"9X c #F1DFB1",
"0X c #F1E0AF",
"qX c #FFFFAB",
"wX c #F2F0AD",
"eX c #FFF1BB",
"rX c #9390CE",
"tX c #CFCAC2",
"yX c #DBE7D9",
"uX c #FFFAD4",
"iX c #FEFEFF",
/* pixels */
":X|. X-X.X|.XX1X'.-X<X>X>XK.7X'..X<X}.>XoX;X X:X%X#X<X|.*X>X>X$X#XXX}.XX|.$X;X|.XX>XXX*X#X,X|.:X>XR.",
"XX<XC.<XR..X-X%X<X|.*X*X@X:X@X-X<X#X<X|.%X;X>XL.-X8X&X'.&X@XL.8X@XR.=X#X%X>X}.:X|..X-XR.>XXX<X<XXX>X",
"R.=X#X%X>XL.>X}.>X#X#X4X'.-X8XK.&X<XK.>X@X<X#X@X8XK.*X@X8X:XH.%XR.<X|.*XK.1X|.#X.X&X>X&X>X>X&X;X1X$X",
"&XR.R.:X,XK.XX@X;X4X.X<X#X%X$X X6XH.5X-X'.@X<X&X:X|.>X6X'.'.<XH..X5X&X=XK.OX%X|.<X#X,X*X=X#XXX=X|.>X",
"&XR.R.>X#X1X}.%X%X@X<X#X<X;X|..X6XH.>X-X'.6X*XG.9XG.<X;X|.<X'.;X'.<X&X#XK.-X>X-X|.<X<X:X#X.X>X=X=X<X",
">X}.#X:X|.|.&XXX<X@X,X$X#X*X*X#X.X&X>X:XK.<X>X'.%X|.<X@X'.6XH.%X%X#X%X|.<X&XOX-X<XR.<X#X>X<X.X.X#X*X",
"%X-X|.#X-X@X-X<X.X#X%X%X@X<X|..X1XK.&X;X:X@X%X-X|.<XK.>X'.@X<X'.<XR.%X>X}.&X<X>X.X#X<X<X&X#X<XR.#X.X",
"#X>X#XR.#X-X6XH.5X&X@X&X:X|.#X6X|.%X.X#X#X*X<XK.#X<X'.<X<XL.%X X.X%X:X#X&XXX&X8X.XR.1XR.>X&X|.@X>XH.",
"|.}.R.1XR.&XoXOX6XK.#XOX5X.X.X.X;X-X#X|.5X@X<XL.:X*X|..X-X=XL.|.>X<XK.@X1X#X<X1X.X,XT.>X4X%XL.L.:X#X",
"K.&X=XR.#X<X-X6XC.>X6X}.&X#X&X<XR.%X}.>X}.>X.X@X#X*X;X@X#X'.>X'.-X&X}.7X%XR.-X5X|.6XT.,X#X%XXX.XK.>X",
"#X#X#X.X|.=XXXOX;X}.#X;X.X&X1X|.'.=X#X=X$X@X>X&X.X:XK.<XH.&X*X%X$X#X}.#X7X<X|.,X=X#XXX}.OX.X<XXX&X%X",
"'.OX<XR.|.5X#X.X#X<X&X>XR.@X*X$X@X=X<X#X'.&X-X|.5XL.:X'.<X%XH.-X#XR.6X&X7X|.>X>XT.#X:XL.$X#X#X7X;X%X",
"-X<XL.OX X,XR.>X#XOXoX.X;X%X@X&X-X%X|.*X#X>X|.<X@X#X=X&XF.-X-X-X#X&X#X<XXX7X}.>XXXL.<X|..X:X*XOX:X}.",
"#X>XR.#X&X<X#X#X&X<X&X%XD.M 9 9 9 9 9 9 8 8 9 9 8 4 4 1.3X'.<XR.<X|.@X<X%X5XL.8XR.K.>X|.#X1X.X1X>X|.",
"&XK.#X<X#X;XOX|.-XR.1XD.` t ; 7 * ; 7 ; ; ; 4 ; 9  .[ ..` V.`.K.:X.X<X#X>X%X}.<XK..X6XK.0X>X#X<XG.=X",
";XR.-X=X<X#XR.6X|..X'.U.9 S.0.9 '.P.; s.j.I.^ h uXb.{ B C / r tX#X#X&X<X#X;X X.X#XXX|.&X5X.X9XK..X.X",
"|..X:X|.%X%X>X$XXX1XU.h @ @ # $ @ @ ; @ @ O : qXB.$ % + . . t * `..X4X+X:XR.=X}.:X%X*X%X:X&X1X.XL.}.",
"#XT.|.,X#X|.:X|.$X>XS.# > f f l l l l f d * B.uXt X } [ o o X B r (.+X=X<X.X%X|.*X].7X#X=XR.>X#XR.K.",
"*X|.,X}.7XR.#XXX:XP.#.@ g g d d d d g g a j n.<.@   & , % % o A ' Z #.I $X:X|..X%X,X#X<X|.#X:X#X|.5X",
"R.>XT.1XOXT.<X#XT.w.o.B C C C C C C C C M s.g.M # & 4 T T k w 7.q S j.x.< K.#XXX:X|.1X>X#X*XH.*X.X0X",
"*X.X$X<X*X|.*XXX#XP.b.] ] ] ]  . . . . .| Z.Q.: k u.:.:.*.~ u s.u O M t., R.*XT.:X>X,X;X}..XR.#X8X#X",
"K.}.>X%X|.-XXX$X>X|.:X6XH.)._.= N * Z Z M ~ H I e.*.S.qXX.%.i 3.u X & _ p |.*X>X#X>X$X:X#XR.,XK.1X@X",
"#XXX&X%X.X$XXX-X*X#X|.4XL.:X<Xr 9.1 p.uXi.eXY v L -.iXiXn.T i o.y o & [ M F *X*X1X.X>XK.<XT.oX7XL..X",
">X.XK.7XK.|.>X:X|.>X*XXX<X|.5Xr 8.3 2.&.!.iXyXX.f.c.N.[.i.k i q.i X = _ , XX%X*X<X*X.X.X.X,XT.=X&X5X",
">X>XR.&X|.6XR.*X|.>X6X.XOX}.6Xr 8.3 Q ^.d.%Xb ) ,.i.y.p.p.R m 3.u O & _ > :X-X>X&X=X}.#X<X}.<X%X>X}.",
"|.,XK.6X|..X1X,X#X#X.X&X<X-X|.r 8.1 &.A.{.) k r.wXY.=.p.-.%.e 3.y   $ _ > H.>X=X#X<XR.&XR.&X6XL.<X>X",
"<X|.@X>X%X-XOX%X%X6X#X#X-X'.;Xr 9.1 n i.k.t.R u.Y.d.u.u.=.P m 6.e 3. .^ > 6XR.7X'.-X.X6X@X#XR.=X8XR.",
"|.1X>XK.,X:XR.>X#X7X>XK.;X&XK.9 8.j W ;.W.P.@.a.Q b v.E.A Y m o.e # N / > 6X|.<X&X|.|.&X.X,X-X7XH.#X",
"@X<X&X>X|.,X-X:X@X1XR.<XXX'.'.r 8.1 k.f./.rX~.>.! y.o.J v K j 3.u o & _ , >X#X6X|.K.-X}.<X>X#X<X-XK.",
"<X&X%X,X%X-X%X5X.X X.X:X%XL.#Xr 8.1 o.Y k 2 3 T E X.R x j c h 0.u X = _ < &X>X}.>X%XK.#X,X4X.X#X|.;X",
"%XR.6XOX#X<X X<X-X&X<XH.>XK.#X6 8.w a q 5 y e e e > u e y p N o.p O $ _ < ;X<X&X|.#X#X'.<X.X6XK.&X;X",
"XX:XK.<X&X>X*XR.#X4XR.>XK.'.|.<.} l.z.l.7. .n.s.q.B q.h.l.z.3.h.q O = _ s &X-X#XK.#XOX>X|.<X<X#X|.@X",
"R.=X*X#X=X<X#X#X&X'.XXXX}..X#X-X1.t.O.' O.h $.S.9 S V A ' ..{ o.0.* o _ s #X7X|.|.#XR.:XOX&X,X.X XXX",
"|.<XR.1X}.:XL.XX#X6XH.$XH.<X#XG.6XU m.8 ; - + [ x.4.V : & O 7 # ..g.^ } V =X<XG.%X|.#X6XT.<X*X#X4X%X",
"|.6X=XH.0XG.;X'.#X@X-XR.XXR.>XK.@X).s.M.N 4 ; @ $ $ & : > : ; : O Q.g.^ p >XR.|.#X>XR.=X<X.XR.$X>XL.",
"#X.X*X<X=XH.#X:XXXK.|.<X|.K.*X,X>X|.O M.U.s.6.4.O.} { _ _ } o.5.3.I.g.I.D 6X#X<XR..X6X=XR.&X>X#X|.K.",
"|.<X}.<X&XK.<XK.'.;XK.:X&X.XOX;X<X%X:X* , M.a.5 5 - - - - : 5 r y W.r G c <X%X*X:XH.0XR.#X7XJ.T.0XR.",
":X|.&X|.@X>X|.&X|.L.1X#X}.5XL.<XR.>X:X#XR.F c L.<XL.'.$X#X|.>X%X%X; OX7X*XG.>X=X@X:XXX>X$X&XR.XX#XK.",
"#X<XK.#X@X%XL.}.$X>X-X|.<X<X.X.X>XR.$X.XR.*X@X.XK.#X-X:X@XL.>X#X<X=X*X.X|.#X#XR.=X&X-X6X@X<XC.5XR.-X",
"J.#X=X&XR.#X|.#X&X|.6X&X>X#X%X}.7XR.XXK.1XK.R.@X#XL.<X;XK.<X$X|.1X|.|.%X|.1XH..X%X=X6X&XXX#X#XR.}.:X",
"@X#X%X}.R.-X#XH.<X:X>X#XL.1X*XoX;X@X|.L.#X,X|.L.%XOX|.>X@X:X*X#X:X#X:X#X.XXXK.%X=X#X:X|.>X.X XR.%X&X",
"#X:X|.|.&X}.|.>X|.<X-X%X@X8X|.#X|.%X@X.XK.|.<X|.}.#X,X;X@X:X.X<X:X|.1XJ.#X%XR.:X:X,X@X:X.XR.XX%XT.6X",
"-X%XK.;XL.>X#X;X%X;X|.#X6XK.<XL.#X@X%X#X.X>XL.#X:X-X6X-X$X'.*X|.7XL.<XK.#XR.,X#X&X<X}.=X:XH.XX#X#X5X",
"'.-XK.*X>X'.>X>XK.<X,X.X-X&XL.1XR..X|.@X@X@X>X%X>X}.$X6X|.;X*X%X#XR.}.:XG.>X:XoX-X:X:X.XXX#X}.,X'.7X",
"'.@X=X&XK.6X;X.X|.<X<X}.L.'.6X|.K.@X>X#X%X<X'.<X>X-X:X X#X<X@X|..X:XK.OX%X;X|.<X&X<XK.>X@XR.:X.X*X&X",
":X%XL.6X>XR.&X%X<X5XC.6X#X@X|..X$XR.$X;X'.>X%X1X@X*X&X<XG.-X-XG.#X:X.X=X}.:X>XT.<X-X#XR.@X#X*X#X#X7X",
"L.*X>X-X>XH.<X#X&X-X@X|.5XH.;XG.;X$X#X;X<X%X.X<X|.;X%X=XK.#XL.%X;X%XR.:X#X#X,X%X*X>X|.K.>XR.*X#X,XXX",
"$XK.:X-X&X<X}.>X<X|.|.%X%X'.$X@X@X$X5X'.@X<XoX%X%X-X%X-XR..X-XL.:XOXT.&X|.7X:X&XK.-XT.*X<X.X%X,X|.7X",
"K.6XK.5X'.5X.X6XK.<XH.@X&X-X%X#X|.#X=X5XR.<X@X>X#X#X@X|. X<X'.<XK.XX>X;XXX6XJ.6X|.R.R.>X|.<X%X<X%X}.",
"L.6XoXoX-X&X#X*XL.&X@X>XL.L.;X-X|.#X<X-X>X-X&XK.>X'.;X@XL.|.>X%X$XH.6X<XXX|.&X6X.XK.R.:X-X|.7X.XXX&X",
"=X%X%X<X#X&X'.<X@X%X-X].*X#X$X.X;X-X$X#X<X}.#X#X#X>X@XL.L.&X|.=X%X:X5X-X}.&XXX:XH.|.1X|.|.=X7XR.4X&X"
};
