/* XPM */
static char *result[] = {
/* columns rows colors chars-per-pixel */
"50 50 125 2 ",
"   c #441D11",
".  c #441F14",
"X  c #4B1E11",
"o  c #4D1D11",
"O  c #4A2316",
"+  c #4E2619",
"@  c #562B1C",
"#  c #542C1E",
"$  c #5E2A1A",
"%  c #5F2A1A",
"&  c #5A301F",
"*  c #652A19",
"=  c #672B1A",
"-  c #642D1C",
";  c #583B2D",
":  c #5D3E30",
">  c #633726",
",  c #693826",
"<  c #5F4031",
"1  c #624232",
"2  c #644434",
"3  c #6C4937",
"4  c #6F4B39",
"5  c #714C3A",
"6  c #76503D",
"7  c #7E5541",
"8  c #815742",
"9  c #A77156",
"0  c #AD7459",
"q  c #AF765A",
"w  c #B2785B",
"e  c #B4795C",
"r  c #B77B5E",
"t  c #B97D5F",
"y  c #BC7F60",
"u  c #BF8062",
"i  c #C48464",
"p  c #C68666",
"a  c #C98767",
"s  c #CB8968",
"d  c #CE8B6A",
"f  c #D18D6B",
"g  c #D38E6C",
"h  c #D6906E",
"j  c #D8926F",
"k  c #DB9370",
"l  c #DE9572",
"z  c #E09773",
"x  c #E39974",
"c  c #E59A76",
"v  c #EA9E78",
"b  c #F0A17B",
"n  c #F7A77F",
"m  c #FFAC83",
"M  c #FFB388",
"N  c #FFB68B",
"B  c #FFB88C",
"V  c #FFBA8D",
"C  c #FFBB8F",
"Z  c #FFBD90",
"A  c #FFBF91",
"S  c #FFC193",
"D  c #FFC294",
"F  c #FFC495",
"G  c #FFC697",
"H  c #FFC798",
"J  c #FFC999",
"K  c #FFCB9B",
"L  c #FFCD9C",
"P  c #FFCE9D",
"I  c #FFD09F",
"U  c #FFD2A0",
"Y  c #FFD4A1",
"T  c #FFD5A3",
"R  c #FFD7A4",
"E  c #FFD9A5",
"W  c #FFDBA6",
"Q  c #FFDCA8",
"!  c #FFDEA9",
"~  c #FFE0AA",
"^  c #FFE2AC",
"/  c #FFE3AD",
"(  c #FFE5AE",
")  c #FFE7B0",
"_  c #FFE8B1",
"`  c #FFEAB2",
"'  c #FFECB4",
"]  c #FFEEB5",
"[  c #FFEFB6",
"{  c #FFF1B8",
"}  c #FFF3B9",
"|  c #FFF5BA",
" . c #FFF6BC",
".. c #FFF8BD",
"X. c #FFFABE",
"o. c #FFFCC0",
"O. c #FFFDC1",
"+. c #FFFFC4",
"@. c #FFFFC5",
"#. c #FFFFC6",
"$. c #FFFFC9",
"%. c #FFFFCD",
"&. c #FFFFCE",
"*. c #FFFFCF",
"=. c #FFFFD2",
"-. c #FFFFD5",
";. c #FFFFD6",
":. c #FFFFDE",
">. c #FFFFE1",
",. c #FFFFE5",
"<. c #FFFFE7",
"1. c #FFFFE9",
"2. c #FFFFEA",
"3. c #FFFFED",
"4. c #FFFFEE",
"5. c #FFFFEF",
"6. c #FFFFF2",
"7. c #FFFFF3",
"8. c #FFFFF4",
"9. c #FFFFF6",
"0. c #FFFFF7",
"q. c #FFFFFA",
"w. c #FFFFFE",
"e. c white",
"r. c None",
/* pixels */
"r.r.r.r.$ >.B B T T T E E Y I I ! I I ! ! ! W t t 2 2 ,.D D T T T J D D E E U ! ! U _ _ { p r.r.r.r.",
"r.r.r.r.$ >.B B T T T E E Y I I ! I I ! ! ! W t t 2 2 ,.D D T T T J D D E E U ! ! U _ _ { p r.r.r.r.",
"r.r.r.r.X w.A A T Y Y P P E H H ! L L E ! ! E u u < < <.N N U I I K D D R R U ! ! P _ _ } l r.r.r.r.",
"r.r.r.r.o e.H H I Q Q D D R J J ! I I E ! ! U q q 2 2 3.H H Y P P J G G R R I ! ! P E E $.z r.r.r.r.",
"r.r.r.r.o e.H H I Q Q D D R J J ! I I E ! ! U q q 2 2 3.H H Y P P J G G R R I ! ! P E E $.z r.r.r.r.",
"r.r.r.r.  e.L L Y Q Q S S T J J ! Y Y Y ! ! ! t t 1 1 3.L L Q P P J F F T T I ! ! K R R %.d r.r.r.r.",
"r.r.r.r.. e.J J T ~ ~ Z Z R J J ! Y Y Y ! ! ! a a 5 5 5.R R ! P P G G G Y Y P ! ! F ! ! #.r.r.r.r.r.",
"r.r.r.r.. e.J J T ~ ~ Z Z R J J ! Y Y Y ! ! ! a a 5 5 5.R R ! P P G G G Y Y P ! ! F ! ! #.r.r.r.r.r.",
"r.r.r.r.O e.L L R Q Q F F T K K ! Y Y Y Q Q ~ a a 5 5 6.U U ! P P S P P U U P ! ! A ( ( X.r.r.r.r.r.",
"r.r.r.r.+ e.I I ~ T T G G E U U ! Y Y Y W W _ i i 4 4 5.P P W P P S P P U U P ! ! S ^ ^ } r.r.r.r.r.",
"r.r.r.r.+ e.I I ~ T T G G E U U ! Y Y Y W W _ i i 4 4 5.P P W P P S P P U U P ! ! S ^ ^ } r.r.r.r.r.",
"r.r.r.r.# e.P P ' Y Y F F ! I I ! Y Y Y R R  .w w r.5 1.K K E P P A P P Y Y L ! ! D ~ ~  .r.r.r.r.r.",
"r.r.r.r.# e.P P ' Y Y F F ! I I ! Y Y Y R R  .w w r.5 1.K K E P P A P P Y Y L ! ! D ~ ~  .r.r.r.r.r.",
"r.r.r.r.@ e.Y Y | I I D D Q E E Q I I Y R R ..f f 7 7 2.G G E P P C U U U U L ! ! S ~ ~  .r.r.r.r.r.",
"r.r.r.r.& e.Q Q [ I I D D ~ E E W J J Y R R { i i 8 8 7.J J E P P C U U R R G ! ! A ^ ^ O.r.r.r.r.r.",
"r.r.r.r.& e.Q Q [ I I D D ~ E E W J J Y R R { i i 8 8 7.J J E P P C U U R R G ! ! A ^ ^ O.r.r.r.r.r.",
"r.r.r.r.> e.T T [ I I D D ^ T T W G G Y R R ` y y 4 4 e.L L U L L C U U R R G ! ! A ! ! @.r.r.r.r.r.",
"r.r.r.r., e.T T _ I I D D / U U Q F F U R R ( h h 3 3 5.U U J L L V U U E E F W W S Q Q #.r.r.r.r.r.",
"r.r.r.r., e.T T _ I I D D / U U Q F F U R R ( h h 3 3 5.U U J L L V U U E E F W W S Q Q #.M r.r.r.r.",
"r.r.r.r.r.e.Q Q _ I I D D ` I I W H H L R R ^ r r 2 2 9.! ! J L L V U U R R F W W D ~ ~ X.c r.r.r.r.",
"r.r.r.r.r.e.E E _ K K S S ' L L E H H H R R ! t t r.2 0.Q Q K L L V U U R R D W W D ~ ~ ' k r.r.r.r.",
"r.r.r.r.r.e.E E _ K K S S ' L L E H H H R R ! t t r.2 0.Q Q K L L V U U R R D W W D ~ ~ ' k r.r.r.r.",
"r.r.r.r.r.e.R R / L L F F ` L L T K K H R R Y w w 5 5 6.! ! Y L L V U U E E G T T D ~ ~ ..p r.r.r.r.",
"r.r.r.r.r.e.E E / L L F F ` L L T L L J R R U r r ; ; 5.) ) I L L V U U W W F T T S / / | f r.r.r.r.",
"r.r.r.r.r.e.E E / L L F F ` L L T L L J R R U r r ; ; 5.) ) I L L V U U W W F T T S / / | f r.r.r.r.",
"r.r.r.r.r.e.U U / K K S S ( Y Y U I I P R R E y y r.2 6.^ ^ P L L C U U Q Q D U U F ( ( o.x r.r.r.r.",
"r.r.r.r.% e.U U / K K S S ( Y Y U I I P R R E y y r.2 6.^ ^ P L L C U U Q Q D U U F ( ( o.x r.r.r.r.",
"r.r.r.r.- e.Y Y / I I D D ( Y Y U T T P W W K e e 6 6 4.' ' U L L S L L ! ! S U U F ~ ~ #.b r.r.r.r.",
"r.r.r.r.= e.~ ~ / I I G G ! U U I T T P W W H y y 3 3 2.} } T I I S H H ! ! A U U G / / +.n r.r.r.r.",
"r.r.r.r.r.e.~ ~ / I I G G ! U U I T T P W W H y y 3 3 2.} } T I I S H H ! ! A U U G / / +.n r.r.r.r.",
"r.r.r.r.r.e._ _ / U U P P ^ U U L E E P W W G p p 4 4 7.) ) E U U A H H ! ! A U U G ( ( ..b r.r.r.r.",
"r.r.r.r.r.e. . ./ U U U U E R R P E E P W W F u u 2 2 q.Q Q R U U A K K ! ! S U U G ~ ~ ` z r.r.r.r.",
"r.r.r.r.r.e. . ./ U U U U E R R P E E P W W F u u 2 2 q.Q Q R U U A K K ! ! S U U G ~ ~ ` z r.r.r.r.",
"r.r.r.r.r.e. . .^ K K E E Y T T U E E P W W H g g : : q.U U T U U F U U ! ! J G G H _ _ | l r.r.r.r.",
"r.r.r.r.r.e.` ` ( L L Q Q U Y Y U E E P W W J g g 3 3 8.E E ~ U U L K K ! ! K D D H _ _ @.v r.r.r.r.",
"r.r.r.r.r.e.` ` ( L L Q Q U Y Y U E E P W W J g g 3 r.8.E E ~ U U L K K ! ! K D D H _ _ @.v r.r.r.r.",
"r.r.r.r.r.e.` ` / U U Q Q K G G T Y Y Y W W J r r r.r.8.Y Y ( U U P J J ! ! L Z Z L ( ( +.l r.r.r.r.",
"r.r.r.r.r.e.` ` / U U Q Q K G G T Y Y Y W W J r r r.r.8.Y Y ( U U P J J ! ! L Z Z L ( ( +.l r.r.r.r.",
"r.r.r.r.r.e.` ` Q U U ! ! G Z Z T Y Y Y W W L 9 9 r.r.3.G G ~ U U U H H Q Q P C C L ( ( o.p r.r.r.r.",
"r.r.r.r.r.e.^ ^ E T T W W G Z Z W Y Y Y Q Q L q q r.r.4.A A ! U U U U U W W P C C L ( ( +.y r.r.r.r.",
"r.r.r.r.r.e.^ ^ E T T W W G Z Z W Y Y Y Q Q L q q r.r.4.A A ! U U U U U W W P C C L ( ( +.y r.r.r.r.",
"r.r.r.r.r.e.` ` R R R T T H D D W Y Y Y ! ! W y y r.r.r.A A W U U U P P ^ ^ P C C L ( ( &.g r.r.r.r.",
"r.r.r.r.r.e.~ ~ Y ! ! P P H S S ! Y Y Y ! ! ! t t r.r.r.S S R R R L U U ~ ~ I B B J ( ( =.b r.r.r.r.",
"r.r.r.r.r.e.~ ~ Y ! ! P P H S S ! Y Y Y ! ! ! t t r.r.r.S S R R R L U U ~ ~ I B B J ( ( =.b r.r.r.r.",
"r.r.r.r.r.e.I I W / / G G J D D ! Y Y Y ! ! ( w w r.r.r.J J W E E L T T W W ! J J K ( ( *.m r.r.r.r.",
"r.r.r.r.* e.T T W ( ( S S J G G ! Y Y Y ! ! / 0 0 r.r.;.G G T E E L R R ] ] ! Y Y K ( ( %.n r.r.r.r.",
"r.r.r.r.r.e.T T W ( ( S S J G G ! Y Y Y ! ! / 0 0 r.r.;.G G T E E L R R ] ] ! Y Y K ( ( %.n r.r.r.r.",
"r.r.r.r.r.e.I I T ` ` G G Y S S ! Y Y Y ! ! _ y y r.r.-.U U I E E L ^ ^ _ _ ! Y Y K ^ ^ %.s r.r.r.r.",
"r.r.r.r.r.6.L L K ] ] Y Y Y D D ! Y Y Y ! ! ) j j 8 8 :.W W P Q Q H ( ( ^ ^ ! R R H ( ( &.i r.r.r.r.",
"r.r.r.r.r.6.L L K ] ] Y Y Y D D ! Y Y Y ! ! ) j j r.r.:.W W P Q Q H ( ( ^ ^ ! R R H ( ( &.i r.r.r.r."
};
