/* XPM */
static char *result[] = {
/* columns rows colors chars-per-pixel */
"50 50 142 2 ",
"   c #000000",
".  c #080000",
"X  c #000408",
"o  c #0B0C0C",
"O  c #110900",
"+  c #0B0F17",
"@  c #2A1E03",
"#  c #3B120C",
"$  c #381E12",
"%  c #382011",
"&  c #151D31",
"*  c #202020",
"=  c #2F353F",
"-  c #4F130B",
";  c #5C160E",
":  c #6D190F",
">  c #7B190E",
",  c #611D12",
"<  c #731E12",
"1  c #533E08",
"2  c #5F341D",
"3  c #452A09",
"4  c #742317",
"5  c #76590E",
"6  c #71560D",
"7  c #7B4315",
"8  c #7B5C10",
"9  c #664C09",
"0  c #7A4D2A",
"q  c #7C542E",
"w  c #202C4A",
"e  c #243154",
"r  c #2F406C",
"t  c #334575",
"y  c #4C525F",
"u  c #70675E",
"i  c #9D1D0E",
"p  c #811F12",
"a  c #8D1F11",
"s  c #901F11",
"d  c #A81F10",
"f  c #A71F10",
"g  c #9E301D",
"h  c #BD200F",
"j  c #A12519",
"k  c #A92111",
"l  c #B32719",
"z  c #BA2817",
"x  c #A73D1F",
"c  c #B8371D",
"v  c #C0200F",
"b  c #CE200E",
"n  c #D62D1C",
"m  c #D63D1D",
"M  c #D83221",
"N  c #DF3F2E",
"B  c #8D5613",
"V  c #824714",
"C  c #997317",
"Z  c #885834",
"A  c #9C5531",
"S  c #A56D39",
"D  c #D84521",
"F  c #E74D3D",
"G  c #AE6C42",
"H  c #AD7B4B",
"J  c #B68815",
"K  c #BD9125",
"L  c #B18D33",
"P  c #D19C15",
"I  c #EFB41C",
"U  c #FEBB13",
"Y  c #C99B2A",
"T  c #D79730",
"R  c #CEA02C",
"E  c #E6AB27",
"W  c #E4B12F",
"Q  c #EBB328",
"!  c #F0B523",
"~  c #FFC73F",
"^  c #FFC83F",
"/  c #AD825A",
"(  c #BD966B",
")  c #BCA975",
"_  c #C68D58",
"`  c #CF965F",
"'  c #EC8A42",
"]  c #DCA26B",
"[  c #C4AF77",
"{  c #C6B177",
"}  c #CAB477",
"|  c #CCB579",
" . c #CBB579",
".. c #D4BC7B",
"X. c #D8BF7C",
"o. c #F1B67F",
"O. c #FFC941",
"+. c #D7C07F",
"@. c #DAC17D",
"#. c #FFD366",
"$. c #3A4F87",
"%. c #747C8E",
"&. c #4E6AB3",
"*. c #9AA2B9",
"=. c #A7A8A7",
"-. c #CEB981",
";. c #DEB284",
":. c #D4BE82",
">. c #E7BA94",
",. c #D6C084",
"<. c #DCC483",
"1. c #D6C28A",
"2. c #DCC68A",
"3. c #DFC88C",
"4. c #DAC793",
"5. c #DEC992",
"6. c #DFCC9A",
"7. c #E0C783",
"8. c #E3CA85",
"9. c #E9CE87",
"0. c #E3CC8B",
"q. c #E8CF8A",
"w. c #FFC38C",
"e. c #E7D08F",
"r. c #EAD18E",
"t. c #E3CD92",
"y. c #E2CE99",
"u. c #EFC794",
"i. c #E6D094",
"p. c #EAD394",
"a. c #E6D29A",
"s. c #EBD59B",
"d. c #EED89E",
"f. c #E6D4A2",
"g. c #EBD6A1",
"h. c #EED9A2",
"j. c #EEDBA9",
"k. c #F0DDAB",
"l. c #F1DFB1",
"z. c #F1E0AF",
"x. c #D2DEFC",
"c. c #F3EDE7",
/* pixels */
"3.s.) s.X.3.0.5.s.<.p.p.<.a.8.5.s.8.s.<.3.y.p.@.0.j.q.<.0.<.@.k.7.@.e.8.3.p.:.i.<.1.t.@.p.3.p.s.3.p.",
"7.0.7.0.p.X.p.,.a.7.0.s...r.j...t.p...i.8.s.9.<.j.X.i.<.j.p...0.<.p.<.e.X.d.<.8.0.9.p.0.p.p.0.i.a.9.",
"0.7.@.i.s.X.3.8.y.s.2.s.2.0.9.2.h...s.t...<.s.0.i.<.p.d...1.a. .<.g.0.e...5.t.<.s.0.s.r.r.0.0.r.<.p.",
"0.@.@.p.8.s.,.3.t.7.s.8.s.y.@.<.h.| s.5.@.h.r.{ l.} s.a.,.a...y.,.d.0.9.X.i.p.0.<.p.a.i.0.<.i.e.p.p.",
"p.<.8.i.<.,.q.0.s.7.s.8.0.e.t.8.<.e.r.p...i.p.,.0.<.s.0.,.h...0.0.0.0.7.s.0.t.t.s.<.p.9.p.a.3.2.<.p.",
"0.i.<.<.t.8.t.s.2.q.0.0.<.p.<.3.d.X.q.y.p.<.0.t.<.s...p.,.7.a.<.s.@.0.i.<.0.a.p.<.<.s.s.0.8.p.@.0.3.",
"9.p.8.@.8.t.g.| s.0.<.0.p.<.8.h.<.5.2.8.0.p.s...8.s.:.i.s.X.0.1.<.0.e.r.0.3.0.k.3.7.h.@.p.0.8.7.p.| ",
"<.<.@.d.@.t.4.t.s...0.t.f.3.2.2.i.t.0.:.s.<.s.X.q.y.,.2.0.r...<.p.p.X.<.h.8.p.d.<.a.+.p.g.0.@.:.i.0.",
"..0.p.X.8.p.p.h.) p.s.,.r.9.0.s.<.0.<.p.,.p.0.<.0.q.a.7.0.X.p.:.0.0.<.j.0.@.i.h.<.g.+.a.8.0.0.<.X.r.",
"8.8.2.2.<.r.0.3.y.<.0.y.<.0.d.7.X.r.8.r.9.7.p.q.2.i...s.| q.t.0.9.0.@.9.j.s.<.a.r.0.3.,.5.<.a.3.0.0.",
":.3.s.@.<.g.3.2.2.s.q.p.@.8.r.0.2.q.p.q.:.e.0.,.s.X.a.:.s.8.| y.7.@.j.0.j.<.p.p.@.0.p.+.r.7.8.j.i.0.",
"0.s.X.t.1.a.@.p.0.5.3.3.t.0.7.r.t.0.2.r.8.p.<.p.X.7.q.t.} t.t.0.8.r.7.p.5.g.1.p.<.X.p.<.2.i.p.t.i.,.",
"0.p.@.0.0.p.<.q.9.p.p.0.X.0.<.0.q.q.p.q.X.0.t.X.h.:.2.8.0.:.a.,.a.<.8.s.t.g.X.j.<.X.i.<.0.d.<.h.p.<.",
"0.X.8.s.8.t.t.<.t.@.s.q.2.<.d.<.2.7.<.p.p.2.<.0.p.:.y.2.s.} s.X.p.2.s.8.p.0.,.p...<.j.| j.p.0.s.{ r.",
"i.@.t.q.s.8.@.h.<.3.0.0.0.<.s.2.3.0.        q.s...p.:.@.<.s.8.y.0.7.0.s.9.t.2.2.8.3.7.r.h.<.z...<.0.",
",.8.t.<.t.0.i.8.0.s.:.t.2.@.p.2.i.  C R R C     p.X.4...y.0.7.:.h.,.f.6.t.X.p.X.y.0.r.0.t.9.h.<.+.@.",
"0.<.2.s.8.<.p.2.q.p.<.p.0.p.8.,.  # 4 4 c Y Y 1   s.| p.<.s.0.@.r.0.<.r.s.0.0.<.t...h.3.r.@.p.3.@.X.",
"0.<.y.:.h.@.8.2.p.0.h.| p.s.<.  L #.#.Y D c O.K       7.s.<.r.<.,.h.@.r.0.i.<.<.0.a.9.s.<.7.i.9.,.f.",
"@.p.X.h.5.<.s.0.<.0.j.2.8.t.  L #.O.E #.' m C ~ 1   A       7.p.h.8.<.d.0.X.8.3.i.<.s.p.8.e...0.3.z.",
"p.<.q.s.q.7.0.8.8.8.0.p.0.<.  O.Q U ! #.' m B O.6 u   ] _ A       2.i.3.0.@.r.@.i.s.a.y.:.3.@.8.k.8.",
"..,.p.0.<.y.0.0.p.<.t.h...t.  O.U ~ Q O.' m 7 #.5   $ 2 A _ w.w.A   r.X.9.<.t.i.8.p.r.t.8.<.s.:.s.<.",
"0.2.q.0.7.8.0.t.q.8.<.g...p.  T I U O.E ' m 7 #.C >./ $ - $ _ $ A   0.X.s.:.0.p.s.2.p...i.@.4.g.@.8.",
"s.<.X.h...<.p.t.7.s.0.2.s.<.  8 T T T T l b 7 #.C c.>./ $ - $ H $   t.X.3.0.0.r.s.0.3.3.2.s.X.i.0.g.",
"p.p.<.0.7.j.@.t.<.p.h.7.5.2.h.  5 8 8 4 g 4 B O.5   u.( 2 s - $   p.8.{ 8.i.t.p.0.r.<.8.p.,.d.0.p.<.",
"@.a...h.7.2.s.a.0.8.8.8.a.t.<.  # , , 4 4 7 P W 1 =.] H 2 0 b -   <.3.3.i. .p.r.0.p.<.0.7.r.g.X.s.i.",
"s.<.<.p.0.t.5.0.0.s.0.8.t.:.y.3.  # # 3 V P W 9 @ q q 2 S ;.s b s   7.8.@.h.@.j.@.t.<.d.<.0.@.r.k.<.",
"7.h.p...a.i.@.p.0.k.q...t.t...p.  1 C C J J 1 @ *   $ S ;.;.0 - n b X   | h.<.d.0.3.7.0.,.a.y.h.| <.",
"8.p.q.p.<.a.t.a.7.d.:.s.0.:.:.9.0.  1 C C 1 O   o # , , , s D U s b b -   p.7.h.<...t.<.s.p.8.s.t.X.",
"p.r.0.s.8.t.0.g.8.4.2.i.0...8...7.0.        , # a s s s b b b F - s b b s   p.,.p.0...8.a.f.2.8.<.y.",
"0.,.h.5.0.a.,.s.0.0.s.| p...3.<.<.p...a.7.  2 d d N b n n M M b F U - p & w   0.<.8.0.X.h.0.g...0.i.",
"0.t.X.p.r.p.0.7.0.a.<.p...:.<.e.{ d...5.q.  S w.` x M b M M b b b F > + & $.+   X.7.3.p.,.p.s.0.<.8.",
"<.0.0.9.r.p.8.0.0.:.3.5.:.<.0.t.} y.<.5.@.. S >.` S d M b b b v h M M p w $.w %.  0.@.t.5.0.a.2.2.0.",
"<.p.8.d.,.i...0.0.d. .0...s.8.[ k.X.7.8.h.<.  _ _ 2 2 , d i i i M v l M p $.r x.. @.9.d.+.s.e.9.a.0.",
"7.h.r.} z.| y.:.8.8.t.@.8.@.p...7.d.p.:.p.p.  S _ S 2   # > i h h k l l 4 w r x.  p.7.r.s.<.@.8.i.+.",
"2.2.0.s.q.| 8.t.3.X.@.p.<...0.a.p.,.<.p.d.| h.  _ ;.2     : ; a j l l n e + %.%.2           p.8.<...",
"<.s.<.s.0...s...:.y...i.0.2.t.i.s.8.y.0.,.s.X.X 2 w.S   p.  ; < a v M e $.& O w ] _ w.2 Z ]   @.k.,.",
"0.8.8.7.7.p.<.9.<.X.d.8.,.g.:.s.@.p.p.7.@.r.<.@.. S ` 2   <.  ; j j p e &.$.  X A w.w.w.2 2   3.0.X.",
"8.s.X.0.7.0.X.:.9.s.t.<.s.s.,.0.p.@.q.8.X.p.<.2.. 2 ` S 2   p.  & & & t &.$.w X 2 G _ 2 _ w.  g.@.t.",
" .8.r.0.<.0.<.0.q.<.h.0.p.0.0.,.j.@.3...d...@.8.0.  A w._ 2       & w $.&.$.w %.X 2 Z 2 Z 2   @.@.p.",
"<.0.0.<.@.t.7...s.t.s.8.X.h.q.5.y.<.<.X.0.t.@.X.0.t.  A w.] A _     & w $.$.r x.            1.<.0.0.",
"7.t.:.7.q.:.@.s.7.s.0.0.7.k.<.8.<.3.0.3.X.<.s.<.<.<.a.X A w.w.2 A     & & r *.x.  a.7.i.3.@.0.0.@.d.",
"t.0.:.t.X.p.8.e.0.t.2.8.h...s.X.8.8.0.<.3.0.X.0.i.t.h.t.  A w._ %     y %.%.x.%.  d.@.e.i.| 3.8.0.g.",
"4.0...i.s.:.p.e...d.y.<.0.t.X.s.@.<.<.8.<.3.p.t.s.<.9.h.<.  A _ A   :.  y y y 2 A           ,.i.,.g.",
"..8.e.0...h.y.7.,.s.s.2.:.X.h.7...7.p.3.0.p...d.p.0.i.2.8.s.  .   i...5.  X   A w._ ] 2 _ w.  <.e.0.",
"r.8.X.h.t.@.p.0.p.d.) g.0.8.<.4.8.7.0.i.:.s.0.h.<.t.r.s.{ t.t.{ 3.i.3.r.,.i.i.  A w.w.] 2 2   0.e.j.",
"X.i.p.u.p.| p.0.r.y.8.<.s.| e.[ i.9.0.0.p.0.<.p.2.y.8.p.X.8.X.0.i.0.@.i.0.8.a.  2 G _ 2 _ ]   0.a.3.",
"q.| i.t.t.s.<.p.p.7.@.0.0.:.q.7.7.q.s.,.8.s.t.0.2.t.7.t.@.2.t.X.i.5.@.0.7.h.a.0.  2 Z 2 Z 2   a.<.j.",
"X.h...s.<.a.2.h.X.s.} 7.0.t.0.0.@.0.p.g.@.s.7.p.0.<.8.<.2.p.:.p...3.p.a.3.h.{ h.<.          t.s.8.<.",
"X.h.4.4.t.e.0.t.@.r.<.p.<.+.i.t.<.7.s.e.p.t.0...p.,.i.<.X.<.p.0.e.} j.p.3.<.e.d.<...,.i.i.,.z.<.8.0.",
"r.0.0.s.<.0.<.p.<.0.t...r.@.q.3.t.e.0.0.i.<.0.0.7.p.7.@.@.r.<.r.0.i.g.0.<.i.3.e.| <.d.<.@.r.j.@.f.r."
};
