/* XPM */
static char *result[] = {
/* columns rows colors chars-per-pixel */
"50 51 143 2 ",
"   c #000000",
".  c #000408",
"X  c #0A0606",
"o  c #110900",
"O  c #0B0F17",
"+  c #2A1E03",
"@  c #3B120C",
"#  c #381E12",
"$  c #382011",
"%  c #151D31",
"&  c #202020",
"*  c #2F353F",
"=  c #4F130B",
"-  c #5C160E",
";  c #6D190F",
":  c #611D12",
">  c #731E12",
",  c #7B190E",
"<  c #533E08",
"1  c #5F341D",
"2  c #452A09",
"3  c #742317",
"4  c #76590E",
"5  c #71560D",
"6  c #7B4315",
"7  c #7B5C10",
"8  c #664C09",
"9  c #7A4D2A",
"0  c #7C542E",
"q  c #202C4A",
"w  c #243154",
"e  c #2F406C",
"r  c #334575",
"t  c #4C525F",
"y  c #70675E",
"u  c #9D1D0E",
"i  c #811F12",
"p  c #8D1F11",
"a  c #901F11",
"s  c #A81F10",
"d  c #A71F10",
"f  c #9E301D",
"g  c #BD200F",
"h  c #A12519",
"j  c #A92111",
"k  c #B32719",
"l  c #BA2817",
"z  c #A73D1F",
"x  c #B8371D",
"c  c #C0200F",
"v  c #CE200E",
"b  c #D62D1C",
"n  c #D63D1D",
"m  c #D83221",
"M  c #DF3F2E",
"N  c #8D5613",
"B  c #824714",
"V  c #997317",
"C  c #885834",
"Z  c #9C5531",
"A  c #A56D39",
"S  c #D84521",
"D  c #E74D3D",
"F  c #AE6C42",
"G  c #AD7B4B",
"H  c #B68815",
"J  c #BD9125",
"K  c #B18D33",
"L  c #D19C15",
"P  c #EFB41C",
"I  c #FEBB13",
"U  c #C99B2A",
"Y  c #D79730",
"T  c #CEA02C",
"R  c #E6AB27",
"E  c #E4B12F",
"W  c #EBB328",
"Q  c #F0B523",
"!  c #FFC73F",
"~  c #FFC83F",
"^  c #AD825A",
"/  c #BD966B",
"(  c #BBA875",
")  c #C68D58",
"_  c #CF965F",
"`  c #EC8A42",
"'  c #DCA26B",
"]  c #C2AE77",
"[  c #C6B177",
"{  c #CAB477",
"}  c #CCB579",
"|  c #CFB87A",
" . c #C7B278",
".. c #D4BC7B",
"X. c #D8BF7C",
"o. c #F1B67F",
"O. c #FFC941",
"+. c #D7C07F",
"@. c #DAC17E",
"#. c #FFD366",
"$. c #3A4F87",
"%. c #747C8E",
"&. c #4E6AB3",
"*. c #9AA2B9",
"=. c #A7A8A7",
"-. c #CEB981",
";. c #DEB284",
":. c #D4BE82",
">. c #E7BA94",
",. c #D6C084",
"<. c #DCC483",
"1. c #D7C28A",
"2. c #DCC68A",
"3. c #DFC88C",
"4. c #DBC792",
"5. c #DEC992",
"6. c #DECC9B",
"7. c #E0C783",
"8. c #E3CA85",
"9. c #E9CE87",
"0. c #E3CC8B",
"q. c #E8CF8A",
"w. c #FFC38C",
"e. c #E7D08F",
"r. c #EAD18E",
"t. c #E3CD92",
"y. c #E2CE99",
"u. c #EFC794",
"i. c #E6D094",
"p. c #EAD394",
"a. c #E6D29A",
"s. c #EBD59B",
"d. c #EED89E",
"f. c #E6D4A2",
"g. c #EAD6A1",
"h. c #EED9A3",
"j. c #EEDBA9",
"k. c #F0DDAA",
"l. c #F1DFB1",
"z. c #F1E0AF",
"x. c #F2E1B4",
"c. c #D2DEFC",
"v. c #F3EDE7",
/* pixels */
"i.<.1.t.2.<.3.d.:.t.p.p.p...j.,.3.d.@.p.4.a.1.y.8.0.d.,.q.i.p.9.8.3.@.3.<.9.t.<.3.p.3.0.0.a.@.i.p.@.",
"3.s.( s.X.          p.p.2.i.7.5.s.2.s.,.3.t.p.X.i.h.9.,.0.8.@.j.7.@.e.8.8.p.,.p.2.2.t.@.p.3.p.d.2.s.",
"@.r.8.0.  K ! ! Y 7     ..r.k...0.s...p.8.s.8.<.k.X.i.8.j.p...3.@.s.<.0...d.,.8.3.q.s.9.i.p.q.t.d.8.",
"q.@.@.  K #.R I P Y 7 @     9.2.h.| d.t...8.s.q.p.,.p.d.X.:.s.{ 2.d.i.r...6.0.<.s.8.p.i.e.q.3.r.8.p.",
"i.@.  @ #.~ I ~ I Y 7 : @ <   8.h.| s.0.X.h.p.] l. .d.a.,.a.:.y.:.s.0.8.X.i.p.t.2.p.p.t.0.2.p.r.p.p.",
"p.  V 3 #.R Q W O.Y 7 : @ V <   2.9.r.p...a.p.,.0.X.d.7.,.h.| 0.8.8.0.8.d.0.3.t.s.@.s.8.p.a.2.2.2.r.",
"q.  T 3 U #.#.O.E Y 3 3 2 V V   d.X.0.y.y.<.0.0.2.d...p.:.7.a.,.d.@.0.i.,.8.a.p.<.8.s.s.q.8.s...8.3.",
"8.  T x S ` ` ` ` k f 3 B H V   <.3.3.8.8.p.d...7.a.:.i.d.X.t.,.2.0.t.q.q.3.q.k.3.<.d.@.s.9.<.8.p.| ",
"7.  V U x n n n n v 3 6 L H <         ,.d.<.s.X.q.p.<.<.t.i.X.@.p.a.X.8.h.2.d.d.<.s.:.p.f.0.X.X.t.8.",
"..q.  U ~ V N 6 6 6 N L E < o : 1 A A     p.3.7.8.t.y.<.0.X.p.:.0.q.,.h.0.@.t.h.2.g.+.a.8.0.3.2...r.",
"8.8.  < J ~ O.#.#.#.~ E 8 +   @ s w.w.) A   . 0.<.i...d.} q.i.8.8.0.@.9.j.p.2.i.r.2.3.,.5.2.a.3.0.0.",
":.0.d.    < 5 4 V V 4 < + & X p s _ _ ) ) ) 1 .   X.a.:.a.0.} t.7.@.j.q.k.2.r.p.+.9.p.X.9.8.9.h.a.0.",
"t.d.X.6.    y   >.v.  =.0   @ p M z A 1 A o.w.A 1   p.0. .y.0.t.8.0.8.p.3.j.,.p.2.@.p.<.2.t.e.6.i.,.",
"8.r.,.8.  Z   # ^ >.u.' 0 $ : a v m s 1 1 1 A _ _ Z   8.q.:.a.<.a.3.7.d.0.g...k.@...p.<.q.d.2.s.r.2.",
"0.X.8.p.8.  ' 1 # ^ / G 1 A : a b v m :       1 A w.Z . a. .a.X.i.8.s.8.p.0.,.d...2.h...k.p.8.s.{ q.",
"a.@.t.r.s.  ) Z = # 1 1 A ;.: v b m v s @   9.  1 ) w.Z   d.8.y.8.8.9.s.8.y.1.2.7.3.8.0.h.1.x.X.2.8.",
",.7.t.,.0.  Z ) # = a 9 ;.;.a v b m v u , ;   4.  1 ' w.Z   2.@.h.:.f.y.t...p.,.t.0.r.t.i.8.h.<...,.",
"9.<.2.s.8.<.  w.) # = v a 9 M v m v v u u - -   }   Z w.w.Z   @.r.i.<.r.s.0.0.<.i.| h.8.p.@.p.8.@.X.",
"q.2.y.:.g.<.  w.# G # = v = I D v v c u g a > -     ) 1 ) )   7.+.h.X.q.q.i.,.<.0.a.q.s.<.8.i.8.2.s.",
"X.p.X.d.t.,.  Z Z #     a b a = D v c m g h p h %     Z # Z   d.h.8.,.d.0...8.0.a.<.s.p.8.0...0.3.l.",
"q.3.9.a.r.7.9.      0.p.  v v a I D m l j l c f % %         p.<.j.2.y.0.0.<.q.@.t.s.s.6...8.<.8.k.8.",
"..1.p.8.<.y.0.0.p.2.t.d.... v v = i b k k k b i % q %     <.3.g.9.0.p.X.8.7.t.i.8.p.9.i.8.<.s.:.d.<.",
"8.3.0.t.<.8.3.t.r.8.<.f...  = v i O , b k b w w r $.q % t   p.p.2.r.7.X.d.| t.p.s.2.s...a.+.4.g...8.",
"p.8...j...2.p.t.8.p.0.3.s.<.  a % % q i i w $.&.&.&.$.% %.t   q.s.t.t...0.t.8.r.s.e.<.2.2.s...p.q.g.",
"p.p.X.0.2.d.@.0.2.p.d.2.3.3.h.  q $.$.$.q O % $.$.$.$.e %.t . r.d.p.8. .8.p.t.r.0.r.<.8.s.,.d.0.p.,.",
",.a...h.7.2.g.s.8.8.3.8.i.t.,.q.  O q e e %.X   q q e *.c.t   p.i.,.8.4.p.{ i.r.8.s.@.0.@.q.d.X.d.i.",
"s.<.7.p.t.t.t.0.8.j.8.8.t.:.a.4.e.  %.c.c.%.q X . %.c.c.%.1 Z     :.8.8.@.d.@.j.X.t.3.d.7.8.@.r.k.@.",
"8.d.r.X.a.i.X.p.0.j.r...t.t...p.+.0.      1 ' Z 1 .       Z w.Z 1   s.0.} h.<.d.0.3.7.q.1.a.y.j.} 8.",
"8.d.0.p.<.a.t.a.<.d.,.s.8.,.,.9.2.<.@.p.X.  ) w.F 1   t.t.  ) w.F 1   ] t.s.8.h.2...t.X.a.p.0.p.t...",
"s.9.0.a.8.t.0.s.3.2.2.p.t...8...8.8.i.8.8.  w.w.) C   i.d.  ' w.) C   ,.s.9.p.,.p.8...0.a.a.<.0.<.y.",
"8.<.d.t.0.s.1.s.0.9.s.| r...3.@.<.i.| a.2.  1 w.1 1   a.8.  1 ' 1 1   p.2.p.s.0.<.8.8.:.h.3.h...0.i.",
"0.0...s.0.p.0.<.0.a.,.i...:.3.e.[ d...5.q.  C 1 ) C   1.q.  ) 1 ) C   9.0.q.t.8...8.3.p.@.s.p.0.2.7.",
",.q.0.q.r.s.8.3.q.:.3.2.1.<.0.t.{ y.<.t.<.  ' 1 w.1   q.2.  w.1 ' 1   r.d.7.h.2.@.0.@.y.t.0.a.8.1.0.",
"7.s.8.d.,.i.X.8.8.h.{ q.} s.8.] k.X.7.8.h.<.        s.<.7.<.        3.p.p.0.s.] 0.@.8.h.X.s.q.0.f.8.",
"7.h.r.{ l. .y.:.8.8.5.<.8.@.s...7.d.p.:.r.d.0.5.:.t.,.,.0.d.X.,.2.p.,.d.<.p.7.<.9.p.7.q.d.,.<.9.p.X.",
"8.1.t.i.q.| 8.t.8.X.<.p.<...q.a.r.2.<.p.d.} d.<.,.8.q.t.X.8.2...t.h.8.8.7.h.3.s.@.7.h.0.@.0.p.8.,.X.",
"<.a.<.d.8...d...:.y...t.0.2.t.t.s.0.y.7.:.d...i.8.0.:.X.p.,.3.8.7.x.X.7.0.d.0.8.0...j.8.8.h.} @.k.,.",
"t.7.8.<.7.p.<.9.<.@.d.8.1.g.X.s.@.p.p.8.@.r.,.@.s.X.@.q.8.,.p.8.0.8.y.g.8.] p.r.2.y.3.r.9.t.<.3.9...",
"8.s...q.8.0.:.,.9.p.t.<.d.a.1.3.p.,.9.2.X.p.8.<...8.5.a.7.@.i.0.d.9.i.,.3.7.7.<.9.0.t.h.<.d.( s.@.t.",
"} 8.r.0.@.7.7.8.q.<.j.8.p.q.8.,.j.@.3...d...@.7.8.@.a.p...d.9.<.s.2.3.0.7.d.} 8.0.r.h.q.3.8.8.@.,.p.",
"<.q.u.:.7.t.8.| d.y.p.8.X.h.q.4.t.8.<.X.8.a.@...8.5.<.d.8.p.0.q.i.0.i.8.3.3...0.p.9.i.<.i.<.1.,.0.0.",
"2.p.,.7.q.:.@.a.<.p.t.0.7.k.@.0.<.0.8.2...,.d.8.,.3.a.t.7.a.,.d.i.<.h.{ 8.8.@.i.a.i.8.i.2.@.0.0.X.h.",
"0.8.| t.X.p.0.t.0.t.3.8.h...a.X.8.@.8.3.3.p...0.i.t.d.t.9.,.t.@.h.@.p...8.,.i.0.q.s.+.r.i.} 3.8.0.h.",
"2.i...i.i.:.p.q...d.y.<.i.q.X.d.@.3.2.8.@.8.p.0.p.@.9.h.,.t.p.0.8.@.,.i.[ p.i.5.0.a.i.2.3.8.,.a.,.g.",
"| 8.i.0...h.i.0.@.d.a.1.:.X.h.7...@.p.8.0.a.:.d.s.0.a.,.8.s.<.,.2.i...5.0.i.2.s.0.s...p.8.@.i.<.0.0.",
"p.8.X.h.i.@.i.8.a.h.( h.0.7.<.1.9.@.9.a.:.p.0.d.7.t.r.a.{ t.0. .8.i.3.r.,.i.i.+.s.5.9.+.<.8.8.e.q.j.",
"X.i.p.i.p.| s.7.r.i.7.<.h.| i.[ i.9.8.t.a.0.3.p.2.y.8.s...8.X.0.t.t.@.i.8.8.a.0.e.p.<...i.8.e.0.a.3.",
"q...p.0.i.a.,.p.p.7.X.0.0.:.9.<.2.9.h.,.7.d.4.0.0.t.8.0.@.3.t...a.3.@.0.<.j.i.q...t...q.d.2.8.a.3.k.",
"..h...f.@.d.2.h.X.s.{ 2.9.0.0.8.,.q.r.d.@.a.7.p.8.2.8.<.2.p.:.d...3.p.t.3.h.{ h.<.@.@.p.<.a.t.s.8.,.",
"X.h.4.6.t.t.7.t.X.q.7.s.@.@.a.0.<.8.s.0.p.t.q...p.:.0.8.X.<.p.8.9.{ h.s.3.2.0.h.2.| @.p.i.,.j.8.8.0.",
"r.8.8.a.7.9.<.d.,.0.t...t.7.9.3.t.t.0.0.a.@.0.0.8.p.7.@.X.p.,.r.0.i.g.t.,.0.3.p.| 8.d.<.@.r.j.@.f.0."
};
