/* XPM */
static char *ca64648337d04fa1c69aeebd4e46bdf5ygWT2Baq9un4rlEc[] = {
/* columns rows colors chars-per-pixel */
"50 51 129 2 ",
"   c black",
".  c #22142F",
"X  c #20222F",
"o  c #4C3A02",
"O  c #560D23",
"+  c #553332",
"@  c #7A6010",
"#  c #0B0858",
"$  c #301D42",
"%  c #381261",
"&  c #750E40",
"*  c #3B4060",
"=  c #7F4E4D",
"-  c #4E5476",
";  c #83203E",
":  c #86145A",
">  c #A01558",
",  c #B72B4F",
"<  c #A86B69",
"1  c #C74068",
"2  c #BA9831",
"3  c #BBA875",
"4  c #C2AE77",
"5  c #C6B177",
"6  c #CAB477",
"7  c #C7B278",
"8  c #CCB679",
"9  c #CFB87A",
"0  c #D4BC7B",
"q  c #D8BF7C",
"w  c #FBDD5D",
"e  c #D7C07F",
"r  c #DBC17D",
"t  c #211DA8",
"y  c #3019A2",
"u  c #5E269A",
"i  c #5E6F86",
"p  c #C3388D",
"a  c #CD388A",
"s  c #DF5A9B",
"d  c #EE5FAE",
"f  c #F673BB",
"g  c #934CCC",
"h  c #B06DE6",
"j  c #CB8E8C",
"k  c #DA9E9C",
"l  c #F78396",
"z  c #CEB981",
"x  c #DBB786",
"c  c #D5BE82",
"v  c #DCB789",
"b  c #D6AA90",
"n  c #E1BC8D",
"m  c #E5B791",
"M  c #E0BD91",
"N  c #E9BF97",
"B  c #E6BD9E",
"V  c #E8BB9F",
"C  c #FF83AD",
"Z  c #E2B8AA",
"A  c #F9B0BB",
"S  c #D6C084",
"D  c #DCC483",
"F  c #D7C38C",
"G  c #DCC689",
"H  c #DFC88C",
"J  c #DAC792",
"K  c #DDC992",
"L  c #DFCC9A",
"P  c #E0C783",
"I  c #E3CA85",
"U  c #E9CE87",
"Y  c #E1C58D",
"T  c #E3CB8B",
"R  c #E8CF8A",
"E  c #E7D08F",
"W  c #EAD18E",
"Q  c #E1C693",
"!  c #E4CD92",
"~  c #E8C890",
"^  c #E4C79C",
"/  c #E2CE99",
"(  c #E8CB9D",
")  c #E6D094",
"_  c #EAD293",
"`  c #E9D191",
"'  c #ECD391",
"]  c #ECD493",
"[  c #E9D295",
"{  c #EAD397",
"}  c #EAD295",
"|  c #EBD597",
" . c #ECD597",
".. c #ECD594",
"X. c #EAD393",
"o. c #E7D29A",
"O. c #E7D298",
"+. c #E6D29A",
"@. c #E9D398",
"#. c #EAD499",
"$. c #EDD698",
"%. c #ECD79B",
"&. c #E9D59E",
"*. c #EDD79C",
"=. c #EBD59A",
"-. c #EED89D",
";. c #EED89E",
":. c #ECC9A0",
">. c #E7D5A1",
",. c #E6D4A2",
"<. c #EAD6A0",
"1. c #EBD7A2",
"2. c #EED9A1",
"3. c #EEDAA4",
"4. c #EFDCA6",
"5. c #EEDAA3",
"6. c #EEDBA9",
"7. c #F1DDAB",
"8. c #E7CFB6",
"9. c #F1DFB2",
"0. c #F1E0AF",
"q. c #9EAEC3",
"w. c #FF9FC0",
"e. c #FF9FC0",
"r. c #F9A5D3",
"t. c #F6DEC6",
"y. c #E8E9F4",
"u. c white",
"i. c white",
/* pixels */
"*.T Y r ;.D I D D ` ! G G I [ D L G [ 7 [ 0 [ H *.P  .R D @.9 H 4.0 4.| I *.5 W G [ I R I @.P / [ r ",
"T R ! P O.G H T ' r D U T *.0 ` D q D <.I / I I R $.I / F H P H D ! 5.D 9.0 G I G G ! S  .G  .$.G | ",
"c ! G         ! D ` T c ! F ' q J c / I G D 3.S ,.L R 0 ' c ! I E R ` T 5.D 0 D I T ] T [ [ T / *.U ",
"D [   p e.C p     r D     E 0 ) 8 [ D @.I r E ! G W ,.I I D / c 5.I X.r | G r 0 ;.I | E ` R I E P ` ",
"4.  X - - * * p p       C   0 R I D ) G ` D 0 4.q U U @.D c I &.U #.D I ) U G ,.G ` @.) I G [ R `  .",
"6.  - p e.e.C X X   :   p   @.r K D ! 0 P  .5.I D 2.I 0 I ! / D #.| I T 8 E D 9.*.r $.P [ +.H G I ! ",
"T   p C C C e.p X i u.i       I / T T 5 ] S 6.      I P R q ! $.&.L c I r I 6.I D I #.#.R I $.q I H ",
"!   p s C w.u.e.w.C   w   p   [ G ` 0 D I 1.  h g u   P / [ I ] U / I D *.0 ;.I H D 5.r $.T P I [ 8 ",
"D     e.p     : : : s @   :   r #.S K D ]   h u u g u   ! ' *.D  .0 #.0 J 3.0 D D O.c [ <.T 0 0 / I ",
"T   C e.  < +     : : s s :   G ) 7       h u > w 1 g   T ` *.R D G G *.0 ` R <.H 5.e ) I T T H 0 W ",
"5.  C     < 8.<       :               g h u > 2 1 > u   /     ` G P [ D ;.T ` D U H ! S L D [ H U T ",
"G   C   : y 8.j y u.+       A A 1 l l 1   u > > > u %     g g   D I D ) <.0 5.) q I ] 0 T I I 4.O.T ",
"I   p : :   j 8.t.j     + t.l A 1 1 l l ;   u u u %     g ; % u   5.D I P R 7.r I 0  .G F ! E / / D ",
"E 0   C : :   < j + t   < k 1 O         1   % % u u g g ; 2 ; %   R G / ! 7.9 P D 0 ` D U 5.D 5.E G ",
"e *.  p         + # # k t.t.1         f f r.  % % % % ; 2 2 ; %   D #.[ U ( ! 0 9 G 5.0 7.[ I #.7 R ",
"G ) T   I 0   #     t.t.u.t.1 l ;     > q.i   % % % % % ; ; % %   I     D U D ! I H G R 1.G 9.0 D I ",
"@.8 ` 0 H D   t   , k t.u.u.l w 2 O     a     % % % % % % % %       $ $   0 T ) ! I R ! ) U 5.D q D ",
"D ) 0 c G ` 5     k k < k t.l w ; o     f a   % % %   . . . . . . . $ .   I G G E c 3.I ` r | I r 0 ",
"H G c G I R 6     k k +   k 1 ; @   1   a f a   %         . . . .       *.P G K I O.I 5.D P ) I D ,.",
"8 T 0 #.I 4 7.  >   ; +     + O   l A   f r.>   %   ` R           5.0 #.T T +.T O.D *.[ I T 0 T H 0.",
"! D I D [ 0 D   > >             1 ; ; ;   > >           P G I ' P W $.G r U ) e /  .*.L c D r I 7.I ",
"D [ D 0 ` +.E   a a   8 5.r D     ;     ;         . $ $   *.r P 1.) r T X.I D 0 I [ U ! I P &.c $.P ",
"0 ) T G ! ! *.  a     *.0 ) Y   j Z j     ; ;           I T R 9 4.P D 4.8 r 7.S ;.G @.0 o.0 J 3.0 I ",
"5.I S <.q #.D   &   r E D r |   u.u.j j       =     T 4 ] E G +.H ` U R D G U 0 $.R G G G *.0 | R <.",
"! r *.=.D H / r     0 E P G   j i.t.j =   ; j   a     I I D U ! ) 4.r  .3 <.r ! T E G I ' D $.I [ D ",
"4.I [ I T D 7.q H 0 5.0 r G   t.i.:.j   ..    a f > u   8 I T E 5.E G U U r r ) I  .r I D ! 2.q 2./ ",
"$.I D ;.R J ! I D 0 T ) r q   t.t.j j   ..E     q.q.> 2   ! E U ` D ! G F D T T D ! G ;.D I r ' 7.D ",
"! I D 7.D I D T I G 0 D $.P   t.t.j   O.D %.) D   q.q.> 2   O.[ P [ G r H ! e 5.T G G R G +./ 6.8 P ",
"G I 5.0 @.r I P I I H E q I   t.Z j   S ) r 7.q   i y.  2   T ;.r E ) 8 T I T <.D 0 ! D @.] I @.! 0 ",
"/ H R ! q *.q H P I D Y ` !   t.j =   / [ I I r S   y.>   K T ) E G G I c +.c 1.' I 0 I / ,.H I D ! ",
"&.S c q 3.P 0 D  .G T &.c   = j j   I #.D D P ) 0   d > 2   T #.0  .P r / D R R D I I c *.H 3.0 R / ",
"3 3.I P D F U r T / c $.I   f f     6 / ! 7 G ) H   > > 2   *.! U r P I T T U 4.0 I J [ D  .&.I D P ",
"P D &.8 / 7 ! U T / @.T H   > > a   0 I q T ! T r   2 w i   R ` D c / I R ! / ! D H r ! / R +.Y F G ",
"n I T x U D P U *.D I $.K   q.> >   r H ! 0 O.! 0 R       R 0 / q R $.P T / D 6.! r I 5.q  .T U ,.T ",
"8 n ~ Q Q T c R ! <.r @.P   a a >   G ] D [ 0 T ` / G 4.7 5.D D r ` D @.! O.I D I ` P E ;.D r U R r ",
"M :.v x :.Q P P  .R [ ! !   q.>   G 0 D ` T T 6 4.#.K I R <.H 0 r / ! D 6.H T T r P *.! r T X.I G 0 ",
"V b Z m ~ m ^ ~ T I [ c T   y.>   r r R D E T ! 2.T r ! I / 8 P *.D P W 1.D <.U ! 0 4.P G 4.8 r 7.c ",
"! G I P P ] P U P r 5.I D 1.0 *.r [ [ I r E D r #.q D T I D ` T T I / ,.T 4 ] E D O.G E U E D G U 0 ",
"I $.q I I T q c U ( ! D *.&.H G [ D T I q E I G 0 I K O.D r R I $.R ) G H I I r W R ) 5.D $.3 *.r / ",
"6 I E T D P G I U D 3.T O.I I D 4.r H 0 ;.0 r I T q #.) 0 ;.U G <.P H T r ;.8 I T E 5.E G I I r r / ",
"P U T D r ! I 9 *.) @.I q 5.R J ! I D 0 T ) r 0 I K D | D ` ! R ) T ) I H G 0 R ` U E D ` G F D T R ",
"Y / c P R D r =.G @.R T P 7.D I D T G G e D #.G D H +./ G O.D  .E D ;.8 T I S E O.) P ) G r H T r 5.",
"R G 9 / q ' I / T / G I 5.0 @.q U D I I D E r R ! ! ;.! U D ` D 4.0 #.0 P r | G T ;.e E ) 8 H I T <.",
"G ! 0 ! @.c ' / 0 $./ P R ! q ;.r G D I D I ` T [ D U 3.S ! [ G I r S [ 5 X.) K ! ) ) G G I S o.S 1.",
"0 I ! R 0 5./ I D $.+.F c q 3.G 0 r ..G H *.0 ;.[ T O.D I  .D D I ) 0 H T ! D ,.T $.0 X.P r +.D E R ",
"` I q 5.[ r E I O.*.3 2.I I D F U r T | c $.I ;.I ! ! O.7 / R 7 G | H ` D ) [ e *.K U e P I I E T 4.",
"q ! ] ! ` 8 $.I ` ! I D *.9 ! 7 ) W T ! #.T G  .G / I [ 0 I q T ! ! r ) T P O.R E X.D 0 ) U E T +.H ",
"U 0 [ ! ! +.D ` ] G r T T c U G D T *.G D #.K T Y ! I ! r H ! q ) K 0 R D 6.) T 0 ! S T #.D I +.G 6.",
"0 5.0 >.D 2.G 2.0 #.6 D E R T T D T E *.r @.P ] T P I D D X.c  .0 H ] / H 4.6 5.D D r X.D | ! #.I D ",
"q 5.J K ! T P / r R D  .r r O.T D P | E [ ! R 0 ) S ) G 0 G [ I T 8 3.#.H D T ;.G 8 r ) ) S 7.G H I ",
"' I I &.P U D =.D Y ! c ! P U G ) ! T T O.D T I I ` I 0 r E D W R ) <.! D ) G ` 8 I ;.r D W 3.r ,.R "
};
