/* XPM */
static char *_d524bac231a4cfd8333d755e75ef4c30MdLUjFqFKquEKiZ[] = {
/* columns rows colors chars-per-pixel */
"50 51 123 2 ",
"   c black",
".  c #22142F",
"X  c #20222F",
"o  c #4C3A02",
"O  c #560D23",
"+  c #553332",
"@  c #7A6010",
"#  c #0B0858",
"$  c #301D42",
"%  c #381261",
"&  c #750E40",
"*  c #3B4060",
"=  c #7F4E4D",
"-  c #56406B",
";  c #4E5476",
":  c #83203E",
">  c #86145A",
",  c #A01558",
"<  c #B72B4F",
"1  c #E33C72",
"2  c #A86B69",
"3  c #C74068",
"4  c #BA9831",
"5  c #BBA875",
"6  c #C4AF77",
"7  c #C6B177",
"8  c #CAB477",
"9  c #C7B278",
"0  c #CDB679",
"q  c #CEB87A",
"w  c #D4BC7B",
"e  c #D8BF7C",
"r  c #FBDD5D",
"t  c #D7C07F",
"y  c #DAC17D",
"u  c #211DA8",
"i  c #5E269A",
"p  c #5E6F86",
"a  c #C3388D",
"s  c #CD388A",
"d  c #DF5A9B",
"f  c #EE5FAE",
"g  c #F673BB",
"h  c #934CCC",
"j  c #B06DE6",
"k  c #CB8E8C",
"l  c #DA9E9C",
"z  c #F78396",
"x  c #CEB981",
"c  c #D4BE82",
"v  c #FF83AD",
"b  c #E2B8AA",
"n  c #F9B0BB",
"m  c #D6C084",
"M  c #DCC483",
"N  c #D7C38B",
"B  c #DCC68A",
"V  c #DFC88C",
"C  c #DBC792",
"Z  c #DEC993",
"A  c #DECC9B",
"S  c #E0C783",
"D  c #E3CA85",
"F  c #E9CE87",
"G  c #E3CB8B",
"H  c #E8CF8A",
"J  c #E7D08F",
"K  c #EAD18E",
"L  c #E4CE92",
"P  c #E2CF99",
"I  c #E6D094",
"U  c #EBD597",
"Y  c #ECD594",
"T  c #ECD596",
"R  c #ECD597",
"E  c #EAD393",
"W  c #E7D299",
"Q  c #E7D29A",
"!  c #E6D198",
"~  c #E7D39C",
"^  c #E6D29A",
"/  c #E9D398",
"(  c #E8D298",
")  c #EBD599",
"_  c #EBD59A",
"`  c #EDD698",
"'  c #ECD69A",
"]  c #E8D49D",
"[  c #EAD69F",
"{  c #EDD79C",
"}  c #EBD59B",
"|  c #EED89E",
" . c #EED89E",
".. c #E7D5A1",
"X. c #E5D3A2",
"o. c #E9D6A1",
"O. c #EBD7A1",
"+. c #EED9A0",
"@. c #EED9A1",
"#. c #EDD9A2",
"$. c #EBD8A5",
"%. c #EFDBA4",
"&. c #EDD9A4",
"*. c #EFDCA6",
"=. c #EEDAA3",
"-. c #EFDCA8",
";. c #EEDBA9",
":. c #F1DEAB",
">. c #F0DDA9",
",. c #F1DEAB",
"<. c #E7CFB6",
"1. c #F1DFB2",
"2. c #F1DFB2",
"3. c #F1E0AF",
"4. c #F1E0AF",
"5. c #9EAEC3",
"6. c #FF9FC0",
"7. c #FF9FC0",
"8. c #F6DEC6",
"9. c #F6DEC6",
"0. c #E8E9F4",
"q. c white",
"w. c white",
/* pixels */
"E y S J D N H Y D m     M O.w / c / D 0 L D y #.G >.M K E e D E w H D D >.Q G M V _ B J D ^ S P E y ",
"B L G S K L           v     S K L 7 L L G D K D U G #.N E D w Y M B L K P L m E M B L y Y B ' ' M E ",
"G y G M G   > a ; X a 6.q.    B D L c Q N _ M S _ G ..w :.y w E m F #.M O.K M D B H Y G I E F P O.D ",
"L B y O.  > a v ; a v d v a a   B / 8 Q w I D | D U G N / w B *.w :.E G _ 7 K M | D / K K H B K D E ",
"H L B /   a v v ; 6.d 6.q.q.>     y O.D P D D G ` D P B B D G M J #.M 2.w M D L M U E I D B U K E Y ",
"L M y /   a 7.v ; 6.v a a v a a   P V D m $.c O.P L w E c L G H G L H #.M w m L [ y { S E ^ B B M E ",
"I V Y D   a v d * v v 6.    > > >     D y K L S H O.D G M E x >.D E y Y D M w Y M D _ _ G D _ y D B ",
"8 E Y M   > d d * d 6.q.  2 k     u   E M e $.y H H E M m G Q D ' M D K D N ..-.B S #.y ' H S S E q ",
"B D L G S   a > X > d 6.d   <.2           #.D N { G w S G / N ' E D G w G B :.#.m [ w E ..G y c I D ",
"E G M L P   > >   X d v 6.  9.k + < 9.9.3     Q G D M H e L Y Q P c D m D 4.D #.M O.m Q M G G M w E ",
"#.w L Q c E   > p     d 6.> k + # 9.q.9.l : %   c D S L L D R H L D S [ c ' S Q K D G m P M Q B H G ",
"X.w E I y       q.5.  > d >   u # 9.l 2 + +     e ' c L E { B Y w Q e C $.e D E y G E w K D D -.P G ",
"V _ M Q c   a > p r @     a d   l 9.9.l     & ,   D L D K ' G M B B [ e E D $.E D w ' M B L K P I m ",
"B Z M #.S E           >       2 9.9.q.9.l     &   D L L E H E M S E m ` G E M :.y w E M F | M O.E M ",
"D P L M H e D D   a > >   1 9.l 9.3 z z 3 +         0 E E G Y M H M K O.w O.I / w B $.w 4.E D ' 8 G ",
"F L c ^ V L M           : n z 3 3 z r r : O 3 z : $   M $.w L S @.M D y E :.y B D B D G $.M 2.w M D ",
"q P L w E w G M H w E w   n n O   : 4 : @   l z $   .   { H B S G B Q E ;.0 M y L H G L E F O.M e m ",
"{ G c c H S M y { w y H   3 n 3     O o   l 9.z z k   S $.S w E m _ E D Q L w M I x %.D E y U B y w ",
"L G w D w S D L M H D w   i z z   %   3 3 3 z n 3 b b   N E B w D Q X.B D M L N G / F [ m S I D M O.",
"q E w D M M L w ^ M M D   i : z 3     3 3 z z z 3 b 9.=   M D D c | B #.w G I L I m ' E F H q H B 4.",
"E w c V H 7 O.w Z D m M   h i 3 3 :   3 z 3 n 3 =   2 l   w D G E m Y [ D N S m I ' [ P w B y D :.D ",
"B c V D L 8 Q m P M | F   j i       g p     3   l =   :     D y P Z H Q S N G I D E F P D S [ c { S ",
"H q / D 6 >.e D D #.M Q   h h i   g s 5.&     l 9.$     5.    D #.e / H H ^ D E { B Y w Q w C $.w D ",
"M D m E w M { E m K ' B P   j j %       & , s   ; $ l   5.5.p         M H J y K ' G M V B [ w E G O.",
"E M q H Q E B M E  .q #.M   j 3 3 % %     , ,   9.w.9.    5.0.0.f , 4   D B w E H E M D E B ' G E M ",
"L H B L L Q G I V m  .w E   h 3 r , % %     & & l 9.9.2 4 ,   , , , r   e :.m K G Y m D M H O.w O.I ",
"D c ;.e R S E I S y K M y   i h 3 , % % %         5 l k   4 4   4 4 p   V H w -.w L D #.M D M K :.y ",
"S O._ B D E c H D w E D M w   h i i % % % % %     : k = y     L       5 O.e L ' G B M G B ^ E ;.0 D ",
"D ( H G c >.e G w | q y M V y       i : : % %     :   s   G K %.H V D D y M E @.M w L m / E D / L w ",
"G e @.H Z L G c t G I y t J V M '   i : 4 : %     s f g   K F E M I B N m G G N E G w F / X.B D M L ",
"G S ,.c D c G D V w M U M M B ~ !   h % :   % . m   p , 5.    S E B m G G y @.G M D D c O.B $.w L L ",
"D %.w R e G M G D M J t J J L  .I H   h % %   X   H   , 5.5.p         G D D #.D w S V E M Y _ D M D ",
"M E L e { e D S S S V E L E c F $.M L         $   7   i , 5.0.0.f , 4   E m O.M M D y I Z G [ D B V ",
"c c e %.S w M E V G ^ c { E L E B D ' M m S I   .   L   4 ,   , , , r   N G L 6 G M D #.e _ G D X.G ",
"&.G D c N D M G P c ' D | M L H E 9 P L 8 D I B   $   I   4 4   4 4 p   H H %.M D E y H | M M F E w ",
"c _ q E 9 L F G L Y G D R B P G E w S y G L L y /     Q G     M       J L ^ G | M S #.E y G E D M w ",
"G G c F S D F { c D R L G G L D G y B H w Q G y G M -.Q G w L w G ' D D ^ N >.G L q %.S D *.0 y >.c ",
"S G L G G c H J O.c ^ D E D M S N B Y c U w V Y P B *.7 #.M M y E S U L _ D m K M ! V K H G m V F w ",
"R e e I L S S R H R J J w I c I S e M E G H 0 $.' V S G #.M w y I L N %.B D L y K J I %.M ' 5  .y P ",
"c L D H M P L H G ( c G D D E D m e H N H G E { G m I D E 0 M #.y S K $.y O.H B H K #.K B D D y y / ",
"M F G M y L G 0 _ L R G e +.G L L D M w D Q M w D L M U S E L G I G I D V B w J K H E M I B N m G G ",
"S E c M H c y _ S _ G G S >.c D m G D V w N { M B M ^ P M / M ' I M | 8 G D y K I ! S I M y B I y #.",
"L G w P e Y G L G L S G @.w _ e D S V D S H e D L L  .I H m E y *.w _ w D y Q B G [ t E I q G D D #.",
"c L q K _ c ` L q @.P B G L e | y V M S M D E L U m F %.m L E D D y m I 7 E J Z G ! I M D B t Q m #.",
"c D K L w %.L S S ` O.c c e %.S w S E G L / c { E G Q N D ' M m D I w Z G I M [ G U w U M y P M G L ",
"E D e @.E y J G ( | 5 @.G D S c D S H L c ' D { S L K E 8 L L 7 B E B K m I I t { Z F t S F G F H $.",
"e E E L I q R D J I D M { x ( 6 L H D L E G B ' M P D E w S e L L V y I G D Q G J E M w ! F G G X.G ",
"F q _ G J o.c E E M c G G c G S S D O.B B R Z G V L D L y B I w Q L y G y ;.! H w L t G U M G Q M ;.",
"w @.q U y [ B #.w Y 8 M K G G G m H E [ y _ M Y H M S M B U c Y w V U P B *.7 #.M M y E M E L _ D m ",
"e @.b L G J M I y K M ' y y Q G M S _ G I L J w I m I M w M / D H 8 *._ V S H #.B w t I L m >.M D G ",
"K S L _ S K M ' m G L w G D K M I I H D I m D F D E S y y K M K G I O.G y L V I 0 S | M S K $.M $.G "
};
