/* XPM */
static char *a72714df57964f38f6f8717a07177ae056fGDwowyswoPM85[] = {
/* columns rows colors chars-per-pixel */
"50 51 127 2 ",
"   c black",
".  c #060908",
"X  c #22142F",
"o  c #20222F",
"O  c #7A6010",
"+  c #301D42",
"@  c #381261",
"#  c #750E40",
"$  c #432A5B",
"%  c #3B4060",
"&  c #83203E",
"*  c #86145A",
"=  c #8D145E",
"-  c #A01558",
";  c #E33C72",
":  c #C74068",
">  c #DD527B",
",  c #BA9831",
"<  c #BBA875",
"1  c #C4AF77",
"2  c #C6B177",
"3  c #CAB477",
"4  c #C7B278",
"5  c #CDB679",
"6  c #CEB87A",
"7  c #D4BC7B",
"8  c #D8BF7C",
"9  c #FBDD5D",
"0  c #D7C07F",
"q  c #DAC17D",
"w  c #5E269A",
"e  c #7739B2",
"r  c #5E6F86",
"t  c #C3388D",
"y  c #CD388A",
"u  c #DF5A9B",
"i  c #E641A6",
"p  c #EE5FAE",
"a  c #F673BB",
"s  c #934CCC",
"d  c #B06DE6",
"f  c #CB8E8C",
"g  c #F78396",
"h  c #CEB981",
"j  c #D4BE82",
"k  c #FF83AD",
"l  c #FF90BF",
"z  c #E2B8AA",
"x  c #F9B0BB",
"c  c #D6C084",
"v  c #DCC483",
"b  c #D7C38C",
"n  c #DCC689",
"m  c #DFC88C",
"M  c #DAC792",
"N  c #DEC992",
"B  c #DFCC9A",
"V  c #E0C783",
"C  c #E3CA85",
"Z  c #E9CE87",
"A  c #E3CB8B",
"S  c #E8CF8A",
"D  c #E7D08F",
"F  c #EAD18E",
"G  c #E3CE92",
"H  c #E2CF99",
"J  c #E6D094",
"K  c #ECD392",
"L  c #E9D295",
"P  c #EBD394",
"I  c #EAD397",
"U  c #E8D296",
"Y  c #EBD597",
"T  c #EBD496",
"R  c #ECD594",
"E  c #ECD495",
"W  c #ECD596",
"Q  c #ECD597",
"!  c #EAD393",
"~  c #E7D29A",
"^  c #E7D298",
"/  c #E7D39C",
"(  c #E6D29A",
")  c #E8D298",
"_  c #E9D398",
"`  c #EAD598",
"'  c #EBD59A",
"]  c #EDD698",
"[  c #ECD69A",
"{  c #ECD79B",
"}  c #E8D49D",
"|  c #E9D59D",
" . c #E9D59F",
".. c #EDD79C",
"X. c #ECD79D",
"o. c #EBD59B",
"O. c #EED89D",
"+. c #EED89E",
"@. c #EED89E",
"#. c #E5D3A3",
"$. c #E7D5A1",
"%. c #E5D3A2",
"&. c #E9D5A0",
"*. c #E9D6A1",
"=. c #EBD7A1",
"-. c #EED9A0",
";. c #EED9A1",
":. c #EDD9A3",
">. c #EDD9A2",
",. c #EDD9A4",
"<. c #EFDBA4",
"1. c #EFDBA5",
"2. c #EFDCA6",
"3. c #EEDAA3",
"4. c #EEDBA9",
"5. c #F1DEAB",
"6. c #F0DDAA",
"7. c #F1DDAB",
"8. c #F1DFB2",
"9. c #F1DFB2",
"0. c #F1E0AF",
"q. c #F1E0AF",
"w. c #9EAEC3",
"e. c #FF9FC0",
"r. c #C78EF6",
"t. c white",
"y. c white",
/* pixels */
"A 0 A v S F F E Z q A m 8 <.j n C S j } c ' n q ] S #.7 5.q 7 J c Z -.n  .F n n A ) A S Z ^ v H ! q ",
"A m q ..n n V q ! ^ n n n ! q B n U 4 ^ 8 G n { C E A v ' 7 n -.7 5.! A ] 2 S Y v v H 8 K n E { n Y ",
"S G n U n           Z A O.7 ! c q q =.C ^ A V S ] Z H n n C A n G -.v 9.7 n C C A C K S Y ! Z H  .Z ",
"G n q E   % o t k *   G     q M 7 H n A c ,.j =.B G 7 F j G A S S J A -.v 7 c q ] C ^ J F A n F V K ",
"U m U   t % t t.k t t     k   6 ' c Y A q S G V F  .A A n D h 1.C ! q Y A c 7 G n ! ^ ^ C n U F ! E ",
"3 K E   k % e.e.t.k t * *     A q U V ! v 0 <.q S Z U c v C ) C { c C F Z v } G  .q ] C U ^ n n n D ",
"n C S   k % e.k t.u u t     u   n G 7 V ' -.C c O.A 7 C G ^ v ..Y C A 7 A n 9.K v C ' ' A C ' q C n ",
"! G n   k % k t.e.k t * t t.k               n ^ A A v S 8 G ' ' B j C q C 5.C 5.n V -.q E S C V ! 5 ",
"-.7 G   k % e.u k u u t * t *   w - - 9 : e   F 8 C n S ^ V Y Z H V v  .7  .v -.c  .8 U #.A 7 j J A ",
"#.7 U   t u o k u * t * u t.. @ s > : : w e   A 8 ] 7 G ! ..v Y 8 ^ q M -.8 C -.n =.c ^ C A A A 7 F ",
"n ' v )   t o t u t * t * k t   d s s s e @             F ' S n n n  .8 ! A =.) Z C m c G n ^ n A A ",
"n N n -.v   w.o t * * = i   k   s d d s s s d s - & & @     ! v C U c ] A ! c ! q A ! 7 Z C C <.^ A ",
"Z ^ G c S   t.r   t   = l     w s d d s e s > d & , , & @       A v S ;.7 ..G E C 8 Y n n G F H J c ",
"C G j ( M S   9 O *     i =   w r.d s s w e s s s & & & w   X n ;.v A q F 5.v 5.q 7 ! v A -.n X.F v ",
"7 G G 7 U 7 S       *   t     s r.d s s s w w e e e w w w   X   S n H G 5.6 V ) 6 A -.7 5.! A { 3 A ",
"' A j c Z n v q {         . @ r.s : s e s e @ @ @ w w w   X $ X   ..E C L G 7 n C n n A -.v 9.7 n C ",
"H A 7 A 7 V A A V C C   g ; @ s d > : e w s e           X X     A ^ #.n C v H 8 G A S G J Z O.v 8 c ",
"6 S 7 A v v L 6 ' n C   & x ; @ r.: s s w e s e e     X + + $ $     n -.7 S H v J h -.C K q Y n q 7 ",
"! 7 j n S 2 ;.7 N A c   : g g @ w r.s s w w : s s e   X +       $ +     A v n v A ) A O.c V J C v =.",
"m j v A G 4 H v G v ..  : & g :   d > : e @ > s s s @   X   A q     + X   n m A U c ] Y Z A 7 A n 5.",
"S 5 U A 1 6.8 V C ..n U     & :   w > 9 - w d s s s e @ X     C -.8   X   #.A 8 G E } H j n q C 5.A ",
"v A 8 K 7 v ..U j K U A H j   & :   : 9 - w e d - & e w X   #     ..n   X   8 ^ C Y Z G Z q } j ..V ",
"E v 7 S ^ ! n v U -.6 ;.q v C   &   w : - w @ r.: , & w @ X   d w   A   X   7 ! O.n ' 7 ^ 8 M ,.8 n ",
"L A n G G ) A G A j  .7 ! n Z   a a   w w @   r.: 9 , & w X   w w     6     q F ] S n n n  .7 ! A =.",
"A j ,.j ) V P L V q F v 8 ' 7 c   r w.        s d : , & w X +   # # ,   m A 7 K S F c C K v ] A ! q ",
"v ;.' n A D 8 A C 8 K C n 7 A m   # #     z   e s w & @ w   $   -   9    .q G F A E q A v G ;.8 ..U ",
"A U A A j 6.8 G 7 -.7 q n A q Y ^   -     f z   w s w w w   X $   , r   q c U 5.j G n O.v C q F 5.q ",
"V 8 +.S G G C j 7 C ^ v 7 C N v ]   y #     f     w e w @   X   $     M q S A ] A n n S n ^ L 5.6 n ",
"A V 6.v C V A V n 7 v ] V v n ( H   - -   !     p         $ +     +       q ,.,.V 7 S j ' U C ) G 8 ",
"C -.7 ) 8 C v A C n F 8 A G G ..G Z       4.8 Y       $ X   $       + X X   -.v ! A 7 A ) #.n C v G ",
"v G G 8 +.8 m V V v A ! S ) c Z ,.v H ! A C q j ^ 2       -   X       X X   -.A v C A 8 ..n ;.7 S G ",
"n 8 8 ;.V 6 V P m A U j ..U A ^ n C E v c V ^ 7 N A G C   r -               G C 7 V m U c ] ) A n V ",
";.A C j b C V A G j ] A ;.A G S U 5 G G 4 A ! n S v H   w.t.# - # # ,   A S <.n c C q G H S ( A n m ",
"j ..6 K 4 G Z A G ' A n E v H A K 7 V 8 A G G q ) A C   - - - - -   9   A ( A 1 S q C -.7 ] A A #.A ",
"A A j S n V A ..v V ] N G m G V G 8 n D 7 ^ A 8 S v <.  r , ,   , , r   ^ n 4.n A ! V F ] n q Z D 8 ",
"v S G A A q S K =.8 ' V ! A V V v n K j ' 7 m U H m ,.4       c       G ' C c  .q V ..G q A ! C v 8 ",
") 8 j ' A v V ] A P G G 7 L j L n 8 v U A S 6 ,.' m V A -.n 7 8 J G c 4.n A A S G 6 2.V A ,.4 q 5.c ",
"j D V S V H G S A ' 8 C C V E V 8 8 S v S A G ;.A c G n D 7 V ] v V S ,.c #.S F C ^ n F Z S v m A 7 ",
"A E 8 A C A 8 j Z ) G V ..' v A K v S V 8 U V n 8 C N ^ v q F A E F F n n C C q S G J <.v ' <  .q G ",
"4 C S A v V v A S V ,.A L A A j 6.8 M 8 -.6 q V A 8 U ^ 7 O.Z n -.v n A V { 6 C A F -.D n C Z q q H ",
"v S F j V G C 6 ..G P C 8 -.G A G V v 7 A G q 8 A G v ) V ! G A ! A J C A n 6 S F Z D v ! v M 0 A S ",
"V P j v S j v ) V ~ G A V 6.j C v A A n 8 v ] v j V %.G V ..j E D v O.4 Z A c F ^ ^ V J n q m A q -.",
"J A 6 J 8 ! C J A G n C ,.7 ' 8 C V n A n S 7 A L G ;.G Z j D V 5.7 ' 7 V q Y n A  .q F G 6 m C A =.",
"j A 7 G L j P G 7 ..H n G D 8 +.8 n V V V A ! G E j Z 1.v G P A C q j ^ 2 ! J M A ^ J n n C c / c *.",
"j S J A 7 -.J A j ] ~ n 8 8 ,.V 7 q K A A L j ..E A ) n C ..v j C J 7 m S G n ' A { 7 Y V q H v F S ",
"P V 8 ;.G V G C ' -.< <.C C A j C V S L j ' A =.V G S H 4 G G 2 n U n F c ^ J 0 { N C 8 V Z A Z A 4.",
"8 P K J D 6 E A K D C j =.5 G 4 G S A G ) A A ) V H A P 8 C 8 A H A q ) Z V U A D K v j J Z A A ( m ",
"S 6 ) A L ~ j L E V 8 A A j S n V A ..n V ' N A n G C G 8 n G 8 ^ N 8 S v 4.^ A 7 G 8 A Y n A ^ v 4.",
"7 ;.j *.v *.n 1.8 ] 5 V S A A A j S ! ..8 ) V P S V V j n E j E 7 m E H m <.4 -.v v q ! v U G ) A c ",
"8 ;.j H G A V J j S V P v j H G V C I G P G G 7 P j J V 8 n L A S 3 <.' m n A -.n 7 0 J J c <.A A A ",
"F V A  .V S v ' v A G h S V S V G G S C I j S C C P V 8 8 S v ! A J  .A c S A J 5 V O.v q F 4.q #.S "
};
