/* XPM */
static char *_da185b55fa34ff2d993a35d751a8c761DL1MCTEHMi4Lp2B[] = {
/* columns rows colors chars-per-pixel */
"50 51 129 2 ",
"   c black",
".  c #22142F",
"X  c #20222F",
"o  c #4C3A02",
"O  c #560D23",
"+  c #553332",
"@  c #7A6010",
"#  c #0B0858",
"$  c #301D42",
"%  c #381261",
"&  c #3B4060",
"*  c #7F4E4D",
"=  c #4E5476",
"-  c #83203E",
";  c #86145A",
":  c #A01558",
">  c #B72B4F",
",  c #E33C72",
"<  c #A86B69",
"1  c #C74068",
"2  c #BA9831",
"3  c #BBA875",
"4  c #C3AE77",
"5  c #C6B177",
"6  c #CAB477",
"7  c #C7B278",
"8  c #CDB679",
"9  c #CFB87A",
"0  c #D4BC7B",
"q  c #D8BF7C",
"w  c #FBDD5D",
"e  c #D7C07F",
"r  c #DAC17D",
"t  c #211DA8",
"y  c #3019A2",
"u  c #5E269A",
"i  c #5E6F86",
"p  c #C3388D",
"a  c #CD388A",
"s  c #DF5A9B",
"d  c #F673BB",
"f  c #934CCC",
"g  c #B06DE6",
"h  c #CB8E8C",
"j  c #DA9E9C",
"k  c #F78396",
"l  c #CEB981",
"z  c #D4BE82",
"x  c #FF83AD",
"c  c #E2B8AA",
"v  c #F9B0BB",
"b  c #D6C084",
"n  c #DCC483",
"m  c #D7C38B",
"M  c #DCC689",
"N  c #DEC88C",
"B  c #DAC793",
"V  c #DEC993",
"C  c #DFCC9A",
"Z  c #E0C783",
"A  c #E3CA85",
"S  c #E9CE87",
"D  c #E3CB8B",
"F  c #E8CF8A",
"G  c #E7D08F",
"H  c #EAD18E",
"J  c #E3CD92",
"K  c #E2CF99",
"L  c #E6D094",
"P  c #ECD493",
"I  c #E9D295",
"U  c #EBD394",
"Y  c #E8D297",
"T  c #EAD397",
"R  c #EBD597",
"E  c #ECD495",
"W  c #ECD594",
"Q  c #ECD596",
"!  c #ECD597",
"~  c #EAD393",
"^  c #E6D198",
"/  c #E7D299",
"(  c #E7D29A",
")  c #E5D098",
"_  c #E7D39C",
"`  c #E6D29A",
"'  c #E9D398",
"]  c #EAD598",
"[  c #EAD49A",
"{  c #EDD698",
"}  c #ECD69A",
"|  c #E9D49D",
" . c #EAD59F",
".. c #EDD79D",
"X. c #EBD59B",
"o. c #EED89E",
"O. c #EED89E",
"+. c #E7D5A1",
"@. c #E5D4A2",
"#. c #E9D6A1",
"$. c #ECD7A0",
"%. c #EBD7A1",
"&. c #EED9A1",
"*. c #EDD9A3",
"=. c #EDD9A2",
"-. c #EBD8A5",
";. c #EFDBA4",
":. c #EFDBA5",
">. c #EEDAA6",
",. c #EEDAA3",
"<. c #EFDCA8",
"1. c #ECDBAE",
"2. c #EEDBA9",
"3. c #F1DEAB",
"4. c #F0DCA8",
"5. c #F1DEAB",
"6. c #E7CFB6",
"7. c #F1DFB2",
"8. c #F1DFB2",
"9. c #F1E0AF",
"0. c #9EAEC3",
"q. c #9EAEC3",
"w. c #FF9FC0",
"e. c #FF9FC0",
"r. c #F9A5D3",
"t. c #F6DEC6",
"y. c #E8E9F4",
"u. c white",
"i. c white",
/* pixels */
"J O.3 P ..n F A F X.n A n I n ! M Z A L ) n F n ~ z J D n ;.J r L =.n $.b ) A A V N 0 H A _ A J L r ",
"J D K n D J M F &.n q P A F A Z P F n I 0 [ 8 D J A A F n A 1.[ n ) H A V n J M L N F D ! n R [ A R ",
"M m N [           A M H X.A n D D n %.0 [ z  .A 8 J n r ;.D ;.n H ~ z A ~ q S A A 2.) D L R F V %.S ",
"r R A   p x e.x p     A M H A ~ n E q Z F J 6 J J J A F A I J -.m I A q R n m J ~ J L b ~ D A H n ~ ",
"n F   = = = = & & p p   ! F   A J 0 ;.q M A D z _ n | n Z X.D %.0 2.n 0 L n S =.n %.~ n S m ~ H ~ R ",
"J M   X p x e.e.x X X       p   n D L n C M [ 6 ) q L M ..Z R D n [ 0 n :.9 2.~ A [ 5 F I ) N M n G ",
"r =.  p s x x x e.p X   u.i       ..0 ~ n n r  .A ) D Z F X.A K M M A M A D O.n 8.0 n N F A [ r A M ",
"I A     e.e.p e.u.x x   q.w   p   m E q B 9 K M n n >.z %.C D q ~ z J F H J L F ;.n q n ! F A n I 9 ",
"I M   x u.u.p     s e.s   @   ;   F 0 [ 0 ! n [ A n H D n H  .A D n J l ;.A G r [ A n 0 %.D 0 z L A ",
"A N I     u.x   j     e.s   ; ;     0 D A r K A ~ n b :.r H H L n n A _ F  .n A J A n %.M A D D q ~ ",
"..A n   x e.e.; 6.<     s ;     - u         J 9 Z ! =.A n O.A 0 A D L n [ ) F D 0 F M 9.J m I M F D ",
"F A A A   p e.p 6.h y u.; p   , v v 1 u f u             ) N A n H e J [ | J z N r A 5.A S A A 2.K D ",
"N D L n   ; p ; h 6.t.h   s   t.k v v - % f g g g g f u   r A n L L A I F J A n | z [ n m J H K K b ",
"V J F S n   p ;   < h + t   < j 1 O k 1   % u u 1 1 1 f f   [ z D ~ O.n R q ) q B -.0 A F =.n =.H n ",
"~ J Z X.F     p     + # # j t.t.1   1 k -   % u 1 w w 1 u   A J D G O.D n N M | 0 ~ D =.2.I D [ 6 D ",
"Z D n I %.  -   t   > t.t.t.1 k -     1 k 1   % u 1 1 : u       J ~ D H n A R n { D ~ n ;.n 8.0 n A ",
" ._ A A M   d       t.j t.u.k w 2 O     1 k -   % u u u f g g f   ~ D I n A n G %.q O.L J F =.n 0 n ",
"J D D =.A   a a     t.< j t.k w - o       - 1   % % % % % - - % f   q J n =.n A r H 5.r ~ r ! A r q ",
"q I D 5.  : a :     1 +   j 1 - @     d r.      % % % % - 2 2 - %   D n n H M K L 2.9 A n Z ~ A n @.",
"J ) Z ..  : a :       +     + O     : q.  d         % % % - -   %   Z 0 ~ b [ ~ A ) V q A D 0 D M 9.",
"D $.M m M   : :   0 Z   %           a : i         . . .   % % %     ~ D 0 A ) @.M A n K q A r A 5.A ",
"b [ D F [ 8     N n n I     %   a d a                   . . . . .     A A z O.M ;.0 J L A n _ z O.Z ",
"D n D +.n I 0 z n J 5 $.0 V     d r.:     : :   w 2 u.          . $     V I n ! [ A M n [ q B %.r n ",
"A A F b N N b m F J 6 L n J n     : :     : q.:   w q.@   P O.n     . $   J C D | Z m D m  .q ~ D %.",
"z A S ..6 F 8 ! A 4 5.q A A $.n       < <     i i   w   u.  ~ D [ 4     .   q [ F A +.D P m X.D I n ",
"@.z A A J n A r I 0 n =.~ z P E   h c c <         i   2 q.@   ! A n A ~     ..n n S J q Z F $.0 $.L ",
"Z L M q n [ n 0 D | ~ M n L o.9 =.  t.c <   q A n       @ @   =.M  .r A =.G r J ~ A n 0 n A Z H 5.r ",
"..9 z K 0 L D n J J [ A K D z ..0   h t.c <   n N D Z       F ! N D J 9 2.Z A ;.8 q 5.n m K L >.8 A ",
"Z A n q ..A m -.z [ n E J A r H n r   h c h *     D J A J -.D 4 ~ H Z ) M H S D r M F 0 [ I A [ D q ",
"q n S [ J r ..T n M P r F A q H n M q   * h   a     [ F L n m A A n F D L 4.Z X.3 %.q J ) +.M A n K ",
"n A F n ;.D [ A D n 4.q V 0 =.9 n n A q     a d : u   Z M A A O.6 A F H =.F M A A r r I ..M ;.0 J J ",
"D 0 ..J X.A q =.F V J A r 0 F [ r 0 D V n     q.q.: 2   K A N M 0 D L S ~ n K n B n D D n X.| A n Z ",
"r I n [ J D Z 4.n A n D A N q n T Z n Z _ K Z   q.q.: 2   8 F A n J ) L A L n r D J r =.C D | Z m N ",
"D J A K D A $.0 [ q A Z D M n J q D K J ..J S   i y.q.2   q Z r ) D D ..e ~ L 8 N A A $.q [ D F +.A ",
"P J 0 ..^ n D J q o.q A n A n A P D E z S ;.n K   y.q.:   ) 5 I J B J L ~ n A A e _ b -. .n n S L q ",
"K D n T | m z q -.n 0 r P N D | z o.E D L m Z X.  i : : 2   D J A | F [ 0 ! n r J n J D r D ~ A n 0 ",
"F D ^ o.3 =.D Z n m A Z F K z X.D ..n K L I 6 J J   : : 2   n J L q O.J A r Z A F F H 2.A :.8 r 5.b ",
"I D P L Z n $.9 L 5 L S N J I F D T n K A P 0 A q   2 w i   A A ) D D ! n 0 K A D D ) N S J r N S 0 ",
"z I P Z r D D z F n n S  .n A X.V D N J A J r M J q       F n 2.) D q J z D X.A D ) n 2.n X.3 %.r J ",
"M ;.0 T 8 Z A J D F n A ~  .r [ Z E A Z Z n m ! n I 0 N P K M ;.5 =.n n r I Z I J _ A n N A A r n L ",
"Z L q D Z [ r q ) V n A ! D I J ~ 0 L z I n q n L D H 6 ;.[ A A F O.n 9 e ~ J n :.N A D L n m b D D ",
"n X.n D J 0 D A H n ) J D F L n A A A I Z r z F n H D J %.N n J N L 9 N O.r n H -.r @.F M n N J r =.",
"J A 0 K q P M J D J M A 4.0 [ e A Z N A M ~ 0 F L J O.J F z J r 2.e R 0 A r ) N D O.e G L 8 N A D O.",
"m J 0 J [ 0 ~ ~ 0 X.) n D D 0 O.r N n A n A ~ D R e S ;.n J I D A r b L 5 ~ L N J ) L n N A b ) b %.",
"0 Z L F 0 =.L M n [ _ m n 0 ;.n 0 r P N D [ z ..I D ) M A [ n n N J 9 N J J N  .F Q 0 ! n r ) n D J ",
"~ A q =.L r ~ A ) ..3 $.A A n m A Z F L z E D ..Z J ~ L 6 J J 5 N ~ N H b J G e ..V S b A A D S F 2.",
"0 ~ E J ~ 9 [ A H L A n  .9 L 5 L S D J [ D M X.n K A ~ 0 A q D J J r I A S ) D D R n 9 L A D D _ N ",
"F 0 [ D J _ n ~ P n n D A b F n n F ..m Z T V D N J A J r N J 0 ) D r D n 2.L F 0 J q F ! N D ) n 2.",
"0 $.0 %.n | M ;.0 X.8 n F D D D n F H ..r [ A ~ A A Z n m ! z ! 0 N R J m :.7 &.n n r ~ n [ J [ A n ",
"r =.B V D J D J z F Z ! r r L J n n X.D I J D 0 L b L n q n I D F 6 :.[ V A F =.n 0 e L J n 4.N N D ",
"~ Z A  .Z D n E n D J 0 J A F n K D D F ) n F A A I Z q r H n H D L %.D n D N L 9 n O.n n H -.r @.F "
};
