/* XPM */
static char *result[] = {
/* columns rows colors chars-per-pixel */
"50 51 85 1 ",
"  c black",
". c #050909",
"X c #22142F",
"o c #20222F",
"O c #7A6010",
"+ c #301D42",
"@ c #381261",
"# c #750E40",
"$ c #432A5B",
"% c #52336F",
"& c #3B4060",
"* c #7F4E4D",
"= c #83203E",
"- c #86145A",
"; c #8E145F",
": c #A01558",
"> c #E33C72",
", c #C74068",
"< c #DD527B",
"1 c #BA9831",
"2 c #BBA875",
"3 c #C3AE76",
"4 c #C7B277",
"5 c #CBB577",
"6 c #C7B278",
"7 c #CCB679",
"8 c #CEB87A",
"9 c #D4BC7B",
"0 c #D8BF7C",
"q c #FBDD5D",
"w c #D7C07F",
"e c #DAC17D",
"r c #5E269A",
"t c #7739B2",
"y c #5E6F86",
"u c #C3388D",
"i c #CD388A",
"p c #DF5A9B",
"a c #E641A6",
"s c #EE5FAE",
"d c #F673BB",
"f c #934CCC",
"g c #B06DE6",
"h c #CB8E8C",
"j c #F78396",
"k c #CEB981",
"l c #D5BE81",
"z c #FF83AD",
"x c #FF90BF",
"c c #E2B8AA",
"v c #F9B0BB",
"b c #D7C083",
"n c #DCC483",
"m c #D7C38A",
"M c #DCC68A",
"N c #DFC88C",
"B c #DBC792",
"V c #DEC992",
"C c #DFCC9A",
"Z c #E0C783",
"A c #E3CA85",
"S c #E9CE87",
"D c #E3CB8B",
"F c #E8CF8A",
"G c #E7D08F",
"H c #EAD18E",
"J c #E4CE92",
"K c #E2CE99",
"L c #E6D094",
"P c #EAD394",
"I c #E6D29A",
"U c #EBD59B",
"Y c #EED89E",
"T c #E6D4A2",
"R c #EBD6A1",
"E c #EEDAA3",
"W c #EEDBA9",
"Q c #F1DEAB",
"! c #F1DFB2",
"~ c #F1E0AF",
"^ c #9EAEC3",
"/ c #FF9FC0",
"( c #C78EF6",
") c #F6DEC6",
"_ c white",
/* pixels */
"JDZHDDMFSGnPeeFJ4JJJADAPDWbPD9PAmJHKLbJMNIDDAIZJLe",
"bDnFPFPFeDV0EnMADlInYnZUDT9Qe9LMSEnRPnbPnMJeYnPYNP",
"DeYn     NnNPnCMI6L9LnYnPDmI9ME9WPDU6GeAnSPFLPFJRA",
"NMI &u_zu  Y  eeeYAIDZFUSJMMAMADEn!9nDJeYDIGGFNHZP",
"ne z&//_zp- -  9KDMnRlYCJ9PlJFDJLSYn9ePJnPPLDMPGPU",
"DP z&/z_ppu- z UeUDeHJnHIDFnJkEAPePNe9JJReYAPINMAH",
"PU z&z_/zu-u_- ZLAPnbWeSFInbDISYeALSMIIPMnYUFAIeAM",
"DD z&/pzppu-u. bJ8ZPYAnYD9ADLbYPDF8DN~FQnZYePFnZP8",
"DM upozp-u-p_z.S    WMLDAnHeLUYV9DeAQDPEnYwPRD9lLD",
"9JI uoupu-upz-  r((@ DPeAZDLAPFJDZIlUnJEMRwInDDM9H",
"9PL ^yo--;;a   f(t==@     DPYMU9I9BR0nnISNVbJMLNFD",
"UnI _y u ;;xp rgf=11@   i# PUGnMmY9PFRPPwAP9SAAWJD",
"VnRZ qO-  a; r(ft@@   rrr     nAPnUFPnnPnePnmJHILb",
"IJnFe        r(gfffgg(((ggtXXX  nHR9RJ9Qn9PnFYnRHM",
"JlIBDn     frf((ffgg<g====rtX$+ nAePQenI9MW8QPDU4H",
"JJ9P9JnA9  fgggfg(gfrr==11=rXX DMKPW7AmMAMAFRn!9Mn",
"DlnSDZeU9 >r(gffggfrr@   @=@ X+ UPAIJ9PlJDFJPSRn9n",
"D0M9nAJZD vr(gfftffr  XXX   X  DITMAnJDnGkEDPePDe9",
"P9NenP9In v (<, @rrr  X++++X     ME9FJnnDIAYbZLAnT",
"9lM       j g<<t  fr@ ++XXX++$%%$ IDMZADJnYPSD9DMQ",
"   ^#s h) , tg(((f fr X+       X$+ nmDHeJUYClNnAQA",
"^^#::s cc  , t<<<f <r@ X * 3JeS  X FIDJJAPSJAeIlYZ",
":::::#s* d = r=11@ ,fr@XX*s APZDY  SJeJPYnU9U9BRen",
"         d:i  === tg      s:  RPe  Dn9DFUDAMMY9PDR",
" MJJUD  iid M     @( ((gfr ::#  DW5eQnJPDHnAPnUDPn",
"lR9Un ddi: eUeeF   ((g<<<rX ::gr DeNA9PHDPnFnFY0YI",
"RInMP ddi AM9ANIne f(<11=rX y:rr  2R0JnQ9JMYnDePQe",
"IFDnW ii 9eZD0IP9Y  f=11=@X _#:##1 eePeUDMZFmKGQ7n",
"eYJNJA  SJn9DJMUZPF @===@  X ::: q nDDZWZ9JlUPAIJ9",
"eQnAnDDM9nUnnnIJnIn +    X X+  11y D0EPMPD9DITMAnL",
"E9UeAZNANH9DJJYJSlLe  XX X  X+    DADYPDnAA9YME9JL",
"DH9YeNnZeDPJPeAWnKPDA + $+ V ++ MDlIlRJA9ZJPnPIDnZ",
"n0En9ePNDU9YPJLMAPMn ++   MYD %+ eKnDDEnnDeJJJIZmJ",
"NZnMAnHLbPDEnJPL6LD6D  PnJP9Y $$X  SDWY3DnAE9YFDID",
"Y7L6LSNJPDNPnKNP8A0DLDlIFAIDHP XXX DTDZnAPZFYneSJw",
"DlSMnSYmnYVDDJAD0DL0ID0FeWKD9L9   DInWMYeZRGeJPAn9",
"FDDDeFPUeIZPDZAnlUlU9DPKNE6EnnePnUJIAnADD9QeZE8eQn",
"n9IJnnPFPJF9JbLn0nPDS7QPNADRM99LJnWMDDPHZKNPSDnNS9",
"DZFMJJFDIeDAAPZe0HnFDJRDnJDP7ZYnnHWeTSAeFJPEZU2R9J",
"7DFDnAnDFnWDLDNnW9J9E8eZD9PJ9YSnYnMDnU7DDHEDMAAenP",
"nSDnZLA8YJUA0YFVLDn9DKn9DJlUZHJDLDLANM9DHHPnLMmnDD",
"ZPlnFleIZIDDZQeDlDZD9nYZlZUKZUnPGnY7SDeHLLZLneNJeR",
"LD9K0PDJDJMDE9I0ZZDZZL0DLDYGSlLnW9U9neINFY9GL5NADY",
"lD8PPkPL9YKnFG0Y0DnZnZPDUlSQlKPDAebL4PLBJJLNMDwIbE",
"kAHG9EJZnUUMl0Wn9ZPDDPlYPDIlAPMnAL9NDLnYAY9PZeLMDJ",
"PD0EGZLDLR2EDZnmZZDLlUZEZLPU6KD6NLMHbLLwYVSbZADSFW",
"lPPDG8UAPGAlR8G6LSDIUDlPMKDH9ZlDLVeIAAIDDPn9LADDKN",
"S8UDLUlLPZeDDlFnZSRlZUKJMJSD0DH0LDeDnWLF9L9FYnDInW",
"9EkEnRME9U7MFDDDlFPR0UnPDZZlDPlP9NPJNW6EMeePnPJUDn",
"0ElKDJML0HZPn0IDZZPDPGH9PlLZllPDF7WUNnFEM9wLJnWnDD",
"HADUZFnPnDHkDAFZKGDDUlDAAPZ0eHnHDLRDnDNL5ZYnnHWeTF"
};
