/* XPM */
static char *f43ee1f1b43947f0c8124ab522b7d993cqZurwfc3fymvo1N[] = {
/* columns rows colors chars-per-pixel */
"50 51 125 2 ",
"   c black",
".  c #22142F",
"X  c #20222F",
"o  c #4C3A02",
"O  c #560D23",
"+  c #553332",
"@  c #7A6010",
"#  c #0B0858",
"$  c #301D42",
"%  c #381261",
"&  c #3B4060",
"*  c #7F4E4D",
"=  c #4E5476",
"-  c #83203E",
";  c #86145A",
":  c #A01558",
">  c #B72B4F",
",  c #E33C72",
"<  c #A86B69",
"1  c #C74068",
"2  c #BA9831",
"3  c #BBA875",
"4  c #C3AE77",
"5  c #C6B177",
"6  c #CAB477",
"7  c #C7B278",
"8  c #CCB679",
"9  c #CEB87A",
"0  c #D4BC7B",
"q  c #D8BF7C",
"w  c #FBDD5D",
"e  c #D7C07F",
"r  c #DAC17D",
"t  c #211DA8",
"y  c #3019A2",
"u  c #5E269A",
"i  c #5E6F86",
"p  c #C3388D",
"a  c #CD388A",
"s  c #DF5A9B",
"d  c #F673BB",
"f  c #934CCC",
"g  c #B06DE6",
"h  c #CB8E8C",
"j  c #DA9E9C",
"k  c #F78396",
"l  c #CEB981",
"z  c #D5BE81",
"x  c #FF83AD",
"c  c #E2B8AA",
"v  c #F9B0BB",
"b  c #D6C084",
"n  c #DCC483",
"m  c #D7C38B",
"M  c #DCC68A",
"N  c #DEC88C",
"B  c #DBC792",
"V  c #DEC992",
"C  c #DFCC9A",
"Z  c #E0C783",
"A  c #E3CA85",
"S  c #E9CE87",
"D  c #E3CC8B",
"F  c #E8CF8A",
"G  c #E7D08F",
"H  c #E9D18E",
"J  c #E4CE92",
"K  c #E2CE99",
"L  c #E6D094",
"P  c #EAD397",
"I  c #E9D295",
"U  c #EBD597",
"Y  c #ECD495",
"T  c #ECD594",
"R  c #ECD596",
"E  c #ECD597",
"W  c #EAD393",
"Q  c #E7D299",
"!  c #E7D29A",
"~  c #E6D198",
"^  c #E7D39C",
"/  c #E6D29A",
"(  c #E9D398",
")  c #E8D298",
"_  c #EBD599",
"`  c #EBD59A",
"'  c #EDD698",
"]  c #ECD69A",
"[  c #E8D49D",
"{  c #EAD59F",
"}  c #EDD79D",
"|  c #ECD79E",
" . c #EBD59B",
".. c #EED89E",
"X. c #E7D5A1",
"o. c #E5D3A2",
"O. c #E9D6A1",
"+. c #EBD7A1",
"@. c #EED9A0",
"#. c #EED9A1",
"$. c #EED9A2",
"%. c #EBD8A5",
"&. c #EFDBA4",
"*. c #EFDBA5",
"=. c #EDD9A4",
"-. c #EFDCA6",
";. c #EEDAA3",
":. c #EFDCA8",
">. c #EEDBA9",
",. c #F1DEAB",
"<. c #F0DCA8",
"1. c #F1DDAB",
"2. c #E7CFB6",
"3. c #F1DFB2",
"4. c #F1DFB2",
"5. c #F1E0AF",
"6. c #F1E0AF",
"7. c #9EAEC3",
"8. c #FF9FC0",
"9. c #FF9FC0",
"0. c #F9A5D3",
"q. c #F6DEC6",
"w. c #E8E9F4",
"e. c white",
"r. c white",
/* pixels */
"N ) D W r Z W A m F Y A z H D n { q L z { A 9 J Z r &.D ,.n W W q D P q F A Z :.~ D N D A ^ n L I r ",
"D D V M J D Z H J D n W A W n P r n H J 7 J J J S D Z Y D %.b W Z q Y n M J H J L b J r R n ' ] n P ",
"D P H D           F W F r D V q *.q M Z D z ^ n ~ n Z ` D o.q :.r 0 L n D ..n +.T n Y H ( P D J +.S ",
"J r }   = X p   x     W L M Z D L n C M ` 7 ~ q L D } Z Y D n ) 0 N #.0 ,.W D } 7 H ~ G H D D H A W ",
"n M   p = p s 8.e.  x     D S | 0 W     r +.A L D Z F Y D J M M Z N Z D *.n :.q n Z ` L D M ` H W P ",
"D |   x = x x 8.e.e.8.p ;           : :   D M r *.b X.C J q W z L D G J L D #.n q n ] Z W ~ n M n G ",
"D T   8.= 8.x p p x 9.v p p   - d a a a :   D q D J n H ^ D D n L l -.Z L r P N n 0 ` ` D S P r A N ",
"W D   x & 8.x 8.    ; p ; ; p     a : : :   W n n &.r F D P n n D ~ S ..r A G A n X...r Y D n A P 9 ",
"r D   p & x 8.e.  j 2.2.h     t           0 r P ..Z n ..D q Z V L n ] P A G 0 G N 6.q W X.D e z L Z ",
"A S D   p X p x s   < h 2.<             D 7 T n >.M L N Z n H r L ] [ C b Z r Z ,.Z b ~ Z D D n q H ",
"W n J   p X X x 8.    y q.h + > q.q.1   0 n Z %.D J H q D n J L Z P S ~ n n } z ` n V n J M ^ N D D ",
"F S n o.        s 8.  e.h + # q.j < + +   n W T M W D r ] 0 D W ..n P 0 [ r B %.r Z L q F Z Z :.~ D ",
"Z ` D M `   e.7.  s s ;   t # q.q.j     %   Z D } N J q D D D H ] G n N m [ q L D +.Y n m J H ~ L b ",
"n W #.M V   i w @   ; p s   j q.e.q.j       r L ` W D 7 A L J W D H n Z W n ` D P n W n S #.n +.W n ",
"D S M S   p       ;       < q.1 k k 1 +   %   W L n D N W 7 L H D P n D n H #.q #.P -.0 ,.W D P 7 H ",
"D ..Z D J     p ; ;   , q.j q.k w w - O         +.q Z D r #.r :.e J n ..n A r H ,.r n D +.n 4.q n D ",
"D <.F 0 K D         - v k 1 1 - 2 - @     a d       Y D 9 #.n } F n Z F M K P *.9 n F J L S #.n 0 n ",
"n { n | D z n D D   u v v O     O o       d 0.:   h     G Y Z #.n 9 W z ` P D ) V q &.Z H r P N n 0 ",
"M M M J D q D 0 Z Z   1 v k 1         : a a : :   c q.h   D P n W D 0 D ~ o.M Z n J D ..b A L A n o.",
"D D ) 9 H 0 M n n L   u - 1 k 1     d 7.:       < c c q.h   ` D n A D q #.M #.0 D L ] P S D 0 G M :.",
"D ^ n J z z M F 7 +.  f %   - k 1   0.  i       < < < c c -   T 0 r D W n Y ` D n Z ` C 0 D r Z ,.A ",
"F n N M z n D J 7 )   u f %   1 k -   d     : :       < h h     n D n J C D ^ n M J D J Z n [ z ..n ",
"S #.7 F 8 Y A 4 ,.q Z   g u %   - 1         : 7.    M   *   s   D n A #.q ` D S o.D P q ` q B %.r Z ",
"A Z J n D n W 0 n | P   g u u %               : i   n ..  a d 7.    A H ] n r S D n n N M [ 0 W D +.",
"N q n W n q D { W n n   g 1 1 u % % %       w   i   S N     : 7.7.i     r J W A n 0 n Z P n } D P n ",
"z J 0 P D n J J ) D J   g 1 w 1 u % %   .   2 w   i   n D   u : 7.w.w.i     8 r ,.z n D n F | q +.L ",
"n r #.Z m %.q ` Z W L   f 1 w 1 u % % % .   e.7.w     %.D 4   2 : 7.7.: : 2   N D q D ..n A r T ,.r ",
"S L J n { ) n N W r D   u f 1 : u % % % .     @   2     M D Z   2 2 : : : w   +.r J n F m ~ J :.9 n ",
"D n *.D L D D n :.r B 0   f u u f % - %   .     e.7.@   A ..9 D       2 2 i   r r L W z ` W D P J q ",
"| L Y D r ..J M L Z n q D       g - 2 - % .   D   @ @   M n 0 D H F L       M z D D 0 D ~ o.n D n J ",
"Z ) D D Z ,.n Z n D D N q n }   g - 2 - % .   } L     9 Z D r D L L A L M n N J r #.Z z +.M #.0 J L ",
"D J n D #.0 ) r Z Z N Z M F q   f % -   % .   r ,.q P q A n ~ D D { r H J 8 D Z D +.D W n Y ) D n Z ",
"0 | K n D J r } r M n A r D W D   f % %   . .   D r z ) 5 W J V D L L n D n n ^ b +.r J V J ^ n m D ",
"n } ^ m z q *.n q r Y N D ` z | )           $   n W 0 V D J n { D ` e ' n r J n D J S ..q ` H D ^ D ",
") @.3 $.D Z n m A r F L b Y N ..Z J H P 7     .   L M H n ~ L b } V S e A A D D D -.n H ..n r S J q ",
"W G Z n +.9 L 7 L S D J P D M Y n K D T q A   $   D r ) D Z L D D W n 0 L A G D ^ D #.J r D W A n 0 ",
"W n r D D z F n n S | M Z } V D M J A J r N J   .   r D r ,.L D q J q D ` Z D ~ n %.-.A Z -.6 r ,.n ",
"0 } 9 n D D D D n S W +.n ~ Z T D n Z n n Y z W     P K N &.7 #.n r r W n ` J ` D n N H S L r N D 0 ",
"q F Z ) n r P D n A Y D P D D q ) n L n q n P D F 9 *.` N Z D #.N 9 q L J b -.n N D L ;.A ] 3 +.r J ",
"n D J 0 D A D M J D D D ~ r D D Z W Z r q G n S D J +.D n J N H 9 A ..n A H %.n X.D ;.D M A A r r P ",
"Z D D M n J Z 9 { L } Z r | D V J Z n 0 D J r 0 D V M Y Z Y L F L D L A N N 0 D H S G n L n B b D D ",
"Z J n n F n r P n ) D D Z ,.r D n D D M q n } n n D K J Z  .z ' G n ..7 A D r G ~ L A L n n N D r #.",
"J D 9 J q W D J D J M D #.q ` r A Z D Z M F q D J J ..J F z I q ,.q P 0 A r ` N D ..e W L 8 N A D { ",
"B D 0 J P z W W q { ~ n J D q | q M n Z Z D W J W z S <.z J W D Z r b L 5 W G B J L L n n D e ^ b #.",
"9 A G G 0 #.J n r } ^ m r q %.n 0 Z W D J ! z  .W D ) m A Y n z Z L 0 V D L n { D ] 0 P A r C n F J ",
"H A q @.W r L D ) | 3 #.D Z n m A Z D I z Y D @.A J H I 7 J J 7 D L M H b ~ I e ] V A e n S D S D -.",
"q H Y J W 8 P D H L Z n } 9 P 4 J S D J P D M Y Z K D H q A q J L V r ~ A A L D H W n 0 L S H D ^ N ",
"F 9 I J J ^ n W Y n r D D z H n n F +.z D Y V J M J A J q M J q L D r D n :.~ D q L q G P n N ~ n :.",
"0 @.9 O.Z O.M @.q ' 6 Z F J D D z F H O.z  .Z Y F Z Z z M W z Y 0 N P J M -.7 ;.n n r W n ` J ~ D n ",
"q =.B C D J Z G z F Z Y z q K J Z A Y G W G G 0 ) z L Z z Z I D H 7 *.` V Z D #.n 0 e L L b -.D N D ",
"H A D  .A F z } z G G l F A F Z J J D A ) z D A A H A q q H n H D L ..D n D N W 9 n ..n n H %.r X.D "
};
