/* XPM */
static char *result[] = {
/* columns rows colors chars-per-pixel */
"50 50 43 1 ",
"  c #BCA975",
". c #C2AE77",
"X c #C6B177",
"o c #CAB477",
"O c #C7B278",
"+ c #CCB579",
"@ c #CEB87B",
"# c #D4BC7B",
"$ c #D8BF7C",
"% c #D7C07F",
"& c #DAC17D",
"* c #CEB981",
"= c #D4BE82",
"- c #D6C084",
"; c #DCC483",
": c #D6C18A",
"> c #DCC68A",
", c #DFC88C",
"< c #DAC793",
"1 c #DEC992",
"2 c #DFCC9A",
"3 c #E0C783",
"4 c #E3CA85",
"5 c #E9CE87",
"6 c #E4CC8B",
"7 c #E8CF8A",
"8 c #E7D08F",
"9 c #EAD18E",
"0 c #E3CD92",
"q c #E2CE99",
"w c #E6D094",
"e c #EAD394",
"r c #E6D29A",
"t c #EBD59B",
"y c #EED89E",
"u c #E6D4A1",
"i c #EBD6A1",
"p c #EED9A3",
"a c #EEDBA9",
"s c #F0DDAA",
"d c #F1DFB1",
"f c #F1E0AF",
"g c #F2E1B4",
/* pixels */
",t t=,66r;ee4w>6r4e>,qe%6s6-9;&s3&946t-e;>0&e>tt,e",
"3636e$e=r66r#ea#wt#w4t5;a$w4a9#6;e;6$y-546e6we50r5",
"63&wr$140r>r,65>p#rw#;t6w;ey$:r+;p69#10-y6eee6694e",
"6&&e4t-,03y4rw&;p@e1$pwXgOer;r#q-t64$0e6;er04>e6we",
"e-6w3>66t;r56004>6e7#re;6&y6=i#66563t606r&t4er,>>e",
"90;;640r;5663e;,y$60r;66;t#e=,r&r&0w;6re>4tt54e&4,",
"594$50p+y636e;4p;,,55ey#4r=wt$0:;0966,6s>;y&t933e@",
";;&p$6<0i#6,u,:6w06=r3r$ww;:67$;9t&;p4ty;t%er6&=w4",
"#6e$4eep ei;756t&6;e;e6;50r&5=e=66-a6&wp;i-r4663$9",
"446>;9,,w;60>7y;&94953e7;0#t@78656-5at;r96,-1>r,66",
"=,r$;y>>6r0e&365,5t6=06;i$w=r6+03&s6s;ee&6e$544aw6",
"6t$0:r&t61,>063906;967-e&380O000564e6i:e>$e;>09qw-",
"6e&46e;55w76=6;677e5&60$p$,36=r;r,3e0u$s&$w-6y;ie;",
"6$5e4q0;0&y66-y;,;-e0,;6e=2,e+r$06t4e6;e#;p#se6tX8",
"w-09t4&p;,666;r,,6e&=56y#e=&;r5q6;6t50;,4,46p;d#;4",
";;0;66r46y$0,$e,q63e6=0>e$<#q63=p=i20#e=069005p&$-",
"6;>t4;w;5e;8,e6;67e&;767#r@e;e6;7037i66;8=i4e&e,=#",
"63q=p;4,e6pOee;;r&=y&7=0#063w3e;$s$75r;-6r5y-4e53u",
"$e$p6=y4;6a6666;57603;$6e&0=0#3ei3;i6#30e;re46#66s",
"8;5i7366356e0;0q=65-80;#63065Oe=a,066;7$0trq=4&6s6",
"#=e6;q66w;0i#0q=7,#e6>;3$e:e#;6u56e$53w64r6043r=e3",
"6670376<753u$e8;5r;,=0,;3&t=0=ee>e3$e*0ey;e#r$<p=3",
"e4#p@;e06e6,r;r=;0r==;6;330O0p36y00$664et66,>r$e6i",
"ee=63p;638i,0;p37@,6<:0@6,6;ee$8ee4O4q0e69;4e;t6e;",
"=t#p3;yq54>4e0;6&65+e&65q33&p$rew=6<8+ee6e=4;7i$iw",
"t33w00006p360=r16;#6;=6$7;36y0-6p=44=p$a=04p;7&7s&",
"3ye#u8$86a9@00#e$6&6$e&&p+;t3y6e3=e7#i3y7638>qwa@3",
"3t5e3r0r3y$y,==54;&t$%6,:6006e-e36u.7e3p;#8=te4r0$",
"y96r606i,>,w6#3$;60354@05-y0po84t44=e7e=86+4ru:5;0",
"4=p03r:e05r+9#6-;w#r3360&e6e64r-7=3w3rt6344=t6p#00",
"60@e8e836r-e#=;e.p#16-;p-e6>6p,#77876804#36r=tt6>3",
"=775ee446=6,-:50Oe-1;y66r&r6;w#663=ei3p334;000r3:6",
"4t&y=e#67pO7@e4Xs$43p;0;w=i;3;53t3>ww7t.635p$t54u6",
"3i9+dOq=430;6$e@;ye=9t60*t;$6y=;<e;y3e3;4e35t;;58$",
"6>7t7+486#3e=#ere>;tp@p33360$53@7p343p3t$3p0&0e36#",
"3e=y6#t#=0@87>00t404=t#944==t=363d=36t,50@s34p+$s=",
"03633e353$p4=p=e&ee3;7;=t$;63;96660i0.e93q6e57;65#",
"6e$736==7w0;pt=6w;73$e43#46r3$w6t70>>43;700p3t i$0",
"O4e6=3367;p7w70=s$6#p@&36=r0#y5;t3>63y+367a7=43;;w",
"346=304+y0t4$p6006=#50&#66;t3w05e604>>#0w703t6==66",
"30=37=;t;e06;s;6=04>@3t3;3rq3t=t83i@77=8ew4e3$60$i",
"06=0$e406q36p#e$43643w#600p05=w;s=e#3=e67t=0r+646p",
"<7@we=e0@y03w6$y$3;33660t=4p=ee66$=rXe8<0w0364=r=p",
"#3e6#aw3;ti==$p;#3e60w=pe6e>3t3=38@6663i6e$e3&q=70",
"94$i6;e6ey p43=64;6w=t4y40wr+q0O6w>e=0w=t04$34756p",
"$ee0e@e4e03;y@w.w560e6>r>w69@3#606$r53r66e;=q466q6",
"5@e06u=ee3&66=7>35p=4t06603w$66$q6$7;ar6$0=7e36r;a",
"#y=t;p3p#to>7666;59t=t3e433;6e=e#6eq6pOp;3$w6e0r5=",
"$p=2004e$73t$$t0;3t6e7w#r=e3$;e67+pe037i,@$80;a,66",
"e46t30;e;00*73640004r=453e3$$w;960i0=068+3i;37a;u6"
};
